<?xml version="1.0" encoding="UTF-8"?>
<svg id="Layer_1" data-name="Layer 1" xmlns="http://www.w3.org/2000/svg" width="50" height="50" viewBox="0 0 50 50">
  <path d="M28.29,27.1l17.8,7.82c1.86.82,3.91-.61,3.91-2.71V11.13c0-1.66-.97-3.15-2.45-3.77L30.43.21c-1.85-.77-3.86.65-3.86,2.73v21.45c0,1.18.68,2.25,1.72,2.71ZM24.81,29.28l-16.87,7.41c-2.25.99-2.31,4.3-.1,5.37l15.51,7.56c1.04.51,2.25.51,3.29,0l15.51-7.56c2.21-1.08,2.15-4.38-.1-5.37l-16.87-7.41c-.12-.05-.26-.05-.38,0h0ZM23.44,26V2.94c0-2.08-2.01-3.5-3.86-2.73L2.45,7.36c-1.48.62-2.45,2.11-2.45,3.77v21.08c0,2.1,2.05,3.53,3.91,2.71l19.23-8.45c.18-.08.3-.26.3-.47h0Z" fill="#c0c4ca" stroke-width="0"/>
</svg>