<?xml version="1.0" encoding="UTF-8"?>
<svg id="Layer_1" data-name="Layer 1" xmlns="http://www.w3.org/2000/svg" width="50" height="50" viewBox="0 0 50 50">
  <path d="M34.49,26.93c-1.28-.52-2.76-.26-3.8.65-2.43,2.1-4.96,3.67-5.68,4.1-.75-.48-3.45-2.24-5.68-4.1-1.06-.89-2.51-1.17-3.79-.65-4.86,1.97-8.94,5.41-11.71,9.85h0c0,7.31,5.92,13.23,13.23,13.23h15.89c7.31,0,13.23-5.92,13.23-13.23h0c-2.77-4.43-6.84-7.87-11.69-9.84ZM38.29,40.25c0,.22-.21.38-.42.38h-2.65c-.22,0-.45.19-.45.4v2.74c0,.22-.12.38-.33.38h-2.38c-.22,0-.42-.16-.42-.38v-2.74c0-.22-.15-.4-.36-.4h-2.76c-.22,0-.39-.17-.39-.38v-2.36c0-.22.18-.39.39-.39h2.76c.22,0,.36-.18.36-.39v-2.74c0-.22.2-.39.42-.39h2.35c.22,0,.36.17.36.39v2.75c0,.22.21.38.42.38h2.67c.22,0,.42.18.42.4v2.35ZM34.77,11.41v3.42c0,5.39-4.38,9.77-9.77,9.77s-9.77-4.38-9.77-9.77v-3.42h19.54ZM34.77,3.97v4.52H15.23V3.97C15.23,1.77,17.01,0,19.2,0h11.59c2.2,0,3.98,1.77,3.98,3.97Z" fill="#c0c4ca" stroke-width="0"/>
</svg>