<?xml version="1.0" encoding="UTF-8"?>
<svg id="Layer_1" data-name="Layer 1" xmlns="http://www.w3.org/2000/svg" width="50" height="50" viewBox="0 0 50 50">
  <path d="M50,14.58v2.08H0v-2.08C0,8.83,4.66,4.17,10.42,4.17h2.08v-2.08c0-1.15.93-2.08,2.08-2.08s2.08.93,2.08,2.08v2.08h16.67v-2.08c0-1.15.93-2.08,2.08-2.08s2.08.93,2.08,2.08v2.08h2.08c5.75,0,10.42,4.66,10.42,10.42ZM50,35.42c0,8.04-6.54,14.58-14.58,14.58s-14.58-6.54-14.58-14.58,6.54-14.58,14.58-14.58,14.58,6.54,14.58,14.58ZM39.58,36.64l-2.08-2.08v-3.3c0-1.15-.93-2.08-2.08-2.08s-2.08.93-2.08,2.08v4.17c0,.55.22,1.08.61,1.47l2.69,2.69c.83.8,2.15.78,2.95-.05.78-.81.78-2.09,0-2.89ZM16.67,35.42c0-5.67,2.56-11.03,6.98-14.58H0v18.75c0,5.75,4.66,10.42,10.42,10.42h13.23c-4.41-3.55-6.98-8.92-6.98-14.58Z" fill="#c0c4ca" stroke-width="0"/>
</svg>