<?xml version="1.0" encoding="UTF-8"?>
<svg id="Layer_1" data-name="Layer 1" xmlns="http://www.w3.org/2000/svg" width="50" height="50" viewBox="0 0 50 50">
  <circle cx="25" cy="26.3" r="4.17" fill="#c0c4ca" stroke-width="0"/>
  <path d="M46.66,38.81c-2.38,4.13-5.89,7.49-10.13,9.68-1.06.54-2.38.07-2.88-1.01l-4.78-10.38c-.45-.99-.07-2.16.88-2.7,1.35-.8,2.53-1.95,3.38-3.41s1.25-3.05,1.26-4.63c0-1.09.82-2.01,1.91-2.11l11.38-1.05c1.19-.11,2.25.79,2.3,1.98.22,4.62-.83,9.34-3.31,13.62ZM29.64,18.15c-1.37-.78-2.95-1.23-4.64-1.23s-3.27.45-4.64,1.23c-.95.54-2.15.29-2.77-.6l-6.61-9.33c-.69-.98-.44-2.34.56-2.99,3.89-2.49,8.5-3.94,13.45-3.94s9.57,1.45,13.45,3.94c1,.65,1.25,2.01.56,2.99l-6.61,9.33c-.63.9-1.82,1.15-2.77.6h0ZM21.13,37.1l-4.78,10.38c-.5,1.08-1.81,1.55-2.88,1.01-4.24-2.19-7.75-5.55-10.13-9.68C.95,34.68-.2,29.95.03,25.18c.05-1.19,1.12-2.09,2.3-1.98l11.38,1.05c1.08.09,1.91,1.01,1.91,2.11.01,1.57.42,3.17,1.26,4.63s2.02,2.61,3.38,3.41c.95.54,1.32,1.71.88,2.7h0Z" fill="#c0c4ca" stroke-width="0"/>
</svg>