<?xml version="1.0" encoding="UTF-8"?>
<svg id="Layer_1" data-name="Layer 1" xmlns="http://www.w3.org/2000/svg" width="50" height="50" viewBox="0 0 50 50">
  <path d="M5.66,18.36H.4v24.55c0,3.9,3.19,7.08,7.08,7.08h35.03c3.91,0,7.08-3.17,7.08-7.08v-24.55H5.66ZM35.62,35.92c0,.85-.69,1.54-1.54,1.54h-5.79v5.8c0,.85-.69,1.54-1.54,1.54h-3.53c-.85,0-1.54-.69-1.54-1.54v-5.8h-5.75c-.85,0-1.54-.69-1.54-1.54v-3.53c0-.85.69-1.54,1.54-1.54h5.75v-5.75c0-.85.69-1.54,1.54-1.54h3.53c.85,0,1.54.69,1.54,1.54v5.75h5.8c.85,0,1.54.69,1.54,1.54v3.53ZM49.6,9.57v5.28H.4v-5.28c0-2.89,2.37-5.26,5.26-5.26h2.9v3.33c0,2.04,1.39,3.94,3.41,4.28,2.57.42,4.8-1.56,4.8-4.05v-3.56h16.46v3.33c0,2.05,1.39,3.95,3.41,4.28,2.57.42,4.8-1.56,4.8-4.05v-3.56h2.9c2.89,0,5.26,2.37,5.26,5.26ZM12.66,9.61h0c-.96,0-1.74-.78-1.74-1.74V1.74c0-.96.78-1.74,1.74-1.74h0c.96,0,1.74.78,1.74,1.74v6.14c0,.96-.78,1.74-1.74,1.74ZM37.34,9.61h0c-.96,0-1.74-.78-1.74-1.74V1.74c0-.96.78-1.74,1.74-1.74h0c.96,0,1.74.78,1.74,1.74v6.14c0,.96-.78,1.74-1.74,1.74Z" fill="#c0c4ca" stroke-width="0"/>
</svg>