<?xml version="1.0" encoding="UTF-8"?>
<svg id="Layer_1" data-name="Layer 1" xmlns="http://www.w3.org/2000/svg" width="50" height="50" viewBox="0 0 50 50">
  <path d="M50,14.58v2.08H0v-2.08C0,8.84,4.68,4.17,10.42,4.17h2.08v-2.08c0-1.15.93-2.08,2.08-2.08s2.08.93,2.08,2.08v2.08h16.66v-2.08c0-1.15.93-2.08,2.08-2.08s2.08.93,2.08,2.08v2.08h2.08c5.74,0,10.41,4.67,10.41,10.41ZM17.35,35.59c0-6.11,2.98-11.48,7.54-14.76H.01v18.76c0,5.74,4.66,10.42,10.42,10.42h14.27c-4.11-2.95-7.1-7.78-7.35-14.41ZM50,35.46c-.37,9.69-7.5,14.53-14.63,14.53-7.13,0-14.26-4.84-14.63-14.53,0-8.07,6.56-14.63,14.63-14.63s14.63,6.56,14.63,14.63ZM34.15,31.8h2.76c.43,0,.84.23,1.06.61.34.58,1.08.78,1.66.44.58-.34.78-1.08.44-1.67-.65-1.13-1.87-1.83-3.17-1.83h-.33v-1.22c0-1.59-2.43-1.59-2.44,0v1.22c-4.18-.02-5.1,6.2-.83,6.99l3.71.62c1.32.26.78,2.22-.43,2.15h-2.76c-.43,0-.84-.23-1.06-.61-.34-.58-1.08-.78-1.66-.44-.58.34-.78,1.08-.44,1.66.65,1.13,1.87,1.83,3.17,1.83h.33v1.22c0,1.59,2.43,1.59,2.44,0v-1.22c4.18.02,5.1-6.2.83-6.99l-3.71-.62c-1.32-.26-.78-2.22.43-2.15Z" fill="#c0c4ca" stroke-width="0"/>
</svg>