<?xml version="1.0" encoding="UTF-8"?>
<svg id="Layer_1" data-name="Layer 1" xmlns="http://www.w3.org/2000/svg" width="50" height="50" viewBox="0 0 50 50">
  <path d="M44.64,21.43v-1.79C44.64,8.79,35.85,0,25,0S5.36,8.79,5.36,19.64v1.79c-2.96,0-5.35,2.4-5.36,5.36v8.93c0,2.96,2.4,5.35,5.36,5.36h7.14c.99,0,1.79-.8,1.79-1.79v-16.07c0-.99-.8-1.79-1.79-1.79h-3.57v-1.79c0-8.88,7.2-16.07,16.07-16.07s16.07,7.2,16.07,16.07v1.79h-3.57c-.99,0-1.79.8-1.79,1.79v16.07c0,.99.8,1.79,1.79,1.79h3.57c0,.99-.8,1.79-1.79,1.79h-7.47c-.75-2.13-2.77-3.56-5.03-3.57h-3.57c-2.96,0-5.36,2.4-5.36,5.36s2.4,5.36,5.36,5.36h3.57c2.26,0,4.28-1.44,5.03-3.57h7.47c2.96,0,5.35-2.4,5.36-5.36,2.96,0,5.35-2.4,5.36-5.36v-8.93c0-2.96-2.4-5.35-5.36-5.36Z" fill="#c0c4ca" stroke-width="0"/>
</svg>