<?xml version="1.0" encoding="utf-8"?>
<!-- Generator: Adobe Illustrator 28.0.0, SVG Export Plug-In . SVG Version: 6.00 Build 0)  -->
<svg version="1.1" id="sb-mail" xmlns="http://www.w3.org/2000/svg" xmlns:xlink="http://www.w3.org/1999/xlink" x="0px" y="0px"
	 viewBox="0 0 50 50" style="enable-background:new 0 0 50 50;" xml:space="preserve">
<style type="text/css">
	.st0{fill:#344767;}
</style>
<path class="st0" d="M0.3,30.8c0-5.3,3.8-9.9,9.1-11.3c1.5-7,8-12.1,15.5-12.1c8.8-0.1,16,6.7,16,15v0.1c5.2,0.8,8.9,5.1,8.9,10
	c0,5.5-4.8,10-10.6,10H12.7C5.8,42.5,0.3,37.3,0.3,30.8L0.3,30.8z M39.4,25.9L39.4,25.9c-0.2,0-0.3,0-0.4,0c-1-0.2-1.7-1-1.6-2
	c0-0.5,0.1-1,0.1-1.5c0-6.1-4.8-11.2-11.1-11.9C19.5,9.7,13.1,14.4,12.3,21c-0.1,0.7-0.7,1.4-1.5,1.5c-4.2,0.7-7.5,4.2-7.5,8.4
	c0,4.7,3.9,8.7,9,8.7h27.2c3.9,0,7.2-3.1,7.2-6.9C46.7,28.9,43.4,25.8,39.4,25.9z"/>
</svg>
