<?xml version="1.0" encoding="UTF-8"?>
<svg id="sb-mail" xmlns="http://www.w3.org/2000/svg" width="50" height="50" viewBox="0 0 50 50">
  <path d="M40.32,4.58H14.07C12.92,2.17,10.48.49,7.64.49,3.7.49.49,3.7.49,7.64v32.68c0,5.07,4.12,9.19,9.19,9.19h30.64c5.07,0,9.19-4.12,9.19-9.19V13.77c0-5.07-4.12-9.19-9.19-9.19ZM47.36,12.75h-13.17c-1.69,0-3.06-1.37-3.06-3.06v-3.06h9.19c3.59,0,6.54,2.67,7.04,6.13ZM2.53,7.64c0-2.82,2.29-5.11,5.11-5.11s5.11,2.29,5.11,5.11v26.55c0,2.82-2.29,5.11-5.11,5.11s-5.11-2.29-5.11-5.11V7.64ZM40.32,47.47H9.68c-3.94,0-7.15-3.21-7.15-7.15v-1.14c1.3,1.33,3.1,2.16,5.11,2.16,3.94,0,7.15-3.21,7.15-7.15V7.64c0-.35-.06-.68-.1-1.02h14.4v3.06c0,2.82,2.29,5.11,5.11,5.11h13.28v25.53c0,3.94-3.21,7.15-7.15,7.15ZM33.17,22.96c0,1.13-.92,2.04-2.04,2.04s-2.04-.92-2.04-2.04.92-2.04,2.04-2.04,2.04.92,2.04,2.04ZM25,22.96c0,1.13-.92,2.04-2.04,2.04s-2.04-.92-2.04-2.04.92-2.04,2.04-2.04,2.04.92,2.04,2.04ZM41.34,22.96c0,1.13-.92,2.04-2.04,2.04s-2.04-.92-2.04-2.04.92-2.04,2.04-2.04,2.04.92,2.04,2.04ZM33.17,31.13c0,1.13-.92,2.04-2.04,2.04s-2.04-.92-2.04-2.04.92-2.04,2.04-2.04,2.04.92,2.04,2.04ZM25,31.13c0,1.13-.92,2.04-2.04,2.04s-2.04-.92-2.04-2.04.92-2.04,2.04-2.04,2.04.92,2.04,2.04ZM41.34,31.13c0,1.13-.92,2.04-2.04,2.04s-2.04-.92-2.04-2.04.92-2.04,2.04-2.04,2.04.92,2.04,2.04ZM33.17,39.3c0,1.13-.92,2.04-2.04,2.04s-2.04-.92-2.04-2.04.92-2.04,2.04-2.04,2.04.92,2.04,2.04ZM25,39.3c0,1.13-.92,2.04-2.04,2.04s-2.04-.92-2.04-2.04.92-2.04,2.04-2.04,2.04.92,2.04,2.04ZM41.34,39.3c0,1.13-.92,2.04-2.04,2.04s-2.04-.92-2.04-2.04.92-2.04,2.04-2.04,2.04.92,2.04,2.04Z" fill="#344767" stroke-width="0"/>
  <path d="M40.32,50H9.68c-5.34,0-9.68-4.34-9.68-9.68V7.64C0,3.43,3.43,0,7.64,0,10.44,0,13.05,1.59,14.37,4.08h25.95c5.34,0,9.68,4.34,9.68,9.68v26.55c0,5.34-4.34,9.68-9.68,9.68ZM7.64.98C3.97.98.98,3.97.98,7.64v32.68c0,4.8,3.9,8.7,8.7,8.7h30.64c4.8,0,8.7-3.9,8.7-8.7V13.77c0-4.8-3.9-8.7-8.7-8.7H13.76l-.13-.28c-1.12-2.35-3.42-3.81-5.99-3.81ZM40.32,47.96H9.68c-4.21,0-7.64-3.43-7.64-7.64v-2.34l.84.86c1.27,1.3,2.96,2.01,4.76,2.01,3.67,0,6.66-2.99,6.66-6.66V7.64c0-.28-.04-.56-.08-.85l-.1-.66h15.46v3.55c0,2.55,2.07,4.62,4.62,4.62h13.77v26.02c0,4.21-3.43,7.64-7.64,7.64ZM3.02,40.27v.05c0,3.67,2.99,6.66,6.66,6.66h30.64c3.67,0,6.66-2.99,6.66-6.66V15.28h-12.79c-3.09,0-5.6-2.51-5.6-5.6v-2.57h-13.35c.02.18.03.35.03.53v26.55c0,4.21-3.43,7.64-7.64,7.64-1.69,0-3.29-.55-4.62-1.56ZM39.3,41.83c-1.4,0-2.53-1.14-2.53-2.53s1.14-2.53,2.53-2.53,2.53,1.14,2.53,2.53-1.14,2.53-2.53,2.53ZM39.3,37.75c-.86,0-1.55.7-1.55,1.55s.7,1.55,1.55,1.55,1.55-.7,1.55-1.55-.7-1.55-1.55-1.55ZM31.13,41.83c-1.4,0-2.53-1.14-2.53-2.53s1.14-2.53,2.53-2.53,2.53,1.14,2.53,2.53-1.14,2.53-2.53,2.53ZM31.13,37.75c-.86,0-1.55.7-1.55,1.55s.7,1.55,1.55,1.55,1.55-.7,1.55-1.55-.7-1.55-1.55-1.55ZM22.96,41.83c-1.4,0-2.53-1.14-2.53-2.53s1.14-2.53,2.53-2.53,2.53,1.14,2.53,2.53-1.14,2.53-2.53,2.53ZM22.96,37.75c-.86,0-1.55.7-1.55,1.55s.7,1.55,1.55,1.55,1.55-.7,1.55-1.55-.7-1.55-1.55-1.55ZM7.64,39.79c-3.09,0-5.6-2.51-5.6-5.6V7.64c0-3.09,2.51-5.6,5.6-5.6s5.6,2.51,5.6,5.6v26.55c0,3.09-2.51,5.6-5.6,5.6ZM7.64,3.02c-2.55,0-4.62,2.07-4.62,4.62v26.55c0,2.55,2.07,4.62,4.62,4.62s4.62-2.07,4.62-4.62V7.64c0-2.55-2.07-4.62-4.62-4.62ZM39.3,33.66c-1.4,0-2.53-1.14-2.53-2.53s1.14-2.53,2.53-2.53,2.53,1.14,2.53,2.53-1.14,2.53-2.53,2.53ZM39.3,29.58c-.86,0-1.55.7-1.55,1.55s.7,1.55,1.55,1.55,1.55-.7,1.55-1.55-.7-1.55-1.55-1.55ZM31.13,33.66c-1.4,0-2.53-1.14-2.53-2.53s1.14-2.53,2.53-2.53,2.53,1.14,2.53,2.53-1.14,2.53-2.53,2.53ZM31.13,29.58c-.86,0-1.55.7-1.55,1.55s.7,1.55,1.55,1.55,1.55-.7,1.55-1.55-.7-1.55-1.55-1.55ZM22.96,33.66c-1.4,0-2.53-1.14-2.53-2.53s1.14-2.53,2.53-2.53,2.53,1.14,2.53,2.53-1.14,2.53-2.53,2.53ZM22.96,29.58c-.86,0-1.55.7-1.55,1.55s.7,1.55,1.55,1.55,1.55-.7,1.55-1.55-.7-1.55-1.55-1.55ZM39.3,25.49c-1.4,0-2.53-1.14-2.53-2.53s1.14-2.53,2.53-2.53,2.53,1.14,2.53,2.53-1.14,2.53-2.53,2.53ZM39.3,21.41c-.86,0-1.55.7-1.55,1.55s.7,1.55,1.55,1.55,1.55-.7,1.55-1.55-.7-1.55-1.55-1.55ZM31.13,25.49c-1.4,0-2.53-1.14-2.53-2.53s1.14-2.53,2.53-2.53,2.53,1.14,2.53,2.53-1.14,2.53-2.53,2.53ZM31.13,21.41c-.86,0-1.55.7-1.55,1.55s.7,1.55,1.55,1.55,1.55-.7,1.55-1.55-.7-1.55-1.55-1.55ZM22.96,25.49c-1.4,0-2.53-1.14-2.53-2.53s1.14-2.53,2.53-2.53,2.53,1.14,2.53,2.53-1.14,2.53-2.53,2.53ZM22.96,21.41c-.86,0-1.55.7-1.55,1.55s.7,1.55,1.55,1.55,1.55-.7,1.55-1.55-.7-1.55-1.55-1.55ZM47.93,13.24h-13.74c-1.96,0-3.55-1.59-3.55-3.55v-3.55h9.68c3.75,0,6.99,2.81,7.53,6.55l.08.56ZM31.62,7.11v2.57c0,1.42,1.15,2.57,2.57,2.57h12.58c-.7-2.97-3.38-5.15-6.45-5.15h-8.7Z" fill="#344767" stroke-width="0"/>
</svg>