<?xml version="1.0" encoding="UTF-8"?>
<svg id="sb-mail" xmlns="http://www.w3.org/2000/svg" width="50" height="50" viewBox="0 0 50 50">
  <path d="M17.85,22.96H5.6c-2.81,0-5.11,2.29-5.11,5.11v16.34c0,2.81,2.29,5.11,5.11,5.11h12.25c2.81,0,5.11-2.29,5.11-5.11v-16.34c0-2.81-2.29-5.11-5.11-5.11ZM20.92,44.4c0,1.69-1.37,3.06-3.06,3.06H5.6c-1.69,0-3.06-1.37-3.06-3.06v-16.34c0-1.69,1.37-3.06,3.06-3.06h12.25c1.69,0,3.06,1.37,3.06,3.06v16.34ZM16.83,30.11c0,.56-.46,1.02-1.02,1.02H7.64c-.56,0-1.02-.46-1.02-1.02s.46-1.02,1.02-1.02h8.17c.56,0,1.02.46,1.02,1.02ZM16.83,36.23c0,.56-.46,1.02-1.02,1.02h-2.04c-.56,0-1.02-.46-1.02-1.02s.46-1.02,1.02-1.02h2.04c.56,0,1.02.46,1.02,1.02ZM10.7,36.23c0,.56-.46,1.02-1.02,1.02h-2.04c-.56,0-1.02-.46-1.02-1.02s.46-1.02,1.02-1.02h2.04c.56,0,1.02.46,1.02,1.02ZM16.83,42.36c0,.56-.46,1.02-1.02,1.02h-2.04c-.56,0-1.02-.46-1.02-1.02s.46-1.02,1.02-1.02h2.04c.56,0,1.02.46,1.02,1.02ZM10.7,42.36c0,.56-.46,1.02-1.02,1.02h-2.04c-.56,0-1.02-.46-1.02-1.02s.46-1.02,1.02-1.02h2.04c.56,0,1.02.46,1.02,1.02ZM43.38.49H12.75c-3.38,0-6.13,2.75-6.13,6.13v11.23c0,.56.46,1.02,1.02,1.02s1.02-.46,1.02-1.02V6.62c0-2.25,1.83-4.08,4.08-4.08s4.08,1.83,4.08,4.08,1.83,4.08,4.08,4.08h20.42v29.62c0,3.94-3.21,7.15-7.15,7.15h-6.13c-.56,0-1.02.46-1.02,1.02s.46,1.02,1.02,1.02h6.13c5.07,0,9.19-4.12,9.19-9.19V10.7h2.04c2.25,0,4.08-1.83,4.08-4.08,0-3.38-2.75-6.13-6.13-6.13ZM45.42,8.66h-24.51c-1.13,0-2.04-.92-2.04-2.04,0-1.57-.59-3-1.56-4.08h26.07c2.25,0,4.08,1.83,4.08,4.08,0,1.13-.92,2.04-2.04,2.04Z" fill="#344767" stroke-width="0"/>
  <path d="M34.19,50h-6.13c-.83,0-1.51-.68-1.51-1.51s.68-1.51,1.51-1.51h6.13c3.67,0,6.66-2.99,6.66-6.66V11.19h-19.93c-2.52,0-4.58-2.05-4.58-4.58,0-1.98-1.61-3.59-3.59-3.59s-3.59,1.61-3.59,3.59v11.23c0,.83-.68,1.51-1.51,1.51s-1.51-.68-1.51-1.51V6.62C6.13,2.97,9.1,0,12.75,0h30.64C47.03,0,50,2.97,50,6.62c0,2.52-2.05,4.58-4.58,4.58h-1.55v29.13c0,5.34-4.34,9.68-9.68,9.68ZM28.06,47.96c-.29,0-.53.24-.53.53s.24.53.53.53h6.13c4.8,0,8.7-3.9,8.7-8.7V10.21h2.53c1.98,0,3.59-1.61,3.59-3.59,0-3.11-2.53-5.64-5.64-5.64H12.75c-3.11,0-5.64,2.53-5.64,5.64v11.23c0,.29.24.53.53.53s.53-.24.53-.53V6.62c0-2.52,2.05-4.58,4.58-4.58s4.58,2.05,4.58,4.58c0,1.98,1.61,3.59,3.6,3.59h20.91v30.11c0,4.21-3.43,7.64-7.64,7.64h-6.13ZM17.85,50H5.6c-3.09,0-5.6-2.51-5.6-5.6v-16.34c0-3.09,2.51-5.6,5.6-5.6h12.25c3.09,0,5.6,2.51,5.6,5.6v16.34c0,3.09-2.51,5.6-5.6,5.6ZM5.6,23.45c-2.55,0-4.62,2.07-4.62,4.62v16.34c0,2.55,2.07,4.62,4.62,4.62h12.25c2.55,0,4.62-2.07,4.62-4.62v-16.34c0-2.55-2.07-4.62-4.62-4.62H5.6ZM17.85,47.96H5.6c-1.96,0-3.55-1.59-3.55-3.55v-16.34c0-1.96,1.59-3.55,3.55-3.55h12.25c1.96,0,3.55,1.59,3.55,3.55v16.34c0,1.96-1.59,3.55-3.55,3.55ZM5.6,25.49c-1.42,0-2.57,1.15-2.57,2.57v16.34c0,1.42,1.15,2.57,2.57,2.57h12.25c1.42,0,2.57-1.15,2.57-2.57v-16.34c0-1.42-1.15-2.57-2.57-2.57H5.6ZM15.81,43.87h-2.04c-.83,0-1.51-.68-1.51-1.51s.68-1.51,1.51-1.51h2.04c.83,0,1.51.68,1.51,1.51s-.68,1.51-1.51,1.51ZM13.77,41.83c-.29,0-.53.24-.53.53s.24.53.53.53h2.04c.29,0,.53-.24.53-.53s-.24-.53-.53-.53h-2.04ZM9.68,43.87h-2.04c-.83,0-1.51-.68-1.51-1.51s.68-1.51,1.51-1.51h2.04c.83,0,1.51.68,1.51,1.51s-.68,1.51-1.51,1.51ZM7.64,41.83c-.29,0-.53.24-.53.53s.24.53.53.53h2.04c.29,0,.53-.24.53-.53s-.24-.53-.53-.53h-2.04ZM15.81,37.75h-2.04c-.83,0-1.51-.68-1.51-1.51s.68-1.51,1.51-1.51h2.04c.83,0,1.51.68,1.51,1.51s-.68,1.51-1.51,1.51ZM13.77,35.7c-.29,0-.53.24-.53.53s.24.53.53.53h2.04c.29,0,.53-.24.53-.53s-.24-.53-.53-.53h-2.04ZM9.68,37.75h-2.04c-.83,0-1.51-.68-1.51-1.51s.68-1.51,1.51-1.51h2.04c.83,0,1.51.68,1.51,1.51s-.68,1.51-1.51,1.51ZM7.64,35.7c-.29,0-.53.24-.53.53s.24.53.53.53h2.04c.29,0,.53-.24.53-.53s-.24-.53-.53-.53h-2.04ZM15.81,31.62H7.64c-.83,0-1.51-.68-1.51-1.51s.68-1.51,1.51-1.51h8.17c.83,0,1.51.68,1.51,1.51s-.68,1.51-1.51,1.51ZM7.64,29.58c-.29,0-.53.24-.53.53s.24.53.53.53h8.17c.29,0,.53-.24.53-.53s-.24-.53-.53-.53H7.64ZM45.42,9.15h-24.51c-1.4,0-2.53-1.14-2.53-2.53s-.51-2.72-1.44-3.76l-.73-.82h27.17c2.52,0,4.58,2.05,4.58,4.58,0,1.4-1.14,2.53-2.53,2.53ZM18.3,3.02c.69,1.06,1.06,2.31,1.06,3.59,0,.86.7,1.55,1.55,1.55h24.51c.86,0,1.55-.7,1.55-1.55,0-1.98-1.61-3.59-3.59-3.59h-25.08Z" fill="#344767" stroke-width="0"/>
</svg>