<?xml version="1.0" encoding="UTF-8"?>
<svg id="sb-mail" xmlns="http://www.w3.org/2000/svg" width="50" height="50" viewBox="0 0 50 50">
  <path d="M25,.49C11.48.49.49,11.48.49,25s10.99,24.51,24.51,24.51c5,0,9.79-1.47,13.85-4.26.47-.32.58-.95.26-1.42-.32-.47-.95-.58-1.42-.26-3.72,2.56-8.11,3.91-12.7,3.91-12.39,0-22.47-10.08-22.47-22.47S12.61,2.53,25,2.53s22.47,10.08,22.47,22.47v5.11c0,2.81-2.29,5.11-5.11,5.11s-5.11-2.29-5.11-5.11v-5.11c0-6.76-5.5-12.25-12.25-12.25s-12.25,5.5-12.25,12.25,5.5,12.25,12.25,12.25c4.35,0,8.18-2.28,10.36-5.71.67,3.26,3.55,5.71,7,5.71,3.94,0,7.15-3.21,7.15-7.15v-5.11C49.51,11.48,38.52.49,25,.49ZM25,35.21c-5.63,0-10.21-4.58-10.21-10.21s4.58-10.21,10.21-10.21,10.21,4.58,10.21,10.21-4.58,10.21-10.21,10.21Z" fill="#344767" stroke-width="0"/>
  <path d="M25,50C11.22,50,0,38.78,0,25S11.22,0,25,0s25,11.22,25,25v5.11c0,4.21-3.43,7.64-7.64,7.64-3.25,0-6.12-2.08-7.19-5.07-2.41,3.19-6.14,5.07-10.17,5.07-7.03,0-12.75-5.72-12.75-12.75s5.72-12.75,12.75-12.75,12.75,5.72,12.75,12.75v5.11c0,2.55,2.07,4.62,4.62,4.62s4.62-2.07,4.62-4.62v-5.11c0-12.12-9.86-21.98-21.98-21.98S3.02,12.88,3.02,25s9.86,21.98,21.98,21.98c4.49,0,8.78-1.32,12.42-3.82.34-.23.74-.32,1.14-.24.4.07.74.3.97.63.23.33.31.73.24,1.13-.07.4-.3.74-.63.97-4.15,2.85-9.03,4.35-14.13,4.35ZM25,.98C11.76.98.98,11.76.98,25s10.77,24.02,24.02,24.02c4.9,0,9.59-1.45,13.58-4.18.12-.08.2-.2.22-.34.03-.14,0-.28-.09-.4-.08-.12-.2-.2-.34-.22-.14-.03-.28,0-.4.09-3.8,2.61-8.29,3.99-12.97,3.99-12.66,0-22.96-10.3-22.96-22.96S12.34,2.04,25,2.04s22.96,10.3,22.96,22.96v5.11c0,3.09-2.51,5.6-5.6,5.6s-5.6-2.51-5.6-5.6v-5.11c0-6.49-5.28-11.76-11.76-11.76s-11.76,5.28-11.76,11.76,5.28,11.76,11.76,11.76c4.05,0,7.77-2.05,9.94-5.48l.65-1.03.24,1.19c.63,3.08,3.38,5.32,6.52,5.32,3.67,0,6.66-2.99,6.66-6.66v-5.11C49.02,11.76,38.24.98,25,.98ZM25,35.7c-5.9,0-10.7-4.8-10.7-10.7s4.8-10.7,10.7-10.7,10.7,4.8,10.7,10.7-4.8,10.7-10.7,10.7ZM25,15.28c-5.36,0-9.72,4.36-9.72,9.72s4.36,9.72,9.72,9.72,9.72-4.36,9.72-9.72-4.36-9.72-9.72-9.72Z" fill="#344767" stroke-width="0"/>
</svg>