<?xml version="1.0" encoding="UTF-8"?>
<svg id="Layer_4" data-name="Layer 4" xmlns="http://www.w3.org/2000/svg" width="50" height="50" viewBox="0 0 50 50">
  <path d="M25,22.13c-.66,0-1.25.45-1.42,1.09-3.68,13.95-3.68,14.54-3.68,14.77,0,2.81,2.29,5.1,5.1,5.1s5.1-2.29,5.1-5.1c0-.22,0-.82-3.68-14.77-.17-.64-.75-1.09-1.42-1.09ZM25,40.16c-1.18,0-2.16-.96-2.17-2.05.06-.44.89-3.78,2.17-8.72,1.25,4.8,2.07,8.08,2.17,8.68-.04,1.16-1,2.09-2.17,2.09Z" fill="#344767" stroke-width="0"/>
  <path d="M42.67,14.24c-4.73-4.73-11-7.33-17.67-7.33s-12.94,2.6-17.67,7.33C2.6,18.97,0,25.24,0,31.91c0,.81.66,1.47,1.47,1.47h7.15c.81,0,1.47-.66,1.47-1.47,0-3.99,1.55-7.73,4.37-10.55,2.82-2.82,6.56-4.37,10.55-4.37s7.73,1.55,10.55,4.37c2.82,2.82,4.37,6.56,4.37,10.55,0,.81.66,1.47,1.47,1.47h7.15c.81,0,1.47-.66,1.47-1.47,0-6.67-2.6-12.94-7.33-17.67ZM39.53,15.31l-2.98,2.98c-2.84-2.41-6.37-3.87-10.08-4.17v-4.23c4.83.32,9.42,2.22,13.06,5.42ZM47.02,30.45h-4.23c-.3-3.71-1.77-7.24-4.18-10.08l2.98-2.98c3.2,3.65,5.1,8.24,5.42,13.06ZM11.38,20.37c-2.41,2.84-3.87,6.37-4.18,10.08H2.98c.32-4.83,2.22-9.42,5.42-13.06l2.98,2.98ZM23.53,9.89v4.23c-3.71.3-7.24,1.77-10.08,4.18l-2.98-2.98c3.65-3.2,8.24-5.1,13.06-5.42Z" fill="#344767" stroke-width="0"/>
</svg>