<?xml version="1.0" encoding="UTF-8"?>
<svg id="sb-portal" xmlns="http://www.w3.org/2000/svg" width="50" height="50" viewBox="0 0 50 50">
  <path d="M40.32,1.51H9.68C4.61,1.51.49,5.64.49,10.7v26.55c0,5.07,4.12,9.19,9.19,9.19h14.3c.56,0,1.02-.46,1.02-1.02s-.46-1.02-1.02-1.02h-14.3c-3.94,0-7.15-3.21-7.15-7.15v-19.4h44.93v9.19c0,.56.46,1.02,1.02,1.02s1.02-.46,1.02-1.02V10.7c0-5.07-4.12-9.19-9.19-9.19ZM2.53,15.81v-5.11c0-3.94,3.21-7.15,7.15-7.15h30.64c3.94,0,7.15,3.21,7.15,7.15v5.11H2.53ZM10.7,9.68c0,1.13-.91,2.04-2.04,2.04s-2.04-.91-2.04-2.04.91-2.04,2.04-2.04,2.04.91,2.04,2.04ZM16.83,9.68c0,1.13-.91,2.04-2.04,2.04s-2.04-.91-2.04-2.04.91-2.04,2.04-2.04,2.04.91,2.04,2.04ZM22.96,9.68c0,1.13-.91,2.04-2.04,2.04s-2.04-.91-2.04-2.04.91-2.04,2.04-2.04,2.04.91,2.04,2.04ZM43.11,40.65c1.44-1.76,2.31-4.01,2.31-6.46,0-5.63-4.58-10.21-10.21-10.21s-10.21,4.58-10.21,10.21,4.58,10.21,10.21,10.21c2.45,0,4.7-.87,6.46-2.31l6.09,6.09c.2.2.46.3.72.3s.52-.1.72-.3c.4-.4.4-1.05,0-1.44l-6.09-6.09h0ZM35.21,42.36c-4.51,0-8.17-3.66-8.17-8.17s3.66-8.17,8.17-8.17,8.17,3.66,8.17,8.17-3.66,8.17-8.17,8.17Z" fill="#344767" stroke-width="0"/>
  <path d="M48.49,48.98c-.4,0-.78-.16-1.07-.44l-5.79-5.79c-1.85,1.39-4.11,2.14-6.42,2.14-5.9,0-10.7-4.8-10.7-10.7s4.8-10.7,10.7-10.7,10.7,4.8,10.7,10.7c0,2.31-.76,4.58-2.14,6.42l5.79,5.79c.59.59.59,1.55,0,2.14-.29.29-.67.44-1.07.44ZM41.7,41.43l6.41,6.41c.2.2.55.2.75,0,.1-.1.15-.23.15-.37s-.06-.28-.16-.38l-6.41-6.41.28-.34c1.42-1.73,2.2-3.91,2.2-6.15,0-5.36-4.36-9.72-9.72-9.72s-9.72,4.36-9.72,9.72,4.36,9.72,9.72,9.72c2.23,0,4.42-.78,6.15-2.2l.34-.28ZM23.98,46.94h-14.3C4.34,46.94,0,42.59,0,37.25V10.7C0,5.37,4.34,1.02,9.68,1.02h30.64c5.34,0,9.68,4.34,9.68,9.68v16.34c0,.83-.68,1.51-1.51,1.51s-1.51-.68-1.51-1.51v-8.7H3.02v18.91c0,3.67,2.99,6.66,6.66,6.66h14.3c.83,0,1.51.68,1.51,1.51s-.68,1.51-1.51,1.51ZM9.68,2C4.88,2,.98,5.91.98,10.7v26.55c0,4.8,3.9,8.7,8.7,8.7h14.3c.29,0,.53-.24.53-.53s-.24-.53-.53-.53h-14.3c-4.21,0-7.64-3.43-7.64-7.64v-19.89h45.91v9.68c0,.29.24.53.53.53s.53-.24.53-.53V10.7c0-4.8-3.9-8.7-8.7-8.7H9.68ZM35.21,42.85c-4.77,0-8.66-3.88-8.66-8.66s3.89-8.66,8.66-8.66,8.66,3.88,8.66,8.66-3.89,8.66-8.66,8.66ZM35.21,26.51c-4.23,0-7.68,3.44-7.68,7.68s3.44,7.68,7.68,7.68,7.68-3.44,7.68-7.68-3.44-7.68-7.68-7.68ZM47.96,16.3H2.04v-5.6c0-4.21,3.43-7.64,7.64-7.64h30.64c4.21,0,7.64,3.43,7.64,7.64v5.6ZM3.02,15.32h43.95v-4.62c0-3.67-2.99-6.66-6.66-6.66H9.68c-3.67,0-6.66,2.99-6.66,6.66v4.62ZM20.91,12.21c-1.4,0-2.53-1.14-2.53-2.53s1.14-2.53,2.53-2.53,2.53,1.14,2.53,2.53-1.14,2.53-2.53,2.53ZM20.91,8.13c-.86,0-1.55.7-1.55,1.55s.7,1.55,1.55,1.55,1.55-.7,1.55-1.55-.7-1.55-1.55-1.55ZM14.79,12.21c-1.4,0-2.53-1.14-2.53-2.53s1.14-2.53,2.53-2.53,2.53,1.14,2.53,2.53-1.14,2.53-2.53,2.53ZM14.79,8.13c-.86,0-1.55.7-1.55,1.55s.7,1.55,1.55,1.55,1.55-.7,1.55-1.55-.7-1.55-1.55-1.55ZM8.66,12.21c-1.4,0-2.53-1.14-2.53-2.53s1.14-2.53,2.53-2.53,2.53,1.14,2.53,2.53-1.14,2.53-2.53,2.53ZM8.66,8.13c-.86,0-1.55.7-1.55,1.55s.7,1.55,1.55,1.55,1.55-.7,1.55-1.55-.7-1.55-1.55-1.55Z" fill="#344767" stroke-width="0"/>
</svg>