<?xml version="1.0" encoding="UTF-8"?>
<svg id="sb-mail" xmlns="http://www.w3.org/2000/svg" width="50" height="50" viewBox="0 0 50 50">
  <path d="M26.02,1.51v6.13c0,.56-.46,1.02-1.02,1.02s-1.02-.46-1.02-1.02V1.51c0-.56.46-1.02,1.02-1.02s1.02.46,1.02,1.02ZM25,41.34c-.56,0-1.02.46-1.02,1.02v6.13c0,.56.46,1.02,1.02,1.02s1.02-.46,1.02-1.02v-6.13c0-.56-.46-1.02-1.02-1.02ZM8.66,25c0-.56-.46-1.02-1.02-1.02H1.51c-.56,0-1.02.46-1.02,1.02s.46,1.02,1.02,1.02h6.13c.56,0,1.02-.46,1.02-1.02ZM48.49,23.98h-6.13c-.56,0-1.02.46-1.02,1.02s.46,1.02,1.02,1.02h6.13c.56,0,1.02-.46,1.02-1.02s-.46-1.02-1.02-1.02ZM9.53,32.94l-5.28,3.11c-.49.29-.65.91-.36,1.4.19.32.53.5.88.5.18,0,.36-.04.52-.14l5.28-3.11c.49-.29.65-.91.36-1.4-.29-.49-.91-.65-1.4-.36ZM39.95,17.2c.18,0,.36-.04.52-.14l5.28-3.11c.49-.29.65-.91.36-1.4-.29-.49-.91-.65-1.4-.36l-5.28,3.11c-.49.29-.65.91-.36,1.4.19.32.53.5.88.5ZM45.75,36.06l-5.28-3.11c-.49-.28-1.11-.13-1.4.36-.29.48-.13,1.11.36,1.4l5.28,3.11c.16.1.34.14.52.14.35,0,.69-.18.88-.5.29-.48.13-1.11-.36-1.4ZM10.57,15.3l-5.28-3.11c-.48-.29-1.11-.13-1.4.36-.29.48-.13,1.11.36,1.4l5.28,3.11c.16.1.34.14.52.14.35,0,.69-.18.88-.5.29-.48.13-1.11-.36-1.4ZM13.94,4.25c-.29-.49-.92-.65-1.4-.36-.49.29-.65.91-.36,1.4l3.11,5.28c.19.32.53.5.88.5.18,0,.36-.04.52-.14.49-.29.65-.91.36-1.4l-3.11-5.28ZM34.7,39.43c-.29-.49-.91-.65-1.4-.36-.49.29-.65.91-.36,1.4l3.11,5.28c.19.32.53.5.88.5.18,0,.36-.04.52-.14.49-.29.65-.91.36-1.4l-3.11-5.28ZM16.7,39.07c-.48-.28-1.11-.13-1.4.36l-3.11,5.28c-.29.48-.13,1.11.36,1.4.16.1.34.14.52.14.35,0,.69-.18.88-.5l3.11-5.28c.29-.48.13-1.11-.36-1.4ZM37.46,3.89c-.48-.28-1.11-.13-1.4.36l-3.11,5.28c-.29.48-.13,1.11.36,1.4.16.1.34.14.52.14.35,0,.69-.18.88-.5l3.11-5.28c.29-.48.13-1.11-.36-1.4Z" fill="#344767" stroke-width="0"/>
  <path d="M25,50c-.83,0-1.51-.68-1.51-1.51v-6.13c0-.83.68-1.51,1.51-1.51s1.51.68,1.51,1.51v6.13c0,.83-.68,1.51-1.51,1.51ZM25,41.83c-.29,0-.53.24-.53.53v6.13c0,.29.24.53.53.53s.53-.24.53-.53v-6.13c0-.29-.24-.53-.53-.53ZM36.93,46.74c-.53,0-1.03-.28-1.3-.74l-3.11-5.28c-.42-.72-.18-1.65.53-2.07.72-.42,1.65-.18,2.07.53h0s3.11,5.28,3.11,5.28c.42.72.18,1.65-.53,2.07-.23.14-.5.21-.77.21ZM33.82,39.42c-.09,0-.19.02-.27.07-.25.15-.33.48-.19.73l3.11,5.28c.15.25.48.33.73.19.25-.15.34-.48.19-.73l-3.11-5.28c-.1-.17-.28-.26-.46-.26ZM13.07,46.74c-.27,0-.54-.07-.77-.21-.35-.21-.6-.54-.7-.93-.1-.39-.04-.8.16-1.14l3.11-5.28c.42-.72,1.35-.96,2.07-.54h0c.35.21.6.54.7.93.1.39.04.8-.16,1.14l-3.11,5.28c-.27.46-.77.74-1.3.74ZM16.18,39.42c-.18,0-.36.09-.46.26l-3.11,5.28c-.07.12-.09.26-.06.4.04.14.12.25.25.33.24.14.58.06.73-.19l3.11-5.28c.07-.12.09-.26.06-.4-.04-.14-.12-.25-.25-.33-.09-.05-.18-.07-.27-.07ZM45.23,38.45c-.27,0-.54-.07-.77-.21l-5.28-3.11c-.35-.21-.6-.54-.7-.93-.1-.39-.04-.8.16-1.14.42-.71,1.35-.95,2.07-.53l5.28,3.11c.35.21.6.54.7.93.1.39.04.8-.16,1.14-.27.46-.77.74-1.3.74ZM39.95,33.29c-.18,0-.36.09-.46.26-.07.12-.09.26-.06.4.04.14.12.25.25.33l5.28,3.11c.24.14.58.06.73-.19.07-.12.09-.26.06-.4-.04-.14-.12-.25-.25-.33l-5.28-3.11c-.09-.05-.18-.07-.27-.07ZM4.77,38.45c-.53,0-1.03-.28-1.3-.74-.42-.72-.18-1.65.53-2.07l5.28-3.11c.72-.42,1.64-.18,2.07.53.42.72.18,1.65-.53,2.07l-5.28,3.11c-.23.14-.5.21-.77.21ZM9.78,33.37l-5.28,3.11c-.25.15-.34.48-.19.73.15.25.49.33.73.19l5.28-3.11c.25-.15.34-.48.19-.73-.15-.25-.47-.34-.73-.19ZM48.49,26.51h-6.13c-.83,0-1.51-.68-1.51-1.51s.68-1.51,1.51-1.51h6.13c.83,0,1.51.68,1.51,1.51s-.68,1.51-1.51,1.51ZM42.36,24.47c-.29,0-.53.24-.53.53s.24.53.53.53h6.13c.29,0,.53-.24.53-.53s-.24-.53-.53-.53h-6.13ZM7.64,26.51H1.51c-.83,0-1.51-.68-1.51-1.51s.68-1.51,1.51-1.51h6.13c.83,0,1.51.68,1.51,1.51s-.68,1.51-1.51,1.51ZM1.51,24.47c-.29,0-.53.24-.53.53s.24.53.53.53h6.13c.29,0,.53-.24.53-.53s-.24-.53-.53-.53H1.51ZM39.95,17.69c-.53,0-1.03-.28-1.3-.74-.42-.72-.18-1.65.53-2.07l5.28-3.11c.72-.42,1.64-.18,2.07.53.42.72.18,1.65-.53,2.07l-5.28,3.11c-.23.14-.5.21-.77.21ZM45.23,12.53c-.09,0-.19.02-.27.07l-5.28,3.11c-.25.15-.34.48-.19.73.15.25.48.33.73.19l5.28-3.11c.25-.15.34-.48.19-.73-.1-.17-.28-.26-.46-.26ZM10.05,17.69c-.27,0-.54-.07-.77-.21l-5.28-3.11c-.35-.21-.6-.54-.7-.93-.1-.39-.04-.8.16-1.14.2-.35.53-.59.93-.7.39-.1.8-.04,1.14.16l5.28,3.11c.35.21.6.54.7.93.1.39.04.8-.16,1.14-.27.46-.77.74-1.3.74ZM4.77,12.53s-.09,0-.13.02c-.14.04-.25.12-.33.25-.07.12-.09.26-.06.4.04.14.12.25.25.33l5.28,3.11c.24.14.58.06.73-.19.07-.12.09-.26.06-.4-.04-.14-.12-.25-.25-.33l-5.28-3.11c-.08-.05-.18-.07-.27-.07ZM33.82,11.56c-.27,0-.53-.07-.77-.21-.35-.21-.6-.54-.7-.93-.1-.39-.04-.8.16-1.14l3.11-5.28c.43-.72,1.35-.96,2.07-.54h0c.35.21.6.54.7.93.1.39.04.8-.16,1.14l-3.11,5.28c-.27.46-.77.74-1.3.74ZM36.94,4.24c-.18,0-.36.09-.46.26l-3.11,5.28c-.07.12-.09.26-.06.4.04.14.12.25.25.33.24.14.58.06.73-.19l3.11-5.28c.07-.12.09-.26.06-.4-.04-.14-.12-.25-.25-.33-.08-.05-.18-.07-.27-.07ZM16.18,11.56c-.53,0-1.03-.28-1.3-.74l-3.11-5.28c-.42-.72-.18-1.65.53-2.07.72-.42,1.65-.18,2.07.53h0s3.11,5.28,3.11,5.28c.42.72.18,1.65-.53,2.07-.23.14-.5.21-.77.21ZM13.06,4.24c-.09,0-.18.02-.27.07-.25.15-.34.48-.19.73l3.11,5.28c.15.25.48.33.73.19.25-.15.33-.47.19-.73l-3.11-5.28c-.1-.17-.28-.26-.46-.26ZM25,9.15c-.83,0-1.51-.68-1.51-1.51V1.51C23.49.68,24.17,0,25,0s1.51.68,1.51,1.51v6.13c0,.83-.68,1.51-1.51,1.51ZM25,.98c-.29,0-.53.24-.53.53v6.13c0,.29.24.53.53.53s.53-.24.53-.53V1.51c0-.29-.24-.53-.53-.53Z" fill="#344767" stroke-width="0"/>
</svg>