<?xml version="1.0" encoding="UTF-8"?>
<svg id="Layer_4" data-name="Layer 4" xmlns="http://www.w3.org/2000/svg" width="50" height="50" viewBox="0 0 50 50">
  <path d="M43.73,25.02c0,9.8-7.57,17.87-17.17,18.67v4.75c0,.86-.7,1.56-1.56,1.56s-1.56-.7-1.56-1.56v-4.75c-9.6-.8-17.17-8.86-17.17-18.67,0-.86.7-1.56,1.56-1.56s1.56.7,1.56,1.56c0,8.61,7,15.61,15.61,15.61s15.61-7,15.61-15.61c0-.86.7-1.56,1.56-1.56s1.56.7,1.56,1.56Z" fill="#344767" stroke-width="0"/>
  <path d="M25.02,0c-5.16,0-9.37,4.2-9.37,9.37v15.61c0,5.16,4.2,9.37,9.37,9.37s9.37-4.2,9.37-9.37v-15.61c0-5.16-4.2-9.37-9.37-9.37ZM31.26,24.98c0,3.44-2.8,6.24-6.24,6.24s-6.24-2.8-6.24-6.24v-15.61c0-3.44,2.8-6.24,6.24-6.24s6.24,2.8,6.24,6.24v15.61Z" fill="#344767" stroke-width="0"/>
</svg>