<?xml version="1.0" encoding="UTF-8"?>
<svg id="Layer_1" data-name="Layer 1" xmlns="http://www.w3.org/2000/svg" width="40" height="90" viewBox="0 0 40 90">
  <g id="_11" data-name="11">
    <path id="root" d="M32.23,62.73c2.32-13.21-4.42-32.14-4.47-32.3-1.91-7.24-7.25-16.73-7.32-16.85-1.81-2.8-3.37-4.15-4.75-4.15-3.37,0-3.84,8.04-3.88,8.95-.14,3.13-1.93,16.31-1.95,16.43-2.03,11.69-1.36,20.93-1.23,22.47.66-1.27,1.43-2.44,2.35-3.45,2.25-2.47,5.11-3.72,8.53-3.72.37,0,.74.02,1.12.05.07,0,.19-.01.38-.01,1.46,0,8.22.67,11.15,12.62" fill="#dcddde" stroke-width="0"/>
    <path id="face" d="M34.77,84.96c-.06-.95-.09-1.59-.11-2.13-.1-2.13-.14-3.02-1.62-15.08-2.07-16.77-10.4-17.61-12.04-17.61-.18,0-.31.01-.38.01-.38-.02-.75-.05-1.12-.05-3.41,0-6.28,1.26-8.53,3.72-.92,1.01-1.69,2.18-2.35,3.45,0,.05,0,.11.01.14-4.57,9.07-3.22,23.68-3.21,23.81.17,3.53.72,4.11,1.16,4.17,8.61,4.51,23.34,4.54,23.47,4.57.22.03.44.04.64.04,1.25,0,2.24-.4,2.94-1.18,1.35-1.47,1.14-3.77,1.13-3.86Z" fill="#d7f0f5" stroke-width="0"/>
    <path d="M34.6,85.01c-.29-4.58.13-1.99-1.74-17.19-.19-1.55-.69-3.79-.97-5.08l-1.13-3.41c.08,1.14.34,6.2.54,7.82,1.87,15.2,1.44,12.62,1.74,17.2,0,0,.46,4.81-3.97,4.64-.16,0-.33-.01-.51-.03-.03,0-.08,0-.13,0-1.27,0-12.1-.2-20.23-3.22-.17-.06-.34-.13-.5-.19.14.06.28.13.41.19,8.24,3.67,20.53,3.88,21.89,3.9.05,0,.1,0,.13,0,.18.02.34.03.51.03,4.43.17,3.97-4.64,3.97-4.64Z" fill="#fff" stroke-width="0"/>
    <path d="M26.34,80.4c.21-.94.35-1.88.42-2.83.14-2-.04-4.01-.34-5.99-.3-2.02-.73-4.03-1.21-6.02-.24-1-.51-2-.79-3-.13-.48-.27-.95-.4-1.43-.13-.45-.2-1.01-.43-1.41-.11-.18-.36-.44-.59-.32-.29.15-.19.64-.13.88.19.87.43,1.74.62,2.61.44,1.99.82,4,1.1,6.02.27,1.95.48,3.91.42,5.88-.03.92-.11,1.84-.29,2.75-.19.95-.53,1.86-.79,2.79-.31,1.12-.74,2.52.26,3.43.26.23.62.41.97.34.42-.09.6-.51.64-.9.14-1.26.33-1.87.54-2.8Z" fill="#fff" stroke-width="0"/>
    <path id="_Path_" data-name="&amp;lt;Path&amp;gt;" d="M30.75,90c-.22,0-.45-.01-.69-.04-.12-.02-14.85-.06-23.46-4.57-.44-.06-1-.64-1.17-4.16-.01-.13-1.36-14.74,3.22-23.81-.1-1.11-.87-10.58,1.22-22.61.02-.12,1.81-13.3,1.95-16.43.04-.92.51-8.95,3.88-8.95,1.38,0,2.93,1.36,4.75,4.15.07.11,5.4,9.62,7.32,16.86.06.16,6.79,19.09,4.47,32.3.38,1.55.68,3.23.9,5.01,1.48,12.04,1.52,12.93,1.62,15.07.03.56.06,1.2.12,2.15,0,.09.21,2.38-1.13,3.86-.71.78-1.72,1.18-2.98,1.18ZM6.75,84.66s.07.02.11.04c8.44,4.47,23.09,4.53,23.23,4.53.25.02.46.04.65.04,1.05,0,1.87-.32,2.44-.94,1.12-1.23.95-3.29.95-3.31-.06-.97-.09-1.61-.12-2.17-.1-2.12-.14-2.99-1.62-15.01-.22-1.78-.52-3.47-.9-5.01-.02-.06-.01-.13,0-.19,2.31-13.01-4.37-31.8-4.44-31.99-1.9-7.18-7.19-16.6-7.25-16.7-2.04-3.14-3.37-3.8-4.12-3.8-2.28,0-3.05,5.96-3.15,8.25-.14,3.16-1.88,15.97-1.96,16.51-2.2,12.67-1.21,22.43-1.2,22.53,0,.04,0,.09,0,.13,0,.03-.02.05-.03.08-4.54,8.87-3.2,23.37-3.19,23.52.13,2.76.5,3.37.6,3.49ZM30.66,90c-.22,0-.45-.01-.69-.04h0c-.43,0-14.94-.11-23.46-4.57-.44-.06-1-.64-1.17-4.16-.07-.77-1.76-19.26,5.64-27.4,2.24-2.47,5.11-3.72,8.52-3.72.37,0,.74.01,1.12.04.06,0,.19-.01.37-.01,1.65,0,9.98.85,12.04,17.61,1.48,12.06,1.52,12.94,1.62,15.07.03.55.06,1.19.12,2.14,0,.09.21,2.38-1.13,3.86-.71.78-1.71,1.18-2.98,1.18ZM6.67,84.66s.07.02.11.04c8.44,4.47,23.09,4.53,23.24,4.53.25.02.46.04.65.04,1.05,0,1.87-.32,2.44-.94,1.13-1.24.95-3.28.95-3.31-.06-.96-.09-1.61-.12-2.17-.1-2.11-.14-2.99-1.62-15.02-1.98-16.15-9.77-16.97-11.32-16.97-.2,0-.31.01-.32.01-.45-.03-.81-.04-1.17-.04-3.2,0-5.88,1.17-7.98,3.48-7.18,7.91-5.47,26.67-5.45,26.86.13,2.76.5,3.37.6,3.49Z" fill="#495059" stroke-width="0"/>
  </g>
</svg>