<?xml version="1.0" encoding="UTF-8"?>
<svg id="Layer_1" data-name="Layer 1" xmlns="http://www.w3.org/2000/svg" width="40" height="90" viewBox="0 0 40 90">
  <g id="_12" data-name="12">
    <path id="root" d="M12.34,56.27s.04-.09.06-.12c5.75-7.53,11.95-7.9,17.45-.81.04.05.06.11.07.17-.34-2.2-.58-3.74-.59-3.77-.44-8.24-2.61-25.38-2.63-25.5-.02-2.31-.72-10.46-.78-11.18.35-2.95-.42-6.78-.44-6.94-.01-.04-.02-.06-.04-.09-1.21-2.74-2.24-4.02-3.24-4.02-2.16,0-2.56,6.08-2.63,7.28-.31,2.63-2.47,11.02-2.48,11.09-1.99,6.35-1.7,20.42-1.69,20.99-.3,5.88-4.77,17.83-4.8,17.92,0,0,.2-.53.52-1.42.31-.9.75-2.15,1.21-3.58Z" fill="#dcddde" stroke-width="0"/>
    <path id="face" d="M32.92,79.78c-.02-2.71-.63-6.75-.88-8.33-.05-.29-.08-.5-.1-.6l.02-.23s.01-.06.01-.09c-.01-.15-.03-.31-.04-.48,0-.06-.01-.12-.02-.18-.01-.11-.02-.23-.03-.35-.01-.1-.02-.2-.03-.3,0-.08-.02-.17-.03-.26-.01-.13-.03-.27-.05-.41,0-.06-.01-.11-.02-.17-.38-3.18-1.08-7.97-1.63-11.6l-.19-1.21s0-.05-.01-.07c-.01-.06-.04-.12-.07-.17-5.5-7.09-11.7-6.72-17.45.81-.02.04-.05.07-.06.12-.46,1.43-.9,2.68-1.21,3.58-.32.89-.52,1.42-.52,1.42-.19.4-.37.79-.55,1.18-.15.34-.3.67-.44.99-.07.18-.15.35-.22.52-.13.31-.25.62-.37.92-.07.17-.13.34-.2.51-.11.29-.21.57-.31.85-.06.17-.11.33-.17.49-.09.27-.17.54-.25.8-.05.16-.09.31-.14.46-.07.26-.14.51-.2.75-.04.15-.07.3-.11.44-.06.24-.11.47-.16.7-.03.14-.06.28-.08.41-.04.22-.08.44-.12.66-.02.13-.04.26-.06.39-.03.21-.06.41-.08.61-.01.13-.02.25-.04.37-.02.19-.03.38-.04.56,0,.12-.01.24-.01.36,0,.17-.01.34-.01.5,0,.12,0,.24,0,.35,0,.15,0,.3.02.44,0,.12.02.24.03.36.01.12.02.25.03.37.02.13.03.26.05.39.01.1.03.19.04.28.03.15.06.29.09.43.01.06.02.12.04.18.04.18.09.35.14.51,0,.01,0,.03.01.05.06.18.11.35.18.52.92,2.43,2.53,3.3,2.87,3.48,2.4,2.08,6.23,2.97,6.79,3.1,2.53,1.49,4.76,1.8,6.19,1.8,1.02,0,1.71-.16,1.94-.21,3.14.3,5.33-.25,6.47-1.6.11-.13.21-.26.29-.4.42-.67.51-1.34.52-1.78,0-.17,0-.3-.01-.38,0,0,0,0,0,0,0,0,0,0,0,0,.1-.46.14-1.1.13-1.83Z" fill="#d7f0f5" stroke-width="0"/>
    <path d="M32.52,79.87c0-2.01-.26-4.02-.53-6.01-.11-.79-.22-1.57-.35-2.35-.05-.33-.12-.6-.07-.93.06-.41-.08-.93-.12-1.33-.06-.52-.12-1.05-.18-1.57-.12-1.01-.26-2.02-.4-3.03-.28-2.06-.58-4.11-.89-6.17-.15-.98-.3-1.95-.47-2.93-.59-.76-1.23-1.48-1.93-2.15.65,4.04,1.29,8.08,1.82,12.14.13,1.01.26,2.01.37,3.02.05.43.18.95.11,1.37-.07.46.09.99.17,1.45.29,1.81.51,3.63.68,5.46-.03-.29-.06-.58-.09-.88.1.99.18,1.98.19,2.98,0,.49.04,1.02-.07,1.5-.1.42-.01.83-.08,1.25-.22,1.35-1.22,2.25-2.48,2.66-1.28.43-2.69.45-4.02.35-.48-.04-.92.09-1.4.14-.51.05-1.02.05-1.53.02-1.01-.06-2.01-.28-2.96-.61,1.52.78,3.2,1.29,4.92,1.35.74.03,1.52,0,2.23-.2.11-.03.24,0,.34.02.23.02.46.03.69.04.4.02.8.02,1.2,0,1.45-.07,3.14-.4,4.08-1.62.41-.53.63-1.19.64-1.85,0-.32,0-.56.06-.88.08-.39.06-.82.06-1.22,0-.04,0,.14,0,0Z" fill="#fff" stroke-width="0"/>
    <path d="M13.81,77.59c-.11-1.07-.43-2.01-.63-3.02-.25-1.25-.28-2.59-.13-3.99.25-2.3.9-4.65,1.65-6.99.45-1.41.98-2.83,1.53-4.23.22-.54.43-1.09.65-1.64.2-.5.87-.73.94-.23.05.3-.21.82-.31,1.13-.23.7-.47,1.4-.67,2.1-.41,1.42-.83,2.84-1.15,4.26-.64,2.88-1.09,5.83-.39,8.29.2.69.48,1.33.68,2.01.13.44.34.98.27,1.52-.18,1.49-2.31,2.18-2.44.79Z" fill="#fff" stroke-width="0"/>
    <path id="_Path_" data-name="&amp;lt;Path&amp;gt;" d="M23.58,86c-1.44,0-3.67-.31-6.19-1.8-.57-.12-4.39-1.01-6.8-3.1-.35-.17-1.95-1.05-2.87-3.48-1-2.65-1.31-7.63,2.9-16.35.03-.09,4.5-12.03,4.8-17.92-.01-.57-.29-14.63,1.68-20.98.02-.07,2.17-8.46,2.48-11.09.06-1.19.47-7.27,2.62-7.27,1,0,2.04,1.28,3.25,4.02.01.03.02.05.03.08.03.16.79,4,.44,6.95.06.73.75,8.88.78,11.18.02.13,2.19,17.27,2.63,25.51.02.1,2.3,14.42,2.63,18.79,0,.03,0,.06,0,.09l-.03.24c.14.82,1.39,8.29.85,10.77.04.33.09,1.52-.8,2.57-1.14,1.35-3.33,1.89-6.47,1.6-.23.06-.92.21-1.93.21ZM22.2,4.79c-.93,0-1.68,3.4-1.84,6.54-.32,2.71-2.42,10.89-2.51,11.24-1.94,6.25-1.66,20.63-1.66,20.78-.31,6.04-4.67,17.73-4.86,18.22-4.09,8.48-3.83,13.23-2.9,15.73.88,2.37,2.5,3.09,2.52,3.09.04.02.08.04.11.07,2.39,2.11,6.5,2.96,6.54,2.97.04,0,.09.02.12.05,2.38,1.43,4.49,1.72,5.84,1.72,1.1,0,1.78-.2,1.79-.2.05-.01.1-.02.15-.01,2.9.29,4.9-.17,5.86-1.31.78-.93.61-2.01.61-2.02,0-.05,0-.11,0-.16.56-2.33-.84-10.5-.86-10.58,0-.04,0-.08,0-.12l.04-.25c-.35-4.39-2.6-18.58-2.63-18.72-.44-8.25-2.61-25.36-2.63-25.53-.03-2.37-.78-11.12-.79-11.21,0-.03,0-.06,0-.08.33-2.67-.34-6.27-.42-6.7-1.41-3.16-2.23-3.5-2.51-3.5ZM23.58,86c-1.44,0-3.67-.31-6.18-1.8-.57-.12-4.39-1.01-6.8-3.1-.34-.17-1.92-1.03-2.84-3.41-.98-2.52-1.36-7.24,2.41-15.46.15-.32.3-.64.46-.97h0s.8-2.13,1.73-5c.01-.04.04-.08.06-.12,5.74-7.54,11.94-7.91,17.44-.82.04.05.07.12.08.18l.38,2.5c.65,4.34,1.47,10.03,1.66,12.52,0,.03,0,.06,0,.09l-.03.24c.14.82,1.39,8.29.85,10.77.04.33.09,1.52-.8,2.57-1.14,1.35-3.33,1.89-6.47,1.6-.23.06-.92.21-1.94.21ZM13.08,56.58c-.93,2.86-1.73,4.98-1.74,5-.17.36-.32.68-.47,1-3.65,7.96-3.31,12.46-2.39,14.84.9,2.31,2.46,2.99,2.48,2.99.04.02.08.04.11.07,2.39,2.11,6.5,2.96,6.54,2.97.04,0,.09.02.12.05,2.38,1.42,4.49,1.72,5.84,1.72,1.1,0,1.78-.2,1.79-.2.05-.01.1-.02.15-.02,2.88.29,4.88-.16,5.85-1.3.79-.92.63-1.98.62-2.03,0-.05,0-.11,0-.16.56-2.33-.84-10.5-.86-10.58,0-.04,0-.08,0-.12l.04-.25c-.2-2.49-1-8.12-1.65-12.42l-.36-2.4c-2.45-3.13-5-4.72-7.56-4.72-3.52,0-6.57,3.01-8.52,5.56Z" fill="#495059" stroke-width="0"/>
  </g>
</svg>