<?xml version="1.0" encoding="UTF-8"?>
<svg id="Layer_1" data-name="Layer 1" xmlns="http://www.w3.org/2000/svg" width="40" height="90" viewBox="0 0 40 90">
  <g id="_14" data-name="14">
    <path id="root" d="M20.09,60.15c3.29,0,6.55,1.96,9.65,5.81.02.02.03.04.04.08.22.45.55,1.19.91,2.14.28.76.59,1.68.86,2.72-.84-3.16-1.99-5.3-2.06-5.44-.85-1.64-2.16-8.89-2.27-9.47.05-1.76-.7-7.77-.73-8.01-.1-1.91-1.54-10.11-1.6-10.43-.98-14.03-4.57-21.41-4.63-21.54-.51-.68-1-1.01-1.52-1.01-1.65,0-2.51,3.75-2.92,6.37-.28-.88-.68-1.3-1.23-1.3-.71,0-1.25.86-1.29.94-1.35,2-.14,16.57.01,18.25.33,1.97-.07,10.66-.07,10.74,0,.03,0,.05.01.09.36,1.79-1.28,10.33-2.26,14.87.02-.05.05-.12.1-.16,2.01-1.99,5.13-4.64,8.99-4.64Z" fill="#dcddde" stroke-width="0"/>
    <path id="face" d="M27.03,86.22c.95-1.2,2.56-1.73,2.6-1.75,2.59-1.12,2.95-4.19,2.92-6.07-.01-.68-.08-1.2-.11-1.41,0-.05-.01-.09-.02-.1,0-.42-.03-.83-.06-1.23,0-.11-.02-.22-.03-.33-.03-.3-.05-.6-.09-.89-.01-.1-.03-.2-.04-.3-.04-.3-.09-.61-.14-.9-.01-.08-.03-.15-.04-.22-.06-.32-.12-.64-.19-.95,0-.04-.02-.09-.03-.13-.08-.34-.16-.68-.24-1,0-.01,0-.02,0-.03-.27-1.04-.58-1.96-.86-2.72-.36-.96-.7-1.7-.91-2.14-.01-.03-.02-.05-.04-.08-3.11-3.85-6.36-5.81-9.65-5.81-3.86,0-6.98,2.65-8.99,4.64-.04.04-.07.11-.1.16-.02.09-.04.18-.06.26-.21.43-.41.85-.6,1.26-.08.18-.16.36-.24.54-.08.18-.16.36-.24.54-.32.75-.61,1.48-.86,2.19-.01.04-.03.08-.04.12-.26.73-.49,1.43-.68,2.12,0,.01,0,.02,0,.04-.78,2.8-1.01,5.27-.68,7.39,0,.04.01.08.02.12.08.49.19.96.33,1.41.02.06.04.11.05.16.14.43.31.84.51,1.24.1.2.21.37.31.55.1.18.2.36.31.52.12.17.25.32.38.48.11.14.22.28.33.41.13.14.26.26.39.38.12.11.24.24.36.34.12.1.23.18.34.26.13.1.27.21.4.3.08.05.15.09.23.14.16.1.32.2.46.28.01,0,.02,0,.03.02.63.33,1.14.5,1.36.56,2.12,2.27,4.36,3.42,6.65,3.42,4.09,0,6.86-3.63,6.97-3.78Z" fill="#d7f0f5" stroke-width="0"/>
    <path d="M27.26,63.76c.03.1.06.21.1.31.28.83.72,1.59,1.06,2.4,1.3,3.06,2.12,6.4,2.17,9.74.42,2.61.03,6.24-2.77,7.33-1.07.42-1.95,1.07-2.68,1.95-.51.62-1.1,1.17-1.73,1.66-1.96,1.51-4.41,2.23-6.8,1.51.14.08.28.15.43.22.09.04.18.08.27.12.04.02.09.04.13.06.61.25,1.19.4,1.76.47.03,0,.05,0,.08.01.07,0,.14.02.21.02.05,0,.1,0,.14,0,.11,0,.22.01.32.01.02,0,.04,0,.06,0,.14,0,.29,0,.43-.02.02,0,.03,0,.05,0,.14-.01.28-.03.41-.04.04,0,.07-.01.11-.02.09-.01.17-.03.25-.04,2.93-.57,4.97-2.95,5.37-3.43.05-.06.07-.09.07-.09,1.03-1.31,2.73-1.85,2.73-1.85.22-.1.43-.21.61-.34,2.82-1.9,1.97-6.92,1.97-6.92,0-.07,0-.13,0-.2,0-.14,0-.27-.01-.41,0-.08,0-.17-.01-.25,0-.12-.01-.24-.02-.35,0-.09-.01-.17-.02-.25,0-.11-.02-.23-.03-.34,0-.08-.02-.17-.03-.25-.01-.11-.02-.23-.04-.34-.01-.08-.02-.16-.03-.24-.01-.11-.03-.22-.05-.34-.01-.08-.02-.16-.04-.23-.02-.11-.04-.22-.05-.34-.01-.07-.03-.15-.04-.22-.02-.11-.04-.23-.06-.34-.01-.07-.03-.14-.04-.2-.02-.12-.05-.24-.07-.35-.01-.06-.02-.12-.04-.18-.03-.14-.06-.28-.1-.42,0-.03-.02-.07-.02-.1-.04-.17-.08-.33-.12-.49-.02-.08-.04-.15-.06-.23-.02-.08-.05-.17-.07-.25-.03-.09-.05-.18-.08-.27-.02-.06-.04-.13-.06-.19-.03-.1-.06-.19-.09-.29-.01-.05-.03-.1-.04-.14-.03-.1-.07-.2-.1-.31-.01-.03-.02-.07-.03-.1-.04-.11-.08-.22-.11-.33,0-.01,0-.02-.01-.04-.43-1.23-.85-2.18-1.12-2.74-.73-.91-1.46-1.69-2.17-2.35Z" fill="#fff" stroke-width="0"/>
    <path d="M14.67,64c-.21,1.02-.61,1.89-.91,2.85-.36,1.18-.54,2.47-.55,3.83-.01,2.24.35,4.56.8,6.89.27,1.4.61,2.82.98,4.22.14.54.28,1.09.43,1.63.13.5.73.78.86.31.08-.28-.11-.81-.17-1.12-.14-.69-.29-1.39-.4-2.08-.24-1.41-.47-2.81-.62-4.21-.29-2.83-.4-5.72.52-8.03.26-.65.59-1.23.85-1.88.17-.41.42-.92.42-1.44,0-1.45-1.92-2.31-2.19-.99Z" fill="#fff" stroke-width="0"/>
    <path id="_Path_" data-name="&amp;lt;Path&amp;gt;" d="M20.06,90c-2.3,0-4.53-1.15-6.65-3.42-.6-.17-3.43-1.1-4.97-4.35-1.91-4-1.06-9.73,2.51-17.02.97-4.46,2.68-13.3,2.31-15.13,0-.03,0-.06,0-.09,0-.09.39-8.77.06-10.75-.15-1.68-1.36-16.25,0-18.25.05-.08.59-.94,1.3-.94.54,0,.94.42,1.23,1.31.41-2.63,1.27-6.38,2.93-6.38.51,0,1.01.33,1.51,1.01.07.13,3.66,7.51,4.63,21.54.06.31,1.51,8.51,1.6,10.43.03.23.78,6.25.73,8.01.1.57,1.42,7.83,2.27,9.47.11.2,2.83,5.24,2.93,11.43.04.19.97,5.95-2.79,7.59-.05.02-1.65.55-2.6,1.75-.11.15-2.87,3.78-6.97,3.78ZM13.95,49.99c.46,2.54-2.21,14.89-2.33,15.42,0,.03-.02.05-.03.08-3.49,7.11-4.34,12.64-2.52,16.45,1.55,3.26,4.58,3.99,4.61,3.99.07.02.13.05.18.1,2,2.17,4.09,3.27,6.21,3.27,3.74,0,6.39-3.47,6.42-3.51,1.09-1.38,2.83-1.95,2.91-1.98,3.23-1.41,2.35-6.82,2.35-6.87-.09-6.06-2.82-11.11-2.85-11.16-.93-1.79-2.29-9.39-2.35-9.71,0-.02,0-.05,0-.07.06-1.65-.72-7.9-.73-7.97-.09-1.9-1.58-10.32-1.59-10.4-.97-13.91-4.5-21.19-4.54-21.26-.32-.43-.65-.68-.92-.68-1.22,0-2.2,4.67-2.51,7.99-.02.18-.17.32-.35.32h0c-.18,0-.33-.13-.35-.31-.29-2.85-.88-2.93-.95-2.93-.24,0-.58.4-.71.62-.92,1.37-.44,11.38.11,17.78.33,1.97-.02,10.09-.06,10.82ZM20.06,90c-2.3,0-4.53-1.15-6.65-3.42-.58-.16-3.31-1.06-4.87-4.15-1.82-3.57-1.36-8.6,1.36-14.94.3-.71.66-1.48,1.05-2.28l.06-.25c.01-.06.05-.12.09-.17,2.01-1.99,5.13-4.64,8.99-4.64,3.29,0,6.54,1.95,9.66,5.81.02.02.03.04.04.07.22.45.55,1.19.91,2.15.76,2.04,1.68,5.2,1.73,8.71.04.19.97,5.95-2.79,7.58-.05.02-1.65.55-2.6,1.75-.11.15-2.87,3.78-6.97,3.78ZM11.66,65.22l-.04.18s-.02.06-.03.08c-.39.8-.75,1.57-1.05,2.28-2.63,6.13-3.1,10.96-1.39,14.34,1.57,3.1,4.49,3.82,4.52,3.82.07.02.13.05.18.1,2,2.17,4.09,3.27,6.21,3.27,3.75,0,6.39-3.47,6.42-3.51,1.09-1.38,2.83-1.95,2.91-1.98,3.23-1.41,2.35-6.82,2.34-6.87-.06-3.46-.95-6.54-1.69-8.53-.34-.9-.66-1.61-.87-2.05-2.97-3.66-6.03-5.52-9.09-5.52-3.56,0-6.5,2.47-8.43,4.37Z" fill="#495059" stroke-width="0"/>
  </g>
</svg>