<?xml version="1.0" encoding="UTF-8"?>
<svg id="Layer_1" data-name="Layer 1" xmlns="http://www.w3.org/2000/svg" width="40" height="90" viewBox="0 0 40 90">
  <g id="_15" data-name="15">
    <path id="root" d="M20.73,58.75c3.18,0,6.08,1.77,8.63,5.27.02.04.05.07.06.12-1.19-4.23-2.04-7.47-2.54-9.59-.24-1.27-5.96-31.16-9.18-37.57-.02-.07-.74-1.99-2.76-1.99-.61,0-1.27.18-1.89.52-.11.04-2.64.84-1.5,5.51-.01.38-.11,2.5.17,4.25.11,2.36.16,5.01.04,5.42-.05.32-1.2,7.91-.9,10.72.11,5.45.24,13.72.2,14.14-.08.3-.62,6.42-.77,9.06.01-.1.05-.18.11-.25,2.4-2.56,6.14-5.62,10.33-5.62Z" fill="#dcddde" stroke-width="0"/>
    <path id="face" d="M31.59,71.74s-.08-.31-.23-.77c-.22-.74-.56-1.98-.99-3.48-.3-1.02-.62-2.16-.95-3.36-.01-.05-.04-.08-.06-.12-2.55-3.5-5.45-5.27-8.63-5.27-4.19,0-7.93,3.06-10.33,5.62-.06.07-.1.16-.11.25-.01.3-.02.58-.02.78-.07.2-.32.92-.61,1.85-.52,1.67-1.1,3.89-1.03,5.18-.18.75-1.7,7.56,1.17,11.74,1.17,1.7,2.91,2.73,5.19,3.06.43.6,2.18,2.78,5.02,2.78,2.46,0,5.02-1.64,7.61-4.85.24-.28,5.73-6.76,3.97-13.41Z" fill="#d7f0f5" stroke-width="0"/>
    <path d="M31.55,74.27c-.01-.8-.11-1.62-.33-2.44-.02-.09-.53-1.82-1.22-4.23-.29-1.02-.61-2.16-.95-3.35-.7-.96-1.41-1.76-2.12-2.43.16.58.32,1.16.48,1.72.33,1.19.66,2.33.95,3.35.69,2.42,1.2,4.14,1.22,4.23,1.73,6.54-3.88,13.06-3.88,13.06-3.53,4.39-6.42,5.08-8.5,4.58,1.02.64,2.4,1.1,4.11.68,0,0,0,0,0,0,.1-.03.21-.05.32-.09,0,0,0,0,0,0,.33-.1.66-.23,1.01-.4,0,0,0,0,0,0,.11-.05.22-.11.33-.17,0,0,.02-.01.03-.02.11-.06.23-.13.35-.2,0,0,0,0,0,0,.36-.22.73-.47,1.1-.77.01-.01.03-.02.04-.03.11-.09.23-.18.34-.28.01-.01.02-.02.03-.03.38-.33.77-.7,1.18-1.12.01-.01.03-.03.04-.04.12-.12.24-.25.36-.39.02-.02.04-.04.05-.06.13-.14.25-.29.38-.44,0,0,.01-.01.02-.02.14-.17.28-.33.42-.51,0,0,4.3-5,4.21-10.62Z" fill="#fff" stroke-width="0"/>
    <path d="M13.96,63.75c-.12.88-.41,1.64-.61,2.48-.24,1.03-.32,2.13-.26,3.29.1,1.9.51,3.85,1,5.81.29,1.18.64,2.35,1.02,3.53.14.45.29.91.43,1.36.13.42.64.62.72.21.05-.25-.13-.68-.2-.94-.15-.58-.31-1.17-.44-1.75-.26-1.18-.53-2.36-.72-3.54-.38-2.39-.61-4.84.03-6.85.18-.57.43-1.08.61-1.65.12-.36.3-.8.27-1.25-.08-1.24-1.7-1.85-1.86-.71Z" fill="#fff" stroke-width="0"/>
    <path id="_Path_" data-name="&amp;lt;Path&amp;gt;" d="M20.01,90c-2.85,0-4.59-2.17-5.02-2.79-2.27-.32-4.02-1.34-5.19-3.05-2.87-4.18-1.36-10.99-1.18-11.74-.07-1.28.52-3.51,1.03-5.18.29-.92.54-1.64.61-1.84,0-.21.02-.48.03-.79.14-2.63.68-8.75.76-9.06.04-.42-.1-8.69-.2-14.14-.3-2.82.85-10.4.9-10.72.12-.41.07-3.06-.03-5.42-.28-1.74-.19-3.87-.17-4.25-1.14-4.68,1.39-5.48,1.5-5.51.62-.33,1.28-.51,1.89-.51,2.01,0,2.73,1.91,2.76,1.99,3.22,6.41,8.94,36.29,9.18,37.56.5,2.13,1.35,5.36,2.53,9.59.33,1.19.66,2.34.95,3.35.43,1.5.79,2.74,1,3.48.13.46.21.73.22.77,1.76,6.65-3.73,13.13-3.96,13.41-2.59,3.22-5.15,4.86-7.61,4.86ZM14.94,15.77c-.48,0-1.02.15-1.6.45-.14.05-2.01.71-1.02,4.67,0,.04.01.08.01.11,0,.02-.13,2.35.16,4.19.06,1.23.21,5.14.01,5.68,0,0-1.16,7.73-.87,10.48.12,6.43.25,14.11.17,14.39-.06.32-.58,6.08-.73,8.9-.02.33-.03.61-.03.83,0,.04,0,.08-.02.12,0,0-.29.79-.62,1.87-.71,2.3-1.06,4.06-1,4.96,0,.04,0,.08-.01.12-.02.07-1.73,7.13,1.05,11.18,1.07,1.56,2.7,2.48,4.83,2.74.11.01.22.08.28.18.02.03,1.66,2.58,4.47,2.58,2.22,0,4.58-1.54,7.02-4.58.06-.07,5.47-6.46,3.81-12.72-.01-.05-.09-.31-.22-.75-.21-.74-.57-1.98-1-3.48-.29-1.02-.62-2.16-.95-3.36-1.19-4.24-2.04-7.48-2.55-9.64-.06-.32-5.94-31.06-9.13-37.41-.04-.1-.59-1.53-2.06-1.53ZM20.01,90c-2.85,0-4.59-2.17-5.02-2.79-2.27-.32-4.02-1.34-5.19-3.05-2.87-4.18-1.36-10.99-1.18-11.74-.07-1.28.52-3.51,1.03-5.18.29-.92.54-1.64.61-1.84,0-.21.02-.48.03-.79,0-.09.04-.18.1-.24,2.4-2.57,6.14-5.63,10.32-5.63,3.18,0,6.08,1.78,8.63,5.28.03.04.05.08.06.12.33,1.19.66,2.34.95,3.35.43,1.5.79,2.74,1,3.48.13.46.21.73.22.77,1.76,6.65-3.73,13.13-3.96,13.41-2.59,3.22-5.15,4.86-7.61,4.86ZM11.06,64.79c-.01.27-.02.5-.03.69,0,.04,0,.08-.02.12,0,0-.29.79-.62,1.87-.71,2.3-1.06,4.06-1,4.96,0,.04,0,.08-.01.12-.02.07-1.73,7.13,1.05,11.18,1.07,1.56,2.7,2.48,4.83,2.74.11.01.22.08.28.18.02.03,1.66,2.58,4.47,2.58,2.22,0,4.58-1.54,7.02-4.58.06-.07,5.47-6.46,3.81-12.72-.01-.05-.09-.31-.21-.75-.22-.74-.57-1.98-1-3.48-.29-1-.6-2.12-.93-3.29-2.39-3.26-5.07-4.91-7.97-4.91-3.85,0-7.37,2.85-9.67,5.28Z" fill="#495059" stroke-width="0"/>
  </g>
</svg>