<?xml version="1.0" encoding="UTF-8"?>
<svg id="Layer_1" data-name="Layer 1" xmlns="http://www.w3.org/2000/svg" width="40" height="90" viewBox="0 0 40 90">
  <g id="_16" data-name="16">
    <path id="root" d="M36.05,65.03c-.04-.06-.09-.1-.15-.13-.31-.14-.64-.28-.95-.4-1.26-.48-2.57-.81-3.9-.98-3.46-.42-5.91.36-6.05.42-1.46.63-3.13.84-4.95.62-1.97-.24-3.41-.92-3.44-.93-2.98-1.16-6.59-.79-10.59,1.08-.43.2-.88.41-1.32.66-.03.02-.05.04-.09.07.29-.36.52-.63.65-.78-.67-3.43,2.17-8.32,2.28-8.53,1.37-2.08,1.8-6.65,1.81-6.69-.18-7.97-5.29-20.08-5.33-20.2-1.49-5.32-1.07-7.99-1.06-8.1.42-5.16,2.19-5.62,2.61-5.65.38-.12.73-.16,1.07-.12,2.04.25,2.36,3.22,2.38,3.35.11,1.02.86,5.02.87,5.07.23,3.89,2.56,6.41,2.58,6.43.42.53.92,1.2,1.41,1.91,0-3.54-.04-11.13-.26-12.7-.02-.13-.37-3.1,1.11-4.59.8-.8,1.95-1.01,3.44-.62.11.01.67.13,1.32.84s1.38,2.04,1.88,4.47c.02.1,1.46,8.35,5.65,11.79.19-2.36-.57-5.33-.58-5.36-.33-2.27-.07-3.32-.06-3.37.84-4.18,2.7-4.59,3.11-4.63,1.2-.42,2.12-.23,2.68.52.92,1.21.58,3.52.55,3.62-.34,4.19,1.16,7.92,1.18,7.96,5.69,13.11,2.52,27.28,2.48,27.42-.32,2.75-.87,5.72-1,6.38.22.39.45.79.65,1.19Z" fill="#dcddde" stroke-width="0"/>
    <path id="face" d="M39.61,82.83c-1.17,5.5-3.85,6.21-4.3,6.3-1.79.77-3.7,1.02-5.7.78-3.04-.37-5.16-1.78-5.25-1.85-1.32-1.05-2.8-1.67-4.41-1.87-3.81-.47-7.16,1.6-7.19,1.61-.02,0-.05.03-.07.04-2.37.8-4.35,1.1-5.89.91-2.08-.26-2.73-1.35-2.87-1.61-.21-.26-.4-.54-.58-.8-.27-.39-.52-.78-.74-1.16-.18-.31-.35-.6-.5-.9-1.02-1.98-1.53-3.91-1.7-5.73-.04-.44-.05-.85-.06-1.27,0-.24,0-.48,0-.7.03-.81.12-1.6.27-2.35.03-.19.07-.39.1-.57.02-.03.02-.08.02-.11.04-.18.09-.35.13-.52.05-.2.11-.4.16-.58,0-.06.02-.11.04-.16.08-.26.17-.52.24-.78.1-.25.19-.5.28-.74.07-.18.15-.36.21-.52.64-1.5,1.38-2.76,2.02-3.73.04-.05.07-.09.1-.15.07-.08.12-.17.18-.25.04-.05.08-.1.11-.16.07-.08.12-.16.18-.23.08-.11.15-.22.23-.31h0s.06-.06.09-.08c.44-.24.89-.46,1.32-.66,4-1.87,7.61-2.24,10.59-1.08.03.02,1.47.69,3.44.93,1.81.22,3.48,0,4.95-.62.13-.05,2.59-.84,6.05-.42,1.33.16,2.64.49,3.9.98.31.12.64.26.95.4.06.03.12.07.15.13.01,0,0,.01.02.03.08.16.16.3.24.47.27.57.53,1.13.77,1.7.45,1.08.82,2.14,1.13,3.18.3,1.05.55,2.07.75,3.04.14.65.24,1.28.34,1.89.28,1.9.37,3.57.39,4.85,0,.02,0,.06,0,.08,0,.29,0,.56,0,.81,0,.14-.01.27-.01.4,0,.24-.01.45-.02.63-.02.46-.04.72-.04.73Z" fill="#d7f0f5" stroke-width="0"/>
    <path d="M23.1,48.89c.95,2.93,1.34,5.97,1.41,9.01-.04,1.55-.15,3.06-.45,4.58-.19.91-1.57,2.34-2.18.73-.29-.76.41-2.02.57-2.68.41-1.5.53-3.09.59-4.63.09-1.56-.01-3.18-.22-4.73-.08-.66-.18-1.33-.32-1.98-.07-.31.41-.89.61-.3Z" fill="#c9c8c8" stroke-width="0"/>
    <path d="M22.33,66.74c-.62,1.57-.29,3.19.13,4.76.24.88.51,1.76.64,2.66.11.78.09,1.65-.48,2.28-.44.48-1.16.65-1.41,1.29-.24.63.09,1.35.73,1.6.7.28,1.26-.09,1.76-.53.6-.53,1.08-1.2,1.33-1.95.68-2.03-.43-4.04-1.25-5.84-.41-.89-.84-1.85-.92-2.84-.03-.41-.01-.8.08-1.21.08-.38-.45-.63-.61-.23Z" fill="#fff" stroke-width="0"/>
    <path id="_Path_" data-name="&amp;lt;Path&amp;gt;" d="M6.78,88.75h0c-2.08-.26-2.73-1.35-2.86-1.61-8.3-10.78.18-21.16,1.35-22.5-.67-3.43,2.16-8.31,2.29-8.52,1.37-2.08,1.8-6.65,1.81-6.7-.18-7.97-5.29-20.07-5.34-20.19-1.49-5.32-1.07-8-1.05-8.11.42-5.16,2.19-5.62,2.61-5.65.38-.12.74-.15,1.07-.11,2.04.25,2.36,3.22,2.38,3.34.12,1.03.86,5.03.87,5.07.23,3.89,2.57,6.41,2.59,6.43,1.7,2.11,4.52,6.52,4.64,6.71,2.63,3.72,4.59,8.54,4.6,8.59.45,1.27.8,1.38.87,1.39.33.04.88-.93,1.15-1.83,0-.02.02-.05.03-.07,2.68-4.83,3.18-12.98,3.19-13.07.4-2.42-.5-5.95-.51-5.99-.34-2.27-.07-3.33-.06-3.37.83-4.18,2.69-4.59,3.11-4.62,1.19-.42,2.12-.23,2.69.53.92,1.21.57,3.52.55,3.62-.35,4.19,1.16,7.92,1.18,7.96,5.69,13.11,2.52,27.27,2.49,27.42-.32,2.76-.87,5.72-1,6.38,5.19,8.96,4.21,18.9,4.2,19-1.18,5.5-3.85,6.22-4.3,6.3-1.79.77-3.71,1.03-5.7.78-3.04-.37-5.16-1.79-5.25-1.85-1.32-1.05-2.8-1.67-4.41-1.87-3.8-.47-7.15,1.59-7.19,1.61-.02.02-.05.03-.08.04-2.37.8-4.35,1.1-5.89.91ZM6.57,16.07c-.24-.03-.52,0-.81.1-.04.01-.08.02-.12.02,0,0-1.56.15-1.95,5.02,0,.05-.41,2.69,1.02,7.78.04.08,5.2,12.3,5.38,20.45-.02.24-.46,4.84-1.91,7.06-.02.03-2.91,5.01-2.16,8.16.03.12,0,.24-.09.33-.41.43-9.92,10.72-1.41,21.74.02.03.04.06.05.09.02.03.43.98,2.3,1.21h0c1.43.18,3.29-.12,5.54-.87.41-.25,3.74-2.17,7.62-1.69,1.75.21,3.35.89,4.75,2.01h0s2.06,1.36,4.91,1.71c1.88.23,3.69-.02,5.37-.75.03-.01.07-.02.1-.03.02,0,2.6-.41,3.73-5.7,0-.06.96-9.86-4.18-18.64-.04-.08-.06-.17-.04-.25,0-.03.66-3.38,1.02-6.5.04-.18,3.16-14.12-2.44-27.01-.07-.16-1.6-3.94-1.23-8.33,0-.05.32-2.13-.41-3.1-.39-.51-1.02-.59-1.92-.26-.04.02-.09.02-.13.02,0,0-1.67.08-2.47,4.07,0,.03-.24,1.01.06,3.07.03.11.94,3.68.52,6.21-.02.3-.51,8.32-3.25,13.3-.15.49-.83,2.44-1.92,2.3-.57-.07-1.04-.66-1.46-1.87-.01-.04-1.91-4.72-4.52-8.42-.04-.06-2.93-4.58-4.58-6.64-.08-.09-2.52-2.71-2.76-6.82-.03-.12-.74-4.02-.87-5.08,0-.03-.28-2.53-1.75-2.71ZM22.5,47.62c-.57-.07-1.04-.66-1.46-1.87-.02-.04-1.93-4.75-4.52-8.42-.02-.03-1.19-1.86-2.45-3.7l-.11-.16c-.05-.07-.07-.16-.06-.25v-.07c0-2.78-.02-12-.26-13.74-.02-.13-.37-3.11,1.11-4.59.8-.8,1.96-1.01,3.43-.62h0c.22.03,2.22.46,3.2,5.31.02.1,1.57,9,6.14,12.15.1.07.16.19.16.32-.02.34-.51,8.36-3.26,13.34-.15.49-.83,2.44-1.92,2.3ZM14.62,33.15l.05.07c1.27,1.85,2.44,3.69,2.46,3.71,2.64,3.74,4.58,8.54,4.6,8.58.45,1.28.8,1.38.87,1.39.33.04.88-.93,1.15-1.83,0-.02.02-.05.03-.07,2.45-4.41,3.08-11.58,3.17-12.86-4.69-3.42-6.21-12.12-6.27-12.5-.9-4.44-2.61-4.73-2.63-4.74-.3-.07-.53-.12-.75-.15-.88-.11-1.55.08-2.04.57-1.23,1.24-.91,3.96-.9,3.99.24,1.78.26,11.04.26,13.83h0ZM6.78,88.75c-2.08-.26-2.73-1.35-2.86-1.61-5.9-7.67-3.26-15.13-1.16-18.9.68-1.22,1.37-2.19,1.83-2.79.03-.04.07-.07.11-.1,4.53-2.43,8.6-3.03,11.9-1.74.04.02,1.47.69,3.44.93,1.82.22,3.49.01,4.95-.62.13-.05,2.59-.83,6.05-.41,1.68.21,3.31.67,4.85,1.37.07.03.13.09.17.16.27.51.53,1.06.79,1.66,3.54,8.07,2.75,16.04,2.74,16.12-1.17,5.5-3.85,6.22-4.3,6.3-1.79.77-3.71,1.03-5.7.78-3.04-.37-5.16-1.79-5.25-1.85-1.32-1.05-2.8-1.67-4.41-1.87-3.81-.47-7.15,1.59-7.19,1.61-.02.01-.05.03-.08.04-2.37.79-4.35,1.1-5.89.91ZM5.12,65.96c-.45.58-1.09,1.5-1.73,2.64-2.46,4.42-4.27,11.15,1.13,18.13.02.03.04.06.05.09.02.03.43.98,2.3,1.21,1.43.18,3.29-.12,5.54-.87.41-.25,3.74-2.17,7.62-1.69,1.75.21,3.35.89,4.75,2.01h0s2.06,1.36,4.91,1.71c1.88.23,3.69-.02,5.37-.75.03-.01.07-.02.1-.03.02,0,2.6-.41,3.73-5.7,0-.04.77-7.83-2.69-15.72-.24-.54-.47-1.04-.71-1.5-1.44-.64-2.96-1.07-4.53-1.26-3.29-.4-5.68.36-5.7.37-1.55.67-3.35.9-5.3.66-2.08-.26-3.57-.95-3.63-.98-.65-.26-1.38-.44-2.13-.53-3.31-.41-6.75.97-9.08,2.21ZM9.91,87.08s-.07,0-.07-.01c-1.54-.21-2.05-1.02-2.16-1.25-.12-.16-.24-.32-.35-.48-.06-.08-.08-.18-.06-.27.02-.09.07-.18.15-.23,1.63-1.15,4.35-1.34,8.02-.54.43-.08,2.97-.62,5.35-2.49.15-.17.77-.79,1.86-.65s2.19.91,3.39,2.33c.23.13,1.26.69,2.47.9.07.01.15.02.23.03.81.1,1.52,0,2.12-.28.5-.24.93-.61,1.29-1.1.12-.24.54-.7,1.18-.62.41.05.84.33,1.26.82.08.1.11.23.07.35l-.22.66c-.39,1.03-.89,1.82-1.5,2.38-.09.08-.18.15-.26.22-.5.38-.92.49-1.07.52-1.37.58-2.83.78-4.36.6-2.33-.29-3.95-1.37-4.02-1.42-.42-.33-.84-.6-1.28-.81-.63-.31-1.32-.51-2.03-.59-2.72-.33-5.12,1.05-5.39,1.21-.03.02-.04.02-.08.04-.26.09-.51.16-.74.23-.1.03-.2.06-.3.08-1.35.37-2.52.5-3.47.38ZM8.14,85.22c.05.06.09.12.14.18.02.03.04.06.05.09,0,.02.3.68,1.61.85l.02.37.04-.36c.86.11,1.93-.02,3.2-.36.1-.02.19-.05.28-.08.22-.06.45-.14.69-.22.27-.16.83-.46,1.6-.74-.17.03-.27.05-.29.05-.04,0-.09,0-.13,0-3.25-.72-5.7-.65-7.21.21ZM23.62,85.96s1.54,1.02,3.68,1.28c1.41.17,2.76-.02,4.02-.56.03-.01.07-.02.1-.03h0s.33-.05.77-.39c.07-.05.14-.11.22-.18.52-.48.96-1.18,1.3-2.09l.15-.45c-.31-.32-.53-.41-.66-.42-.3-.04-.47.27-.48.29-.45.63-.98,1.08-1.59,1.37-.73.34-1.58.46-2.52.34h0c-.09-.01-.17-.02-.26-.04-1.51-.25-2.72-.99-2.77-1.02-.03-.02-.06-.05-.09-.08-1.08-1.28-2.11-2.02-2.97-2.12-.81-.1-1.22.41-1.23.41-.02.02-.04.05-.06.06-1.44,1.14-2.91,1.81-4.01,2.2,1.49-.3,3.41-.23,4.99.53.49.24.96.53,1.39.88h0Z" fill="#495059" stroke-width="0"/>
  </g>
</svg>