<?xml version="1.0" encoding="UTF-8"?>
<svg id="Layer_1" data-name="Layer 1" xmlns="http://www.w3.org/2000/svg" width="40" height="90" viewBox="0 0 40 90">
  <g id="_17" data-name="17">
    <path id="root" d="M6.6,57.61c3.9-1.58,8.43-1.29,13.09.87.02.01.55.26,1.46.34.98.09,2.54-.03,4.4-1.02.13-.07,2.98-1.54,6.98-1.19,1.62.14,3.19.56,4.7,1.25.07.04.14.11.18.19-.73-1.88-3.81-10.28-2.38-15.52.08-.56,1.88-13.67-.68-17.89-.19-.41-4.57-10.17-7.41-12.54-.05-.05-1.24-.99-2.49-1.1-.97-.08-2.2.28-2.66,2.54-.13.31-.53,1.82,1.02,5.55.05.45.34,3.65.06,6.96-1.75-2.41-3.7-4.82-3.95-5.13-3.57-7.67-7.01-7.1-7.11-7.08-.62.1-1.1.42-1.44.95-.98,1.51-.5,4.47.04,6.76-1.46-2.49-3.75-6.21-4.78-6.75-.07-.05-1.69-1.3-3.09-1.43-.89-.08-1.38.32-1.63.68-1.26,1.77,0,6.91,3.86,15.7.03.07,3,7.56,2.17,11-.04.19-.95,4.76-.05,7.99,0,.07.4,5.42-.5,9.08.03-.1.11-.19.21-.23Z" fill="#dcddde" stroke-width="0"/>
    <path id="face" d="M38.06,60.12s0,0,0,0c-.11-.39-.23-.8-.35-1.2-.05-.15-.09-.3-.14-.45,0,0-.02-.06-.05-.14-.03-.06-.06-.16-.11-.27-.04-.08-.1-.15-.18-.19-1.51-.69-3.08-1.11-4.7-1.25-4-.35-6.85,1.12-6.98,1.19-1.86.99-3.43,1.1-4.4,1.02-.91-.08-1.44-.33-1.46-.34-4.66-2.16-9.19-2.46-13.09-.87-.1.03-.17.12-.21.23-.15.59-.32,1.15-.54,1.62,0,0-.11.2-.29.56-.04.07-.07.15-.12.23-1.41,2.83-4.99,10.8-4.04,16.4,0,.02,0,.05.01.07.07.39.17.77.29,1.14.02.06.04.11.06.17.12.35.27.69.44,1.01.03.05.06.1.08.14.19.33.4.64.65.93.16.44,1.13,2.45,4.94,2.79,1.6.14,3.51-.04,5.74-.55.04-.02,2.84-1.1,5.68-.85,1.72.15,3.1.75,4.11,1.77.09.1,2.38,2.38,5.91,2.69,1.79.16,3.56-.23,5.3-1.16.02,0,.05-.03.07-.05.08-.08,8.01-7.73,3.37-24.64Z" fill="#d7f0f5" stroke-width="0"/>
    <path d="M13.4,82.38s2.85-1.12,5.81-.87c1.55.13,3.14.64,4.36,1.88,0,0,2.21,2.23,5.58,2.57h0c1.36-1.03-.33-1.34-.33-1.34-3.29-1.04-6.1-3.49-6.1-3.49-5-5.12-14.01,3.52-17.42.07l1.02,1.46c.69.32.48.18,1.67.26,1.38.1,3.15-.03,5.4-.54Z" fill="#a0e1e3" stroke-width="0"/>
    <path d="M24.95,61.13c2.32,3.49,1.54,8.19-.6,11.56-.54.84-1.13,1.62-1.8,2.38-.17.19-.36.5-.67.42-.36-.09-.35-.44-.18-.68,1.21-1.66,2.17-3.4,2.62-5.38.45-1.96.44-4.19-.49-6.04-.18-.36-.41-.68-.67-.99-.24-.29-.35-.63-.25-.99.25-.88,1.52-1.04,2.04-.28Z" fill="#fff" stroke-width="0"/>
    <path id="_Path_" data-name="&amp;lt;Path&amp;gt;" d="M29.32,85.96c-3.52-.31-5.82-2.59-5.91-2.69-1.01-1.03-2.39-1.62-4.11-1.77-2.85-.25-5.65.83-5.68.84-2.23.51-4.15.7-5.75.55h0c-3.8-.33-4.77-2.34-4.94-2.78-4.98-5.8,2.59-20.06,2.92-20.66,1.59-3.39,1.06-10.61,1.06-10.69-.9-3.23.01-7.8.05-8,.82-3.44-2.14-10.92-2.17-11C.92,20.98-.35,15.84.92,14.07c.25-.35.74-.76,1.63-.68,1.4.12,3.02,1.37,3.09,1.42,1.46.76,5.45,7.9,6.01,8.92,1.84,1.94,6.65,14.44,6.86,14.98.61,1.55.99,1.6,1.01,1.6.21.02.57-.76.72-1.54.39-.99,1.54-6.49,2.1-9.28,1.06-4.11.55-9.78.49-10.38-1.56-3.73-1.15-5.24-1.03-5.55.46-2.25,1.7-2.62,2.66-2.54,1.26.11,2.44,1.06,2.49,1.1,2.84,2.37,7.22,12.13,7.4,12.54,2.55,4.22.76,17.33.68,17.88-1.61,5.89,2.49,15.83,2.53,15.92,5.65,18.07-2.8,26.22-2.88,26.3-.02.02-.05.04-.08.06-1.73.92-3.51,1.31-5.3,1.15ZM19.36,80.78c1.89.17,3.42.83,4.56,1.98.02.02,2.21,2.19,5.46,2.48,1.63.14,3.26-.21,4.85-1.04.55-.56,7.98-8.48,2.67-25.49-.16-.39-4.23-10.23-2.56-16.32,0-.09,1.82-13.36-.62-17.4-.07-.14-4.51-10.06-7.22-12.32,0,0-1.06-.85-2.09-.94s-1.61.57-1.89,2c0,.03-.02.06-.03.09,0,0-.53,1.32,1.04,5.06.01.03.02.07.03.1.03.25.64,6.25-.5,10.67-.06.31-1.63,8.11-2.12,9.32-.08.45-.48,2.14-1.47,2.06-.58-.05-1.08-.69-1.62-2.06-1.73-4.52-5.37-13.41-6.73-14.77-.02-.03-.05-.05-.06-.08-1.77-3.21-4.77-8.17-5.79-8.7-.07-.05-1.57-1.2-2.76-1.31-.45-.04-.77.08-.98.38-.61.86-.92,3.95,3.94,15,.13.33,3.08,7.79,2.21,11.44,0,.03-.91,4.59-.05,7.72.04.37.56,7.56-1.12,11.13-.09.16-7.71,14.52-2.97,19.92.03.04.06.09.08.14.03.08.68,2.03,4.34,2.35,1.53.13,3.37-.04,5.47-.52.07-.03,2.93-1.14,5.95-.87ZM19.46,41.01h0c-.58-.05-1.08-.69-1.62-2.06-.05-.13-4.9-12.74-6.67-14.71-.04-.04-.07-.1-.08-.16-.04-.16-.1-.38-.17-.64-.59-2.16-1.82-6.67-.54-8.66.34-.53.83-.85,1.45-.95.1-.02,3.53-.6,7.11,7.07.29.35,2.65,3.28,4.51,5.9.05.07.07.16.06.25-.11.94-.27,1.8-.46,2.55-.06.31-1.63,8.11-2.12,9.32-.08.45-.48,2.14-1.47,2.06ZM11.76,23.83c1.9,2.26,6.55,14.34,6.75,14.86.61,1.55.99,1.6,1.01,1.6.21.02.57-.76.72-1.54.39-.99,1.54-6.49,2.1-9.28.18-.7.33-1.49.43-2.34-1.95-2.73-4.41-5.75-4.43-5.78-.02-.02-.03-.05-.05-.08-2.77-5.97-5.36-6.64-6.08-6.71-.17-.01-.27,0-.27,0-.42.07-.73.27-.96.62-1.11,1.72.11,6.17.63,8.08.06.22.11.42.15.57ZM29.32,85.96h0c-3.52-.31-5.82-2.59-5.91-2.69-1.01-1.03-2.39-1.62-4.1-1.77-2.85-.25-5.65.83-5.68.84-2.23.51-4.15.7-5.75.55-3.8-.33-4.77-2.34-4.94-2.78-4.33-5.05.86-16.55,2.56-19.96.22-.45.36-.7.36-.7.2-.43.38-.97.54-1.6.03-.11.11-.2.22-.25,3.9-1.58,8.43-1.29,13.09.88.01,0,.55.26,1.46.34.98.09,2.53-.02,4.4-1.03.12-.06,2.97-1.53,6.98-1.18,1.61.14,3.19.56,4.69,1.25.09.04.15.11.19.2.1.25.16.39.16.39.28.88.52,1.75.74,2.61,4.11,16.24-3.31,23.39-3.62,23.69-.02.02-.05.04-.08.06-1.73.92-3.51,1.31-5.3,1.15ZM19.36,80.78c1.89.17,3.42.83,4.56,1.98.02.02,2.21,2.19,5.46,2.48,1.63.14,3.26-.21,4.85-1.04.52-.53,7.25-7.69,3.38-22.96-.21-.84-.46-1.69-.72-2.54,0,0-.04-.09-.1-.24-1.39-.62-2.84-1-4.32-1.13-3.8-.33-6.55,1.09-6.57,1.1-2.03,1.08-3.73,1.2-4.81,1.11s-1.69-.4-1.71-.41c-4.39-2.04-8.67-2.35-12.34-.93-.16.6-.34,1.13-.55,1.57,0,.02-.14.27-.36.7-1.18,2.37-6.84,14.41-2.61,19.21.03.04.06.09.08.14.03.08.68,2.03,4.34,2.35,1.53.13,3.37-.04,5.47-.52.07-.03,2.93-1.14,5.95-.87ZM29.18,85.95h0c-3.46-.35-5.7-2.58-5.8-2.68-1.01-1.03-2.39-1.62-4.11-1.77-2.87-.24-5.65.83-5.68.84-2.14.49-4,.68-5.56.57-.36-.03-.59-.03-.75-.03-.49-.01-.59-.05-1.05-.26-.06-.03-.11-.07-.14-.12l-1.02-1.46c-.11-.15-.08-.37.07-.49.14-.12.36-.11.49.02.42.42.95.66,1.63.72h0c1.39.12,3.21-.49,5.14-1.14,2.3-.78,4.68-1.58,6.9-1.39,1.5.13,2.73.7,3.74,1.75,0,0,2.77,2.39,5.95,3.4.12.02.94.2,1.09.8.09.38-.13.78-.65,1.18-.07.05-.16.08-.25.07ZM19.31,80.78c1.92.17,3.45.83,4.58,1.99.02.02,2.1,2.08,5.21,2.45.27-.23.28-.34.28-.35-.02-.07-.29-.22-.56-.27-3.37-1.06-6.16-3.47-6.27-3.57-.91-.93-1.99-1.44-3.31-1.55-2.06-.18-4.37.6-6.6,1.35-2,.68-3.89,1.32-5.44,1.18h0c-.22-.02-.43-.05-.63-.1l.07.09c.42.19.41.15.67.16.17,0,.41,0,.79.03,1.49.11,3.28-.07,5.3-.54.07-.03,2.91-1.13,5.93-.88Z" fill="#495059" stroke-width="0"/>
  </g>
</svg>