<?xml version="1.0" encoding="UTF-8"?>
<svg id="Layer_1" data-name="Layer 1" xmlns="http://www.w3.org/2000/svg" width="40" height="90" viewBox="0 0 40 90">
  <g id="_18" data-name="18">
    <path id="root" d="M33.74,56.4c-.1.1-.25.13-.38.08-.1-.04-.2-.08-.29-.11h-.03s-.06-.01-.08-.02c-.03,0-.06-.01-.09-.01-2.66-1.11-5.32-1.68-7.89-1.68-3.39,0-5.54.99-5.89,1.17-.24.26-.5.5-.78.7-.68.5-1.47.74-2.33.74-.79,0-1.37-.23-1.39-.24-.03-.01-.07-.03-.09-.06-.46-.38-.94-.7-1.41-.95-1.38-.72-2.77-.88-4.56-.5-.23.06-.46.11-.68.18-.13.03-.28-.01-.36-.11-.09-.11-.11-.25-.06-.38.24-.73,1.37-5.36.39-7.74-.1-.31-2.14-6.94,1.42-13.21.12-.81,1.37-9.23-.36-11.44-.02-.03-.03-.06-.06-.08-.08-.19-1.9-4.54-1.52-6.85.06-.58.49-1.74,1.6-1.74.93,0,2.09.81,3.54,2.48.01,0,.62.57,1.5,1.63.33-1.27.28-2.87.24-4.3-.06-1.96-.11-3.65.66-4.45.33-.34.76-.49,1.31-.44.49-.15,2.49-.41,4.06,4.3.29-.5.63-.83,1.02-.99.15-.12.57-.42,1.15-.42.24,0,.49.06.73.17.22.03.44.11.65.23.06.04.12.08.18.12.08.06.13.1.19.15.2.18.38.38.55.63.07.09.11.18.17.25.08.13.12.21.17.3.08.14.13.25.18.35.08.15.13.28.19.41.01.03.01.06.02.09,0,.04.64,4.6,3.82,11.21.36.45,3.17,4.27,3.17,16.78,0,1.68-.06,3.47-.15,5.31,0,.02.02,4.02,1.6,8.04.04.13.01.29-.09.39Z" fill="#dcddde" stroke-width="0"/>
    <path id="face" d="M37.29,66.58c-.02,3.51-1,7.37-2.92,11.49-.1.15-1.78,2.64-5.73,2.74-.03.01-.07.03-.1.06-.08.04-.18.09-.3.14-.31.14-.75.33-1.3.5h-.01c-.1.03-.2.07-.31.1-.11.02-.21.06-.32.08-.13.03-.23.06-.34.08-.4.09-.77.14-1.15.19h-.08c-.12.01-.21.02-.31.03h-.15c-.08.01-.17.01-.25.02h-.29l-1-.06-.04-.35-.03.35h-.11c-.12-.03-.24-.04-.36-.07l-.18-.03-.03-.36-.06.35c-.09-.02-.18-.03-.26-.06l-1.04-.28c-1.42-.39-2.76-1.08-3.98-2.07-.58.12-2.52.51-4.49.51s-3.44-.41-4.24-1.21l-.24-.26c-7.82-8.16-4.69-14.28-1.93-19.68.63-1.22,1.22-2.38,1.71-3.58.04-.1.12-.18.23-.2.24-.07.47-.13.73-.18,1.95-.43,3.5-.24,5.02.55.51.26,1.02.6,1.49,1,.13.04.55.17,1.08.17.71,0,1.36-.21,1.92-.61.25-.19.49-.39.71-.64.02-.03.06-.06.1-.08.09-.06,2.39-1.27,6.27-1.27,2.3,0,4.66.43,7.02,1.28.04-.01.09,0,.13.01.51.18,1.02.36,1.5.56.1.04.17.12.2.22.26.66.56,1.31.88,1.91.23.44.47.85.72,1.24.07.08,1.91,2.51,1.86,7.4Z" fill="#d7f0f5" stroke-width="0"/>
    <path d="M19.81,31.18c1.13,4.39,2.04,8.86,2.66,13.34.29,2.11.55,4.28.36,6.41-.08.93-1.52,3.96-2.36,1.65-.29-.79.2-2.15.21-2.96.1-2.61-.08-5.24-.31-7.84-.22-2.41-.49-4.81-.77-7.21-.13-1.01-.26-2.03-.39-3.04-.04-.32.43-1.03.61-.35Z" fill="#c9c8c8" stroke-width="0"/>
    <path d="M17.41,58.49c.56,1.56.18,3.13-.28,4.65-.26.85-.55,1.7-.71,2.58-.13.76-.14,1.61.4,2.24.41.48,1.12.67,1.33,1.31.21.63-.13,1.32-.76,1.55-.69.25-1.23-.13-1.71-.58-.57-.54-1.02-1.21-1.24-1.95-.6-2,.55-3.94,1.4-5.68.43-.86.88-1.78.99-2.75.05-.4.04-.78-.04-1.18-.07-.37.46-.6.6-.2Z" fill="#fff" stroke-width="0"/>
    <path id="_Path_" data-name="&amp;lt;Path&amp;gt;" d="M19.24,28.99c-.15,0-.29-.1-.34-.25-1.27-4.19-3.47-7.49-5.1-9.53-.08-.1-.1-.23-.05-.35.52-1.33.47-3.23.42-4.92-.06-1.96-.1-3.65.67-4.45.33-.34.75-.48,1.31-.44.52-.17,2.73-.44,4.33,5.2.02.07.02.15,0,.22-1.48,4.04-.89,14.03-.89,14.13.01.18-.11.34-.29.37-.02,0-.04,0-.06,0ZM14.49,18.93c1.34,1.71,3.04,4.23,4.31,7.37-.09-3.23-.07-8.94.99-11.95-1.58-5.46-3.42-4.61-3.43-4.61-.06.02-.12.04-.19.03-.36-.04-.62.03-.81.22-.57.58-.52,2.21-.47,3.94.05,1.67.1,3.56-.4,5ZM15.99,57.26c-.8,0-1.37-.23-1.39-.24-.03-.01-.06-.03-.09-.06-.46-.38-.93-.7-1.41-.95-1.38-.72-2.77-.88-4.55-.49-.23.05-.46.11-.69.17-.13.03-.27,0-.36-.11-.09-.1-.11-.24-.06-.37.24-.73,1.37-5.36.39-7.74-.1-.31-2.14-6.94,1.41-13.21.13-.81,1.38-9.22-.36-11.45-.02-.02-.04-.05-.05-.08-.08-.18-1.91-4.53-1.53-6.84.07-.59.49-1.75,1.6-1.75.93,0,2.09.81,3.55,2.48,0,0,.82.77,1.92,2.15,1.36,1.71,3.12,4.29,4.43,7.53-.09-3.27-.07-9.09,1.02-12.05.37-1.01.83-1.62,1.42-1.87.15-.12.58-.42,1.15-.42.25,0,.49.06.73.16.23.03.45.11.66.24.06.04.12.07.18.12.07.05.13.1.19.15.19.17.37.38.54.63.07.09.12.17.17.26.08.13.12.21.17.3.08.15.13.25.18.36.07.15.12.27.18.4.01.03.02.06.02.09,0,.05.64,4.6,3.82,11.21.37.45,3.17,4.27,3.17,16.78,0,1.68-.05,3.46-.15,5.31,0,.02.02,4.02,1.6,8.05.05.13.02.28-.08.38-.1.1-.25.13-.38.07-.1-.04-.19-.07-.28-.11h-.03s-.05-.01-.08-.02c-.03,0-.06,0-.09-.02-2.66-1.11-5.32-1.67-7.89-1.67-3.39,0-5.54.99-5.9,1.17-.24.26-.5.5-.78.7-.69.49-1.48.74-2.33.74ZM14.91,56.38c.13.05.54.17,1.08.17.7,0,1.35-.21,1.92-.61.25-.18.48-.39.7-.64.03-.03.06-.06.1-.08.1-.05,2.41-1.28,6.29-1.28,2.58,0,5.24.55,7.91,1.62-1.37-3.9-1.39-7.47-1.39-7.63.1-1.85.15-3.63.15-5.29,0-12.77-2.99-16.32-3.02-16.35-.02-.02-.04-.05-.05-.08-3.11-6.46-3.82-10.89-3.89-11.42-.05-.11-.09-.21-.14-.31-.06-.12-.1-.21-.15-.3-.07-.13-.11-.2-.15-.27-.07-.11-.11-.18-.16-.25-.15-.22-.3-.39-.44-.52-.05-.04-.09-.08-.13-.11-.05-.04-.09-.06-.13-.09-.14-.08-.28-.13-.43-.15-.04,0-.08-.02-.12-.04-.15-.08-.31-.12-.46-.12-.41,0-.71.27-.72.28-.03.03-.08.06-.12.07-.39.15-.76.66-1.06,1.47-1.48,4.04-.89,14.03-.89,14.13.01.18-.11.34-.29.37-.18.03-.35-.07-.4-.25-1.27-4.19-3.47-7.49-5.1-9.53-1.07-1.34-1.87-2.1-1.88-2.1-1.64-1.87-2.55-2.26-3.04-2.26-.77,0-.9,1.13-.9,1.14-.33,2.02,1.28,5.99,1.47,6.43,1.96,2.62.53,11.64.46,12.02,0,.04-.02.08-.04.12-3.44,6.01-1.42,12.6-1.4,12.67.94,2.28.14,6.13-.24,7.63.05-.01.09-.02.14-.03,1.96-.42,3.5-.24,5.03.56.51.26,1.01.6,1.49,1ZM26.53,81.61c-.15,0-.3-.1-.34-.26-.05-.19.06-.38.25-.44h0s.02,0,.02,0c.09-.03.17-.05.26-.07,0,0,0,0,0,0,.23-.07.44-.15.63-.22-.29-.07-.58-.15-.87-.24-.02,0-.04-.01-.06-.02-3.39-.93-5.82-3.13-5.93-3.22-.87-.86-1.67-1.31-2.33-1.31-.57,0-.86.34-.86.35-.02.03-.05.06-.09.08-2.58,1.66-5.16,2.54-7.47,2.54-.67,0-1.32-.07-1.92-.22-.07-.02-.12-.05-.17-.1-7.83-8.16-4.69-14.28-1.93-19.68.63-1.23,1.22-2.38,1.7-3.57.04-.1.13-.18.24-.21.24-.06.48-.12.72-.18,1.96-.42,3.5-.24,5.03.56.51.26,1.01.6,1.49,1,.13.05.54.17,1.08.17.7,0,1.35-.21,1.92-.61.25-.18.48-.39.7-.64.03-.03.06-.06.1-.08.1-.05,2.4-1.27,6.27-1.27,2.29,0,4.66.43,7.02,1.28.04,0,.09,0,.13.01.51.17,1.01.36,1.5.57.1.04.17.12.2.21.26.67.56,1.31.88,1.91.24.45.47.85.73,1.23.06.08,1.9,2.51,1.86,7.41-.03,3.51-1.01,7.38-2.93,11.49-.1.15-1.78,2.64-5.73,2.74-.23.13-.84.43-1.71.7,0,0,0,0,0,0-.1.03-.2.06-.31.09-.03,0-.06.01-.09.01ZM26.77,79.72c.59.18,1.17.31,1.73.39.01,0,.03,0,.04,0,3.64-.06,5.19-2.36,5.21-2.38,1.85-3.97,2.81-7.74,2.84-11.15.03-4.63-1.72-6.97-1.73-6.99-.28-.42-.53-.84-.77-1.31-.31-.59-.6-1.22-.86-1.86-.38-.15-.77-.3-1.16-.44-.05,0-.1,0-.14-.01-2.34-.86-4.68-1.29-6.94-1.29-3.38,0-5.53.98-5.88,1.16-.24.26-.5.5-.78.7-.69.49-1.48.74-2.33.74-.8,0-1.37-.23-1.39-.24-.03-.01-.06-.03-.09-.06-.46-.38-.93-.7-1.41-.95-1.38-.72-2.77-.88-4.55-.49-.18.04-.35.08-.52.12-.49,1.16-1.08,2.33-1.66,3.46-2.78,5.43-5.65,11.04,1.74,18.79.52.12,1.07.18,1.65.18,2.16,0,4.59-.83,7.05-2.4.14-.15.6-.56,1.37-.56.86,0,1.81.51,2.82,1.5.01.01,2.45,2.2,5.71,3.07.03,0,.06.02.08.03ZM22.64,81.94h-.11c-.12-.02-.24-.04-.37-.06l-.17-.03M21.9,81.83c-.09-.02-.18-.03-.26-.05l-1.04-.28c-1.42-.39-2.75-1.09-3.99-2.08-.58.13-2.51.51-4.48.51s-3.44-.41-4.24-1.22l-.24-.26c-.11-.11-.13-.28-.05-.42.08-.14.24-.2.39-.17.55.13,1.14.2,1.75.2,2.16,0,4.59-.83,7.05-2.4.14-.15.6-.56,1.37-.56.86,0,1.81.51,2.82,1.5.02.02,3.17,2.85,7.11,3.36.08,0,.15.05.21.1.09.02.18.03.27.04.15.02.27.13.3.28.03.15-.04.3-.17.37-.2.11-.95.51-2.08.82-.11.03-.21.06-.32.08-.13.03-.24.06-.35.08-.39.08-.77.14-1.15.18,0,0-.07,0-.07,0-.12.01-.21.02-.31.03h-.15c-.08.01-.17.02-.26.02h-.29s-1-.05-1-.05M16.71,78.69c.08,0,.16.03.23.08,1.19.99,2.49,1.68,3.84,2.05l1.01.28c.08.02.16.03.24.05,0,0,.09.02.09.02l.16.03c.12.02.23.03.34.05l1.11.06h.27c.08,0,.16,0,.24-.01h.14c.09-.01.17-.02.26-.03h.1c.35-.04.7-.1,1.05-.17.12-.03.22-.05.32-.07.13-.03.22-.06.32-.08.39-.11.72-.23,1.01-.34-3.89-.71-6.81-3.34-6.93-3.46-.87-.86-1.67-1.31-2.33-1.31-.57,0-.86.34-.86.35-.02.03-.05.06-.09.08-2.77,1.79-5.56,2.66-7.98,2.53.71.3,1.69.46,2.89.46,2.22,0,4.47-.53,4.49-.53.03,0,.05,0,.08,0Z" fill="#495059" stroke-width="0"/>
  </g>
</svg>