<?xml version="1.0" encoding="UTF-8"?>
<svg id="Layer_1" data-name="Layer 1" xmlns="http://www.w3.org/2000/svg" width="40" height="90" viewBox="0 0 40 90">
  <g id="_21" data-name="21">
    <path id="root" d="M7.77,62.73c-2.32-13.21,4.42-32.14,4.47-32.3,1.91-7.24,7.25-16.73,7.32-16.85,1.81-2.8,3.37-4.15,4.75-4.15,3.37,0,3.84,8.04,3.88,8.95.14,3.13,1.93,16.31,1.95,16.43,2.03,11.69,1.36,20.93,1.23,22.47-.66-1.27-1.43-2.44-2.35-3.45-2.25-2.47-5.11-3.72-8.53-3.72-.37,0-.74.02-1.12.05-.07,0-.19-.01-.38-.01-1.46,0-8.22.67-11.15,12.62" fill="#dcddde" stroke-width="0"/>
    <path id="face" d="M5.23,84.96c.06-.95.09-1.59.11-2.13.1-2.13.14-3.02,1.62-15.08,2.07-16.77,10.4-17.61,12.04-17.61.18,0,.31.01.38.01.38-.02.75-.05,1.12-.05,3.41,0,6.28,1.26,8.53,3.72.92,1.01,1.69,2.18,2.35,3.45,0,.05,0,.11-.01.14,4.57,9.07,3.22,23.68,3.21,23.81-.17,3.53-.72,4.11-1.16,4.17-8.61,4.51-23.34,4.54-23.47,4.57-.22.03-.44.04-.64.04-1.25,0-2.24-.4-2.94-1.18-1.35-1.47-1.14-3.77-1.13-3.86Z" fill="#d7f0f5" stroke-width="0"/>
    <path d="M5.4,85.01c.29-4.58-.13-1.99,1.74-17.19.19-1.55.69-3.79.97-5.08l1.13-3.41c-.08,1.14-.34,6.2-.54,7.82-1.87,15.2-1.44,12.62-1.74,17.2,0,0-.46,4.81,3.97,4.64.16,0,.33-.01.51-.03.03,0,.08,0,.13,0,1.27,0,12.1-.2,20.23-3.22.17-.06.34-.13.5-.19-.14.06-.28.13-.41.19-8.24,3.67-20.53,3.88-21.89,3.9-.05,0-.1,0-.13,0-.18.02-.34.03-.51.03-4.43.17-3.97-4.64-3.97-4.64Z" fill="#fff" stroke-width="0"/>
    <path d="M13.66,80.4c-.21-.94-.35-1.88-.42-2.83-.14-2,.04-4.01.34-5.99.3-2.02.73-4.03,1.21-6.02.24-1,.51-2,.79-3,.13-.48.27-.95.4-1.43.13-.45.2-1.01.43-1.41.11-.18.36-.44.59-.32.29.15.19.64.13.88-.19.87-.43,1.74-.62,2.61-.44,1.99-.82,4-1.1,6.02-.27,1.95-.48,3.91-.42,5.88.03.92.11,1.84.29,2.75.19.95.53,1.86.79,2.79.31,1.12.74,2.52-.26,3.43-.26.23-.62.41-.97.34-.42-.09-.6-.51-.64-.9-.14-1.26-.33-1.87-.54-2.8Z" fill="#fff" stroke-width="0"/>
    <path id="_Path_" data-name="&amp;lt;Path&amp;gt;" d="M6.27,88.82c-1.34-1.47-1.14-3.77-1.13-3.86.06-.95.09-1.59.12-2.15.1-2.14.14-3.02,1.62-15.07.22-1.78.52-3.47.9-5.01-2.32-13.2,4.41-32.14,4.47-32.3,1.91-7.24,7.25-16.74,7.32-16.86,1.81-2.79,3.37-4.15,4.75-4.15,3.38,0,3.84,8.03,3.88,8.95.13,3.13,1.93,16.31,1.95,16.43,2.09,12.03,1.32,21.5,1.22,22.61,4.57,9.07,3.23,23.68,3.22,23.81-.17,3.52-.73,4.1-1.17,4.16-8.61,4.52-23.34,4.55-23.46,4.57-.24.02-.47.04-.69.04-1.27,0-2.27-.4-2.98-1.18ZM33.85,81.17c.01-.15,1.35-14.64-3.19-23.52-.01-.03-.02-.05-.03-.08,0-.04-.01-.08,0-.13,0-.1,1-9.86-1.2-22.53-.07-.54-1.82-13.35-1.96-16.51-.11-2.3-.88-8.25-3.15-8.25-.75,0-2.08.66-4.12,3.8-.05.09-5.35,9.52-7.25,16.7-.07.19-6.74,18.98-4.44,31.99.02.06.02.12,0,.19-.38,1.54-.68,3.22-.9,5.01-1.48,12.02-1.52,12.89-1.62,15.01-.03.56-.06,1.21-.12,2.17,0,.02-.18,2.08.95,3.31.57.62,1.39.94,2.44.94.19,0,.4-.01.65-.04.15,0,14.79-.06,23.23-4.53.03-.02.07-.03.11-.04.09-.12.46-.73.6-3.49ZM6.36,88.82c-1.34-1.47-1.14-3.77-1.13-3.86.06-.95.09-1.59.12-2.14.1-2.13.14-3.02,1.62-15.07,2.06-16.77,10.39-17.61,12.04-17.61.18,0,.31,0,.37.01.38-.03.76-.04,1.12-.04,3.41,0,6.28,1.25,8.52,3.72,7.4,8.14,5.71,26.64,5.64,27.4-.17,3.52-.73,4.1-1.17,4.16-8.52,4.47-23.02,4.57-23.46,4.57h0c-.24.02-.47.04-.69.04-1.26,0-2.27-.4-2.98-1.18ZM33.93,81.17c.02-.19,1.73-18.95-5.45-26.86-2.1-2.31-4.78-3.48-7.98-3.48-.36,0-.72.01-1.17.04-.01,0-.13-.01-.32-.01-1.54,0-9.33.82-11.32,16.97-1.48,12.03-1.52,12.91-1.62,15.02-.03.56-.06,1.2-.12,2.17,0,.02-.18,2.07.95,3.31.57.62,1.39.94,2.44.94.19,0,.4-.01.65-.04.15,0,14.79-.06,23.24-4.53.03-.02.07-.03.11-.04.1-.12.46-.73.6-3.49Z" fill="#495059" stroke-width="0"/>
  </g>
</svg>