<?xml version="1.0" encoding="UTF-8"?>
<svg id="Layer_1" data-name="Layer 1" xmlns="http://www.w3.org/2000/svg" width="40" height="90" viewBox="0 0 40 90">
  <g id="_23" data-name="23">
    <path id="root" d="M28.44,56.78c-3.64-3.2-7.04-4.83-10.14-4.83-4.15,0-7.58,2.97-10.17,8.81,0,.02-.01.04-.02.06,1.08-6.22,1.4-14.81,1.43-15.59-.67-2.62.36-17.88.45-19.05-.59-3.19.87-8.65,2.56-14.96.46-1.71.93-3.49,1.37-5.25C14.91,1.95,16.02,0,17.3,0c.63,0,1.03.48,1.15.63,1.48,1.42,1.82,10.67,1.87,12.46.87,4.19,1.17,13.32,1.17,13.71.23,3.78,2.38,12.92,2.38,12.96,1.83,4.3,3.6,13.6,3.67,14.01.1.63,1.27,3.97,2.46,7.28-.51-1.41-1.03-2.86-1.46-4.11-.01-.06-.06-.12-.11-.16Z" fill="#dcddde" stroke-width="0"/>
    <path id="face" d="M7.03,65.22c.42-1.14.78-2.68,1.07-4.4,0-.02,0-.04.02-.06,2.59-5.84,6.02-8.81,10.17-8.81,3.1,0,6.5,1.63,10.14,4.83.05.05.09.11.11.16.44,1.24.95,2.7,1.46,4.11.21.59.43,1.18.64,1.76.18.49.34.95.5,1.38.39,1.06.74,2.01,1,2.71,4.92,12.79,2.1,14.33-1.47,16.28-.89.49-1.81.99-2.66,1.7-2.89,2.41-6.16,5.13-9.54,5.13-1.41,0-2.72-.45-4.01-1.37-3.17-2.24-6.47-5.05-6.48-5.06-.51-.38-.94-.85-1.3-1.38-.24-.35-.44-.74-.61-1.15-.6-1.43-.84-3.15-.86-4.92-.05-5.06,1.69-10.54,1.82-10.91Z" fill="#d7f0f5" stroke-width="0"/>
    <path d="M5.62,74.98c.09-2.18.44-4.35.92-6.48.24-1.07.51-2.15.85-3.19.56-1.49.86-3.08,1.12-4.64.65-1.45,1.34-2.68,2.05-3.72-.11.86-.23,1.72-.37,2.58-.28,1.71-.59,3.46-1.2,5.09-.33,1.05-.6,2.12-.85,3.19-.48,2.13-.83,4.3-.92,6.48-.08,2.13.04,4.45,1.04,6.38.41.79.96,1.38,1.64,1.95,1.2,1.01,2.42,2,3.66,2.96.8.62,1.6,1.23,2.42,1.81.78.56,1.6,1.05,2.54,1.3,1.11.3,2.23.24,3.31-.05-1.17.56-2.35.88-3.53.85-1.2-.03-2.41-.42-3.65-1.3-1.66-1.17-3.34-2.49-4.57-3.49-1.14-.92-1.9-1.57-1.9-1.57-1.65-1.22-2.35-3.4-2.55-5.82-.06-.79-.05-1.58-.02-2.35Z" fill="#fff" stroke-width="0"/>
    <path d="M25.44,58.89c.64,2.36,1.72,5.42,2.6,8.82.43,1.7.81,3.5.98,5.26.09.88.13,1.74.11,2.55-.01.81-.08,1.55-.18,2.2-.1.65-.23,1.22-.37,1.67-.13.48-.28.83-.4,1.14-.25.57-.41.88-.41.88v.02c-.52.99-1.56.76-2.32-.53-.76-1.29-.97-3.13-.45-4.13.06-.12.14-.23.22-.32,0,0,.13-.14.34-.39.09-.15.23-.3.34-.52.13-.21.25-.48.36-.8.12-.32.22-.7.29-1.16.08-.45.13-.98.14-1.57.04-1.18-.09-2.65-.3-4.18-.43-3.07-1.19-6.37-1.59-8.86-.2-1.25.29-1.25.62-.08Z" fill="#fff" stroke-width="0"/>
    <path id="_Path_" data-name="&amp;lt;Path&amp;gt;" d="M14.46,88.63c-3.17-2.24-6.46-5.05-6.47-5.06-5.49-4.07-1.15-17.76-.95-18.36,1.95-5.27,2.46-18.99,2.5-19.98-.67-2.62.37-17.89.45-19.05-.58-3.18.87-8.64,2.56-14.96.46-1.72.93-3.48,1.37-5.25C14.91,1.95,16.02,0,17.31,0c.62,0,1.03.48,1.15.64,1.48,1.41,1.82,10.67,1.87,12.46.87,4.19,1.17,13.33,1.18,13.7.23,3.79,2.38,12.93,2.38,12.96,1.82,4.29,3.59,13.6,3.67,14.01.16,1.06,3.37,9.83,4.6,13.12,4.92,12.79,2.1,14.33-1.47,16.28-.89.49-1.8.99-2.67,1.7-2.89,2.4-6.16,5.12-9.54,5.12-1.4,0-2.72-.45-4.02-1.37ZM14.64,6.15c-.44,1.77-.91,3.54-1.37,5.26-1.6,6-3.11,11.66-2.54,14.67,0,.03,0,.06,0,.1-.4,5.72-1,17.03-.46,18.9.01.04.02.08.01.12-.02.6-.49,14.71-2.54,20.25-.04.14-4.37,13.76.71,17.52.03.03,3.3,2.81,6.44,5.04,1.17.83,2.34,1.23,3.58,1.23,3.11,0,6.27-2.63,9.06-4.95.92-.76,1.87-1.28,2.79-1.78,3.37-1.84,5.8-3.17,1.12-15.35-.18-.49-4.44-11.93-4.63-13.27-.02-.09-1.83-9.63-3.64-13.9-.09-.38-2.19-9.3-2.42-13.16,0-.09-.31-9.46-1.17-13.65-.12-4.21-.67-11.18-1.65-12-.03-.03-.05-.05-.07-.08,0,0-.23-.34-.55-.34s-1.42.39-2.67,5.4ZM14.46,88.63c-3.17-2.24-6.46-5.05-6.47-5.06-5.49-4.07-1.15-17.76-.95-18.36.03-.09.07-.19.12-.35.34-1.02.66-2.37.95-4.02,0-.03.01-.06.03-.09,2.59-5.84,6.02-8.81,10.18-8.81,3.09,0,6.5,1.63,10.14,4.84.05.04.09.1.11.16.55,1.58,1.23,3.49,1.86,5.22.94,2.58,1.74,4.74,1.74,4.74h0c4.92,12.79,2.1,14.33-1.46,16.28-.89.48-1.8.98-2.67,1.7-2.89,2.4-6.16,5.12-9.54,5.12-1.4,0-2.72-.45-4.02-1.37ZM18.3,52.7c-3.83,0-7.01,2.8-9.47,8.32-.29,1.67-.62,3.04-.99,4.15-.04.1-.07.21-.1.29-.04.14-4.37,13.76.71,17.53.03.03,3.3,2.81,6.44,5.03,1.17.83,2.34,1.23,3.58,1.23,3.11,0,6.27-2.63,9.06-4.95.92-.76,1.87-1.28,2.79-1.78,3.37-1.84,5.8-3.17,1.12-15.35,0,0-.8-2.16-1.74-4.75-.62-1.7-1.29-3.57-1.83-5.13-3.47-3.04-6.68-4.58-9.57-4.58Z" fill="#495059" stroke-width="0"/>
  </g>
</svg>