<?xml version="1.0" encoding="UTF-8"?>
<svg id="Layer_1" data-name="Layer 1" xmlns="http://www.w3.org/2000/svg" width="40" height="90" viewBox="0 0 40 90">
  <g id="_24" data-name="24">
    <path id="root" d="M19.91,60.15c-3.29,0-6.55,1.96-9.65,5.81-.02.02-.03.04-.04.08-.22.45-.55,1.19-.91,2.14-.28.76-.59,1.68-.86,2.72.84-3.16,1.99-5.3,2.06-5.44.85-1.64,2.16-8.89,2.27-9.47-.05-1.76.7-7.77.73-8.01.1-1.91,1.54-10.11,1.6-10.43.98-14.03,4.57-21.41,4.63-21.54.51-.68,1-1.01,1.52-1.01,1.65,0,2.51,3.75,2.92,6.37.28-.88.68-1.3,1.23-1.3.71,0,1.25.86,1.29.94,1.35,2,.14,16.57-.01,18.25-.33,1.97.07,10.66.07,10.74,0,.03,0,.05-.01.09-.36,1.79,1.28,10.33,2.26,14.87-.02-.05-.05-.12-.1-.16-2.01-1.99-5.13-4.64-8.99-4.64Z" fill="#dcddde" stroke-width="0"/>
    <path id="face" d="M12.97,86.22c-.95-1.2-2.56-1.73-2.6-1.75-2.59-1.12-2.95-4.19-2.92-6.07.01-.68.08-1.2.11-1.41,0-.05.01-.09.02-.1,0-.42.03-.83.06-1.23,0-.11.02-.22.03-.33.03-.3.05-.6.09-.89.01-.1.03-.2.04-.3.04-.3.09-.61.14-.9.01-.08.03-.15.04-.22.06-.32.12-.64.19-.95,0-.04.02-.09.03-.13.08-.34.16-.68.24-1,0-.01,0-.02,0-.03.27-1.04.58-1.96.86-2.72.36-.96.7-1.7.91-2.14.01-.03.02-.05.04-.08,3.11-3.85,6.36-5.81,9.65-5.81,3.86,0,6.98,2.65,8.99,4.64.04.04.07.11.1.16.02.09.04.18.06.26.21.43.41.85.6,1.26.08.18.16.36.24.54.08.18.16.36.24.54.32.75.61,1.48.86,2.19.01.04.03.08.04.12.26.73.49,1.43.68,2.12,0,.01,0,.02,0,.04.78,2.8,1.01,5.27.68,7.39,0,.04-.01.08-.02.12-.08.49-.19.96-.33,1.41-.02.06-.04.11-.05.16-.14.43-.31.84-.51,1.24-.1.2-.21.37-.31.55-.1.18-.2.36-.31.52-.12.17-.25.32-.38.48-.11.14-.22.28-.33.41-.13.14-.26.26-.39.38-.12.11-.24.24-.36.34-.12.1-.23.18-.34.26-.13.1-.27.21-.4.3-.08.05-.15.09-.23.14-.16.1-.32.2-.46.28-.01,0-.02,0-.03.02-.63.33-1.14.5-1.36.56-2.12,2.27-4.36,3.42-6.65,3.42-4.09,0-6.86-3.63-6.97-3.78Z" fill="#d7f0f5" stroke-width="0"/>
    <path d="M12.74,63.76c-.03.1-.06.21-.1.31-.28.83-.72,1.59-1.06,2.4-1.3,3.06-2.12,6.4-2.17,9.74-.42,2.61-.03,6.24,2.77,7.33,1.07.42,1.95,1.07,2.68,1.95.51.62,1.1,1.17,1.73,1.66,1.96,1.51,4.41,2.23,6.8,1.51-.14.08-.28.15-.43.22-.09.04-.18.08-.27.12-.04.02-.09.04-.13.06-.61.25-1.19.4-1.76.47-.03,0-.05,0-.08.01-.07,0-.14.02-.21.02-.05,0-.1,0-.14,0-.11,0-.22.01-.32.01-.02,0-.04,0-.06,0-.14,0-.29,0-.43-.02-.02,0-.03,0-.05,0-.14-.01-.28-.03-.41-.04-.04,0-.07-.01-.11-.02-.09-.01-.17-.03-.25-.04-2.93-.57-4.97-2.95-5.37-3.43-.05-.06-.07-.09-.07-.09-1.03-1.31-2.73-1.85-2.73-1.85-.22-.1-.43-.21-.61-.34-2.82-1.9-1.97-6.92-1.97-6.92,0-.07,0-.13,0-.2,0-.14,0-.27.01-.41,0-.08,0-.17.01-.25,0-.12.01-.24.02-.35,0-.09.01-.17.02-.25,0-.11.02-.23.03-.34,0-.08.02-.17.03-.25.01-.11.02-.23.04-.34.01-.08.02-.16.03-.24.01-.11.03-.22.05-.34.01-.08.02-.16.04-.23.02-.11.04-.22.05-.34.01-.07.03-.15.04-.22.02-.11.04-.23.06-.34.01-.07.03-.14.04-.2.02-.12.05-.24.07-.35.01-.06.02-.12.04-.18.03-.14.06-.28.1-.42,0-.03.02-.07.02-.1.04-.17.08-.33.12-.49.02-.08.04-.15.06-.23.02-.08.05-.17.07-.25.03-.09.05-.18.08-.27.02-.06.04-.13.06-.19.03-.1.06-.19.09-.29.01-.05.03-.1.04-.14.03-.1.07-.2.1-.31.01-.03.02-.07.03-.1.04-.11.08-.22.11-.33,0-.01,0-.02.01-.04.43-1.23.85-2.18,1.12-2.74.73-.91,1.46-1.69,2.17-2.35Z" fill="#fff" stroke-width="0"/>
    <path d="M25.33,64c.21,1.02.61,1.89.91,2.85.36,1.18.54,2.47.55,3.83.01,2.24-.35,4.56-.8,6.89-.27,1.4-.61,2.82-.98,4.22-.14.54-.28,1.09-.43,1.63-.13.5-.73.78-.86.31-.08-.28.11-.81.17-1.12.14-.69.29-1.39.4-2.08.24-1.41.47-2.81.62-4.21.29-2.83.4-5.72-.52-8.03-.26-.65-.59-1.23-.85-1.88-.17-.41-.42-.92-.42-1.44,0-1.45,1.92-2.31,2.19-.99Z" fill="#fff" stroke-width="0"/>
    <path id="_Path_" data-name="&amp;lt;Path&amp;gt;" d="M12.97,86.22c-.95-1.2-2.55-1.73-2.6-1.75-3.76-1.64-2.83-7.39-2.79-7.59.09-6.18,2.81-11.22,2.93-11.43.85-1.64,2.17-8.89,2.27-9.47-.05-1.76.7-7.78.73-8.01.09-1.91,1.54-10.11,1.6-10.43.98-14.03,4.57-21.41,4.63-21.54.51-.68,1-1.01,1.51-1.01,1.65,0,2.52,3.75,2.93,6.38.29-.88.69-1.31,1.23-1.31.71,0,1.25.86,1.3.94,1.35,1.99.14,16.56,0,18.25-.33,1.98.06,10.66.06,10.75,0,.03,0,.06,0,.09-.38,1.83,1.34,10.67,2.31,15.13,3.57,7.29,4.41,13.02,2.51,17.02-1.54,3.24-4.37,4.18-4.97,4.35-2.12,2.27-4.36,3.42-6.65,3.42-4.1,0-6.86-3.63-6.97-3.78ZM26,39.17c.55-6.4,1.04-16.42.11-17.78-.13-.22-.48-.62-.71-.62-.07,0-.66.08-.95,2.93-.02.18-.17.31-.35.31h0c-.18,0-.33-.14-.35-.32-.31-3.32-1.29-7.99-2.51-7.99-.27,0-.6.25-.92.68-.04.07-3.57,7.35-4.54,21.26-.01.09-1.5,8.5-1.59,10.4,0,.06-.79,6.31-.73,7.97,0,.02,0,.05,0,.07-.06.32-1.42,7.91-2.35,9.71-.03.05-2.75,5.11-2.85,11.16,0,.05-.88,5.46,2.35,6.87.07.02,1.81.59,2.91,1.98.03.04,2.68,3.51,6.42,3.51,2.12,0,4.21-1.1,6.21-3.27.05-.05.11-.09.18-.1.03,0,3.05-.74,4.61-3.99,1.81-3.8.96-9.34-2.52-16.45-.01-.03-.02-.05-.03-.08-.11-.53-2.79-12.88-2.33-15.42-.03-.73-.38-8.85-.06-10.82ZM12.97,86.22c-.95-1.2-2.55-1.73-2.6-1.75-3.76-1.64-2.83-7.39-2.79-7.58.05-3.5.97-6.67,1.73-8.71.36-.95.69-1.69.91-2.15.01-.02.03-.05.04-.07,3.12-3.85,6.37-5.81,9.66-5.81,3.86,0,6.98,2.65,8.99,4.64.05.05.08.11.09.17l.06.25c.39.8.74,1.57,1.05,2.28,2.72,6.34,3.18,11.37,1.36,14.94-1.56,3.08-4.29,3.98-4.87,4.15-2.12,2.27-4.36,3.42-6.65,3.42-4.1,0-6.86-3.63-6.97-3.78ZM19.91,60.85c-3.06,0-6.12,1.86-9.09,5.52-.21.44-.53,1.15-.87,2.05-.74,1.99-1.63,5.07-1.69,8.53,0,.05-.89,5.46,2.34,6.87.07.02,1.82.59,2.91,1.98.03.04,2.67,3.51,6.42,3.51,2.12,0,4.21-1.1,6.21-3.27.05-.05.11-.09.18-.1.03,0,2.96-.72,4.52-3.82,1.71-3.38,1.24-8.21-1.39-14.34-.3-.71-.66-1.48-1.05-2.28-.01-.03-.02-.05-.03-.08l-.04-.18c-1.92-1.9-4.87-4.37-8.43-4.37Z" fill="#495059" stroke-width="0"/>
  </g>
</svg>