<?xml version="1.0" encoding="UTF-8"?>
<svg id="Layer_1" data-name="Layer 1" xmlns="http://www.w3.org/2000/svg" width="40" height="90" viewBox="0 0 40 90">
  <g id="_25" data-name="25">
    <path id="root" d="M19.27,58.75c-3.18,0-6.08,1.77-8.63,5.27-.02.04-.05.07-.06.12,1.19-4.23,2.04-7.47,2.54-9.59.24-1.27,5.96-31.16,9.18-37.57.02-.07.74-1.99,2.76-1.99.61,0,1.27.18,1.89.52.11.04,2.64.84,1.5,5.51.01.38.11,2.5-.17,4.25-.11,2.36-.16,5.01-.04,5.42.05.32,1.2,7.91.9,10.72-.11,5.45-.24,13.72-.2,14.14.08.3.62,6.42.77,9.06-.01-.1-.05-.18-.11-.25-2.4-2.56-6.14-5.62-10.33-5.62Z" fill="#dcddde" stroke-width="0"/>
    <path id="face" d="M8.41,71.74s.08-.31.23-.77c.22-.74.56-1.98.99-3.48.3-1.02.62-2.16.95-3.36.01-.05.04-.08.06-.12,2.55-3.5,5.45-5.27,8.63-5.27,4.19,0,7.93,3.06,10.33,5.62.06.07.1.16.11.25.01.3.02.58.02.78.07.2.32.92.61,1.85.52,1.67,1.1,3.89,1.03,5.18.18.75,1.7,7.56-1.17,11.74-1.17,1.7-2.91,2.73-5.19,3.06-.43.6-2.18,2.78-5.02,2.78-2.46,0-5.02-1.64-7.61-4.85-.24-.28-5.73-6.76-3.97-13.41Z" fill="#d7f0f5" stroke-width="0"/>
    <path d="M8.45,74.27c.01-.8.11-1.62.33-2.44.02-.09.53-1.82,1.22-4.23.29-1.02.61-2.16.95-3.35.7-.96,1.41-1.76,2.12-2.43-.16.58-.32,1.16-.48,1.72-.33,1.19-.66,2.33-.95,3.35-.69,2.42-1.2,4.14-1.22,4.23-1.73,6.54,3.88,13.06,3.88,13.06,3.53,4.39,6.42,5.08,8.5,4.58-1.02.64-2.4,1.1-4.11.68,0,0,0,0,0,0-.1-.03-.21-.05-.32-.09,0,0,0,0,0,0-.33-.1-.66-.23-1.01-.4,0,0,0,0,0,0-.11-.05-.22-.11-.33-.17,0,0-.02-.01-.03-.02-.11-.06-.23-.13-.35-.2,0,0,0,0,0,0-.36-.22-.73-.47-1.1-.77-.01-.01-.03-.02-.04-.03-.11-.09-.23-.18-.34-.28-.01-.01-.02-.02-.03-.03-.38-.33-.77-.7-1.18-1.12-.01-.01-.03-.03-.04-.04-.12-.12-.24-.25-.36-.39-.02-.02-.04-.04-.05-.06-.13-.14-.25-.29-.38-.44,0,0-.01-.01-.02-.02-.14-.17-.28-.33-.42-.51,0,0-4.3-5-4.21-10.62Z" fill="#fff" stroke-width="0"/>
    <path d="M26.04,63.75c.12.88.41,1.64.61,2.48.24,1.03.32,2.13.26,3.29-.1,1.9-.51,3.85-1,5.81-.29,1.18-.64,2.35-1.02,3.53-.14.45-.29.91-.43,1.36-.13.42-.64.62-.72.21-.05-.25.13-.68.2-.94.15-.58.31-1.17.44-1.75.26-1.18.53-2.36.72-3.54.38-2.39.61-4.84-.03-6.85-.18-.57-.43-1.08-.61-1.65-.12-.36-.3-.8-.27-1.25.08-1.24,1.7-1.85,1.86-.71Z" fill="#fff" stroke-width="0"/>
    <path id="_Path_" data-name="&amp;lt;Path&amp;gt;" d="M12.38,85.14c-.23-.27-5.72-6.76-3.96-13.41,0-.03.09-.31.22-.77.22-.74.57-1.98,1-3.48.29-1.02.61-2.16.95-3.35,1.18-4.23,2.04-7.46,2.53-9.59.24-1.27,5.96-31.15,9.18-37.56.03-.08.75-1.99,2.76-1.99.61,0,1.26.18,1.89.51.11.03,2.64.84,1.5,5.51.02.39.11,2.51-.17,4.25-.1,2.36-.15,5.01-.03,5.42.05.32,1.19,7.9.9,10.72-.1,5.45-.24,13.72-.2,14.14.08.31.62,6.43.76,9.06.02.31.03.58.03.79.07.2.32.92.61,1.84.51,1.66,1.1,3.9,1.03,5.18.18.76,1.69,7.56-1.18,11.74-1.17,1.71-2.92,2.73-5.19,3.05-.43.61-2.17,2.79-5.02,2.79-2.46,0-5.02-1.64-7.61-4.86ZM23,17.3c-3.19,6.36-9.07,37.09-9.13,37.41-.5,2.15-1.36,5.39-2.55,9.64-.33,1.2-.66,2.34-.95,3.36-.43,1.5-.79,2.74-1,3.48-.13.44-.2.7-.22.75-1.66,6.26,3.75,12.65,3.81,12.72,2.44,3.04,4.8,4.58,7.02,4.58,2.81,0,4.46-2.55,4.47-2.58.06-.1.16-.16.28-.18,2.13-.26,3.75-1.19,4.83-2.74,2.78-4.05,1.07-11.11,1.05-11.18-.01-.04-.01-.08-.01-.12.06-.9-.29-2.66-1-4.96-.33-1.08-.62-1.87-.62-1.87-.01-.04-.02-.08-.02-.12,0-.21-.02-.49-.03-.83-.15-2.81-.67-8.58-.73-8.9-.07-.27.05-7.96.17-14.39.29-2.75-.88-10.48-.87-10.48-.2-.55-.05-4.46.01-5.68.29-1.84.16-4.17.16-4.19,0-.04,0-.08.01-.11.99-3.97-.88-4.62-1.02-4.67-.58-.3-1.12-.45-1.6-.45-1.47,0-2.02,1.43-2.06,1.53ZM12.38,85.14c-.23-.27-5.72-6.76-3.96-13.41,0-.03.09-.31.22-.77.21-.74.57-1.98,1-3.48.29-1.02.61-2.16.95-3.35.01-.04.03-.09.06-.12,2.55-3.5,5.45-5.28,8.63-5.28,4.19,0,7.92,3.06,10.32,5.63.06.07.1.15.1.24.02.31.03.58.03.79.07.2.32.92.61,1.84.51,1.66,1.1,3.9,1.03,5.18.18.76,1.69,7.56-1.18,11.74-1.17,1.71-2.92,2.73-5.19,3.05-.43.61-2.17,2.79-5.02,2.79-2.46,0-5.02-1.64-7.61-4.86ZM19.28,59.51c-2.9,0-5.58,1.65-7.97,4.91-.33,1.17-.65,2.29-.93,3.29-.43,1.5-.79,2.74-1,3.48-.13.44-.2.7-.21.75-1.66,6.26,3.75,12.65,3.81,12.72,2.44,3.04,4.8,4.58,7.02,4.58,2.81,0,4.46-2.55,4.47-2.58.06-.1.16-.16.28-.18,2.13-.26,3.75-1.19,4.83-2.74,2.78-4.05,1.07-11.11,1.05-11.18-.01-.04-.01-.08-.01-.12.06-.9-.29-2.66-1-4.96-.33-1.08-.62-1.87-.62-1.87-.01-.04-.02-.08-.02-.12,0-.18-.01-.42-.03-.69-2.3-2.43-5.81-5.28-9.67-5.28Z" fill="#495059" stroke-width="0"/>
  </g>
</svg>