<?xml version="1.0" encoding="UTF-8"?>
<svg id="Layer_1" data-name="Layer 1" xmlns="http://www.w3.org/2000/svg" width="40" height="90" viewBox="0 0 40 90">
  <g id="_26" data-name="26">
    <path id="root" d="M3.95,65.03c.04-.06.09-.1.15-.13.31-.14.64-.28.95-.4,1.26-.48,2.57-.81,3.9-.98,3.46-.42,5.91.36,6.05.42,1.46.63,3.13.84,4.95.62,1.97-.24,3.41-.92,3.44-.93,2.98-1.16,6.59-.79,10.59,1.08.43.2.88.41,1.32.66.03.02.05.04.09.07-.29-.36-.52-.63-.65-.78.67-3.43-2.17-8.32-2.28-8.53-1.37-2.08-1.8-6.65-1.81-6.69.18-7.97,5.29-20.08,5.33-20.2,1.49-5.32,1.07-7.99,1.06-8.1-.42-5.16-2.19-5.62-2.61-5.65-.38-.12-.73-.16-1.07-.12-2.04.25-2.36,3.22-2.38,3.35-.11,1.02-.86,5.02-.87,5.07-.23,3.89-2.56,6.41-2.58,6.43-.42.53-.92,1.2-1.41,1.91,0-3.54.04-11.13.26-12.7.02-.13.37-3.1-1.11-4.59-.8-.8-1.95-1.01-3.44-.62-.11.01-.67.13-1.32.84-.65.72-1.38,2.04-1.88,4.47-.02.1-1.46,8.35-5.65,11.79-.19-2.36.57-5.33.58-5.36.33-2.27.07-3.32.06-3.37-.84-4.18-2.7-4.59-3.11-4.63-1.2-.42-2.12-.23-2.68.52-.92,1.21-.58,3.52-.55,3.62.34,4.19-1.16,7.92-1.18,7.96-5.69,13.11-2.52,27.28-2.48,27.42.32,2.75.87,5.72,1,6.38-.22.39-.45.79-.65,1.19Z" fill="#dcddde" stroke-width="0"/>
    <path id="face" d="M.39,82.83c1.17,5.5,3.85,6.21,4.3,6.3,1.79.77,3.7,1.02,5.7.78,3.04-.37,5.16-1.78,5.25-1.85,1.32-1.05,2.8-1.67,4.41-1.87,3.81-.47,7.16,1.6,7.19,1.61.02,0,.05.03.07.04,2.37.8,4.35,1.1,5.89.91,2.08-.26,2.73-1.35,2.87-1.61.21-.26.4-.54.58-.8.27-.39.52-.78.74-1.16.18-.31.35-.6.5-.9,1.02-1.98,1.53-3.91,1.7-5.73.04-.44.05-.85.06-1.27,0-.24,0-.48,0-.7-.03-.81-.12-1.6-.27-2.35-.03-.19-.07-.39-.1-.57-.02-.03-.02-.08-.02-.11-.04-.18-.09-.35-.13-.52-.05-.2-.11-.4-.16-.58,0-.06-.02-.11-.04-.16-.08-.26-.17-.52-.24-.78-.1-.25-.19-.5-.28-.74-.07-.18-.15-.36-.21-.52-.64-1.5-1.38-2.76-2.02-3.73-.04-.05-.07-.09-.1-.15-.07-.08-.12-.17-.18-.25-.04-.05-.08-.1-.11-.16-.07-.08-.12-.16-.18-.23-.08-.11-.15-.22-.23-.31h0s-.06-.06-.09-.08c-.44-.24-.89-.46-1.32-.66-4-1.87-7.61-2.24-10.59-1.08-.03.02-1.47.69-3.44.93-1.81.22-3.48,0-4.95-.62-.13-.05-2.59-.84-6.05-.42-1.33.16-2.64.49-3.9.98-.31.12-.64.26-.95.4-.06.03-.12.07-.15.13-.01,0,0,.01-.02.03-.08.16-.16.3-.24.47-.27.57-.53,1.13-.77,1.7-.45,1.08-.82,2.14-1.13,3.18-.3,1.05-.55,2.07-.75,3.04-.14.65-.24,1.28-.34,1.89-.28,1.9-.37,3.57-.39,4.85,0,.02,0,.06,0,.08,0,.29,0,.56,0,.81,0,.14.01.27.01.4,0,.24.01.45.02.63.02.46.04.72.04.73Z" fill="#d7f0f5" stroke-width="0"/>
    <path d="M16.9,48.89c-.95,2.93-1.34,5.97-1.41,9.01.04,1.55.15,3.06.45,4.58.19.91,1.57,2.34,2.18.73.29-.76-.41-2.02-.57-2.68-.41-1.5-.53-3.09-.59-4.63-.09-1.56.01-3.18.22-4.73.08-.66.18-1.33.32-1.98.07-.31-.41-.89-.61-.3Z" fill="#c9c8c8" stroke-width="0"/>
    <path d="M17.67,66.74c.62,1.57.29,3.19-.13,4.76-.24.88-.51,1.76-.64,2.66-.11.78-.09,1.65.48,2.28.44.48,1.16.65,1.41,1.29.24.63-.09,1.35-.73,1.6-.7.28-1.26-.09-1.76-.53-.6-.53-1.08-1.2-1.33-1.95-.68-2.03.43-4.04,1.25-5.84.41-.89.84-1.85.92-2.84.03-.41.01-.8-.08-1.21-.08-.38.45-.63.61-.23Z" fill="#fff" stroke-width="0"/>
    <path id="_Path_" data-name="&amp;lt;Path&amp;gt;" d="M27.33,87.84s-.05-.02-.08-.04c-.03-.02-3.39-2.08-7.19-1.61-1.61.2-3.09.82-4.41,1.87-.09.06-2.21,1.48-5.25,1.85-1.99.24-3.91-.02-5.7-.78-.45-.08-3.13-.79-4.3-6.3-.01-.1-.99-10.04,4.2-19-.13-.66-.68-3.62-1-6.38-.03-.14-3.21-14.3,2.49-27.42.02-.04,1.53-3.77,1.18-7.96-.02-.1-.36-2.4.55-3.62.57-.75,1.5-.94,2.69-.53.42.04,2.27.44,3.11,4.62.01.04.28,1.11-.06,3.37,0,.04-.91,3.57-.51,5.99,0,.08.5,8.23,3.19,13.07.01.02.02.05.03.07.27.9.82,1.87,1.15,1.83.07,0,.42-.11.87-1.39.01-.04,1.97-4.86,4.6-8.59.12-.19,2.94-4.6,4.64-6.71.02-.02,2.36-2.55,2.59-6.43,0-.04.74-4.04.87-5.07.01-.13.34-3.09,2.38-3.34.33-.04.7,0,1.07.11.43.04,2.2.5,2.61,5.65.02.11.43,2.79-1.05,8.11-.05.12-5.16,12.22-5.34,20.19,0,.05.44,4.62,1.81,6.7.12.21,2.96,5.09,2.29,8.52,1.17,1.34,9.65,11.72,1.35,22.5-.13.27-.78,1.36-2.86,1.61h0c-1.54.19-3.52-.12-5.89-.91ZM31.69,18.78c-.12,1.06-.84,4.95-.87,5.08-.24,4.12-2.68,6.73-2.76,6.82-1.66,2.06-4.54,6.58-4.58,6.64-2.61,3.7-4.5,8.38-4.52,8.42-.43,1.2-.89,1.8-1.46,1.87-1.09.13-1.77-1.82-1.92-2.3-2.74-4.98-3.24-13-3.25-13.3-.43-2.53.49-6.1.52-6.21.31-2.06.07-3.04.06-3.07-.8-3.98-2.46-4.07-2.47-4.07-.04,0-.09,0-.13-.02-.9-.32-1.53-.25-1.92.26-.73.97-.42,3.05-.41,3.1.37,4.39-1.16,8.16-1.23,8.33-5.6,12.9-2.48,26.83-2.44,27.01.36,3.12,1.02,6.46,1.02,6.5.02.09,0,.18-.04.25C.15,72.85,1.11,82.66,1.11,82.72c1.13,5.29,3.71,5.7,3.73,5.7.04,0,.07.01.1.03,1.68.73,3.49.98,5.37.75,2.86-.35,4.91-1.71,4.91-1.71h0c1.41-1.12,3.01-1.79,4.75-2.01,3.88-.48,7.21,1.44,7.62,1.69,2.25.75,4.11,1.04,5.54.87h0c1.87-.23,2.28-1.18,2.3-1.21.01-.03.03-.06.05-.09,8.51-11.02-1-21.31-1.41-21.74-.08-.09-.12-.21-.09-.33.75-3.15-2.14-8.12-2.16-8.16-1.45-2.22-1.9-6.82-1.91-7.06.18-8.15,5.34-20.38,5.38-20.45,1.42-5.1,1.03-7.73,1.02-7.78-.39-4.87-1.95-5.02-1.95-5.02-.04,0-.08,0-.12-.02-.29-.1-.57-.13-.81-.1-1.47.18-1.74,2.68-1.75,2.71ZM15.58,45.32c-2.74-4.98-3.24-13-3.26-13.34,0-.13.05-.25.16-.32,4.57-3.15,6.12-12.05,6.14-12.15.98-4.85,2.98-5.29,3.2-5.31h0c1.48-.39,2.64-.18,3.43.62,1.48,1.48,1.12,4.46,1.11,4.59-.24,1.74-.26,10.96-.26,13.74v.07c0,.09-.01.18-.06.25l-.11.16c-1.26,1.84-2.43,3.67-2.45,3.7-2.59,3.67-4.5,8.38-4.52,8.42-.43,1.2-.89,1.8-1.46,1.87-1.09.13-1.77-1.81-1.92-2.3ZM25.38,33.14c0-2.8.02-12.05.26-13.83,0-.03.33-2.75-.9-3.99-.49-.49-1.16-.68-2.04-.57-.22.03-.46.07-.75.15-.02,0-1.73.3-2.63,4.74-.06.37-1.58,9.08-6.27,12.5.09,1.28.72,8.46,3.17,12.86.01.02.02.05.03.07.27.9.82,1.87,1.15,1.83.07,0,.42-.11.87-1.39.01-.04,1.96-4.85,4.6-8.58.01-.02,1.18-1.85,2.46-3.71l.05-.07h0ZM27.33,87.84s-.05-.02-.08-.04c-.03-.02-3.38-2.08-7.19-1.61-1.61.2-3.09.82-4.41,1.87-.09.06-2.21,1.48-5.25,1.85-1.99.24-3.91-.02-5.7-.78-.45-.08-3.13-.79-4.3-6.3,0-.08-.8-8.05,2.74-16.12.27-.6.53-1.14.79-1.66.04-.07.1-.13.17-.16,1.54-.7,3.17-1.16,4.85-1.37,3.45-.42,5.91.36,6.05.41,1.47.64,3.13.84,4.95.62,1.96-.24,3.4-.91,3.44-.93,3.3-1.29,7.38-.69,11.9,1.74.04.02.08.06.11.1.46.6,1.15,1.57,1.83,2.79,2.1,3.77,4.74,11.23-1.16,18.9-.13.27-.78,1.36-2.86,1.61-1.54.19-3.52-.12-5.89-.91ZM25.8,63.75c-.75.09-1.47.27-2.13.53-.06.03-1.55.73-3.63.98-1.95.24-3.74.01-5.3-.66-.02,0-2.42-.77-5.7-.37-1.56.19-3.09.62-4.53,1.26-.24.47-.47.96-.71,1.5-3.46,7.89-2.69,15.68-2.69,15.72,1.13,5.29,3.71,5.7,3.73,5.7.04,0,.07.01.1.03,1.68.73,3.49.98,5.37.75,2.86-.35,4.91-1.71,4.91-1.71h0c1.41-1.12,3.01-1.79,4.75-2.01,3.88-.48,7.21,1.44,7.62,1.69,2.25.75,4.11,1.04,5.54.87,1.87-.23,2.28-1.18,2.3-1.21.01-.03.03-.06.05-.09,5.39-6.98,3.59-13.72,1.13-18.13-.64-1.14-1.28-2.06-1.73-2.64-2.33-1.24-5.77-2.61-9.08-2.21ZM26.62,86.7c-.1-.03-.2-.05-.3-.08-.24-.07-.49-.15-.74-.23-.04-.01-.05-.01-.08-.04-.27-.16-2.67-1.54-5.39-1.21-.71.09-1.4.29-2.03.59-.44.21-.86.48-1.28.81-.07.05-1.69,1.13-4.02,1.42-1.52.19-2.99-.01-4.36-.6-.16-.03-.57-.14-1.07-.52-.08-.07-.17-.14-.26-.22-.6-.55-1.11-1.35-1.5-2.38l-.22-.66c-.04-.12-.01-.25.07-.35.42-.49.85-.77,1.26-.82.63-.08,1.05.38,1.18.62.36.49.79.87,1.29,1.1.6.28,1.32.38,2.12.28.08,0,.15-.02.23-.03,1.21-.2,2.24-.76,2.47-.9,1.21-1.42,2.35-2.2,3.39-2.33s1.71.48,1.86.65c2.37,1.88,4.92,2.41,5.35,2.49,3.67-.8,6.39-.62,8.02.54.08.06.13.14.15.23.02.09,0,.19-.06.27-.11.16-.23.32-.35.48-.11.23-.62,1.04-2.16,1.25,0,0-.07,0-.07.01-.95.12-2.12-.01-3.47-.38ZM24.66,85.02s-.09.01-.13,0c-.02,0-.12-.02-.29-.05.76.28,1.32.58,1.6.74.24.08.47.15.69.22.09.03.18.05.28.08,1.27.35,2.34.47,3.2.36l.04.36.02-.37c1.31-.18,1.6-.83,1.61-.85.01-.03.03-.06.05-.09.05-.06.09-.12.14-.18-1.5-.85-3.96-.93-7.21-.21ZM16.38,85.96c.44-.35.9-.64,1.39-.88,1.58-.76,3.5-.84,4.99-.53-1.1-.39-2.58-1.06-4.01-2.2-.02-.02-.04-.04-.06-.06,0,0-.41-.51-1.23-.41-.86.11-1.88.84-2.97,2.12-.02.03-.05.06-.09.08-.05.03-1.26.77-2.77,1.02-.08.01-.17.03-.26.04h0c-.94.12-1.79,0-2.52-.34-.61-.29-1.13-.74-1.59-1.37,0-.01-.18-.32-.48-.29-.14.02-.36.11-.66.42l.15.45c.35.91.79,1.61,1.3,2.09.08.07.15.13.22.18.44.34.77.39.77.39h0s.07.01.1.03c1.26.55,2.61.73,4.02.56,2.14-.26,3.68-1.28,3.68-1.28h0Z" fill="#495059" stroke-width="0"/>
  </g>
</svg>