<?xml version="1.0" encoding="UTF-8"?>
<svg id="Layer_1" data-name="Layer 1" xmlns="http://www.w3.org/2000/svg" width="40" height="90" viewBox="0 0 40 90">
  <g id="_27" data-name="27">
    <path id="root" d="M33.4,57.61c-3.9-1.58-8.43-1.29-13.09.87-.02.01-.55.26-1.46.34-.98.09-2.54-.03-4.4-1.02-.13-.07-2.98-1.54-6.98-1.19-1.62.14-3.19.56-4.7,1.25-.07.04-.14.11-.18.19.73-1.88,3.81-10.28,2.38-15.52-.08-.56-1.88-13.67.68-17.89.19-.41,4.57-10.17,7.41-12.54.05-.05,1.24-.99,2.49-1.1.97-.08,2.2.28,2.66,2.54.13.31.53,1.82-1.02,5.55-.05.45-.34,3.65-.06,6.96,1.75-2.41,3.7-4.82,3.95-5.13,3.57-7.67,7.01-7.1,7.11-7.08.62.1,1.1.42,1.44.95.98,1.51.5,4.47-.04,6.76,1.46-2.49,3.75-6.21,4.78-6.75.07-.05,1.69-1.3,3.09-1.43.89-.08,1.38.32,1.63.68,1.26,1.77,0,6.91-3.86,15.7-.03.07-3,7.56-2.17,11,.04.19.95,4.76.05,7.99,0,.07-.4,5.42.5,9.08-.03-.1-.11-.19-.21-.23Z" fill="#dcddde" stroke-width="0"/>
    <path id="face" d="M1.94,60.12s0,0,0,0c.11-.39.23-.8.35-1.2.05-.15.09-.3.14-.45,0,0,.02-.06.05-.14.03-.06.06-.16.11-.27.04-.08.1-.15.18-.19,1.51-.69,3.08-1.11,4.7-1.25,4-.35,6.85,1.12,6.98,1.19,1.86.99,3.43,1.1,4.4,1.02.91-.08,1.44-.33,1.46-.34,4.66-2.16,9.19-2.46,13.09-.87.1.03.17.12.21.23.15.59.32,1.15.54,1.62,0,0,.11.2.29.56.04.07.07.15.12.23,1.41,2.83,4.99,10.8,4.03,16.4,0,.02,0,.05-.01.07-.07.39-.17.77-.29,1.14-.02.06-.04.11-.06.17-.12.35-.27.69-.44,1.01-.03.05-.06.1-.08.14-.19.33-.4.64-.65.93-.16.44-1.13,2.45-4.94,2.79-1.6.14-3.51-.04-5.74-.55-.04-.02-2.84-1.1-5.68-.85-1.72.15-3.1.75-4.11,1.77-.09.1-2.38,2.38-5.91,2.69-1.79.16-3.56-.23-5.3-1.16-.02,0-.05-.03-.07-.05-.08-.08-8.01-7.73-3.37-24.64Z" fill="#d7f0f5" stroke-width="0"/>
    <path d="M26.6,82.38s-2.85-1.12-5.81-.87c-1.55.13-3.14.64-4.36,1.88,0,0-2.21,2.23-5.58,2.57h0c-1.36-1.03.33-1.34.33-1.34,3.29-1.04,6.1-3.49,6.1-3.49,5-5.12,14.01,3.52,17.42.07l-1.02,1.46c-.69.32-.48.18-1.67.26-1.38.1-3.15-.03-5.4-.54Z" fill="#a0e1e3" stroke-width="0"/>
    <path d="M15.05,61.13c-2.32,3.49-1.54,8.19.6,11.56.54.84,1.13,1.62,1.8,2.38.17.19.36.5.67.42.36-.09.35-.44.18-.68-1.21-1.66-2.17-3.4-2.62-5.38-.45-1.96-.44-4.19.49-6.04.18-.36.41-.68.67-.99.24-.29.35-.63.25-.99-.25-.88-1.52-1.04-2.04-.28Z" fill="#fff" stroke-width="0"/>
    <path id="_Path_" data-name="&amp;lt;Path&amp;gt;" d="M5.39,84.81s-.05-.03-.08-.06c-.09-.08-8.53-8.23-2.88-26.3.04-.1,4.15-10.03,2.53-15.92-.08-.56-1.87-13.66.68-17.88.18-.41,4.56-10.17,7.4-12.54.05-.04,1.23-.99,2.49-1.1.96-.08,2.19.29,2.66,2.54.12.31.53,1.82-1.03,5.55-.06.6-.57,6.28.49,10.38.56,2.78,1.71,8.29,2.1,9.28.15.78.51,1.56.72,1.54.02,0,.4-.05,1.01-1.6.21-.54,5.01-13.04,6.86-14.98.56-1.02,4.55-8.16,6.01-8.92.07-.05,1.68-1.3,3.09-1.42.89-.08,1.38.33,1.63.68,1.27,1.77,0,6.91-3.86,15.7-.03.08-2.99,7.56-2.17,11,.04.19.95,4.77.05,8,0,.07-.53,7.3,1.06,10.69.33.61,7.89,14.86,2.92,20.66-.17.44-1.14,2.45-4.94,2.78h0c-1.6.14-3.52-.04-5.75-.55-.03-.01-2.83-1.09-5.68-.84-1.71.15-3.1.75-4.11,1.77-.1.1-2.39,2.38-5.91,2.69-1.79.16-3.57-.23-5.3-1.15ZM26.59,81.66c2.1.48,3.94.66,5.47.52,3.66-.32,4.31-2.27,4.34-2.35.02-.05.04-.1.08-.14,4.74-5.39-2.89-19.75-2.97-19.92-1.68-3.58-1.15-10.76-1.12-11.13.86-3.13-.04-7.68-.05-7.72-.87-3.65,2.08-11.11,2.21-11.44,4.86-11.06,4.55-14.14,3.94-15-.21-.3-.53-.42-.98-.38-1.19.1-2.69,1.26-2.76,1.31-1.02.53-4.03,5.5-5.79,8.7-.02.03-.04.06-.06.08-1.36,1.35-5,10.25-6.73,14.77-.54,1.37-1.04,2.01-1.62,2.06-.99.08-1.39-1.61-1.47-2.06-.49-1.21-2.05-9.01-2.12-9.32-1.14-4.43-.53-10.42-.5-10.67,0-.03.01-.07.03-.1,1.57-3.74,1.05-5.05,1.04-5.06-.01-.03-.02-.06-.03-.09-.29-1.43-.91-2.08-1.89-2s-2.09.93-2.09.94c-2.71,2.26-7.16,12.18-7.22,12.32-2.44,4.04-.63,17.32-.62,17.4,1.67,6.09-2.4,15.93-2.56,16.32-5.32,17.02,2.11,24.94,2.67,25.49,1.59.83,3.22,1.19,4.85,1.04,3.25-.28,5.44-2.46,5.46-2.48,1.13-1.15,2.67-1.82,4.56-1.98,3.02-.26,5.89.84,5.95.87ZM19.07,38.95c-.49-1.21-2.05-9.01-2.12-9.32-.19-.75-.35-1.61-.46-2.55-.01-.09.01-.18.06-.25,1.86-2.62,4.22-5.55,4.51-5.9,3.58-7.67,7-7.1,7.11-7.07.62.1,1.11.42,1.45.95,1.28,1.99.05,6.49-.54,8.66-.07.26-.13.48-.17.64-.01.06-.04.11-.08.16-1.77,1.96-6.62,14.57-6.67,14.71-.54,1.37-1.04,2-1.62,2.06h0c-.99.09-1.39-1.6-1.47-2.06ZM28.39,23.26c.52-1.9,1.73-6.36.63-8.08-.23-.35-.54-.56-.96-.62,0,0-.1-.02-.27,0-.73.06-3.31.73-6.08,6.71-.01.03-.03.05-.05.08-.03.03-2.48,3.05-4.43,5.78.11.86.25,1.64.43,2.34.56,2.78,1.71,8.29,2.1,9.28.15.78.51,1.56.72,1.54.02,0,.4-.05,1.01-1.6.2-.52,4.84-12.6,6.75-14.86.04-.15.09-.34.15-.57ZM5.39,84.81s-.05-.03-.08-.06c-.32-.3-7.74-7.45-3.62-23.69.22-.86.46-1.72.74-2.61,0,0,.06-.14.16-.39.03-.09.1-.16.19-.2,1.5-.69,3.08-1.11,4.69-1.25,4.01-.35,6.85,1.12,6.98,1.18,1.87,1,3.43,1.11,4.4,1.03.91-.08,1.45-.34,1.46-.34,4.66-2.17,9.19-2.46,13.09-.88.11.04.19.14.22.25.16.63.34,1.17.54,1.6,0,0,.14.25.36.7,1.7,3.41,6.89,14.91,2.56,19.96-.17.44-1.14,2.45-4.94,2.78-1.61.14-3.52-.04-5.75-.55-.03-.01-2.83-1.09-5.68-.84-1.71.15-3.1.75-4.1,1.77-.1.1-2.39,2.38-5.91,2.69h0c-1.79.16-3.57-.23-5.3-1.15ZM26.59,81.66c2.1.48,3.95.66,5.47.52,3.66-.32,4.31-2.27,4.34-2.35.02-.05.04-.1.08-.14,4.22-4.81-1.44-16.85-2.61-19.21-.22-.44-.35-.68-.36-.7-.21-.44-.39-.97-.55-1.57-3.68-1.43-7.95-1.11-12.34.93-.03.01-.65.32-1.71.41s-2.78-.02-4.81-1.11c-.03-.02-2.78-1.44-6.57-1.1-1.48.13-2.93.51-4.32,1.13-.06.15-.1.24-.1.24-.26.84-.5,1.69-.72,2.54-3.87,15.27,2.86,22.43,3.38,22.96,1.59.83,3.22,1.19,4.85,1.04,3.25-.28,5.44-2.46,5.46-2.48,1.13-1.15,2.67-1.82,4.56-1.98,3.02-.26,5.89.84,5.95.87ZM10.57,85.88c-.52-.4-.74-.79-.65-1.18.14-.6.97-.78,1.09-.8,3.18-1.01,5.95-3.39,5.95-3.4,1.02-1.05,2.24-1.62,3.74-1.75,2.22-.19,4.6.61,6.9,1.39,1.93.65,3.75,1.27,5.14,1.14h0c.68-.06,1.22-.29,1.63-.72.13-.13.34-.14.49-.02.14.12.17.33.07.49l-1.02,1.46c-.04.05-.09.09-.14.12-.46.21-.56.25-1.05.26-.16,0-.39,0-.75.03-1.56.11-3.42-.08-5.56-.57-.03-.01-2.81-1.08-5.68-.84-1.71.15-3.1.75-4.11,1.77-.09.1-2.34,2.33-5.8,2.68h0c-.09,0-.18-.02-.25-.07ZM26.62,81.66c2.02.46,3.81.64,5.3.54.38-.03.61-.03.79-.03.26,0,.26.03.67-.16l.07-.09c-.2.05-.41.09-.63.1h0c-1.55.14-3.44-.5-5.44-1.18-2.23-.75-4.54-1.53-6.6-1.35-1.32.12-2.4.62-3.31,1.55-.12.1-2.91,2.51-6.27,3.57-.26.05-.54.19-.56.27,0,0,0,.11.28.35,3.11-.37,5.19-2.43,5.21-2.45,1.13-1.15,2.67-1.82,4.58-1.99,3.01-.26,5.86.85,5.93.88Z" fill="#495059" stroke-width="0"/>
  </g>
</svg>