<?xml version="1.0" encoding="UTF-8"?>
<svg id="Layer_1" data-name="Layer 1" xmlns="http://www.w3.org/2000/svg" width="40" height="90" viewBox="0 0 40 90">
  <g id="_28" data-name="28">
    <path id="root" d="M6.26,56.4c.1.1.25.13.38.08.1-.04.2-.08.29-.11h.03s.06-.01.08-.02c.03,0,.06-.01.09-.01,2.66-1.11,5.32-1.68,7.89-1.68,3.39,0,5.54.99,5.89,1.17.24.26.5.5.78.7.68.5,1.47.74,2.33.74.79,0,1.37-.23,1.39-.24.03-.01.07-.03.09-.06.46-.38.94-.7,1.41-.95,1.38-.72,2.77-.88,4.56-.5.23.06.46.11.68.18.13.03.28-.01.36-.11.09-.11.11-.25.06-.38-.24-.73-1.37-5.36-.39-7.74.1-.31,2.14-6.94-1.42-13.21-.12-.81-1.37-9.23.36-11.44.02-.03.03-.06.06-.08.08-.19,1.9-4.54,1.52-6.85-.06-.58-.49-1.74-1.6-1.74-.93,0-2.09.81-3.54,2.48-.01,0-.62.57-1.5,1.63-.33-1.27-.28-2.87-.24-4.3.06-1.96.11-3.65-.66-4.45-.33-.34-.76-.49-1.31-.44-.49-.15-2.49-.41-4.06,4.3-.29-.5-.63-.83-1.02-.99-.15-.12-.57-.42-1.15-.42-.24,0-.49.06-.73.17-.22.03-.44.11-.65.23-.06.04-.12.08-.18.12-.08.06-.13.1-.19.15-.2.18-.38.38-.55.63-.07.09-.11.18-.17.25-.08.13-.12.21-.17.3-.08.14-.13.25-.18.35-.08.15-.13.28-.19.41-.01.03-.01.06-.02.09,0,.04-.64,4.6-3.82,11.21-.36.45-3.17,4.27-3.17,16.78,0,1.68.06,3.47.15,5.31,0,.02-.02,4.02-1.6,8.04-.04.13-.01.29.09.39Z" fill="#dcddde" stroke-width="0"/>
    <path id="face" d="M2.71,66.58c.02,3.51,1,7.37,2.92,11.49.1.15,1.78,2.64,5.73,2.74.03.01.07.03.1.06.08.04.18.09.3.14.31.14.75.33,1.3.5h.01c.1.03.2.07.31.1.11.02.21.06.32.08.13.03.23.06.34.08.4.09.77.14,1.15.19h.08c.12.01.21.02.31.03h.15c.08.01.17.01.25.02h.29s1-.06,1-.06l.04-.35.03.35h.11c.12-.03.24-.04.36-.07l.18-.03.03-.36.06.35c.09-.02.18-.03.26-.06l1.04-.28c1.42-.39,2.76-1.08,3.98-2.07.58.12,2.52.51,4.49.51,2.01,0,3.44-.41,4.24-1.21l.24-.26c7.82-8.16,4.69-14.28,1.93-19.68-.63-1.22-1.22-2.38-1.71-3.58-.04-.1-.12-.18-.23-.2-.24-.07-.47-.13-.73-.18-1.95-.43-3.5-.24-5.02.55-.51.26-1.02.6-1.49,1-.13.04-.55.17-1.08.17-.71,0-1.36-.21-1.92-.61-.25-.19-.49-.39-.71-.64-.02-.03-.06-.06-.1-.08-.09-.06-2.39-1.27-6.27-1.27-2.3,0-4.66.43-7.02,1.28-.04-.01-.09,0-.13.01-.51.18-1.02.36-1.5.56-.1.04-.17.12-.2.22-.26.66-.56,1.31-.88,1.91-.23.44-.47.85-.72,1.24-.07.08-1.91,2.51-1.86,7.4Z" fill="#d7f0f5" stroke-width="0"/>
    <path d="M20.19,31.18c-1.13,4.39-2.04,8.86-2.66,13.34-.29,2.11-.55,4.28-.36,6.41.08.93,1.52,3.96,2.36,1.65.29-.79-.2-2.15-.21-2.96-.1-2.61.08-5.24.31-7.84.22-2.41.49-4.81.77-7.21.13-1.01.26-2.03.39-3.04.04-.32-.43-1.03-.61-.35Z" fill="#c9c8c8" stroke-width="0"/>
    <path d="M22.58,58.49c-.56,1.56-.18,3.13.28,4.65.26.85.55,1.7.71,2.58.13.76.14,1.61-.4,2.24-.41.48-1.12.67-1.33,1.31-.21.63.13,1.32.76,1.55.69.25,1.23-.13,1.71-.58.57-.54,1.02-1.21,1.24-1.95.6-2-.55-3.94-1.4-5.68-.43-.86-.88-1.78-.99-2.75-.05-.4-.04-.78.04-1.18.07-.37-.46-.6-.6-.2Z" fill="#fff" stroke-width="0"/>
    <path id="_Path_" data-name="&amp;lt;Path&amp;gt;" d="M20.69,28.99c-.18-.03-.3-.19-.29-.37,0-.1.6-10.09-.89-14.13-.03-.07-.03-.15,0-.22,1.6-5.64,3.81-5.37,4.33-5.2.56-.05.99.1,1.31.44.77.8.73,2.49.67,4.45-.05,1.68-.1,3.58.42,4.92.05.12.03.25-.05.35-1.62,2.03-3.83,5.34-5.1,9.53-.05.15-.18.25-.34.25-.02,0-.04,0-.06,0ZM25.11,13.93c.05-1.72.09-3.35-.47-3.94-.19-.19-.45-.26-.81-.22-.06,0-.13,0-.19-.03,0,0-1.85-.86-3.43,4.61,1.05,3,1.07,8.72.99,11.95,1.27-3.14,2.96-5.66,4.31-7.37-.5-1.44-.45-3.33-.4-5ZM21.68,56.52c-.28-.2-.54-.43-.78-.7-.35-.18-2.51-1.17-5.9-1.17-2.57,0-5.22.56-7.89,1.67-.03.01-.06.02-.09.02-.03,0-.05,0-.08,0h-.03c-.09.04-.19.08-.28.12-.13.05-.28.02-.38-.07-.1-.1-.13-.25-.08-.38,1.57-4.03,1.6-8.03,1.6-8.05-.1-1.84-.15-3.63-.15-5.31,0-12.52,2.8-16.33,3.17-16.78,3.18-6.61,3.81-11.17,3.82-11.21,0-.03.01-.06.02-.09.06-.13.11-.26.18-.4.05-.11.1-.21.18-.36.05-.09.09-.17.17-.3.05-.08.1-.16.17-.26.17-.25.35-.45.54-.63.06-.05.12-.1.19-.15.06-.04.12-.08.18-.12.21-.12.43-.2.66-.24.24-.11.48-.16.73-.16.57,0,.99.3,1.15.42.58.25,1.05.86,1.42,1.87,1.09,2.97,1.11,8.79,1.02,12.05,1.31-3.24,3.07-5.82,4.43-7.53,1.11-1.39,1.91-2.15,1.92-2.15,1.46-1.67,2.61-2.48,3.55-2.48,1.11,0,1.54,1.16,1.6,1.75.37,2.31-1.46,6.66-1.53,6.84-.01.03-.03.05-.05.08-1.74,2.23-.49,10.64-.36,11.45,3.56,6.27,1.51,12.9,1.41,13.21-.97,2.38.15,7.01.39,7.74.05.12.03.27-.06.37-.09.1-.23.14-.36.11-.23-.06-.46-.12-.69-.17-1.79-.39-3.18-.22-4.55.49-.48.25-.95.57-1.41.95-.03.02-.06.04-.09.06-.02.01-.59.24-1.39.24-.85,0-1.64-.25-2.33-.74ZM26.58,55.39c1.53-.8,3.07-.98,5.03-.56.05.01.09.02.14.03-.37-1.5-1.17-5.35-.24-7.63.02-.07,2.05-6.66-1.4-12.67-.02-.04-.04-.08-.04-.12-.06-.38-1.5-9.4.46-12.02.18-.44,1.79-4.41,1.47-6.43,0-.01-.14-1.14-.9-1.14-.48,0-1.4.39-3.04,2.26,0,0-.81.76-1.88,2.1-1.62,2.03-3.83,5.34-5.1,9.53-.05.17-.22.28-.4.25-.18-.03-.3-.19-.29-.37,0-.1.6-10.09-.89-14.13-.3-.82-.67-1.33-1.06-1.47-.04-.02-.08-.04-.12-.07,0,0-.31-.28-.72-.28-.16,0-.31.04-.46.12-.04.02-.08.03-.12.04-.15.02-.29.06-.43.15-.04.03-.08.05-.13.09-.04.03-.08.07-.13.11-.14.13-.29.3-.44.52-.04.07-.09.13-.16.25-.04.07-.08.15-.15.27-.05.09-.09.18-.15.3-.05.1-.09.2-.14.31-.08.53-.78,4.96-3.89,11.42-.01.03-.03.06-.05.08-.03.03-3.03,3.58-3.02,16.35,0,1.66.05,3.44.15,5.29,0,.16-.02,3.73-1.39,7.63,2.67-1.08,5.33-1.62,7.91-1.62,3.88,0,6.19,1.23,6.29,1.28.04.02.07.05.1.08.22.25.44.46.7.64.57.4,1.22.61,1.92.61.54,0,.95-.12,1.08-.17.48-.4.98-.73,1.49-1ZM13.38,81.6c-.11-.03-.21-.06-.31-.09,0,0,0,0,0,0-.87-.27-1.47-.57-1.71-.7-3.95-.1-5.63-2.59-5.73-2.74-1.92-4.11-2.9-7.98-2.93-11.49-.03-4.89,1.8-7.33,1.86-7.41.25-.38.49-.78.73-1.23.32-.6.62-1.24.88-1.91.03-.09.1-.17.2-.21.49-.2.99-.39,1.5-.57.04-.01.09-.02.13-.01,2.37-.85,4.73-1.28,7.02-1.28,3.87,0,6.17,1.21,6.27,1.27.04.02.07.05.1.08.22.25.44.46.7.64.57.4,1.22.61,1.92.61.54,0,.95-.12,1.08-.17.48-.4.98-.73,1.49-1,1.53-.8,3.07-.98,5.03-.56.24.05.49.11.72.18.11.03.19.11.24.21.49,1.19,1.08,2.34,1.7,3.57,2.76,5.4,5.89,11.52-1.93,19.68-.05.05-.11.08-.17.1-.6.15-1.25.22-1.92.22-2.31,0-4.89-.88-7.47-2.54-.03-.02-.06-.05-.09-.08,0,0-.28-.35-.86-.35-.66,0-1.46.45-2.33,1.31-.1.09-2.54,2.29-5.93,3.22-.02,0-.04.02-.06.02-.29.09-.58.17-.87.24.19.07.4.15.63.22,0,0,0,0,0,0,.08.02.17.05.26.07,0,0,.02,0,.02,0h0c.19.05.3.25.25.44-.04.16-.19.26-.34.26-.03,0-.06,0-.09-.01ZM13.31,79.69c3.26-.87,5.69-3.06,5.71-3.07,1.01-1,1.96-1.5,2.82-1.5.77,0,1.23.41,1.37.56,2.45,1.57,4.89,2.4,7.05,2.4.58,0,1.14-.06,1.65-.18,7.39-7.76,4.52-13.37,1.74-18.79-.58-1.13-1.18-2.3-1.66-3.46-.17-.04-.34-.09-.52-.12-1.79-.39-3.18-.22-4.55.49-.48.25-.95.57-1.41.95-.03.02-.06.04-.09.06-.02.01-.59.24-1.39.24-.85,0-1.64-.25-2.33-.74-.28-.2-.54-.43-.78-.7-.36-.18-2.5-1.16-5.88-1.16-2.26,0-4.6.43-6.94,1.29-.05.02-.1.02-.14.01-.39.14-.78.28-1.16.44-.26.65-.55,1.27-.86,1.86-.25.46-.49.88-.77,1.31-.02.02-1.77,2.36-1.73,6.99.02,3.41.99,7.18,2.84,11.15.01.02,1.57,2.32,5.21,2.38.01,0,.03,0,.04,0,.56-.08,1.14-.21,1.73-.39.03-.01.05-.03.08-.03ZM18,81.85l-.17.03c-.12.02-.25.04-.37.05h-.11M17.28,81.95l-1,.05h-.29c-.09,0-.18,0-.26-.01h-.15c-.1-.02-.19-.02-.31-.03,0,0-.07,0-.07,0-.37-.04-.75-.1-1.15-.18-.11-.02-.22-.05-.35-.08-.11-.02-.21-.05-.32-.08-1.13-.31-1.88-.71-2.08-.82-.13-.07-.2-.22-.17-.37.03-.15.15-.26.3-.28.09-.01.18-.03.27-.04.05-.06.13-.09.21-.1,3.94-.51,7.09-3.34,7.11-3.36,1.01-1,1.96-1.5,2.82-1.5.77,0,1.23.41,1.37.56,2.45,1.57,4.89,2.4,7.05,2.4.62,0,1.21-.07,1.75-.2.15-.04.31.03.39.17.08.14.06.31-.05.42l-.24.26c-.8.81-2.22,1.22-4.24,1.22-1.97,0-3.9-.39-4.48-.51-1.23.99-2.57,1.69-3.99,2.08l-1.04.28c-.09.02-.18.03-.26.05M23.37,78.7s2.27.53,4.49.53c1.21,0,2.18-.16,2.89-.46-2.42.14-5.2-.74-7.98-2.53-.03-.02-.06-.05-.09-.08,0,0-.28-.35-.86-.35-.66,0-1.46.45-2.33,1.31-.13.12-3.05,2.75-6.93,3.46.28.11.62.23,1.01.34.09.02.19.05.32.08.1.03.2.05.32.07.35.07.7.13,1.05.16h.1c.09.02.18.02.26.03h.14c.08.01.16.02.24.02h.27s1.11-.06,1.11-.06c.11-.01.22-.03.34-.05l.16-.03s.09-.02.09-.02c.08-.01.16-.03.24-.05l1.01-.28c1.36-.37,2.65-1.06,3.84-2.05.06-.05.14-.08.23-.08.03,0,.06,0,.08,0Z" fill="#495059" stroke-width="0"/>
  </g>
</svg>