<?xml version="1.0" encoding="UTF-8"?>
<svg id="Layer_1" data-name="Layer 1" xmlns="http://www.w3.org/2000/svg" width="40" height="90" viewBox="0 0 40 90">
  <g id="_31" data-name="31">
    <path id="root" d="M26.67,26.67h0s0-.02,0-.03c-.04,1.38-.21,7.6-.34,10.79,0,0-.55,19.03-1.38,21.73,0,0-1.7,16.37-2.6,18.2,0,0-2.56,7.06-4.81,0,0,0-3.96-17.11-2.54-22.71,0,0-.22-13.47-.58-14.67,0,0-.64-10.56-1.07-14.66h0c5.47,10.48,10.26,7.98,13.33,1.37Z" fill="#dcddde" stroke-width="0"/>
    <path id="face" d="M12.61,20.79c-.56-3.35-1.01-6.72-1.43-10.08-.22-1.76-.44-3.53-.57-5.31-.05-.7-.11-1.42-.06-2.13.04-.53-.03-.98.37-1.44.46-.53,1.18-.82,1.84-1.01,1.31-.39,2.69-.49,4.05-.53,3.07-.08,6.15.22,9.19.62.47.06.94.12,1.4.19.19,0,.38-.04.58-.03.67.03,1.32.32,1.46,1.04.09.46-.1.86-.11,1.31,0,.28-.02.57-.02.85-.1,3.07-.27,6.15-.53,9.21-.31,3.66-.68,7.36-1.56,10.93-.1.39-.2.78-.31,1.16-.09.31-.27.64-.28.96,0,.28-.14.49-.26.74-.14.28-.28.56-.44.83-.52.93-1.12,1.84-1.86,2.62-1.16,1.23-2.75,2.08-4.47,1.6-.97-.27-1.82-.88-2.54-1.56-1.07-1.01-1.94-2.24-2.71-3.5-.19-.32-.38-.63-.56-.96-.18-.31-.48-.7-.52-1.06-.05-.44-.11-.87-.18-1.31-.17-1.05-.33-2.11-.5-3.16Z" fill="#d7f0f5" stroke-width="0"/>
    <path d="M24.17,1.83c-.06,1.68-.38,3.34-.82,4.95-.14.51-.48,1.04-.52,1.56-.06.72.73,1.23,1.36.87.49-.28.5-.9.59-1.39.16-.88.2-1.78.24-2.67.02-.84-.02-1.69-.09-2.53-.02-.27-.02-.57-.09-.83-.06-.38-.64-.35-.65.04Z" fill="#fff" stroke-width="0"/>
    <path d="M15.64.94c-.51,3.39-.74,6.8-.6,10.22.02.56.42,1.05,1.03.97.6-.08.84-.64.76-1.18-.26-1.66-.45-3.32-.52-5-.05-1.16-.06-2.32-.05-3.48,0-.48.02-.95.04-1.43.01-.41-.59-.54-.65-.1Z" fill="#fff" stroke-width="0"/>
    <path d="M13.81,26.34c-.18-.31-.48-.7-.52-1.06-.05-.44-.11-.87-.18-1.31-.17-1.05-.33-2.11-.5-3.16-.55-3.35-1.01-6.72-1.43-10.08-.22-1.77-.44-3.53-.57-5.31-.04-.53-.08-1.06-.08-1.6,0-.18,0-.35.02-.53.04-.53-.03-.98.37-1.44.46-.53,1.18-.82,1.84-1.01.04-.01.09-.02.13-.04-.16.11-.32.24-.45.39-.39.45-.33.9-.37,1.44-.06.7,0,1.43.06,2.13.13,1.78.35,3.54.57,5.31.43,3.36.88,6.73,1.43,10.08.17,1.05.32,2.11.5,3.16.07.44.13.87.18,1.31,0,.09.03.17.07.26.1.98.21,2.28.32,3.7-.29-.42-.57-.85-.84-1.29-.19-.32-.38-.63-.56-.96Z" fill="#fff" stroke-width="0"/>
    <path id="_Path_" data-name="&amp;lt;Path&amp;gt;" d="M17.16,77.53c-.16-.7-3.94-17.17-2.55-22.84-.09-5.4-.31-13.68-.57-14.52,0-.03-.01-.06-.02-.09,0-.11-.64-10.6-1.07-14.65-.02-.18.09-.35.27-.4.17-.05.36.03.45.19,2.35,4.51,4.77,6.89,7,6.89,2.53,0,4.45-2.95,5.62-5.45.04-.19.21-.33.39-.31.21,0,.36.18.36.39-.05,1.75-.22,7.68-.34,10.79-.02.78-.56,19.11-1.39,21.75-.07.67-1.72,16.46-2.63,18.29-.13.35-1.27,3.39-2.92,3.39-1.03,0-1.88-1.11-2.62-3.43ZM20.67,32.87c-2.27,0-4.55-1.92-6.79-5.71.4,4.57.86,12.22.9,12.83.36,1.46.56,13.36.59,14.73,0,.03,0,.07-.01.1-1.38,5.45,2.51,22.36,2.54,22.5.8,2.5,1.53,2.88,1.89,2.88.84,0,1.8-1.77,2.22-2.93.72-1.45,2.1-13.53,2.58-18.14.81-2.62,1.36-21.43,1.37-21.63.09-2.42.22-6.54.29-9.08-1.65,2.92-3.55,4.45-5.57,4.45ZM19.52,32.8c-.91-.25-1.79-.79-2.7-1.65-.95-.9-1.83-2.03-2.77-3.58-.19-.32-.38-.64-.57-.97-.04-.07-.09-.15-.14-.23-.18-.29-.39-.62-.43-.97-.05-.43-.11-.86-.18-1.29-.12-.7-.22-1.4-.33-2.1l-.16-1.06c-.59-3.54-1.05-7.09-1.44-10.1-.2-1.61-.43-3.49-.57-5.33v-.13c-.06-.67-.11-1.37-.06-2.06,0-.1.01-.19.01-.28.02-.43.04-.91.45-1.38.55-.63,1.37-.93,2.02-1.12C14.05.14,15.53.05,16.8.01c3.27-.09,6.55.27,9.25.62.47.06.94.13,1.35.19.08,0,.15,0,.23-.01.1,0,.2-.02.37-.02.98.04,1.66.54,1.82,1.34.07.35.01.67-.04.95-.03.15-.06.3-.06.45l-.02.86c-.1,3.14-.28,6.24-.53,9.23-.3,3.53-.66,7.3-1.57,10.98-.1.4-.2.79-.32,1.18-.03.11-.07.22-.11.33-.07.2-.14.38-.15.54,0,.32-.14.57-.25.79l-.05.11c-.14.29-.29.57-.44.85-.61,1.1-1.24,1.98-1.91,2.69-.8.85-2.11,1.86-3.76,1.86h0c-.36,0-.72-.05-1.08-.15ZM27.7,1.57c-.1,0-.2.02-.35.01-.46-.07-.93-.13-1.4-.19-2.68-.35-5.91-.71-9.13-.62-1.22.04-2.64.12-3.95.51-.55.16-1.24.41-1.66.9-.23.27-.24.52-.26.91,0,.1,0,.2-.02.3-.05.63,0,1.3.05,1.94v.13c.15,1.82.37,3.69.58,5.29.38,3,.85,6.54,1.43,10.07l.16,1.06c.11.7.22,1.4.33,2.1.07.44.13.88.18,1.33.02.18.18.43.31.65.06.09.11.18.16.27.18.32.36.63.55.95.91,1.49,1.75,2.57,2.64,3.42.82.77,1.6,1.25,2.38,1.47.29.08.58.12.87.12h0c1.39,0,2.51-.88,3.21-1.62.63-.67,1.22-1.5,1.8-2.54.15-.27.29-.54.43-.82l.06-.12c.09-.18.16-.31.17-.46,0-.28.11-.55.19-.78.04-.1.07-.19.1-.28.11-.38.21-.76.31-1.15.89-3.64,1.25-7.36,1.55-10.87.25-2.97.43-6.06.53-9.19l.02-.85c0-.19.04-.38.07-.57.05-.24.08-.45.04-.66-.12-.6-.75-.72-1.15-.73-.08,0-.15,0-.23.01Z" fill="#495059" stroke-width="0"/>
  </g>
</svg>