<?xml version="1.0" encoding="UTF-8"?>
<svg id="Layer_1" data-name="Layer 1" xmlns="http://www.w3.org/2000/svg" width="40" height="90" viewBox="0 0 40 90">
  <g id="_32" data-name="32">
    <path id="root" d="M13.2,26.76c2.45,5.21,3.85,5.24,3.85,5.24,5.12,1.32,8.06-4.64,9.81-9.46-.26,1.27-.45,2.02-.45,2.02-.14.61-1.75,10.69-1.75,10.69,0,3.94-2.5,18.15-2.5,18.15-.16,3.35-2.05,16.13-2.05,16.13-1.15,5.8-1.73,7.93-1.73,7.93-5.86,3.83-5.06-20.98-5.06-20.98-.21-2.34,0-13.63,0-13.63-.27-2-.16-12.63-.12-16.1Z" fill="#dcddde" stroke-width="0"/>
    <path id="face" d="M13.2,25.64c-1.06-3.01-1.7-22.61-1.71-22.92,0-.03,0-.06.01-.09,0-.02,0-.05,0-.07,0-.04.02-.08.03-.12,0,0,0,0,0,0,.01-.06.05-.1.07-.15.03-.09.07-.17.11-.24.05-.1.1-.2.18-.29.04-.05.09-.09.14-.13.18-.18.4-.33.66-.45.05-.02.09-.05.14-.07.15-.06.3-.11.46-.16.06-.02.11-.03.17-.05.09-.02.17-.06.26-.07-.01,0-.02.02-.03.03,2.24-.47,5.37.16,5.37.16,10-.1,9.48,2.8,9.48,2.8.63,6.43-.9,14.91-1.7,18.73-1.76,4.82-4.69,10.78-9.81,9.46,0,0-.89-.03-2.49-2.66,0,0,0,0,0,.01-.41-.68-.87-1.52-1.37-2.59,0-.69.01-1.1.01-1.1h0Z" fill="#d7f0f5" stroke-width="0"/>
    <path d="M13.2,25.65h0c-1.06-3.02-1.7-22.62-1.71-22.93,0-.03,0-.06.01-.09,0-.02,0-.05,0-.07,0-.04.02-.08.03-.12,0,0,0,0,0,0,.23-.92,1.11-1.4,2.19-1.62-.47.31-.78.76-.84,1.37,0,0,1.67,25.88,1.66,27.15-.41-.68-.87-1.52-1.37-2.59,0-.69.01-1.1.01-1.1Z" fill="#fff" stroke-width="0"/>
    <path d="M24.17,1.83s-.11.6-.27,1.49c-.16.9-.36,2.1-.51,3.32-.03.3-.07.61-.1.91-.03.3-.05.6-.07.89-.02.29-.03.57-.04.84,0,.27,0,.52,0,.76.01.24.01.45.04.65.02.2.03.37.06.51.05.29.08.45.08.45.06.3.35.5.64.44.3-.06.5-.35.44-.64,0-.01,0-.02,0-.03v-.05s-.05-.13-.1-.36c-.03-.12-.05-.27-.08-.44-.03-.17-.04-.37-.07-.59-.02-.22-.03-.46-.04-.71,0-.25-.01-.52,0-.8,0-.28,0-.57.02-.86,0-.3.03-.6.04-.89.07-1.2.2-2.4.31-3.3.11-.9.18-1.5.18-1.5.02-.15-.09-.28-.23-.29-.14-.02-.27.08-.29.21Z" fill="#fff" stroke-width="0"/>
    <path d="M18.1,1.61s0,.18-.02.49c0,.15-.01.34-.01.56,0,.22,0,.47,0,.74,0,.27.01.56.03.86.01.31.03.63.05.96.04.66.1,1.37.15,2.07.05.7.09,1.4.12,2.05,0,.32.01.64,0,.93,0,.3-.02.57-.03.82-.03.25-.05.48-.08.67-.04.19-.06.36-.09.5-.07.26-.11.42-.11.42l-.02.06c-.1.37.12.75.49.85.37.1.75-.12.85-.5,0-.02,0-.03.01-.05,0,0,.04-.19.1-.53.03-.17.04-.37.07-.6.02-.23.02-.49.03-.77,0-.28,0-.58-.03-.89-.02-.31-.05-.64-.08-.97-.07-.67-.17-1.38-.28-2.08-.1-.7-.21-1.4-.3-2.05-.05-.33-.09-.64-.12-.94-.04-.3-.06-.58-.09-.84-.03-.26-.04-.5-.06-.71-.02-.21-.03-.4-.03-.55-.01-.31-.02-.48-.02-.48,0-.15-.13-.26-.27-.25-.14,0-.25.12-.25.25Z" fill="#fff" stroke-width="0"/>
    <path id="_Path_" data-name="&amp;lt;Path&amp;gt;" d="M15.65,77.29c-3.34-3.45-2.84-20.37-2.81-21.05-.21-2.33,0-13.21,0-13.61-.26-1.98-.17-11.96-.12-16.15,0-.18.13-.33.3-.37.17-.04.35.05.42.21,2.23,4.74,3.53,5.02,3.51,5.02.03,0,.06,0,.09.01,3.71.96,6.74-2.03,9.36-9.23.07-.19.27-.29.46-.24.19.05.31.25.27.44-.26,1.27-.45,2.03-.45,2.03h0c-.11.47-1.19,7.18-1.74,10.6,0,3.93-2.41,17.64-2.5,18.17-.16,3.34-1.98,15.65-2.06,16.19-1.14,5.75-1.73,7.94-1.73,7.96-.02.09-.08.17-.16.22-.47.31-.93.47-1.37.47h0c-.53,0-1.03-.23-1.46-.68ZM19.62,69.2c.02-.13,1.89-12.8,2.05-16.14.03-.14,2.5-14.23,2.5-18.15.05-.31.96-5.98,1.45-8.95-1.6,3.29-3.89,6.33-7.28,6.33-.48,0-.98-.07-1.48-.19-.34-.04-1.54-.47-3.42-4.03-.04,4.29-.1,12.75.14,14.53,0,.11-.21,11.29,0,13.63,0,.17-.52,17.32,2.6,20.54.52.54,1.06.59,1.75.18.15-.56.71-2.86,1.68-7.75ZM16.87,32.09c-.38-.05-1.84-.58-4.12-5.45-.02-.05-.04-.11-.04-.17v-1.03c-1.04-3.25-1.67-22.17-1.69-23.02C11.12,1.31,11.98,0,15.51,0c1.67,0,3.23.29,3.5.34h.47c5.96,0,8.14,1.11,8.93,2.05.43.51.44.96.43,1.13.61,6.34-.81,14.5-1.72,18.86-1.55,4.25-4.14,9.9-8.76,9.9h0c-.48,0-.98-.06-1.48-.19ZM18.97,1.1s-.05,0-.08,0c-.02,0-1.67-.34-3.38-.34-1.63,0-3.6.3-3.73,1.68,0,.2.65,19.87,1.69,22.81.01.04.02.09.02.13v1.01c2.19,4.67,3.48,4.94,3.46,4.94.03,0,.06,0,.09.01.45.12.89.18,1.32.18h0c3.11,0,5.74-3.08,8.03-9.35.72-3.44,2.32-12.14,1.69-18.61,0-.03,0-.07,0-.09,0-.01.02-.28-.3-.64-.58-.65-2.44-1.73-8.3-1.73h-.5Z" fill="#495059" stroke-width="0"/>
  </g>
</svg>