<?xml version="1.0" encoding="UTF-8"?>
<svg id="Layer_1" data-name="Layer 1" xmlns="http://www.w3.org/2000/svg" width="40" height="90" viewBox="0 0 40 90">
  <g id="_33" data-name="33">
    <path id="root" d="M29.14,33.05c-.42,1.12-.7,1.77-.7,1.77-1.35,1.15-1.84,18.84-1.84,18.84.8,6.24-.81,25.68-.81,25.68.25,4.07.1,8.87.1,8.87-.66,2.56-2.78,1.19-4.7-1.57-5.48-7.91-6.18-17.81-6.18-17.81-1.57-4.96-2.66-27.54-2.66-27.54-.61-1.61-1.51-5.97-2.37-10.51,10.09,9.78,15.98,6.84,19.16,2.28Z" fill="#dcddde" stroke-width="0"/>
    <path id="face" d="M15.03,2c2.84-5.52,11.99,3.94,11.99,3.94,9.29,5.36,4.15,21.68,2.12,27.1-3.19,4.57-9.07,7.5-19.16-2.28-1.21-6.44-2.32-13.26-2.32-13.26-.79-8.55,7.37-15.5,7.37-15.5Z" fill="#d7f0f5" stroke-width="0"/>
    <path d="M24.86,7.03s0,.03.01.09c0,.06.02.15.03.26.03.23.06.55.09.94.03.39.04.85.05,1.34,0,.49-.01,1.01-.05,1.53-.01.26-.04.52-.07.77-.02.26-.06.5-.09.75-.03.24-.08.47-.11.69-.04.22-.08.43-.12.61-.04.19-.08.36-.12.52-.04.15-.08.28-.11.39-.06.22-.09.34-.09.34v.02c-.09.31.09.63.4.71.31.08.63-.1.71-.41,0-.01,0-.02,0-.04,0,0,.03-.13.08-.37.02-.12.05-.26.09-.42.03-.16.06-.35.09-.55.03-.2.07-.42.09-.66.02-.23.06-.48.07-.73.02-.26.04-.52.05-.79,0-.27.02-.54.02-.81,0-.54-.01-1.09-.05-1.59-.03-.51-.08-.98-.13-1.38-.05-.4-.11-.74-.15-.97-.02-.12-.04-.21-.06-.27-.01-.06-.02-.1-.02-.1-.04-.17-.2-.27-.37-.23-.16.03-.26.19-.24.35h0Z" fill="#fff" stroke-width="0"/>
    <path d="M15.92,4.01s-.03.1-.1.28c-.06.2-.15.49-.24.85-.09.36-.2.8-.3,1.3-.11.5-.22,1.07-.33,1.69-.45,2.49-.91,5.83-1.13,9.2-.05.84-.1,1.69-.12,2.52-.02.83-.02,1.66,0,2.46.02.8.05,1.57.12,2.31.01.18.03.37.05.55.02.18.04.35.06.53.04.35.09.68.14,1.01.04.32.11.63.17.93.05.29.13.57.19.84.06.26.14.51.21.74.04.11.07.22.1.33.04.1.08.2.11.3.07.19.13.36.19.5.07.14.13.27.17.37.1.2.15.31.15.31.24.5.83.71,1.33.47.5-.24.71-.83.47-1.33,0-.01-.01-.03-.02-.04l-.04-.08s-.04-.08-.12-.23c-.04-.08-.09-.17-.15-.28-.05-.11-.11-.25-.18-.4-.03-.08-.07-.15-.1-.24-.03-.09-.07-.18-.1-.28-.07-.19-.15-.4-.21-.63-.07-.23-.15-.47-.21-.74-.07-.27-.14-.54-.19-.84-.06-.29-.12-.6-.17-.93-.03-.16-.05-.33-.08-.49-.02-.17-.05-.34-.07-.51-.1-.69-.16-1.43-.23-2.2-.05-.77-.09-1.57-.11-2.38-.02-.81-.03-1.64-.01-2.47.04-3.32.32-6.65.64-9.12.08-.62.16-1.19.24-1.68.08-.5.16-.93.23-1.29.07-.36.14-.62.18-.8.05-.19.08-.29.08-.29h0c.05-.17-.05-.34-.21-.39-.16-.05-.32.04-.38.2Z" fill="#fff" stroke-width="0"/>
    <path d="M7.63,16.32c.01-8,7.43-14.31,7.43-14.31.56-1.08,1.35-1.59,2.28-1.7-.32.27-.6.62-.84,1.08,0,0-8.17,6.95-7.37,15.5,0,0,1.11,6.82,2.32,13.26.15.79.3,1.58.45,2.34-.61-.53-1.24-1.1-1.89-1.73-.07-.4-.15-.8-.22-1.2-.67-3.63-1.29-7.24-1.68-9.56,0,0,0,0,0,0h0c-.26-1.54-.41-2.5-.41-2.5-.04-.4-.05-.8-.05-1.19Z" fill="#fff" stroke-width="0"/>
    <path id="_Path_" data-name="&amp;lt;Path&amp;gt;" d="M9.75,31.11c-.05-.05-.09-.12-.1-.19-1.2-6.37-2.31-13.2-2.33-13.3-.78-8.37,6.67-15.09,7.44-15.76C15.42.63,16.43,0,17.76,0c3.78,0,8.98,5.21,9.5,5.75,9.54,5.57,4.12,22.46,2.23,27.51-.01.03-.03.06-.04.08-2.04,2.92-4.56,4.4-7.5,4.4h0c-3.56,0-7.67-2.23-12.2-6.62ZM26.86,6.34s-.05-.04-.08-.06c-.05-.06-5.42-5.57-9.02-5.57-1.08,0-1.86.5-2.39,1.53-.02.04-.05.08-.09.11-.08.07-8.02,6.93-7.25,15.17.01.07,1.11,6.82,2.3,13.14,4.36,4.21,8.27,6.34,11.62,6.34h0c2.68,0,5-1.37,6.89-4.06,1.86-4.98,7.1-21.38-1.98-26.62ZM20.92,86.92c-5.29-7.63-6.18-17.22-6.24-17.94-1.53-4.95-2.59-26.03-2.67-27.54-.53-1.44-1.32-4.98-2.37-10.52-.03-.15.04-.31.18-.38.14-.07.31-.05.42.06,7.91,7.66,14.35,8.44,18.62,2.33.1-.15.3-.2.46-.11.16.08.23.27.17.44-.42,1.11-.7,1.76-.71,1.79-.02.05-.05.09-.1.13-.77.66-1.48,9.96-1.72,18.52.8,6.21-.75,24.96-.81,25.7.25,4.04.11,8.85.1,8.9,0,.03,0,.05-.01.08-.35,1.34-1.06,1.63-1.6,1.63-1.39,0-2.94-1.93-3.74-3.08ZM25.45,79.39c.02-.2,1.6-19.47.81-25.66.08-2.73.49-15.51,1.64-18.54-1.72,1.69-3.71,2.54-5.95,2.54-3.35,0-7.18-1.97-11.4-5.86.95,4.94,1.67,8.1,2.15,9.37.01.03.02.07.02.11.01.23,1.11,22.59,2.65,27.45,0,.03.01.05.02.08,0,.1.76,9.9,6.12,17.63,1.19,1.71,2.39,2.77,3.15,2.77.41,0,.71-.35.9-1.05.01-.47.13-4.99-.1-8.85Z" fill="#495059" stroke-width="0"/>
  </g>
</svg>