<?xml version="1.0" encoding="UTF-8"?>
<svg id="Layer_1" data-name="Layer 1" xmlns="http://www.w3.org/2000/svg" width="40" height="90" viewBox="0 0 40 90">
  <g id="_34" data-name="34">
    <path id="root" d="M9.43,25.43l.66,1.53c.2.47.37.78.52.98.12,3.08,1.75,44.89,6.85,50.14.03.05,1.44,1.92,2.86,1.92.9,0,1.56-.68,1.97-2.02.17-.55.45-.85.8-1.24.63-.7,1.42-1.57,2.07-4.18.04-.26,3.83-23.45,3.98-44.66.05-.1.14-.25.25-.47l.63-1.2-1.12.76c-2.93,2-6.41,3.14-9.54,3.14-3.31,0-6.24-1.2-8.72-3.55l-1.22-1.14Z" fill="#dcddde" stroke-width="0"/>
    <path id="face" d="M6.62,15.37c.07.32,2.18,8.56,3.48,11.59l.09.12c2.61,2.48,5.7,3.74,9.19,3.74,4.46,0,8.13-2.04,9.93-3.26l.07-.05.03-.07c1.84-3.53,7.37-15.26,1.72-18.4-.35-.39-3.02-3.36-5.1-5.74C25.93,3.17,23.58,0,19.68,0c-2.95,0-5.91,1.81-8.83,5.39-.21.23-5.58,6.13-4.24,9.98Z" fill="#d7f0f5" stroke-width="0"/>
    <path d="M6.95,15.15c-1.29-3.7,4.18-9.65,4.18-9.65,1.71-2.1,3.32-3.44,4.81-4.24-.96.76-1.96,1.75-3,3.03,0,0-5.47,5.95-4.18,9.65,0,0,2.16,8.52,3.48,11.57.21.48.39.83.55.98,0,0,.03.77.09,2.1-.84-.5-1.66-1.12-2.45-1.87-1.31-3.04-3.48-11.57-3.48-11.57Z" fill="#fff" stroke-width="0"/>
    <path d="M27.39,23.78s-.16.17-.44.46c-.14.15-.31.33-.5.54-.19.2-.4.44-.63.68-.23.24-.49.49-.77.74-.14.11-.29.23-.44.36-.16.11-.32.22-.49.33-.17.1-.36.19-.54.29-.18.1-.39.16-.58.24-.2.09-.41.13-.62.19l-.32.09-.33.06c-.22.03-.44.09-.66.11-.22.02-.45.04-.67.06-.44.04-.88.03-1.31.04-.43,0-.84-.03-1.23-.04-.39-.02-.76-.06-1.11-.09-.34-.03-.66-.06-.94-.1-.28-.04-.52-.07-.72-.09-.4-.05-.63-.08-.63-.08,0,0,.22.05.62.14.2.04.44.1.71.16.27.07.59.12.93.19.34.06.71.14,1.1.19.39.05.81.12,1.24.16.44.03.88.08,1.35.08.23,0,.47,0,.7,0,.23,0,.47-.03.71-.05l.36-.03.35-.06c.24-.05.47-.07.7-.15.23-.07.46-.12.68-.21.22-.09.44-.17.65-.27.2-.11.41-.21.6-.32.18-.12.37-.24.54-.36.33-.25.65-.49.91-.73.27-.23.51-.45.72-.63.21-.18.38-.35.53-.48.3-.26.48-.41.48-.41h0c.29-.25.32-.68.07-.97-.25-.29-.68-.32-.97-.07-.02.01-.03.03-.05.05Z" fill="#fff" stroke-width="0"/>
    <path id="_Path_" data-name="&amp;lt;Path&amp;gt;" d="M17.47,78.08c-5.1-5.26-6.74-47.05-6.85-50.14-.15-.2-.32-.51-.52-.98l-.66-1.53,1.21,1.15c2.48,2.35,5.42,3.55,8.72,3.55,3.13,0,6.61-1.14,9.55-3.14l1.12-.76-.62,1.2c-.11.22-.2.38-.25.47-.16,21.22-3.94,44.41-3.99,44.67-.65,2.61-1.44,3.48-2.07,4.17-.35.39-.63.69-.8,1.24-.42,1.34-1.08,2.02-1.97,2.02-1.42,0-2.83-1.87-2.86-1.92ZM19.37,30.81c-2.99,0-5.69-.93-8.05-2.76.14,3.64,1.85,44.61,6.68,49.59.35.47,1.44,1.67,2.34,1.67.56,0,1-.52,1.32-1.53.22-.69.57-1.09.94-1.5.58-.64,1.3-1.44,1.91-3.85.04-.23,3.79-23.23,3.97-44.35-1.97,1.2-5.24,2.73-9.11,2.73ZM10.18,27.08l-.08-.11c-1.31-3.03-3.41-11.27-3.49-11.59-1.34-3.85,4.03-9.75,4.24-9.98C13.77,1.81,16.74,0,19.68,0c3.9,0,6.26,3.17,6.34,3.29,2.08,2.38,4.75,5.35,5.11,5.75,5.65,3.13.12,14.87-1.72,18.4l-.04.08-.07.05c-1.79,1.22-5.47,3.26-9.93,3.26h0c-3.48,0-6.57-1.26-9.19-3.73ZM30.75,9.6l-.09-.07s-2.92-3.25-5.17-5.82c-.02-.03-2.25-3.03-5.81-3.03-2.72,0-5.51,1.73-8.31,5.15-.05.06-5.32,5.84-4.1,9.34.02.08,2.14,8.41,3.43,11.45,2.47,2.32,5.39,3.5,8.67,3.5,3.1,0,6.55-1.13,9.48-3.09,1.34-2.59,7.17-14.6,1.91-17.43Z" fill="#495059" stroke-width="0"/>
  </g>
</svg>