<?xml version="1.0" encoding="UTF-8"?>
<svg id="Layer_1" data-name="Layer 1" xmlns="http://www.w3.org/2000/svg" width="40" height="90" viewBox="0 0 40 90">
  <g id="_35" data-name="35">
    <path id="root" d="M10.78,31.9c.02.97.23,10.43.69,12.85-.06,1.69-1.05,29.62,3.65,32.9.06.04,1.5,1.04,2.85,1.04.96,0,2.13-.5,2.26-2.86,0-.13-.5-8.15,1.13-13.31.02-.09,2.29-8.06,2.86-10.99,0,0,.33-1.25.77-2.93.44-1.69.99-3.82,1.44-5.59.19-1.1,1.75-10.35,1.57-12.13.26-.42,1.2-2.02,2.16-4.12.07-.16.01-.35-.15-.44-.15-.1-.35-.04-.45.11-3.51,5.41-6.94,8.04-10.48,8.04-2.7,0-5.5-1.56-8.31-4.64-.11-.12-.29-.14-.43-.06s-.2.23-.16.39c.22.75.43,1.33.6,1.76Z" fill="#dcddde" stroke-width="0"/>
    <path id="face" d="M7.47,17.35s1.47,8.51,2.71,12.79c.02.05.04.1.09.14,2.96,3.22,5.92,4.86,8.82,4.86,3.8,0,7.42-2.73,11.06-8.35,3.62-7.88,3.38-13.31-.63-15.37-.5-.5-4.95-4.99-6.39-5.85-.25-.25-1.68-1.57-3.62-1.57-1.36,0-2.63.65-3.77,1.92-.06.06-.41.32-.75.58-2.39,1.79-8.76,6.56-7.51,10.85Z" fill="#d7f0f5" stroke-width="0"/>
    <path d="M24.84,28.84s-.48.31-1.2.78c-.18.12-.37.23-.58.36-.21.12-.43.24-.66.35-.11.06-.23.12-.35.16-.12.05-.24.11-.37.14-.13.04-.25.08-.38.12l-.39.09c-.26.03-.52.07-.78.07h-.19c-.06,0-.13,0-.19-.01-.13-.01-.25-.02-.37-.03-.12-.02-.24-.05-.36-.07-.06-.01-.12-.02-.17-.03-.06-.01-.11-.03-.17-.05-.22-.07-.43-.11-.62-.19-.19-.07-.36-.14-.52-.19-.15-.07-.28-.13-.39-.18-.22-.1-.34-.15-.34-.15l-.05-.02c-.48-.22-1.08-.08-1.35.3-.27.38-.1.87.38,1.08.04.02.08.03.11.04,0,0,.16.05.43.14.14.04.3.1.49.16.2.05.42.11.67.17.24.07.53.1.81.15.07.01.15.03.22.03.08,0,.16.01.24.02.16.01.32.02.48.04.17,0,.34,0,.51,0,.09,0,.17,0,.26,0,.09-.01.17-.02.26-.03.35-.03.7-.12,1.03-.2.16-.06.32-.11.49-.17.16-.06.3-.13.45-.2.15-.06.28-.15.42-.22.14-.07.26-.15.38-.23.25-.15.46-.32.66-.46.19-.16.38-.3.54-.44.64-.54,1.07-.9,1.07-.9h0c.13-.11.13-.29-.01-.39-.13-.1-.32-.1-.46-.01Z" fill="#fff" stroke-width="0"/>
    <path d="M10.5,29.7c-1.25-4.31-2.72-12.79-2.72-12.79-1.39-4.8,7.64-10.5,8.19-11.1.32-.36.65-.65.97-.89,0,0,.01-.01.02-.02.1-.07.2-.14.3-.2.01,0,.03-.02.04-.03.09-.06.19-.12.28-.17.02,0,.03-.02.05-.02.09-.05.19-.1.28-.14,0,0,.01,0,.02,0,.28-.12.56-.21.83-.26.03,0,.06-.01.09-.02.01,0,.03,0,.04,0-.35.25-.7.56-1.05.95-.54.6-9.58,6.3-8.19,11.1,0,0,2.01,11.6,3.33,14.57,0,0,.01.53.03,1.37-.81-.64-1.65-1.41-2.51-2.35Z" fill="#fff" stroke-width="0"/>
    <path id="_Path_" data-name="&amp;lt;Path&amp;gt;" d="M15.13,77.65c-4.7-3.29-3.72-31.22-3.65-32.91-.46-2.42-.67-11.88-.69-12.86-.18-.42-.38-1.01-.6-1.76-.04-.15.02-.32.16-.39.14-.08.31-.05.42.07,2.82,3.08,5.62,4.64,8.31,4.64,3.55,0,6.98-2.63,10.48-8.03.1-.15.29-.2.45-.11.16.09.22.28.15.44-.96,2.1-1.9,3.7-2.16,4.12.19,1.79-1.37,11.03-1.56,12.14-.9,3.54-2.21,8.53-2.21,8.53h0c-.57,2.93-2.84,10.9-2.87,10.99-1.63,5.15-1.13,13.18-1.13,13.3-.13,2.37-1.3,2.87-2.27,2.87-1.34,0-2.78-.99-2.84-1.03ZM19.08,35.13c-2.56,0-5.17-1.28-7.78-3.8.05.13.1.24.14.35.02.04.03.09.03.13,0,.1.22,10.47.69,12.84,0,.03,0,.05,0,.08-.39,10.1-.19,29.87,3.36,32.36.01,0,1.32.91,2.45.91.36,0,1.47,0,1.59-2.18-.02-.33-.51-8.24,1.15-13.5.02-.08,2.28-8.03,2.85-10.95,0,0,1.32-4.99,2.21-8.51.74-4.33,1.76-11.09,1.54-11.99-.02-.09,0-.18.04-.26,0,0,.07-.11.18-.31-2.78,3.24-5.56,4.83-8.46,4.83ZM10.26,30.27s-.06-.09-.08-.14c-1.24-4.28-2.71-12.74-2.72-12.79-1.24-4.29,5.13-9.06,7.52-10.85.33-.25.68-.51.74-.57,1.15-1.27,2.42-1.92,3.78-1.92,1.94,0,3.37,1.32,3.62,1.57,1.44.86,5.88,5.34,6.39,5.85,4.02,2.05,4.25,7.49.63,15.37-3.64,5.61-7.26,8.34-11.06,8.34h0c-2.89,0-5.86-1.64-8.82-4.86ZM16.23,6.38c-.1.11-.33.28-.84.66-2.07,1.55-8.39,6.28-7.27,10.15.01.08,1.47,8.4,2.69,12.67,2.81,3.04,5.58,4.58,8.26,4.58,3.55,0,6.98-2.63,10.46-7.99,1.99-4.33,4.58-11.97-.39-14.45-.03-.02-.06-.04-.09-.07-.05-.05-4.95-5.02-6.32-5.8-.03-.02-.05-.04-.08-.06-.01-.01-1.37-1.39-3.16-1.39-1.15,0-2.25.57-3.27,1.69Z" fill="#495059" stroke-width="0"/>
  </g>
</svg>