<?xml version="1.0" encoding="UTF-8"?>
<svg id="Layer_1" data-name="Layer 1" xmlns="http://www.w3.org/2000/svg" width="40" height="90" viewBox="0 0 40 90">
  <g id="_36" data-name="36">
    <path id="root" d="M3.94,22.74c.78,2.08,1.68,5.73,1.48,11.24-.01.19-.81,20.27,12.45,31.85.13.11,2.85,2.16,4.59,2.16.67,0,1.03-.29,1.22-.54.46-.6.48-1.65.06-3.2-.08-.21-6.53-18.74-5.51-22.76.25-.56,1.13-2.14,2.2-2.14.82,0,1.72.92,2.58,2.64.22,1.15,3.2,15.45,12.9,19.12.01,0,.9.42,1.79.42.63,0,1.12-.21,1.46-.61.43-.53.56-1.37.35-2.5-.07-.27-6.32-22.93-3.44-35.76.04-.14-.01-.28-.12-.36-.11-.09-.26-.12-.39-.07-3.04,1.17-6.84,1.87-10.16,1.87-1.03,0-1.98-.07-2.81-.21-.02-.01-2.09-.65-4.72-.65-1.59,0-3.05.23-4.32.7-.04.02-2.49.9-9.15-1.69-.13-.06-.29-.02-.4.08-.11.11-.14.26-.08.4Z" fill="#dcddde" stroke-width="0"/>
    <path id="face" d="M2.48,19.94s.02.04.05.06c0,.01.7.85,1.41,2.74.04.09.12.18.21.21,4.07,1.59,6.62,1.92,8.05,1.92,1.09,0,1.58-.19,1.64-.21,1.18-.43,2.56-.65,4.06-.65,2.51,0,4.54.63,4.56.64,3.83.63,9.29-.12,13.4-1.69.12-.05.21-.15.23-.27.09-.43.21-.85.33-1.26.13-.28,3.62-8.26,1.36-14.02-.84-2.13-2.37-3.68-4.56-4.61-.11-.05-2.88-1.36-6.29-1.94-3.96-.68-7.13-.06-9.21,1.82h-.01C16.72,2.08,13.15.11,9.43,0h-.29C6.2,0,2.37,1.3.82,7.46c-.01.02-.01.05-.02.07-.01.01-.01.04-.01.05-.15.63-1.47,6.39,1.69,12.37ZM26.7,1.58h.02s.04.04.06.05c-.04-.02-.06-.04-.08-.05Z" fill="#d7f0f5" stroke-width="0"/>
    <path d="M19.77,4.93s-.58-.78-1.46-1.7c2.4-2.16,5.88-2.25,8.91-1.73.35.23.69.48,1.02.75,0,0-6.87-.17-8.47,2.68Z" fill="#a0e1e3" stroke-width="0"/>
    <path d="M9.79.66c-1.51.9-5.95,3.73-8.27,7.24C2.97,2.09,6.41.56,9.79.66Z" fill="#a0e1e3" stroke-width="0"/>
    <path d="M20.46,6.24c1,1.25,1.16,3.11,1.08,4.64-.08,1.71-.58,3.47-1.28,5.03-.25.54-.66,1.18-.67,1.79-.01.64.45,1.42,1.18,1.29.68-.12.84-.85,1.01-1.41.26-.82.5-1.65.67-2.49.39-1.89.59-4,.13-5.9-.23-.98-.54-1.94-1.1-2.79-.17-.26-.37-.56-.62-.76-.37-.3-.66.32-.41.61Z" fill="#fff" stroke-width="0"/>
    <path d="M15.99,21.65c-1.74.25-3.54.52-5.35.46-.7-.02-1.55-.12-2.15-.34-.4-.14-.76-.28-1.1-.47-.23-.12-.4-.29-.64-.4-.27-.18-.57.06-.39.23.25.22.5.44.83.63.59.34,1.29.65,2.1.82,2,.41,4.12.33,6.2.2.56-.04,1.29-.02,1.59-.35.37-.41-.31-.87-1.09-.76Z" fill="#fff" stroke-width="0"/>
    <path d="M3.16,20c-1.71-3.23-2.08-6.43-2.05-8.73.03-2.02.37-3.33.37-3.33,0-.03.02-.06.02-.09.59-.9,1.33-1.75,2.11-2.53-.24.6-.45,1.25-.62,1.98,0,0-1.55,5.98,1.67,12.08,0,0,1.06,1.25,1.93,4.18-.61-.2-1.26-.44-1.96-.71-.74-1.98-1.48-2.84-1.48-2.84Z" fill="#fff" stroke-width="0"/>
    <path d="M20.3,26.95c1.12,1.81.54,3.84.6,5.88.06,1.37-1.77,4.29-.38,5.33,1,.75,1.66-4.71,1.56-5.46-.33-2.3.03-4.33-1.53-6.29-.51-.05-.5.1-.25.53Z" fill="#afafaf" stroke-width="0"/>
    <path id="_Path_" data-name="&amp;lt;Path&amp;gt;" d="M4.15,22.95c-.1-.04-.18-.12-.21-.22-.71-1.88-1.41-2.72-1.41-2.73-.02-.02-.03-.04-.04-.07C-.78,13.78.71,7.84.79,7.52c.01-.04.03-.08.05-.12C3.17,3.89,7.49,1.1,9.24.06c.06-.04.13-.05.2-.05,3.73.11,7.3,2.09,8.27,2.67.15-.13.37-.12.51.03.51.53.91,1,1.17,1.32,1.55-1.91,5.35-2.32,7.39-2.4-.04-.03-.08-.06-.12-.08-.15-.1-.21-.29-.15-.45.06-.17.24-.26.41-.23,3.41.58,6.18,1.89,6.29,1.94,2.19.92,3.72,2.47,4.56,4.61,2.27,5.75-1.23,13.73-1.36,14.02-.12.41-.22.83-.32,1.26-.03.12-.11.22-.23.27-4.11,1.58-9.57,2.33-13.4,1.7-.02,0-2.04-.64-4.55-.64-1.5,0-2.87.22-4.06.66-.05.02-.54.21-1.63.21h0c-1.43,0-3.99-.33-8.05-1.91ZM22.62,23.91c.82.13,1.77.2,2.8.2,3.25,0,6.97-.67,9.98-1.8.09-.38.19-.75.31-1.15.03-.08,3.52-8.02,1.36-13.48-.76-1.94-2.16-3.35-4.17-4.2-.02-.01-2.03-.96-4.66-1.59.02.07.01.15-.01.22-.06.15-.2.24-.36.24h-.22c-3.01,0-6.88.65-7.91,2.49-.06.11-.18.18-.3.19-.13.02-.25-.05-.32-.15,0,0-.47-.63-1.19-1.4-.12.06-.26.05-.37-.02-.04-.02-4-2.54-8.03-2.7-1.44.86-5.81,3.66-8.03,7.02-.01.06-1.47,5.9,1.63,11.78.14.18.79,1.04,1.46,2.76,6.54,2.52,8.95,1.65,8.99,1.64,1.29-.47,2.74-.71,4.33-.71,2.63,0,4.7.65,4.73.66ZM19.11,4.88s-.57-.77-1.43-1.66c-.07-.07-.11-.17-.1-.27,0-.1.05-.2.12-.27,2.08-1.88,5.25-2.5,9.22-1.83.05,0,.1.03.14.05.37.24.73.51,1.06.78.12.1.16.27.11.42-.06.15-.17.22-.36.24h-.22c-3.01,0-6.88.65-7.91,2.49-.06.11-.18.18-.3.19,0,0-.02,0-.02,0-.12,0-.23-.06-.3-.15ZM26.72,1.58c-3.51-.59-6.33-.11-8.22,1.41.38.41.69.77.9,1.03,1.55-1.91,5.35-2.32,7.39-2.4-.02-.01-.04-.03-.06-.04ZM1,7.96c-.17-.07-.26-.26-.21-.43C2.34,1.31,6.19,0,9.14,0c.1,0,.2,0,.3,0,.17,0,.31.12.35.28.04.16-.03.33-.17.42-1.33.79-5.85,3.64-8.15,7.12-.07.11-.19.17-.31.17-.05,0-.1-.01-.15-.03ZM2.17,5.7C4.01,3.61,6.37,1.89,8.01.82c-2.7.34-4.66,1.98-5.85,4.88ZM17.87,65.83c-13.25-11.58-12.45-31.66-12.44-31.86.19-5.51-.7-9.16-1.49-11.24-.05-.14-.02-.29.09-.4.11-.11.26-.14.4-.08,6.66,2.59,9.11,1.72,9.14,1.7,1.29-.47,2.74-.71,4.33-.71,2.63,0,4.7.65,4.73.66.82.13,1.77.2,2.8.2,3.32,0,7.12-.7,10.16-1.87.13-.05.27-.03.38.07.1.09.15.23.12.37-2.89,12.83,3.37,35.49,3.44,35.76.2,1.14.08,1.98-.36,2.51-.33.4-.82.6-1.46.6-.89,0-1.78-.41-1.79-.42-9.7-3.67-12.68-17.97-12.9-19.12-.87-1.73-1.76-2.64-2.58-2.64-1.07,0-1.96,1.58-2.2,2.13-1.04,4.03,5.43,22.55,5.5,22.76.42,1.55.41,2.6-.05,3.2-.19.25-.55.54-1.22.54h0c-1.74,0-4.46-2.06-4.6-2.17ZM23.71,41.71s.03.06.03.1c.03.15,2.95,15.02,12.46,18.62,0,0,.78.36,1.5.36.4,0,.7-.11.88-.33.29-.34.36-1,.21-1.86-.06-.22-6.16-22.31-3.58-35.42-4.02,1.41-9.12,2.06-12.76,1.46-.02,0-2.04-.64-4.55-.64-1.5,0-2.87.22-4.06.66-.12.05-2.36,1-8.93-1.42.73,2.23,1.44,5.75,1.26,10.77,0,.2-.8,19.92,12.17,31.25.73.56,2.89,2,4.12,2h0c.29,0,.5-.08.62-.25.17-.22.39-.85-.07-2.52-.27-.77-6.6-18.93-5.49-23.22.05-.11,1.12-2.64,2.91-2.64,1.14,0,2.25,1.04,3.27,3.1Z" fill="#495059" stroke-width="0"/>
  </g>
</svg>