<?xml version="1.0" encoding="UTF-8"?>
<svg id="Layer_1" data-name="Layer 1" xmlns="http://www.w3.org/2000/svg" width="40" height="90" viewBox="0 0 40 90">
  <g id="_37" data-name="37">
    <path id="root" d="M3.86,30.4c.84,3.23,1.23,7.62,1.19,13.09-.01.1-.8,13.67,11.19,21.98.07.04,1.63,1.12,3.06,1.12.77,0,2.1-.34,2.31-2.61.01-.08,0-.16-.04-.24-.07-.12-6.3-11.53-3.92-16.39.01-.04.92-2.09,2.61-2.09,1.35,0,2.97,1.27,4.66,3.71.01.03.04.05.07.07.04.05,4.55,4.2,4.05,13.17-.03.18-.21,2.1.52,2.93.56.64,1.5.51,2.66-.49,7.91-6.85,6.02-14.93,4.34-22.07-1.26-5.34-2.44-10.39.31-14.54.01-.01.13-.21.3-.56.09-.17.05-.38-.09-.5-.14-.13-.35-.14-.51-.04-3.37,2.26-5.55,2.57-7.4,2.57-.85,0-1.72-.08-2.65-.16-.47-.04-.96-.08-1.47-.12-.49-.21-3.16-1.31-6.42-1.31-2.3,0-4.34.55-6.09,1.65-.04,0-1.56.62-4.45.62-1.21,0-2.47-.1-3.78-.31-.14-.03-.29.03-.38.13s-.13.25-.09.38Z" fill="#dcddde" stroke-width="0"/>
    <path id="face" d="M1.81,26.11c.03.07.08.12.14.17,0,0,1.04.8,1.9,4.12.04.17.17.29.34.31,1.35.22,2.66.33,3.91.33,3.12,0,4.76-.68,4.84-.72,1.65-1.04,3.56-1.55,5.69-1.55,3.33,0,6.11,1.26,6.14,1.27.04.03.09.04.14.04.54.04,1.05.08,1.54.12.94.08,1.84.16,2.72.16,1.98,0,4.32-.33,7.87-2.72.05-.04.1-.09.13-.16,1.27-2.43,7.07-14.84-3-20.89-.33-.34-2.27-2.24-5.13-2.24-.29,0-.55.01-.83.05h-.05s-.07.01-.1.03c-.77.12-1.55.37-2.3.76-.38-.45-1.21-1.18-2.55-1.18-1.48,0-3.15.92-4.93,2.73-1.01-.85-3.5-2.74-5.79-2.74-.79,0-1.47.22-2.05.67-.08-.05-.16-.12-.25-.17-.39-.22-.84-.33-1.33-.33-2.16,0-4.71,2.18-7.57,6.46-.03.07-.08.16-.14.34-.47,1.29-2.72,8.07.64,15.14Z" fill="#d7f0f5" stroke-width="0"/>
    <path d="M17.26,25.06s-.15.1-.41.27c-.13.09-.29.2-.47.32-.18.12-.38.26-.59.4-.22.14-.45.28-.7.43-.13.06-.26.13-.4.19-.14.06-.28.11-.43.16-.15.05-.3.08-.46.13-.16.04-.32.05-.48.08-.16.03-.33.03-.5.04h-.26s-.26,0-.26,0c-.17-.01-.35,0-.52-.03-.17-.02-.35-.04-.52-.07-.34-.04-.68-.13-1-.19-.32-.07-.63-.16-.93-.24-.3-.08-.57-.18-.82-.25-.26-.08-.49-.15-.69-.23-.21-.07-.38-.14-.53-.19-.29-.11-.46-.17-.46-.17,0,0,.16.08.44.21.14.07.31.15.51.24.2.1.42.19.67.29.25.1.51.22.8.33.29.1.6.22.92.33.33.09.66.21,1.01.29.18.04.35.08.53.12.18.04.36.05.55.08l.27.04h.28c.19.02.37.04.56.02.18-.02.37-.01.55-.04.18-.03.36-.05.53-.1.17-.05.34-.09.51-.14.16-.06.32-.12.47-.18.29-.13.57-.26.81-.39.25-.13.46-.25.65-.35.19-.1.35-.19.48-.27.27-.15.43-.23.43-.23h0c.26-.14.35-.46.21-.72-.14-.26-.47-.35-.73-.21-.01,0-.03.02-.04.02Z" fill="#fff" stroke-width="0"/>
    <path d="M21.4,11.67s.22.73.56,1.82c.08.27.16.56.25.88.08.32.17.64.24.99.04.17.08.35.1.53.03.18.07.36.08.55.02.19.04.37.06.56l.03.57c0,.39,0,.76-.04,1.14l-.02.28c0,.09-.03.19-.04.28-.03.18-.05.36-.07.54-.04.18-.07.35-.11.52-.02.08-.03.17-.05.25-.02.08-.04.16-.06.24-.09.32-.15.62-.25.9-.09.27-.17.52-.24.74-.08.22-.15.41-.21.56-.11.31-.18.49-.18.49l-.03.08c-.25.68-.21,1.58.11,2,.31.42.77.21,1.02-.47.02-.05.04-.11.05-.16,0,0,.07-.22.18-.61.06-.2.12-.43.2-.7.07-.29.15-.61.23-.96.09-.34.16-.76.24-1.18.02-.1.04-.21.06-.32.02-.11.03-.23.05-.34.03-.23.06-.47.09-.71.02-.25.04-.5.06-.75,0-.13.02-.25.02-.38,0-.13,0-.26,0-.39.01-.52-.02-1.03-.06-1.53-.03-.24-.06-.48-.09-.72-.04-.23-.08-.45-.12-.68-.04-.23-.1-.42-.15-.62-.05-.21-.1-.39-.16-.57-.11-.37-.23-.69-.34-1.01-.12-.3-.22-.58-.33-.83-.41-.98-.68-1.63-.68-1.63h0c-.08-.2-.24-.21-.36-.02-.1.18-.13.46-.07.67Z" fill="#fff" stroke-width="0"/>
    <path d="M18.72,7.73s-.13-.23-.36-.6c.15.13.24.21.24.21,5.11-5.37,7.34-1.57,7.34-1.57.91-.53,1.77-.81,2.57-.92-3.6,1.43-5.2,2.31-6.71,3.71,0,0-1.1,1.65-3.09-.82Z" fill="#a0e1e3" stroke-width="0"/>
    <path d="M10.29,4.89c-2.38,2.2-5.17,5.93-8.43,6.24.06-.16.1-.26.1-.26,4.63-6.95,7.33-6.55,8.33-5.99Z" fill="#a0e1e3" stroke-width="0"/>
    <path d="M2.48,25.94c-3.27-6.89-1.13-13.47-.62-14.82.53-.05,1.05-.19,1.55-.4-.65,1.89-2.31,8.04.74,14.48,0,0,1.34.92,2.3,5.35-.6-.05-1.23-.13-1.91-.24-.93-3.58-2.07-4.37-2.07-4.37Z" fill="#fff" stroke-width="0"/>
    <path d="M21.17,32.87c.93,1.7.1,3.38-.09,5.15-.1,1.19-2.32,3.48-1.02,4.55.93.77,2.26-3.85,2.24-4.51-.07-2.02.54-3.73-.82-5.61-.51-.11-.53.02-.32.43Z" fill="#afafaf" stroke-width="0"/>
    <path id="_Path_" data-name="&amp;lt;Path&amp;gt;" d="M4.2,30.71c-.16-.03-.3-.15-.34-.31-.87-3.32-1.9-4.12-1.9-4.13-.06-.04-.11-.1-.14-.17-3.36-7.07-1.12-13.86-.64-15.14.06-.15.19-.26.35-.27,2.39-.23,4.59-2.49,6.53-4.49.58-.59,1.12-1.15,1.65-1.65.13-.12.33-.15.49-.06.1.05.18.11.25.16.58-.43,1.26-.66,2.05-.66,2.33,0,4.86,1.94,5.84,2.78.03.03.06.06.09.1.21.33.33.56.33.57.8.99,1.38,1.2,1.72,1.2.44,0,.68-.34.69-.35.02-.03.04-.05.06-.08,1.55-1.44,3.15-2.33,6.84-3.79.03-.01.06-.02.1-.03.29-.04.59-.06.88-.06,2.86,0,4.81,1.9,5.13,2.25,10.07,6.05,4.28,18.47,3.01,20.9-.03.06-.08.12-.14.15-3.56,2.38-5.88,2.71-7.87,2.71-.89,0-1.78-.08-2.72-.15-.49-.04-1-.09-1.54-.12-.05,0-.1-.02-.15-.04-.03-.01-2.81-1.27-6.14-1.27-2.14,0-4.04.51-5.7,1.55-.07.03-1.72.72-4.84.72h0c-1.24,0-2.56-.11-3.91-.33ZM12.56,29.58c1.74-1.09,3.79-1.65,6.09-1.65,3.25,0,5.93,1.1,6.42,1.32.51.03,1,.08,1.48.12.92.08,1.8.15,2.65.15,1.83,0,3.99-.31,7.31-2.51,1.3-2.53,6.57-14.14-2.8-19.72-.04-.02-.07-.05-.1-.08-.02-.02-1.86-2.02-4.55-2.02-.24,0-.48.01-.71.05-3.52,1.4-5.05,2.24-6.5,3.58-.13.16-.58.68-1.35.68s-1.57-.51-2.42-1.58c0,0-.11-.21-.31-.53-.77-.65-3.19-2.54-5.25-2.54-.71,0-1.28.22-1.76.68-.08.08-.19.11-.31.11-.12,0-.22-.06-.3-.15,0,0-.03-.03-.09-.08-.44.42-.9.89-1.38,1.39-1.98,2.03-4.21,4.32-6.79,4.71-.58,1.67-2.33,7.79.66,14.16.32.28,1.26,1.31,2.06,4.26,1.21.18,2.39.28,3.51.28,2.87,0,4.43-.62,4.45-.62h0ZM16.24,65.46c-11.98-8.3-11.2-21.86-11.19-21.98.05-5.46-.35-9.87-1.19-13.08-.04-.14,0-.28.1-.39.1-.1.24-.16.38-.13,1.31.21,2.58.32,3.78.32,2.95,0,4.47-.64,4.45-.62,1.74-1.09,3.79-1.65,6.09-1.65,3.26,0,5.93,1.1,6.42,1.32.51.03,1,.08,1.48.12.92.08,1.8.15,2.65.15,1.85,0,4.03-.31,7.4-2.57.16-.11.37-.09.51.04.14.13.18.34.09.51-.18.35-.29.54-.31.56-2.76,4.14-1.57,9.19-.31,14.54,1.68,7.13,3.57,15.21-4.35,22.06-1.17,1.01-2.09,1.13-2.66.49-.74-.82-.55-2.74-.52-2.93.51-8.97-4.01-13.12-4.05-13.16-.02-.02-.05-.05-.07-.07-1.69-2.43-3.3-3.72-4.65-3.72-1.7,0-2.6,2.05-2.62,2.09-2.37,4.86,3.86,16.28,3.92,16.39.04.07.06.16.05.24-.21,2.27-1.54,2.61-2.32,2.61h0c-1.43,0-2.99-1.08-3.06-1.12ZM16.88,47c.04-.1,1.12-2.58,3.39-2.58,1.66,0,3.44,1.36,5.31,4.04.49.46,4.81,4.74,4.29,13.82-.06.56-.07,1.87.31,2.3.07.08.15.12.26.12.16,0,.54-.09,1.23-.68,7.54-6.51,5.78-13.99,4.08-21.23-1.21-5.15-2.36-10.03-.13-14.24-2.77,1.58-4.73,1.82-6.43,1.82-.89,0-1.78-.08-2.72-.15-.49-.04-1-.09-1.54-.12-.05,0-.1-.02-.15-.04-.03-.01-2.81-1.27-6.14-1.27-2.14,0-4.04.51-5.7,1.55-.07.03-1.72.72-4.84.72-1.05,0-2.16-.08-3.29-.24.75,3.23,1.11,7.49,1.07,12.71,0,.13-.75,13.23,10.83,21.25.01,0,1.41.97,2.58.97h0c.55,0,1.29-.18,1.47-1.72-.71-1.31-6.33-12.02-3.89-17.03ZM18.06,7.91s-.12-.23-.34-.58c-.11-.18-.07-.41.08-.54.14-.12.34-.13.49-.04,1.79-1.81,3.45-2.72,4.94-2.72,1.34,0,2.16.73,2.54,1.18.79-.41,1.59-.68,2.4-.79.21-.03.41.1.46.31.05.21-.05.42-.25.5-3.55,1.41-5.09,2.26-6.55,3.6-.13.16-.58.68-1.35.68h0c-.77,0-1.57-.51-2.42-1.58ZM23.23,4.86c-1.27,0-2.81.9-4.46,2.6.63.78,1.23,1.2,1.72,1.2.44,0,.68-.34.69-.35.02-.03.04-.05.06-.08,1.05-.98,2.13-1.7,3.86-2.53-.29-.33-.9-.84-1.87-.84ZM1.24,11.37c-.09-.11-.11-.27-.06-.4.07-.18.11-.27.14-.34,2.85-4.28,5.4-6.45,7.56-6.45.48,0,.93.11,1.32.33.12.07.2.18.21.32.02.13-.03.27-.13.36-.52.48-1.05,1.03-1.62,1.62-2.04,2.1-4.36,4.48-7.05,4.74-.01,0-.03,0-.04,0-.13,0-.25-.06-.33-.16ZM8.89,5.01c-1.02,0-3.19.74-6.49,5.51,2.05-.61,3.96-2.57,5.67-4.32.4-.41.78-.8,1.15-1.17-.11-.02-.22-.03-.33-.03Z" fill="#495059" stroke-width="0"/>
  </g>
</svg>