<?xml version="1.0" encoding="UTF-8"?>
<svg id="Layer_1" data-name="Layer 1" xmlns="http://www.w3.org/2000/svg" width="40" height="90" viewBox="0 0 40 90">
  <g id="_38" data-name="38">
    <path id="root" d="M14.14,37.56c7.71-2.49,10.59-.18,10.59-.18,2.14,1.11,6.92-.38,11.6-2.96-.27.72-.45,1.13-.45,1.13,1.81,5.02-.72,14.77-.72,14.77-.99,4.07-.63,7.5-.63,7.5,1.36,3.61,1.9,11.12,1.9,11.12,1.08,5.51-.54,7.05-.54,7.05-.72,2.8-3.8-.45-3.8-.45.72,3.25-3.43,1.63-3.43,1.63-2.08-.99-15-12.83-15-12.83-6.42-4.34-9.04-23.86-9.04-23.86-.06-1.14-.24-2.38-.45-3.52,6.21,1.89,9.98.61,9.98.61Z" fill="#dcddde" stroke-width="0"/>
    <path id="face" d="M.93,21.33c-.01.21.03,7.12,2.38,11.85,0,0,.13.44.29,1.15.18.7.39,1.66.59,2.73.03.14.14.26.28.31,2.3.69,4.52,1.04,6.62,1.04,2.28,0,3.55-.43,3.6-.44,2.34-.75,4.46-1.14,6.28-1.14,2.75,0,3.92.88,3.93.89.6.33,1.28.46,2.1.46,2.42,0,6.04-1.24,9.94-3.39.09-.05.15-.11.19-.21,1.33-3.55,5.07-15.56-2.68-20.8,0,0-.4-.35-1.04-.84-1.73-1.31-5.07-3.53-7.96-3.53-1.28,0-2.34.43-3.17,1.25-.29.31-1.14,1.06-1.84,1.06-.25,0-.46-.1-.65-.31-.03-.03-.04-.05-.06-.06-.18-.14-4.48-3.35-8.72-3.35-2.04,0-3.73.75-5.02,2.24-.08.08-2.47,2.44-3.97,5.49-.03.03-.05.05-.05.09-.01.02-.03.05-.04.08-.96,2-1.3,3.83-1,5.43Z" fill="#d7f0f5" stroke-width="0"/>
    <path d="M.9,21.22c-.08-.43-.1-.87-.09-1.31.06-1.32.5-2.66,1.1-3.89.84-.77,1.65-1.43,2.43-1.99-1.22,1.99-2.24,4.45-1.83,6.74,0,0,0,7.05,2.35,11.75,0,0,.67,2.37,1.08,4.97-.57-.13-1.16-.28-1.78-.47-.4-2.21-.92-4.04-.92-4.04C.9,28.27.9,21.22.9,21.22Z" fill="#fff" stroke-width="0"/>
    <path d="M22.7,14.12s-.78,2.41-5.25-1.78c0,0-5.67-5.36-15.54,3.62,1.49-3.06,3.96-5.5,3.96-5.5,4.61-5.33,13.19,1.18,13.19,1.18,1.17,1.36,3.07-.72,3.07-.72,2.94-2.94,8.34.58,10.61,2.31-4.39-1.06-8.6-1.34-10.04.89Z" fill="#a0e1e3" stroke-width="0"/>
    <path d="M16.93,32.91s-.17.1-.46.27c-.15.09-.33.2-.53.32-.2.12-.42.27-.67.4-.24.15-.51.28-.79.43-.15.06-.29.13-.45.19-.16.06-.32.11-.48.16-.17.05-.34.08-.52.12-.18.04-.36.05-.55.08-.18.03-.38.02-.57.03h-.29s-.29,0-.29,0c-.2-.02-.4-.02-.59-.04-.2-.03-.39-.06-.59-.08-.39-.05-.77-.15-1.15-.22-.37-.09-.73-.19-1.06-.27-.34-.09-.65-.2-.95-.28-.29-.09-.56-.17-.8-.26-.24-.08-.44-.15-.61-.21-.34-.12-.53-.18-.53-.18,0,0,.19.08.51.23.16.07.36.16.59.26.23.11.49.21.77.32.29.11.59.25.93.36.33.11.68.24,1.05.36.37.1.75.24,1.16.32.2.05.4.09.61.14.2.05.42.07.62.1l.31.05.32.02c.21,0,.42.04.64.02.21-.01.42,0,.63-.03.2-.03.41-.05.61-.09.19-.05.39-.09.58-.14.18-.06.36-.12.53-.17.33-.13.64-.26.92-.39.28-.13.52-.25.73-.36.21-.1.39-.19.54-.27.31-.15.49-.23.49-.23h0c.29-.14.39-.47.23-.74-.17-.27-.54-.38-.83-.24-.02,0-.03.02-.05.03Z" fill="#fff" stroke-width="0"/>
    <path d="M21.72,16.74s.21.7.53,1.74c.08.26.16.54.24.83.08.3.16.61.23.95.04.16.07.33.1.51.02.18.06.34.08.52.02.18.04.36.06.54l.03.55c0,.37,0,.73-.03,1.09l-.02.27c0,.09-.02.18-.04.26-.02.17-.05.35-.07.52-.03.17-.07.34-.1.5-.02.08-.03.16-.05.24-.02.08-.04.16-.06.23-.08.31-.14.6-.24.85-.08.26-.16.5-.23.71-.08.21-.14.38-.2.53-.11.29-.17.46-.17.46l-.03.07c-.24.65-.2,1.5.1,1.91.3.4.73.2.98-.45.02-.05.04-.11.05-.16,0,0,.06-.21.17-.59.05-.19.12-.41.19-.67.07-.27.14-.58.22-.92.09-.33.15-.73.23-1.12.02-.1.04-.2.06-.31.01-.11.03-.22.04-.33.03-.22.06-.45.09-.67.02-.23.04-.47.05-.71,0-.12.02-.24.02-.36,0-.12,0-.25,0-.37.01-.49-.02-.98-.05-1.46-.03-.23-.06-.46-.09-.69-.04-.22-.08-.43-.12-.65-.04-.22-.09-.4-.14-.6-.05-.2-.1-.38-.15-.55-.1-.36-.22-.66-.32-.96-.11-.28-.21-.56-.31-.79-.39-.94-.65-1.56-.65-1.56h0c-.08-.19-.23-.2-.34-.01-.1.17-.12.44-.07.64Z" fill="#fff" stroke-width="0"/>
    <path d="M28.44,68.49c-.22-.33-.88-2.91-1.54-1.92-.84,1.25,2,3.78,2.7,3.93.2.03-.53-1.12-1.16-2.01Z" fill="#afafaf" stroke-width="0"/>
    <path d="M25.68,63.5s-.57-1.17-1.43-2.91c-.21-.43-.43-.91-.67-1.41-.22-.51-.46-1.04-.68-1.61-.11-.28-.23-.57-.33-.87-.1-.3-.22-.59-.31-.91-.09-.31-.19-.62-.28-.94l-.24-.96c-.13-.66-.26-1.3-.33-1.95l-.07-.48c-.02-.16-.03-.32-.04-.49-.02-.32-.05-.64-.07-.95,0-.31-.01-.62-.02-.92,0-.15,0-.3-.01-.45,0-.15,0-.29,0-.44.02-.57,0-1.11.06-1.6.03-.49.07-.94.09-1.34.05-.39.08-.74.12-1.02.06-.57.1-.89.1-.89l.02-.15c.14-1.24-.23-2.75-.83-3.37-.6-.62-1.2-.11-1.34,1.13-.01.09-.02.2-.02.29,0,0-.02.4-.05,1.11-.02.35-.04.78-.06,1.27,0,.51,0,1.09-.01,1.72-.02.61.03,1.35.05,2.08,0,.19.01.37.02.57.02.2.03.4.05.6.03.4.07.81.1,1.23.05.43.11.86.17,1.29.03.22.05.44.09.66.04.22.08.44.12.66.15.88.38,1.75.6,2.59.13.4.25.81.38,1.2.13.38.27.75.41,1.11.13.37.29.68.43,1.02.14.34.29.64.43.92.28.6.57,1.1.83,1.6.27.47.52.92.76,1.3.93,1.53,1.55,2.56,1.55,2.56h0c.19.32.42.27.52-.09.09-.34.03-.84-.12-1.16Z" fill="#afafaf" stroke-width="0"/>
    <path id="_Path_" data-name="&amp;lt;Path&amp;gt;" d="M28.89,77.55c-2.11-1.01-14.57-12.41-15.05-12.86-6.49-4.39-9.1-23.33-9.21-24.17-.05-.99-.2-2.16-.44-3.47-.03-.14.02-.28.13-.37.1-.09.25-.12.38-.08,2.22.67,4.36,1.02,6.38,1.02,2.13,0,3.35-.4,3.36-.4,2.42-.78,4.61-1.18,6.53-1.18,3.07,0,4.37,1.02,4.36,1.02.42.22.97.33,1.66.33,2.26,0,5.83-1.23,9.56-3.28.15-.08.33-.06.46.05.13.11.17.29.11.45-.18.48-.32.82-.4,1.01,1.73,5.11-.66,14.46-.76,14.85-.9,3.69-.67,6.89-.63,7.31,1.35,3.64,1.88,10.87,1.9,11.13.98,4.99-.22,6.89-.57,7.32-.32,1.11-.99,1.34-1.51,1.34-.76,0-1.6-.54-2.18-1.02-.04.33-.15.61-.33.84-.33.41-.86.62-1.58.62-1.01,0-2.09-.42-2.16-.45ZM32.79,75.29c.36.38,1.56,1.46,2.36,1.46.15,0,.54,0,.76-.84.02-.07.06-.14.11-.19.01-.01,1.44-1.53.42-6.73,0-.08-.55-7.49-1.87-11-.01-.03-.02-.07-.02-.1-.02-.14-.36-3.55.64-7.64.03-.1,2.48-9.69.73-14.54-.04-.1-.03-.2.01-.3,0,0,.02-.04.04-.1-3.52,1.83-6.75,2.86-8.98,2.86-.82,0-1.5-.14-2.09-.46-.01,0-1.17-.89-3.93-.89-1.84,0-3.95.38-6.28,1.13-.05.02-1.34.44-3.62.44-1.9,0-3.92-.29-5.99-.87.18,1.09.3,2.07.34,2.9.03.19,2.67,19.39,8.91,23.61,4.45,4.08,13.3,12,14.88,12.75,0,0,.98.38,1.84.38.46,0,.79-.11.96-.32.24-.3.19-.83.1-1.23-.04-.18.04-.36.2-.44.06-.03.12-.05.19-.05.11,0,.21.04.29.12ZM4.46,37.37c-.14-.04-.25-.16-.28-.31-.39-2.11-.88-3.88-.87-3.88h0C.94,28.45.92,21.55.92,21.33c-.3-1.62.06-3.47,1.05-5.5.02-.05.05-.09.09-.12,3.88-3.52,7.58-5.31,11.01-5.31,3.24,0,5,1.63,5.07,1.69,2.08,1.95,3.25,2.36,3.86,2.36.57,0,.72-.38.74-.41.01-.03.03-.07.04-.09,1.33-2.06,4.87-2.42,10.47-1.06.05.01.1.04.15.07.64.49,1.04.84,1.04.84,7.75,5.25,4.01,17.25,2.68,20.8-.03.09-.1.16-.18.21-3.9,2.15-7.52,3.38-9.95,3.38-.82,0-1.5-.14-2.09-.46-.01,0-1.17-.89-3.93-.89-1.84,0-3.95.38-6.28,1.13-.05.02-1.34.44-3.62.44h0c-2.09,0-4.32-.35-6.61-1.05ZM25.33,37.05c.42.22.97.33,1.66.33,2.23,0,5.75-1.2,9.43-3.21,1.32-3.58,4.74-14.87-2.47-19.75,0,0-.37-.32-.96-.78-5.09-1.22-8.38-.98-9.5.71-.09.22-.47.9-1.48.9-1.1,0-2.58-.87-4.41-2.58-.02-.02-1.6-1.48-4.52-1.48-3.21,0-6.71,1.7-10.42,5.05-.89,1.85-1.2,3.51-.94,5.01,0,.07.03,7.01,2.33,11.64,0,.02.48,1.71.87,3.78,2.14.63,4.2.95,6.15.95,2.13,0,3.35-.4,3.36-.4,2.42-.78,4.61-1.18,6.53-1.18,3.07,0,4.37,1.02,4.36,1.02ZM2.32,16.4c-.21,0-.41-.18-.41-.4,0-.1.04-.2.1-.27,1.51-3.05,3.89-5.42,3.97-5.49,1.28-1.48,2.97-2.24,5.02-2.24,4.24,0,8.54,3.22,8.72,3.36.02.02.04.04.06.06.19.22.4.32.65.32.7,0,1.55-.76,1.83-1.06.83-.83,1.89-1.25,3.17-1.25,2.9,0,6.24,2.21,7.97,3.53.15.12.2.32.12.49-.08.17-.27.26-.46.22-5.14-1.24-8.46-1-9.59.69-.09.22-.47.9-1.48.9-1.1,0-2.58-.87-4.41-2.58-.02-.02-1.6-1.48-4.52-1.48-3.23,0-6.75,1.72-10.47,5.1-.08.07-.17.1-.27.1h0ZM31.32,12.46c-1.7-1.1-3.93-2.24-5.89-2.24-1.05,0-1.92.34-2.59,1-.12.14-1.23,1.31-2.41,1.31-.47,0-.9-.19-1.23-.56-.39-.28-4.41-3.17-8.2-3.17-1.8,0-3.29.66-4.44,1.98-.02.02-1.44,1.43-2.76,3.43,3.24-2.54,6.35-3.83,9.26-3.83,3.24,0,5,1.62,5.07,1.69,2.08,1.95,3.25,2.36,3.86,2.36.57,0,.72-.38.74-.41.01-.04.03-.07.04-.09.8-1.24,2.41-1.87,4.77-1.87,1.09,0,2.35.13,3.77.4Z" fill="#495059" stroke-width="0"/>
  </g>
</svg>