<?xml version="1.0" encoding="UTF-8"?>
<svg id="Layer_1" data-name="Layer 1" xmlns="http://www.w3.org/2000/svg" width="40" height="90" viewBox="0 0 40 90">
  <g id="_41" data-name="41">
    <path id="root" d="M13.33,26.67h0s0-.02,0-.03c.04,1.38.21,7.6.34,10.79,0,0,.55,19.03,1.38,21.73,0,0,1.7,16.37,2.6,18.2,0,0,2.56,7.06,4.81,0,0,0,3.96-17.11,2.54-22.71,0,0,.22-13.47.58-14.67,0,0,.64-10.56,1.07-14.66h0c-5.47,10.48-10.26,7.98-13.33,1.37Z" fill="#dcddde" stroke-width="0"/>
    <path id="face" d="M27.39,20.79c.56-3.35,1.01-6.72,1.43-10.08.22-1.76.44-3.53.57-5.31.05-.7.11-1.42.06-2.13-.04-.53.03-.98-.37-1.44-.46-.53-1.18-.82-1.84-1.01-1.31-.39-2.69-.49-4.05-.53-3.07-.08-6.15.22-9.19.62-.47.06-.94.12-1.4.19-.19,0-.38-.04-.58-.03-.67.03-1.32.32-1.46,1.04-.09.46.1.86.11,1.31,0,.28.02.57.02.85.1,3.07.27,6.15.53,9.21.31,3.66.68,7.36,1.56,10.93.1.39.2.78.31,1.16.09.31.27.64.28.96,0,.28.14.49.26.74.14.28.28.56.44.83.52.93,1.12,1.84,1.86,2.62,1.16,1.23,2.75,2.08,4.47,1.6.97-.27,1.82-.88,2.54-1.56,1.07-1.01,1.94-2.24,2.71-3.5.19-.32.38-.63.56-.96.18-.31.48-.7.52-1.06.05-.44.11-.87.18-1.31.17-1.05.33-2.11.5-3.16Z" fill="#d7f0f5" stroke-width="0"/>
    <path d="M15.83,1.83c.06,1.68.38,3.34.82,4.95.14.51.48,1.04.52,1.56.06.72-.73,1.23-1.36.87-.49-.28-.5-.9-.59-1.39-.16-.88-.2-1.78-.24-2.67-.02-.84.02-1.69.09-2.53.02-.27.02-.57.09-.83.06-.38.64-.35.65.04Z" fill="#fff" stroke-width="0"/>
    <path d="M24.36.94c.51,3.39.74,6.8.6,10.22-.02.56-.42,1.05-1.03.97-.6-.08-.84-.64-.76-1.18.26-1.66.45-3.32.52-5,.05-1.16.06-2.32.05-3.48,0-.48-.02-.95-.04-1.43-.01-.41.59-.54.65-.1Z" fill="#fff" stroke-width="0"/>
    <path d="M26.19,26.34c.18-.31.48-.7.52-1.06.05-.44.11-.87.18-1.31.17-1.05.33-2.11.5-3.16.55-3.35,1.01-6.72,1.43-10.08.22-1.77.44-3.53.57-5.31.04-.53.08-1.06.08-1.6,0-.18,0-.35-.02-.53-.04-.53.03-.98-.37-1.44-.46-.53-1.18-.82-1.84-1.01-.04-.01-.09-.02-.13-.04.16.11.32.24.45.39.39.45.33.9.37,1.44.06.7,0,1.43-.06,2.13-.13,1.78-.35,3.54-.57,5.31-.43,3.36-.88,6.73-1.43,10.08-.17,1.05-.32,2.11-.5,3.16-.07.44-.13.87-.18,1.31,0,.09-.03.17-.07.26-.1.98-.21,2.28-.32,3.7.29-.42.57-.85.84-1.29.19-.32.38-.63.56-.96Z" fill="#fff" stroke-width="0"/>
    <path id="_Path_" data-name="&amp;lt;Path&amp;gt;" d="M20.22,80.96c-1.64,0-2.79-3.04-2.92-3.39-.91-1.83-2.56-17.62-2.63-18.29-.82-2.64-1.36-20.98-1.39-21.75-.12-3.11-.29-9.05-.34-10.79,0-.2.15-.38.36-.39.18-.03.36.12.39.31,1.17,2.5,3.09,5.45,5.62,5.45,2.23,0,4.65-2.38,7-6.89.08-.16.27-.24.45-.19.18.05.29.22.27.4-.43,4.04-1.06,14.54-1.07,14.65,0,.03,0,.06-.02.09-.25.84-.48,9.12-.57,14.52,1.39,5.68-2.39,22.14-2.55,22.84-.74,2.32-1.59,3.43-2.62,3.43ZM13.76,28.42c.07,2.54.2,6.66.29,9.08,0,.19.56,19.01,1.37,21.63.49,4.61,1.86,16.69,2.58,18.14.42,1.16,1.38,2.93,2.22,2.93.36,0,1.09-.37,1.89-2.88.03-.14,3.92-17.05,2.54-22.5,0-.03-.01-.07-.01-.1.02-1.37.23-13.27.59-14.73.04-.61.5-8.26.9-12.83-2.24,3.79-4.52,5.71-6.79,5.71-2.01,0-3.92-1.53-5.57-4.45ZM19.41,32.95h0c-1.66,0-2.96-1.01-3.76-1.86-.68-.71-1.3-1.6-1.91-2.69-.16-.28-.3-.56-.44-.85l-.05-.11c-.11-.22-.24-.47-.25-.79,0-.16-.07-.34-.15-.54-.04-.11-.08-.22-.11-.33-.11-.39-.22-.79-.32-1.18-.9-3.69-1.27-7.45-1.57-10.98-.25-2.98-.43-6.09-.53-9.23l-.02-.86c0-.15-.03-.3-.06-.45-.05-.28-.11-.59-.04-.95.16-.8.84-1.3,1.82-1.34.17,0,.27,0,.37.02.07,0,.15.01.23.01.42-.06.88-.13,1.35-.19C16.66.29,19.93-.08,23.2.01c1.27.04,2.75.13,4.14.54.65.19,1.47.5,2.02,1.12.41.47.43.95.45,1.38,0,.09,0,.18.01.28.05.69,0,1.38-.05,2.06v.13c-.15,1.84-.38,3.72-.58,5.33-.38,3.01-.85,6.56-1.44,10.1l-.16,1.06c-.11.7-.22,1.4-.33,2.1-.07.43-.13.86-.18,1.29-.04.35-.24.68-.43.97-.05.08-.1.16-.14.23-.18.33-.37.65-.57.97-.94,1.55-1.82,2.68-2.77,3.58-.91.86-1.79,1.4-2.7,1.65-.35.1-.72.15-1.08.15ZM12.08,1.55c-.4.02-1.03.13-1.15.73-.04.21,0,.42.04.66.03.19.07.37.07.57l.02.85c.1,3.13.28,6.22.53,9.19.3,3.51.66,7.23,1.55,10.87.09.38.2.77.31,1.15.03.09.06.18.1.28.09.23.19.5.19.78,0,.15.07.28.17.46l.06.12c.14.28.28.55.43.82.58,1.04,1.17,1.87,1.8,2.54.7.74,1.82,1.62,3.21,1.62h0c.29,0,.59-.04.87-.12.79-.22,1.57-.7,2.38-1.47.9-.85,1.74-1.93,2.64-3.42.19-.31.37-.63.55-.95.05-.08.1-.17.16-.27.14-.22.29-.47.31-.65.05-.45.11-.89.18-1.33.11-.7.22-1.4.33-2.1l.16-1.06c.59-3.53,1.05-7.07,1.43-10.07.2-1.6.43-3.47.57-5.29v-.13c.06-.64.11-1.31.06-1.94,0-.1-.01-.21-.02-.3-.02-.39-.03-.64-.26-.91-.42-.48-1.11-.73-1.66-.9-1.31-.39-2.73-.48-3.95-.51-3.22-.09-6.45.27-9.13.62-.47.06-.93.12-1.4.19-.15,0-.25,0-.35-.01-.08,0-.15-.01-.23-.01Z" fill="#495059" stroke-width="0"/>
  </g>
</svg>