<?xml version="1.0" encoding="UTF-8"?>
<svg id="Layer_1" data-name="Layer 1" xmlns="http://www.w3.org/2000/svg" width="40" height="90" viewBox="0 0 40 90">
  <g id="_42" data-name="42">
    <path id="root" d="M26.8,26.76c-2.45,5.21-3.85,5.24-3.85,5.24-5.12,1.32-8.06-4.64-9.81-9.46.26,1.27.45,2.02.45,2.02.14.61,1.75,10.69,1.75,10.69,0,3.94,2.5,18.15,2.5,18.15.16,3.35,2.05,16.13,2.05,16.13,1.15,5.8,1.73,7.93,1.73,7.93,5.86,3.83,5.06-20.98,5.06-20.98.21-2.34,0-13.63,0-13.63.27-2,.16-12.63.12-16.1Z" fill="#dcddde" stroke-width="0"/>
    <path id="face" d="M26.8,25.64c1.06-3.01,1.7-22.61,1.71-22.92,0-.03,0-.06-.01-.09,0-.02,0-.05,0-.07,0-.04-.02-.08-.03-.12,0,0,0,0,0,0-.01-.06-.05-.1-.07-.15-.03-.09-.07-.17-.11-.24-.05-.1-.1-.2-.18-.29-.04-.05-.09-.09-.14-.13-.18-.18-.4-.33-.66-.45-.05-.02-.09-.05-.14-.07-.15-.06-.3-.11-.46-.16-.06-.02-.11-.03-.17-.05-.09-.02-.17-.06-.26-.07.01,0,.02.02.03.03-2.24-.47-5.37.16-5.37.16-10-.1-9.48,2.8-9.48,2.8-.63,6.43.9,14.91,1.7,18.73,1.76,4.82,4.69,10.78,9.81,9.46,0,0,.89-.03,2.49-2.66,0,0,0,0,0,.01.41-.68.87-1.52,1.37-2.59,0-.69-.01-1.1-.01-1.1h0Z" fill="#d7f0f5" stroke-width="0"/>
    <path d="M26.8,25.65h0c1.06-3.02,1.7-22.62,1.71-22.93,0-.03,0-.06-.01-.09,0-.02,0-.05,0-.07,0-.04-.02-.08-.03-.12,0,0,0,0,0,0-.23-.92-1.11-1.4-2.19-1.62.47.31.78.76.84,1.37,0,0-1.67,25.88-1.66,27.15.41-.68.87-1.52,1.37-2.59,0-.69-.01-1.1-.01-1.1Z" fill="#fff" stroke-width="0"/>
    <path d="M15.83,1.83s.11.6.27,1.49c.16.9.36,2.1.51,3.32.03.3.07.61.1.91.03.3.05.6.07.89.02.29.03.57.04.84,0,.27,0,.52,0,.76-.01.24-.01.45-.04.65-.02.2-.03.37-.06.51-.05.29-.08.45-.08.45-.06.3-.35.5-.64.44-.3-.06-.5-.35-.44-.64,0-.01,0-.02,0-.03v-.05s.05-.13.1-.36c.03-.12.05-.27.08-.44.03-.17.04-.37.07-.59.02-.22.03-.46.04-.71,0-.25.01-.52,0-.8,0-.28,0-.57-.02-.86,0-.3-.03-.6-.04-.89-.07-1.2-.2-2.4-.31-3.3-.11-.9-.18-1.5-.18-1.5-.02-.15.09-.28.23-.29.14-.02.27.08.29.21Z" fill="#fff" stroke-width="0"/>
    <path d="M21.9,1.61s0,.18.02.49c0,.15.01.34.01.56,0,.22,0,.47,0,.74,0,.27-.01.56-.03.86-.01.31-.03.63-.05.96-.04.66-.1,1.37-.15,2.07-.05.7-.09,1.4-.12,2.05,0,.32-.01.64,0,.93,0,.3.02.57.03.82.03.25.05.48.08.67.04.19.06.36.09.5.07.26.11.42.11.42l.02.06c.1.37-.12.75-.49.85-.37.1-.75-.12-.85-.5,0-.02,0-.03-.01-.05,0,0-.04-.19-.1-.53-.03-.17-.04-.37-.07-.6-.02-.23-.02-.49-.03-.77,0-.28,0-.58.03-.89.02-.31.05-.64.08-.97.07-.67.17-1.38.28-2.08.1-.7.21-1.4.3-2.05.05-.33.09-.64.12-.94.04-.3.06-.58.09-.84.03-.26.04-.5.06-.71.02-.21.03-.4.03-.55.01-.31.02-.48.02-.48,0-.15.13-.26.27-.25.14,0,.25.12.25.25Z" fill="#fff" stroke-width="0"/>
    <path id="_Path_" data-name="&amp;lt;Path&amp;gt;" d="M22.89,77.96h0c-.44,0-.9-.16-1.37-.47-.08-.05-.13-.13-.16-.22,0-.02-.6-2.21-1.73-7.96-.08-.54-1.9-12.85-2.06-16.19-.1-.53-2.5-14.24-2.5-18.17-.55-3.42-1.63-10.13-1.74-10.6h0s-.19-.76-.45-2.03c-.04-.2.08-.39.27-.44.19-.06.39.05.46.24,2.62,7.2,5.65,10.18,9.36,9.23.03,0,.06-.01.09-.01-.02,0,1.28-.28,3.51-5.02.07-.16.25-.25.42-.21.17.04.3.19.3.37.05,4.2.14,14.18-.12,16.15.01.4.21,11.28,0,13.61.02.67.53,17.59-2.81,21.05-.43.45-.93.68-1.46.68ZM22.06,76.94c.68.4,1.23.35,1.75-.18,3.12-3.22,2.61-20.37,2.6-20.54.21-2.34,0-13.52,0-13.63.23-1.78.18-10.24.14-14.53-1.88,3.56-3.08,3.99-3.42,4.03-.5.13-1,.19-1.48.19-3.38,0-5.68-3.04-7.28-6.33.49,2.98,1.4,8.64,1.45,8.95,0,3.92,2.48,18.01,2.5,18.15.16,3.35,2.04,16.02,2.05,16.14.97,4.89,1.54,7.18,1.68,7.75ZM21.65,32.28h0c-4.62,0-7.21-5.65-8.76-9.9-.91-4.36-2.33-12.52-1.72-18.86-.01-.17,0-.62.43-1.13.78-.94,2.97-2.05,8.93-2.05h.47c.27-.05,1.83-.34,3.5-.34,3.53,0,4.39,1.31,4.49,2.42-.02.86-.65,19.77-1.71,23.02v1.03c.01.06,0,.11-.02.17-2.29,4.87-3.74,5.4-4.12,5.45-.5.13-1,.19-1.48.19ZM20.53,1.1c-5.87,0-7.72,1.08-8.3,1.73-.32.36-.3.63-.3.64,0,.03,0,.07,0,.09-.63,6.47.97,15.17,1.69,18.61,2.29,6.27,4.92,9.35,8.03,9.35h0c.43,0,.87-.06,1.32-.18.03,0,.06-.01.09-.01-.02,0,1.27-.27,3.48-4.94v-1.01s0-.09,0-.13c1.03-2.95,1.68-22.62,1.69-22.81-.13-1.38-2.1-1.68-3.73-1.68-1.72,0-3.37.33-3.38.34-.03,0-.05.02-.08,0h-.5Z" fill="#495059" stroke-width="0"/>
  </g>
</svg>