<?xml version="1.0" encoding="UTF-8"?>
<svg id="Layer_1" data-name="Layer 1" xmlns="http://www.w3.org/2000/svg" width="40" height="90" viewBox="0 0 40 90">
  <g id="_43" data-name="43">
    <path id="root" d="M10.86,33.05c.42,1.12.7,1.77.7,1.77,1.35,1.15,1.84,18.84,1.84,18.84-.8,6.24.81,25.68.81,25.68-.25,4.07-.1,8.87-.1,8.87.66,2.56,2.78,1.19,4.7-1.57,5.48-7.91,6.18-17.81,6.18-17.81,1.57-4.96,2.66-27.54,2.66-27.54.61-1.61,1.51-5.97,2.37-10.51-10.09,9.78-15.98,6.84-19.16,2.28Z" fill="#dcddde" stroke-width="0"/>
    <path id="face" d="M24.97,2c-2.84-5.52-11.99,3.94-11.99,3.94-9.29,5.36-4.15,21.68-2.12,27.1,3.19,4.57,9.07,7.5,19.16-2.28,1.21-6.44,2.32-13.26,2.32-13.26.79-8.55-7.37-15.5-7.37-15.5Z" fill="#d7f0f5" stroke-width="0"/>
    <path d="M15.14,7.03s0,.03-.01.09c0,.06-.02.15-.03.26-.03.23-.06.55-.09.94-.03.39-.04.85-.05,1.34,0,.49.01,1.01.05,1.53.01.26.04.52.07.77.02.26.06.5.09.75.03.24.08.47.11.69.04.22.08.43.12.61.04.19.08.36.12.52.04.15.08.28.11.39.06.22.09.34.09.34v.02c.09.31-.09.63-.4.71-.31.08-.63-.1-.71-.41,0-.01,0-.02,0-.04,0,0-.03-.13-.08-.37-.02-.12-.05-.26-.09-.42-.03-.16-.06-.35-.09-.55-.03-.2-.07-.42-.09-.66-.02-.23-.06-.48-.07-.73-.02-.26-.04-.52-.05-.79,0-.27-.02-.54-.02-.81,0-.54.01-1.09.05-1.59.03-.51.08-.98.13-1.38.05-.4.11-.74.15-.97.02-.12.04-.21.06-.27.01-.06.02-.1.02-.1.04-.17.2-.27.37-.23.16.03.26.19.24.35h0Z" fill="#fff" stroke-width="0"/>
    <path d="M24.08,4.01s.03.1.1.28c.06.2.15.49.24.85.09.36.2.8.3,1.3.11.5.22,1.07.33,1.69.45,2.49.91,5.83,1.13,9.2.05.84.1,1.69.12,2.52.02.83.02,1.66,0,2.46-.02.8-.05,1.57-.12,2.31-.01.18-.03.37-.05.55-.02.18-.04.35-.06.53-.04.35-.09.68-.14,1.01-.04.32-.11.63-.17.93-.05.29-.13.57-.19.84-.06.26-.14.51-.21.74-.04.11-.07.22-.1.33-.04.1-.08.2-.11.3-.07.19-.13.36-.19.5-.07.14-.13.27-.17.37-.1.2-.15.31-.15.31-.24.5-.83.71-1.33.47-.5-.24-.71-.83-.47-1.33,0-.01.01-.03.02-.04l.04-.08s.04-.08.12-.23c.04-.08.09-.17.15-.28.05-.11.11-.25.18-.4.03-.08.07-.15.1-.24.03-.09.07-.18.1-.28.07-.19.15-.4.21-.63.07-.23.15-.47.21-.74.07-.27.14-.54.19-.84.06-.29.12-.6.17-.93.03-.16.05-.33.08-.49.02-.17.05-.34.07-.51.1-.69.16-1.43.23-2.2.05-.77.09-1.57.11-2.38.02-.81.03-1.64.01-2.47-.04-3.32-.32-6.65-.64-9.12-.08-.62-.16-1.19-.24-1.68-.08-.5-.16-.93-.23-1.29-.07-.36-.14-.62-.18-.8-.05-.19-.08-.29-.08-.29h0c-.05-.17.05-.34.21-.39.16-.05.32.04.38.2Z" fill="#fff" stroke-width="0"/>
    <path d="M32.37,16.32c-.01-8-7.43-14.31-7.43-14.31-.56-1.08-1.35-1.59-2.28-1.7.32.27.6.62.84,1.08,0,0,8.17,6.95,7.37,15.5,0,0-1.11,6.82-2.32,13.26-.15.79-.3,1.58-.45,2.34.61-.53,1.24-1.1,1.89-1.73.07-.4.15-.8.22-1.2.67-3.63,1.29-7.24,1.68-9.56,0,0,0,0,0,0h0c.26-1.54.41-2.5.41-2.5.04-.4.05-.8.05-1.19Z" fill="#fff" stroke-width="0"/>
    <path id="_Path_" data-name="&amp;lt;Path&amp;gt;" d="M18.05,37.73h0c-2.94,0-5.47-1.48-7.5-4.4-.02-.02-.03-.05-.04-.08-1.89-5.05-7.3-21.94,2.23-27.51.52-.53,5.72-5.75,9.5-5.75,1.33,0,2.34.63,3,1.86.77.67,8.22,7.39,7.44,15.76-.01.09-1.13,6.93-2.33,13.3-.01.07-.05.14-.1.19-4.53,4.4-8.64,6.62-12.2,6.62ZM11.16,32.96c1.89,2.69,4.21,4.06,6.89,4.06h0c3.35,0,7.26-2.14,11.62-6.34,1.19-6.33,2.29-13.07,2.3-13.14.76-8.24-7.17-15.1-7.25-15.17-.04-.03-.06-.07-.09-.11-.53-1.03-1.31-1.53-2.39-1.53-3.6,0-8.97,5.51-9.02,5.57-.02.02-.05.04-.08.06-9.09,5.25-3.84,21.65-1.98,26.62ZM15.35,90c-.54,0-1.25-.28-1.6-1.63,0-.03,0-.05-.01-.08,0-.05-.14-4.87.1-8.9-.07-.74-1.61-19.49-.81-25.7-.24-8.56-.95-17.87-1.72-18.52-.04-.03-.07-.08-.1-.13-.01-.03-.29-.68-.71-1.79-.06-.17,0-.36.17-.44.16-.08.36-.04.46.11,4.27,6.11,10.72,5.33,18.62-2.33.11-.11.28-.13.42-.06.14.07.21.23.18.38-1.04,5.54-1.84,9.08-2.37,10.52-.07,1.51-1.14,22.59-2.67,27.54-.06.72-.95,10.31-6.24,17.94-.8,1.15-2.34,3.08-3.74,3.08ZM14.45,88.23c.19.7.49,1.05.9,1.05.76,0,1.97-1.06,3.15-2.77,5.36-7.73,6.11-17.53,6.12-17.63,0-.03,0-.06.02-.08,1.53-4.86,2.64-27.23,2.65-27.45,0-.04,0-.07.02-.11.48-1.27,1.2-4.43,2.15-9.37-4.21,3.89-8.05,5.86-11.4,5.86-2.23,0-4.22-.85-5.95-2.54,1.15,3.02,1.56,15.8,1.64,18.54-.79,6.19.8,25.46.81,25.66-.23,3.86-.12,8.37-.1,8.85Z" fill="#495059" stroke-width="0"/>
  </g>
</svg>