<?xml version="1.0" encoding="UTF-8"?>
<svg id="Layer_1" data-name="Layer 1" xmlns="http://www.w3.org/2000/svg" width="40" height="90" viewBox="0 0 40 90">
  <g id="_44" data-name="44">
    <path id="root" d="M30.57,25.43l-.66,1.53c-.2.47-.37.78-.52.98-.12,3.08-1.75,44.89-6.85,50.14-.03.05-1.44,1.92-2.86,1.92-.9,0-1.56-.68-1.97-2.02-.17-.55-.45-.85-.8-1.24-.63-.7-1.42-1.57-2.07-4.18-.04-.26-3.83-23.45-3.98-44.66-.05-.1-.14-.25-.25-.47l-.63-1.2,1.12.76c2.93,2,6.41,3.14,9.54,3.14,3.31,0,6.24-1.2,8.72-3.55l1.22-1.14Z" fill="#dcddde" stroke-width="0"/>
    <path id="face" d="M33.38,15.37c-.07.32-2.18,8.56-3.48,11.59l-.09.12c-2.61,2.48-5.7,3.74-9.19,3.74-4.46,0-8.13-2.04-9.93-3.26l-.07-.05-.03-.07c-1.84-3.53-7.37-15.26-1.72-18.4.35-.39,3.02-3.36,5.1-5.74.09-.12,2.44-3.29,6.34-3.29,2.95,0,5.91,1.81,8.83,5.39.21.23,5.58,6.13,4.24,9.98Z" fill="#d7f0f5" stroke-width="0"/>
    <path d="M33.05,15.15c1.29-3.7-4.18-9.65-4.18-9.65-1.71-2.1-3.32-3.44-4.81-4.24.96.76,1.96,1.75,3,3.03,0,0,5.47,5.95,4.18,9.65,0,0-2.16,8.52-3.48,11.57-.21.48-.39.83-.55.98,0,0-.03.77-.09,2.1.84-.5,1.66-1.12,2.45-1.87,1.31-3.04,3.48-11.57,3.48-11.57Z" fill="#fff" stroke-width="0"/>
    <path d="M12.61,23.78s.16.17.44.46c.14.15.31.33.5.54.19.2.4.44.63.68.23.24.49.49.77.74.14.11.29.23.44.36.16.11.32.22.49.33.17.1.36.19.54.29.18.1.39.16.58.24.2.09.41.13.62.19l.32.09.33.06c.22.03.44.09.66.11.22.02.45.04.67.06.44.04.88.03,1.31.04.43,0,.84-.03,1.23-.04.39-.02.76-.06,1.11-.09.34-.03.66-.06.94-.1.28-.04.52-.07.72-.09.4-.05.63-.08.63-.08,0,0-.22.05-.62.14-.2.04-.44.1-.71.16-.27.07-.59.12-.93.19-.34.06-.71.14-1.1.19-.39.05-.81.12-1.24.16-.44.03-.88.08-1.35.08-.23,0-.47,0-.7,0-.23,0-.47-.03-.71-.05l-.36-.03-.35-.06c-.24-.05-.47-.07-.7-.15-.23-.07-.46-.12-.68-.21-.22-.09-.44-.17-.65-.27-.2-.11-.41-.21-.6-.32-.18-.12-.37-.24-.54-.36-.33-.25-.65-.49-.91-.73-.27-.23-.51-.45-.72-.63-.21-.18-.38-.35-.53-.48-.3-.26-.48-.41-.48-.41h0c-.29-.25-.32-.68-.07-.97.25-.29.68-.32.97-.07.02.01.03.03.05.05Z" fill="#fff" stroke-width="0"/>
    <path id="_Path_" data-name="&amp;lt;Path&amp;gt;" d="M19.67,80c-.89,0-1.56-.68-1.97-2.02-.17-.55-.45-.86-.8-1.24-.63-.7-1.42-1.57-2.07-4.17-.04-.26-3.83-23.45-3.99-44.67-.05-.09-.13-.25-.25-.47l-.62-1.2,1.12.76c2.94,2,6.42,3.14,9.55,3.14,3.3,0,6.23-1.19,8.72-3.55l1.21-1.15-.66,1.53c-.2.46-.37.78-.52.98-.11,3.09-1.75,44.89-6.85,50.14-.03.05-1.44,1.92-2.86,1.92ZM11.53,28.08c.18,21.12,3.93,44.11,3.97,44.35.61,2.42,1.33,3.21,1.91,3.85.37.41.73.8.94,1.5.32,1.02.76,1.53,1.32,1.53.9,0,1.99-1.21,2.34-1.67,4.83-4.98,6.54-45.95,6.68-49.59-2.36,1.83-5.06,2.76-8.05,2.76-3.87,0-7.14-1.53-9.11-2.73ZM20.63,30.81h0c-4.46,0-8.14-2.04-9.93-3.26l-.07-.05-.04-.08c-1.83-3.53-7.37-15.26-1.72-18.4.35-.39,3.02-3.36,5.11-5.75.08-.11,2.44-3.29,6.34-3.29,2.94,0,5.91,1.81,8.82,5.39.22.23,5.58,6.13,4.24,9.98-.08.32-2.18,8.56-3.49,11.59l-.08.11c-2.61,2.48-5.71,3.73-9.19,3.73ZM11.16,27.04c2.92,1.97,6.37,3.09,9.48,3.09,3.28,0,6.19-1.18,8.67-3.5,1.29-3.04,3.41-11.37,3.43-11.45,1.21-3.49-4.05-9.28-4.1-9.34-2.79-3.42-5.58-5.15-8.31-5.15-3.55,0-5.79,3-5.81,3.03-2.25,2.57-5.14,5.79-5.17,5.82l-.09.07c-5.26,2.83.57,14.84,1.91,17.43Z" fill="#495059" stroke-width="0"/>
  </g>
</svg>