<?xml version="1.0" encoding="UTF-8"?>
<svg id="Layer_1" data-name="Layer 1" xmlns="http://www.w3.org/2000/svg" width="40" height="90" viewBox="0 0 40 90">
  <g id="_45" data-name="45">
    <path id="root" d="M29.22,31.9c-.02.97-.23,10.43-.69,12.85.06,1.69,1.05,29.62-3.65,32.9-.06.04-1.5,1.04-2.85,1.04-.96,0-2.13-.5-2.26-2.86,0-.13.5-8.15-1.13-13.31-.02-.09-2.29-8.06-2.86-10.99,0,0-.33-1.25-.77-2.93-.44-1.69-.99-3.82-1.44-5.59-.19-1.1-1.75-10.35-1.57-12.13-.26-.42-1.2-2.02-2.16-4.12-.07-.16-.01-.35.15-.44.15-.1.35-.04.45.11,3.51,5.41,6.94,8.04,10.48,8.04,2.7,0,5.5-1.56,8.31-4.64.11-.12.29-.14.43-.06s.2.23.16.39c-.22.75-.43,1.33-.6,1.76Z" fill="#dcddde" stroke-width="0"/>
    <path id="face" d="M32.53,17.35s-1.47,8.51-2.71,12.79c-.02.05-.04.1-.09.14-2.96,3.22-5.92,4.86-8.82,4.86-3.8,0-7.42-2.73-11.06-8.35-3.62-7.88-3.38-13.31.63-15.37.5-.5,4.95-4.99,6.39-5.85.25-.25,1.68-1.57,3.62-1.57,1.36,0,2.63.65,3.77,1.92.06.06.41.32.75.58,2.39,1.79,8.76,6.56,7.51,10.85Z" fill="#d7f0f5" stroke-width="0"/>
    <path d="M15.16,28.84s.48.31,1.2.78c.18.12.37.23.58.36.21.12.43.24.66.35.11.06.23.12.35.16.12.05.24.11.37.14.13.04.25.08.38.12l.39.09c.26.03.52.07.78.07h.19c.06,0,.13,0,.19-.01.13-.01.25-.02.37-.03.12-.02.24-.05.36-.07.06-.01.12-.02.17-.03.06-.01.11-.03.17-.05.22-.07.43-.11.62-.19.19-.07.36-.14.52-.19.15-.07.28-.13.39-.18.22-.1.34-.15.34-.15l.05-.02c.48-.22,1.08-.08,1.35.3.27.38.1.87-.38,1.08-.04.02-.08.03-.11.04,0,0-.16.05-.43.14-.14.04-.3.1-.49.16-.2.05-.42.11-.67.17-.24.07-.53.1-.81.15-.07.01-.15.03-.22.03-.08,0-.16.01-.24.02-.16.01-.32.02-.48.04-.17,0-.34,0-.51,0-.09,0-.17,0-.26,0-.09-.01-.17-.02-.26-.03-.35-.03-.7-.12-1.03-.2-.16-.06-.32-.11-.49-.17-.16-.06-.3-.13-.45-.2-.15-.06-.28-.15-.42-.22-.14-.07-.26-.15-.38-.23-.25-.15-.46-.32-.66-.46-.19-.16-.38-.3-.54-.44-.64-.54-1.07-.9-1.07-.9h0c-.13-.11-.13-.29.01-.39.13-.1.32-.1.46-.01Z" fill="#fff" stroke-width="0"/>
    <path d="M29.5,29.7c1.25-4.31,2.72-12.79,2.72-12.79,1.39-4.8-7.64-10.5-8.19-11.1-.32-.36-.65-.65-.97-.89,0,0-.01-.01-.02-.02-.1-.07-.2-.14-.3-.2-.01,0-.03-.02-.04-.03-.09-.06-.19-.12-.28-.17-.02,0-.03-.02-.05-.02-.09-.05-.19-.1-.28-.14,0,0-.01,0-.02,0-.28-.12-.56-.21-.83-.26-.03,0-.06-.01-.09-.02-.01,0-.03,0-.04,0,.35.25.7.56,1.05.95.54.6,9.58,6.3,8.19,11.1,0,0-2.01,11.6-3.33,14.57,0,0-.01.53-.03,1.37.81-.64,1.65-1.41,2.51-2.35Z" fill="#fff" stroke-width="0"/>
    <path id="_Path_" data-name="&amp;lt;Path&amp;gt;" d="M22.03,78.69c-.96,0-2.14-.5-2.27-2.87,0-.12.5-8.15-1.13-13.3-.03-.09-2.29-8.06-2.87-10.99h0s-1.31-4.98-2.21-8.53c-.19-1.11-1.75-10.35-1.56-12.14-.25-.42-1.19-2.02-2.16-4.12-.07-.16-.01-.36.15-.44.16-.09.35-.04.45.11,3.51,5.41,6.94,8.03,10.48,8.03,2.69,0,5.49-1.56,8.31-4.64.11-.12.28-.15.42-.07.14.08.21.24.16.39-.22.75-.42,1.34-.6,1.76-.02.98-.23,10.44-.69,12.86.06,1.68,1.05,29.61-3.65,32.91-.06.04-1.5,1.03-2.84,1.03ZM12.46,30.31c.11.19.18.3.18.31.05.08.06.17.04.26-.21.9.8,7.66,1.54,11.99.89,3.52,2.21,8.51,2.21,8.51.57,2.92,2.83,10.87,2.85,10.95,1.66,5.26,1.18,13.17,1.15,13.5.12,2.18,1.22,2.18,1.59,2.18,1.13,0,2.44-.9,2.45-.91,3.55-2.49,3.75-22.26,3.36-32.36,0-.03,0-.05,0-.08.47-2.37.68-12.74.69-12.84,0-.05.01-.09.03-.13.05-.1.09-.22.14-.35-2.61,2.52-5.23,3.8-7.78,3.8-2.89,0-5.68-1.59-8.46-4.83ZM20.92,35.13h0c-3.8,0-7.42-2.73-11.06-8.34-3.62-7.88-3.39-13.31.63-15.37.5-.51,4.94-4.99,6.39-5.85.25-.24,1.68-1.57,3.62-1.57,1.36,0,2.63.65,3.78,1.92.06.07.41.32.74.57,2.4,1.8,8.77,6.57,7.52,10.85,0,.05-1.48,8.51-2.72,12.79-.01.05-.04.1-.08.14-2.96,3.23-5.93,4.86-8.82,4.86ZM20.5,4.68c-1.79,0-3.15,1.38-3.16,1.39-.02.02-.05.04-.08.06-1.37.78-6.27,5.75-6.32,5.8-.03.03-.06.05-.09.07-4.97,2.49-2.38,10.12-.39,14.45,3.48,5.36,6.91,7.99,10.46,7.99,2.67,0,5.45-1.54,8.26-4.58,1.22-4.27,2.67-12.59,2.69-12.67,1.12-3.87-5.19-8.6-7.27-10.15-.51-.38-.73-.55-.84-.66-1.02-1.12-2.11-1.69-3.27-1.69Z" fill="#495059" stroke-width="0"/>
  </g>
</svg>