<?xml version="1.0" encoding="UTF-8"?>
<svg id="Layer_1" data-name="Layer 1" xmlns="http://www.w3.org/2000/svg" width="40" height="90" viewBox="0 0 40 90">
  <g id="_46" data-name="46">
    <path id="root" d="M36.06,22.74c-.78,2.08-1.68,5.73-1.48,11.24.01.19.81,20.27-12.45,31.85-.13.11-2.85,2.16-4.59,2.16-.67,0-1.03-.29-1.22-.54-.46-.6-.48-1.65-.06-3.2.08-.21,6.53-18.74,5.51-22.76-.25-.56-1.13-2.14-2.2-2.14-.82,0-1.72.92-2.58,2.64-.22,1.15-3.2,15.45-12.9,19.12-.01,0-.9.42-1.79.42-.63,0-1.12-.21-1.46-.61-.43-.53-.56-1.37-.35-2.5.07-.27,6.32-22.93,3.44-35.76-.04-.14.01-.28.12-.36.11-.09.26-.12.39-.07,3.04,1.17,6.84,1.87,10.16,1.87,1.03,0,1.98-.07,2.81-.21.02-.01,2.09-.65,4.72-.65,1.59,0,3.05.23,4.32.7.04.02,2.49.9,9.15-1.69.13-.06.29-.02.4.08.11.11.14.26.08.4Z" fill="#dcddde" stroke-width="0"/>
    <path id="face" d="M39.22,7.57s0-.04-.01-.05c-.01-.02-.01-.05-.02-.07-1.55-6.16-5.38-7.46-8.32-7.46h-.29c-3.72.11-7.28,2.08-8.26,2.68h-.01C20.21.79,17.04.18,13.08.85c-3.41.58-6.18,1.89-6.29,1.94-2.19.92-3.72,2.48-4.56,4.61C-.03,13.15,3.46,21.13,3.59,21.41c.12.41.23.83.33,1.26.02.12.12.22.23.27,4.1,1.58,9.56,2.33,13.4,1.69.02-.01,2.05-.64,4.56-.64,1.5,0,2.88.22,4.06.65.06.02.55.21,1.64.21,1.44,0,3.99-.33,8.05-1.92.09-.04.18-.12.21-.21.71-1.88,1.41-2.72,1.41-2.74.02-.02.04-.05.05-.06,3.17-5.97,1.85-11.74,1.69-12.37ZM13.22,1.62s.05-.04.06-.05h.02s-.05.02-.08.05Z" fill="#d7f0f5" stroke-width="0"/>
    <path d="M20.23,4.93s.58-.78,1.46-1.7c-2.4-2.16-5.88-2.25-8.91-1.73-.35.23-.69.48-1.02.75,0,0,6.87-.17,8.47,2.68Z" fill="#a0e1e3" stroke-width="0"/>
    <path d="M30.21.66c1.51.9,5.95,3.73,8.27,7.24-1.45-5.81-4.9-7.33-8.27-7.24Z" fill="#a0e1e3" stroke-width="0"/>
    <path d="M19.54,6.24c-1,1.25-1.16,3.11-1.08,4.64.08,1.71.58,3.47,1.28,5.03.25.54.66,1.18.67,1.79.01.64-.45,1.42-1.18,1.29-.68-.12-.84-.85-1.01-1.41-.26-.82-.5-1.65-.67-2.49-.39-1.89-.59-4-.13-5.9.23-.98.54-1.94,1.1-2.79.17-.26.37-.56.62-.76.37-.3.66.32.41.61Z" fill="#fff" stroke-width="0"/>
    <path d="M24.01,21.65c1.74.25,3.54.52,5.35.46.7-.02,1.55-.12,2.15-.34.4-.14.76-.28,1.1-.47.23-.12.4-.29.64-.4.27-.18.57.06.39.23-.25.22-.5.44-.83.63-.59.34-1.29.65-2.1.82-2,.41-4.12.33-6.2.2-.56-.04-1.29-.02-1.59-.35-.37-.41.31-.87,1.09-.76Z" fill="#fff" stroke-width="0"/>
    <path d="M36.84,20c1.71-3.23,2.08-6.43,2.05-8.73-.03-2.02-.37-3.33-.37-3.33,0-.03-.02-.06-.02-.09-.59-.9-1.33-1.75-2.11-2.53.24.6.45,1.25.62,1.98,0,0,1.55,5.98-1.67,12.08,0,0-1.06,1.25-1.93,4.18.61-.2,1.26-.44,1.96-.71.74-1.98,1.48-2.84,1.48-2.84Z" fill="#fff" stroke-width="0"/>
    <path d="M19.7,26.95c-1.12,1.81-.54,3.84-.6,5.88-.06,1.37,1.77,4.29.38,5.33-1,.75-1.66-4.71-1.56-5.46.33-2.3-.03-4.33,1.53-6.29.51-.05.5.1.25.53Z" fill="#afafaf" stroke-width="0"/>
    <path id="_Path_" data-name="&amp;lt;Path&amp;gt;" d="M27.8,24.86h0c-1.09,0-1.58-.19-1.63-.21-1.19-.44-2.56-.66-4.06-.66-2.51,0-4.53.63-4.55.64-3.84.63-9.3-.12-13.4-1.7-.12-.05-.2-.15-.23-.27-.1-.43-.2-.85-.32-1.26-.13-.29-3.63-8.26-1.36-14.02.84-2.13,2.38-3.68,4.56-4.61.1-.05,2.88-1.36,6.29-1.94.17-.03.35.07.41.23.06.17,0,.36-.15.45-.04.03-.08.05-.12.08,2.04.08,5.83.49,7.39,2.4.26-.32.66-.8,1.17-1.32.14-.14.36-.15.51-.03C23.26,2.09,26.84.11,30.56,0c.07,0,.14.02.2.05,1.75,1.04,6.07,3.84,8.4,7.35.02.04.04.07.05.12.08.31,1.57,6.26-1.69,12.41-.01.02-.03.05-.04.07,0,0-.71.85-1.41,2.73-.04.1-.12.18-.21.22-4.06,1.58-6.62,1.91-8.05,1.91ZM22.1,23.25c1.59,0,3.05.24,4.33.71.03.01,2.44.88,8.99-1.64.66-1.72,1.31-2.58,1.46-2.76,3.1-5.88,1.64-11.72,1.63-11.78-2.22-3.36-6.59-6.16-8.03-7.02-4.03.16-7.99,2.67-8.03,2.7-.11.07-.25.08-.37.02-.72.78-1.18,1.4-1.19,1.4-.08.1-.19.17-.32.15-.13,0-.24-.08-.3-.19-1.03-1.84-4.91-2.49-7.91-2.49h-.22c-.16,0-.3-.09-.36-.24-.03-.07-.03-.15-.01-.22-2.63.63-4.63,1.58-4.66,1.59-2.01.85-3.41,2.26-4.17,4.2-2.15,5.46,1.33,13.4,1.36,13.48.12.4.22.77.31,1.15,3.01,1.13,6.72,1.8,9.98,1.8,1.03,0,1.97-.07,2.8-.2.03-.01,2.09-.66,4.73-.66ZM20.59,5.03s-.02,0-.02,0c-.13,0-.24-.08-.3-.19-1.03-1.84-4.91-2.49-7.91-2.49h-.22c-.19-.02-.3-.09-.36-.24-.06-.15-.01-.32.11-.42.33-.28.69-.54,1.06-.78.04-.03.09-.05.14-.05,3.97-.68,7.14-.06,9.22,1.83.08.07.12.16.12.27,0,.1-.03.2-.1.27-.86.89-1.42,1.65-1.43,1.66-.07.1-.18.15-.3.15ZM13.22,1.62c2.04.08,5.83.49,7.39,2.4.21-.26.52-.62.9-1.03-1.89-1.52-4.71-1.99-8.22-1.41-.02.01-.04.03-.06.04ZM38.85,7.99c-.12,0-.24-.06-.31-.17-2.3-3.48-6.82-6.33-8.15-7.12-.14-.08-.21-.25-.17-.42.04-.16.19-.28.35-.28.1,0,.2,0,.3,0,2.95,0,6.79,1.31,8.35,7.52.04.18-.05.36-.21.43-.05.02-.1.03-.15.03ZM31.99.82c1.64,1.07,4,2.79,5.85,4.88-1.19-2.9-3.15-4.53-5.85-4.88ZM17.54,68h0c-.66,0-1.03-.3-1.22-.54-.46-.6-.48-1.65-.05-3.2.07-.21,6.53-18.74,5.5-22.76-.24-.56-1.13-2.13-2.2-2.13-.82,0-1.71.91-2.58,2.64-.22,1.14-3.2,15.45-12.9,19.12-.01,0-.9.42-1.79.42-.63,0-1.12-.2-1.46-.6-.44-.53-.56-1.37-.36-2.51.07-.26,6.33-22.93,3.44-35.76-.03-.13.02-.28.12-.37.11-.09.25-.12.38-.07,3.04,1.17,6.84,1.87,10.16,1.87,1.03,0,1.97-.07,2.8-.2.03-.01,2.09-.66,4.73-.66,1.59,0,3.05.24,4.33.71.03.01,2.48.89,9.14-1.7.14-.05.29-.02.4.08.1.1.14.26.09.4-.78,2.08-1.68,5.73-1.49,11.24,0,.2.81,20.28-12.44,31.86-.13.1-2.86,2.17-4.6,2.17ZM19.56,38.61c1.79,0,2.86,2.54,2.91,2.64,1.11,4.3-5.22,22.45-5.49,23.22-.45,1.67-.24,2.3-.07,2.52.13.17.33.25.62.25h0c1.23,0,3.39-1.44,4.12-2,12.97-11.33,12.18-31.05,12.17-31.25-.18-5.02.54-8.54,1.26-10.77-6.57,2.42-8.81,1.46-8.93,1.42-1.19-.44-2.56-.66-4.06-.66-2.51,0-4.53.63-4.55.64-3.64.6-8.74-.05-12.76-1.46,2.58,13.11-3.52,35.2-3.58,35.42-.15.86-.08,1.52.21,1.86.18.22.48.33.88.33.72,0,1.49-.36,1.5-.36,9.52-3.6,12.44-18.47,12.46-18.62,0-.03.02-.07.03-.1,1.03-2.06,2.13-3.1,3.27-3.1Z" fill="#495059" stroke-width="0"/>
  </g>
</svg>