<?xml version="1.0" encoding="UTF-8"?>
<svg id="Layer_1" data-name="Layer 1" xmlns="http://www.w3.org/2000/svg" width="40" height="90" viewBox="0 0 40 90">
  <g id="_47" data-name="47">
    <path id="root" d="M36.14,30.4c-.84,3.23-1.23,7.62-1.19,13.09.01.1.8,13.67-11.19,21.98-.07.04-1.63,1.12-3.06,1.12-.77,0-2.1-.34-2.31-2.61-.01-.08,0-.16.04-.24.07-.12,6.3-11.53,3.92-16.39-.01-.04-.92-2.09-2.61-2.09-1.35,0-2.97,1.27-4.66,3.71-.01.03-.04.05-.07.07-.04.05-4.55,4.2-4.05,13.17.03.18.21,2.1-.52,2.93-.56.64-1.5.51-2.66-.49C-.14,57.81,1.75,49.72,3.43,42.59c1.26-5.34,2.44-10.39-.31-14.54-.01-.01-.13-.21-.3-.56-.09-.17-.05-.38.09-.5.14-.13.35-.14.51-.04,3.37,2.26,5.55,2.57,7.4,2.57.85,0,1.72-.08,2.65-.16.47-.04.96-.08,1.47-.12.49-.21,3.16-1.31,6.42-1.31,2.3,0,4.34.55,6.09,1.65.04,0,1.56.62,4.45.62,1.21,0,2.47-.1,3.78-.31.14-.03.29.03.38.13s.13.25.09.38Z" fill="#dcddde" stroke-width="0"/>
    <path id="face" d="M38.19,26.11c-.03.07-.08.12-.14.17,0,0-1.04.8-1.9,4.12-.04.17-.17.29-.34.31-1.35.22-2.66.33-3.91.33-3.12,0-4.76-.68-4.84-.72-1.65-1.04-3.56-1.55-5.69-1.55-3.33,0-6.11,1.26-6.14,1.27-.04.03-.09.04-.14.04-.54.04-1.05.08-1.54.12-.94.08-1.84.16-2.72.16-1.98,0-4.32-.33-7.87-2.72-.05-.04-.1-.09-.13-.16-1.27-2.43-7.07-14.84,3-20.89.33-.34,2.27-2.24,5.13-2.24.29,0,.55.01.83.05h.05s.07.01.1.03c.77.12,1.55.37,2.3.76.38-.45,1.21-1.18,2.55-1.18,1.48,0,3.15.92,4.93,2.73,1.01-.85,3.5-2.74,5.79-2.74.79,0,1.47.22,2.05.67.08-.05.16-.12.25-.17.39-.22.84-.33,1.33-.33,2.16,0,4.71,2.18,7.57,6.46.03.07.08.16.14.34.47,1.29,2.72,8.07-.64,15.14Z" fill="#d7f0f5" stroke-width="0"/>
    <path d="M22.74,25.06s.15.1.41.27c.13.09.29.2.47.32.18.12.38.26.59.4.22.14.45.28.7.43.13.06.26.13.4.19.14.06.28.11.43.16.15.05.3.08.46.13.16.04.32.05.48.08.16.03.33.03.5.04h.26s.26,0,.26,0c.17-.01.35,0,.52-.03.17-.02.35-.04.52-.07.34-.04.68-.13,1-.19.32-.07.63-.16.93-.24.3-.08.57-.18.82-.25.26-.08.49-.15.69-.23.21-.07.38-.14.53-.19.29-.11.46-.17.46-.17,0,0-.16.08-.44.21-.14.07-.31.15-.51.24-.2.1-.42.19-.67.29-.25.1-.51.22-.8.33-.29.1-.6.22-.92.33-.33.09-.66.21-1.01.29-.18.04-.35.08-.53.12-.18.04-.36.05-.55.08l-.27.04h-.28c-.19.02-.37.04-.56.02-.18-.02-.37-.01-.55-.04-.18-.03-.36-.05-.53-.1-.17-.05-.34-.09-.51-.14-.16-.06-.32-.12-.47-.18-.29-.13-.57-.26-.81-.39-.25-.13-.46-.25-.65-.35-.19-.1-.35-.19-.48-.27-.27-.15-.43-.23-.43-.23h0c-.26-.14-.35-.46-.21-.72.14-.26.47-.35.73-.21.01,0,.03.02.04.02Z" fill="#fff" stroke-width="0"/>
    <path d="M18.6,11.67s-.22.73-.56,1.82c-.08.27-.16.56-.25.88-.08.32-.17.64-.24.99-.04.17-.08.35-.1.53-.03.18-.07.36-.08.55-.02.19-.04.37-.06.56l-.03.57c0,.39,0,.76.04,1.14l.02.28c0,.09.03.19.04.28.03.18.05.36.07.54.04.18.07.35.11.52.02.08.03.17.05.25.02.08.04.16.06.24.09.32.15.62.25.9.09.27.17.52.24.74.08.22.15.41.21.56.11.31.18.49.18.49l.03.08c.25.68.21,1.58-.11,2-.31.42-.77.21-1.02-.47-.02-.05-.04-.11-.05-.16,0,0-.07-.22-.18-.61-.06-.2-.12-.43-.2-.7-.07-.29-.15-.61-.23-.96-.09-.34-.16-.76-.24-1.18-.02-.1-.04-.21-.06-.32-.02-.11-.03-.23-.05-.34-.03-.23-.06-.47-.09-.71-.02-.25-.04-.5-.06-.75,0-.13-.02-.25-.02-.38,0-.13,0-.26,0-.39-.01-.52.02-1.03.06-1.53.03-.24.06-.48.09-.72.04-.23.08-.45.12-.68.04-.23.1-.42.15-.62.05-.21.1-.39.16-.57.11-.37.23-.69.34-1.01.12-.3.22-.58.33-.83.41-.98.68-1.63.68-1.63h0c.08-.2.24-.21.36-.02.1.18.13.46.07.67Z" fill="#fff" stroke-width="0"/>
    <path d="M21.28,7.73s.13-.23.36-.6c-.15.13-.24.21-.24.21-5.11-5.37-7.34-1.57-7.34-1.57-.91-.53-1.77-.81-2.57-.92,3.6,1.43,5.2,2.31,6.71,3.71,0,0,1.1,1.65,3.09-.82Z" fill="#a0e1e3" stroke-width="0"/>
    <path d="M29.71,4.89c2.38,2.2,5.17,5.93,8.43,6.24-.06-.16-.1-.26-.1-.26-4.63-6.95-7.33-6.55-8.33-5.99Z" fill="#a0e1e3" stroke-width="0"/>
    <path d="M37.52,25.94c3.27-6.89,1.13-13.47.62-14.82-.53-.05-1.05-.19-1.55-.4.65,1.89,2.31,8.04-.74,14.48,0,0-1.34.92-2.3,5.35.6-.05,1.23-.13,1.91-.24.93-3.58,2.07-4.37,2.07-4.37Z" fill="#fff" stroke-width="0"/>
    <path d="M18.83,32.87c-.93,1.7-.1,3.38.09,5.15.1,1.19,2.32,3.48,1.02,4.55-.93.77-2.26-3.85-2.24-4.51.07-2.02-.54-3.73.82-5.61.51-.11.53.02.32.43Z" fill="#afafaf" stroke-width="0"/>
    <path id="_Path_" data-name="&amp;lt;Path&amp;gt;" d="M31.89,31.04h0c-3.12,0-4.77-.69-4.84-.72-1.66-1.04-3.56-1.55-5.7-1.55-3.33,0-6.11,1.26-6.14,1.27-.05.02-.1.03-.15.04-.54.03-1.05.08-1.54.12-.94.08-1.83.15-2.72.15-1.98,0-4.31-.33-7.87-2.71-.06-.04-.11-.09-.14-.15-1.27-2.43-7.06-14.85,3.01-20.9.33-.34,2.27-2.25,5.13-2.25.29,0,.59.02.88.06.03,0,.07.01.1.03,3.69,1.46,5.29,2.35,6.84,3.79.02.02.05.05.06.08,0,.01.25.35.69.35.34,0,.92-.21,1.72-1.2,0,0,.13-.24.33-.57.02-.04.05-.07.09-.1.98-.84,3.52-2.78,5.84-2.78.78,0,1.47.22,2.05.66.07-.05.16-.11.25-.16.16-.09.36-.06.49.06.53.49,1.08,1.05,1.65,1.65,1.94,2,4.14,4.26,6.53,4.49.16.02.3.12.35.27.48,1.29,2.72,8.07-.64,15.14-.03.07-.08.12-.14.17,0,0-1.04.81-1.9,4.13-.04.16-.18.28-.34.31-1.35.22-2.67.33-3.91.33ZM27.44,29.58s1.57.62,4.45.62c1.12,0,2.3-.09,3.51-.28.81-2.95,1.75-3.98,2.06-4.26,2.98-6.38,1.24-12.49.66-14.16-2.58-.38-4.81-2.68-6.79-4.71-.48-.49-.94-.96-1.38-1.39-.06.05-.09.08-.09.08-.07.09-.18.14-.3.15-.12,0-.23-.03-.31-.11-.48-.46-1.06-.68-1.76-.68-2.06,0-4.48,1.89-5.25,2.54-.2.32-.3.52-.31.53-.86,1.07-1.66,1.58-2.42,1.58s-1.23-.51-1.35-.68c-1.45-1.34-2.98-2.18-6.5-3.58-.24-.03-.48-.05-.71-.05-2.69,0-4.54,2-4.55,2.02-.03.03-.06.06-.1.08C-3.07,12.86,2.21,24.48,3.51,27.01c3.32,2.21,5.47,2.51,7.31,2.51.85,0,1.72-.07,2.65-.15.47-.04.96-.08,1.48-.12.48-.21,3.16-1.32,6.42-1.32,2.3,0,4.35.56,6.09,1.65h0ZM20.7,66.58h0c-.77,0-2.11-.34-2.32-2.61,0-.08.01-.17.05-.24.06-.12,6.29-11.53,3.92-16.39-.02-.04-.92-2.09-2.62-2.09-1.35,0-2.96,1.28-4.65,3.72-.02.03-.04.05-.07.07-.05.04-4.56,4.19-4.05,13.16.02.19.21,2.11-.52,2.93-.57.64-1.5.51-2.66-.49C-.14,57.8,1.76,49.72,3.43,42.59c1.26-5.35,2.44-10.4-.31-14.54-.01-.02-.13-.21-.31-.56-.09-.17-.05-.38.09-.51.14-.13.36-.14.51-.04,3.37,2.26,5.55,2.57,7.4,2.57.85,0,1.72-.07,2.65-.15.47-.04.96-.08,1.48-.12.48-.21,3.16-1.32,6.42-1.32,2.3,0,4.35.56,6.09,1.65-.02-.02,1.5.62,4.45.62,1.2,0,2.47-.11,3.78-.32.14-.03.28.03.38.13.1.11.13.25.1.39-.84,3.22-1.24,7.62-1.19,13.08,0,.11.79,13.68-11.19,21.98-.06.04-1.63,1.12-3.06,1.12ZM19.23,64.02c.18,1.54.92,1.72,1.47,1.72h0c1.17,0,2.56-.96,2.58-.97,11.58-8.02,10.84-21.12,10.83-21.25-.05-5.22.31-9.49,1.07-12.71-1.13.16-2.24.24-3.29.24-3.12,0-4.77-.69-4.84-.72-1.66-1.04-3.56-1.55-5.7-1.55-3.33,0-6.11,1.26-6.14,1.27-.05.02-.1.03-.15.04-.54.03-1.05.08-1.54.12-.94.08-1.83.15-2.72.15-1.7,0-3.66-.24-6.43-1.82,2.22,4.22,1.08,9.1-.13,14.24-1.7,7.24-3.46,14.72,4.08,21.23.69.59,1.07.68,1.23.68.11,0,.18-.03.26-.12.38-.43.38-1.73.31-2.3-.51-9.08,3.8-13.37,4.29-13.82,1.87-2.68,3.66-4.04,5.31-4.04,2.26,0,3.34,2.48,3.39,2.58,2.44,5.01-3.18,15.72-3.89,17.03ZM19.52,9.49h0c-.77,0-1.23-.51-1.35-.68-1.45-1.34-2.99-2.19-6.55-3.6-.2-.08-.31-.29-.25-.5.05-.21.25-.34.46-.31.81.11,1.61.38,2.4.79.38-.45,1.21-1.18,2.54-1.18,1.49,0,3.15.92,4.94,2.72.15-.09.35-.08.49.04.16.14.19.37.08.54-.22.35-.34.57-.34.58-.86,1.07-1.66,1.58-2.42,1.58ZM14.9,5.7c1.74.82,2.81,1.55,3.86,2.53.02.02.05.05.06.08,0,.01.25.35.69.35.49,0,1.09-.41,1.72-1.2-1.65-1.7-3.19-2.6-4.46-2.6-.97,0-1.58.52-1.87.84ZM38.43,11.53s-.03,0-.04,0c-2.69-.26-5.01-2.64-7.05-4.74-.57-.58-1.1-1.14-1.62-1.62-.1-.09-.15-.23-.13-.36.02-.13.1-.25.21-.32.39-.22.84-.33,1.32-.33,2.17,0,4.71,2.17,7.56,6.45.04.07.08.17.14.34.05.14.03.29-.06.4-.08.1-.2.16-.33.16ZM30.79,5.04c.37.37.76.76,1.15,1.17,1.71,1.75,3.61,3.71,5.67,4.32-3.3-4.77-5.47-5.51-6.49-5.51-.11,0-.22,0-.33.03Z" fill="#495059" stroke-width="0"/>
  </g>
</svg>