<?xml version="1.0" encoding="UTF-8"?>
<svg id="Layer_1" data-name="Layer 1" xmlns="http://www.w3.org/2000/svg" width="40" height="90" viewBox="0 0 40 90">
  <g id="_48" data-name="48">
    <path id="root" d="M25.86,37.56c-7.71-2.49-10.59-.18-10.59-.18-2.14,1.11-6.92-.38-11.6-2.96.27.72.45,1.13.45,1.13-1.81,5.02.72,14.77.72,14.77.99,4.07.63,7.5.63,7.5-1.36,3.61-1.9,11.12-1.9,11.12-1.08,5.51.54,7.05.54,7.05.72,2.8,3.8-.45,3.8-.45-.72,3.25,3.43,1.63,3.43,1.63,2.08-.99,15-12.83,15-12.83,6.42-4.34,9.04-23.86,9.04-23.86.06-1.14.24-2.38.45-3.52-6.21,1.89-9.98.61-9.98.61Z" fill="#dcddde" stroke-width="0"/>
    <path id="face" d="M39.07,21.33c.01.21-.03,7.12-2.38,11.85,0,0-.13.44-.29,1.15-.18.7-.39,1.66-.59,2.73-.03.14-.14.26-.28.31-2.3.69-4.52,1.04-6.62,1.04-2.28,0-3.55-.43-3.6-.44-2.34-.75-4.46-1.14-6.28-1.14-2.75,0-3.92.88-3.93.89-.6.33-1.28.46-2.1.46-2.42,0-6.04-1.24-9.94-3.39-.09-.05-.15-.11-.19-.21-1.33-3.55-5.07-15.56,2.68-20.8,0,0,.4-.35,1.04-.84,1.73-1.31,5.07-3.53,7.96-3.53,1.28,0,2.34.43,3.17,1.25.29.31,1.14,1.06,1.84,1.06.25,0,.46-.1.65-.31.03-.03.04-.05.06-.06.18-.14,4.48-3.35,8.72-3.35,2.04,0,3.73.75,5.02,2.24.08.08,2.47,2.44,3.97,5.49.03.03.05.05.05.09.01.02.03.05.04.08.96,2,1.3,3.83,1,5.43Z" fill="#d7f0f5" stroke-width="0"/>
    <path d="M39.1,21.22c.08-.43.1-.87.09-1.31-.06-1.32-.5-2.66-1.1-3.89-.84-.77-1.65-1.43-2.43-1.99,1.22,1.99,2.24,4.45,1.83,6.74,0,0,0,7.05-2.35,11.75,0,0-.67,2.37-1.08,4.97.57-.13,1.16-.28,1.78-.47.4-2.21.92-4.04.92-4.04,2.35-4.7,2.35-11.75,2.35-11.75Z" fill="#fff" stroke-width="0"/>
    <path d="M17.3,14.12s.78,2.41,5.25-1.78c0,0,5.67-5.36,15.54,3.62-1.49-3.06-3.96-5.5-3.96-5.5-4.61-5.33-13.19,1.18-13.19,1.18-1.17,1.36-3.07-.72-3.07-.72-2.94-2.94-8.34.58-10.61,2.31,4.39-1.06,8.6-1.34,10.04.89Z" fill="#a0e1e3" stroke-width="0"/>
    <path d="M23.07,32.91s.17.1.46.27c.15.09.33.2.53.32.2.12.42.27.67.4.24.15.51.28.79.43.15.06.29.13.45.19.16.06.32.11.48.16.17.05.34.08.52.12.18.04.36.05.55.08.18.03.38.02.57.03h.29s.29,0,.29,0c.2-.02.4-.02.59-.04.2-.03.39-.06.59-.08.39-.05.77-.15,1.15-.22.37-.09.73-.19,1.06-.27.34-.09.65-.2.95-.28.29-.09.56-.17.8-.26.24-.08.44-.15.61-.21.34-.12.53-.18.53-.18,0,0-.19.08-.51.23-.16.07-.36.16-.59.26-.23.11-.49.21-.77.32-.29.11-.59.25-.93.36-.33.11-.68.24-1.05.36-.37.1-.75.24-1.16.32-.2.05-.4.09-.61.14-.2.05-.42.07-.62.1l-.31.05-.32.02c-.21,0-.42.04-.64.02-.21-.01-.42,0-.63-.03-.2-.03-.41-.05-.61-.09-.19-.05-.39-.09-.58-.14-.18-.06-.36-.12-.53-.17-.33-.13-.64-.26-.92-.39-.28-.13-.52-.25-.73-.36-.21-.1-.39-.19-.54-.27-.31-.15-.49-.23-.49-.23h0c-.29-.14-.39-.47-.23-.74.17-.27.54-.38.83-.24.02,0,.03.02.05.03Z" fill="#fff" stroke-width="0"/>
    <path d="M18.28,16.74s-.21.7-.53,1.74c-.08.26-.16.54-.24.83-.08.3-.16.61-.23.95-.04.16-.07.33-.1.51-.02.18-.06.34-.08.52-.02.18-.04.36-.06.54l-.03.55c0,.37,0,.73.03,1.09l.02.27c0,.09.02.18.04.26.02.17.05.35.07.52.03.17.07.34.1.5.02.08.03.16.05.24.02.08.04.16.06.23.08.31.14.6.24.85.08.26.16.5.23.71.08.21.14.38.2.53.11.29.17.46.17.46l.03.07c.24.65.2,1.5-.1,1.91-.3.4-.73.2-.98-.45-.02-.05-.04-.11-.05-.16,0,0-.06-.21-.17-.59-.05-.19-.12-.41-.19-.67-.07-.27-.14-.58-.22-.92-.09-.33-.15-.73-.23-1.12-.02-.1-.04-.2-.06-.31-.01-.11-.03-.22-.04-.33-.03-.22-.06-.45-.09-.67-.02-.23-.04-.47-.05-.71,0-.12-.02-.24-.02-.36,0-.12,0-.25,0-.37-.01-.49.02-.98.05-1.46.03-.23.06-.46.09-.69.04-.22.08-.43.12-.65.04-.22.09-.4.14-.6.05-.2.1-.38.15-.55.1-.36.22-.66.32-.96.11-.28.21-.56.31-.79.39-.94.65-1.56.65-1.56h0c.08-.19.23-.2.34-.01.1.17.12.44.07.64Z" fill="#fff" stroke-width="0"/>
    <path d="M11.56,68.49c.22-.33.88-2.91,1.54-1.92.84,1.25-2,3.78-2.7,3.93-.2.03.53-1.12,1.16-2.01Z" fill="#afafaf" stroke-width="0"/>
    <path d="M14.32,63.5s.57-1.17,1.43-2.91c.21-.43.43-.91.67-1.41.22-.51.46-1.04.68-1.61.11-.28.23-.57.33-.87.1-.3.22-.59.31-.91.09-.31.19-.62.28-.94l.24-.96c.13-.66.26-1.3.33-1.95l.07-.48c.02-.16.03-.32.04-.49.02-.32.05-.64.07-.95,0-.31.01-.62.02-.92,0-.15,0-.3.01-.45,0-.15,0-.29,0-.44-.02-.57,0-1.11-.06-1.6-.03-.49-.07-.94-.09-1.34-.05-.39-.08-.74-.12-1.02-.06-.57-.1-.89-.1-.89l-.02-.15c-.14-1.24.23-2.75.83-3.37.6-.62,1.2-.11,1.34,1.13.01.09.02.2.02.29,0,0,.02.4.05,1.11.02.35.04.78.06,1.27,0,.51,0,1.09.01,1.72.02.61-.03,1.35-.05,2.08,0,.19-.01.37-.02.57-.02.2-.03.4-.05.6-.03.4-.07.81-.1,1.23-.05.43-.11.86-.17,1.29-.03.22-.05.44-.09.66-.04.22-.08.44-.12.66-.15.88-.38,1.75-.6,2.59-.13.4-.25.81-.38,1.2-.13.38-.27.75-.41,1.11-.13.37-.29.68-.43,1.02-.14.34-.29.64-.43.92-.28.6-.57,1.1-.83,1.6-.27.47-.52.92-.76,1.3-.93,1.53-1.55,2.56-1.55,2.56h0c-.19.32-.42.27-.52-.09-.09-.34-.03-.84.12-1.16Z" fill="#afafaf" stroke-width="0"/>
    <path id="_Path_" data-name="&amp;lt;Path&amp;gt;" d="M8.95,78c-.72,0-1.25-.21-1.58-.62-.18-.23-.29-.51-.33-.84-.59.48-1.42,1.02-2.18,1.02-.52,0-1.19-.24-1.51-1.34-.35-.43-1.56-2.33-.57-7.32.02-.26.55-7.49,1.9-11.13.04-.43.27-3.63-.63-7.31-.1-.39-2.49-9.74-.76-14.85-.08-.18-.22-.53-.4-1.01-.06-.16-.01-.34.11-.45.13-.11.31-.13.46-.05,3.73,2.06,7.3,3.28,9.56,3.28.69,0,1.24-.11,1.66-.33-.01,0,1.29-1.02,4.36-1.02,1.92,0,4.12.4,6.53,1.18.02,0,1.23.4,3.36.4,2.02,0,4.16-.34,6.38-1.02.13-.04.28,0,.38.08.1.09.15.23.13.37-.24,1.31-.39,2.48-.44,3.47-.11.84-2.72,19.78-9.21,24.17-.48.45-12.94,11.85-15.05,12.86-.07.03-1.15.45-2.16.45ZM7.51,75.17c.06,0,.13.01.19.05.16.08.24.26.2.44-.09.39-.14.93.1,1.23.17.21.49.32.96.32.86,0,1.83-.37,1.84-.38,1.57-.75,10.42-8.67,14.88-12.75,6.24-4.22,8.88-23.42,8.91-23.61.04-.84.16-1.82.34-2.9-2.07.58-4.08.87-5.99.87-2.28,0-3.56-.42-3.62-.44-2.33-.75-4.45-1.13-6.28-1.13-2.75,0-3.92.88-3.93.89-.59.32-1.28.46-2.09.46-2.22,0-5.45-1.04-8.98-2.86.03.06.04.1.04.1.04.09.05.2.01.3-1.74,4.85.71,14.44.73,14.54,1,4.09.66,7.5.64,7.64,0,.03-.01.07-.02.1-1.32,3.52-1.87,10.93-1.87,11-1.02,5.2.41,6.72.42,6.73.05.05.09.12.11.19.22.84.61.84.76.84.8,0,2-1.08,2.36-1.46.08-.08.18-.12.29-.12ZM28.93,38.42h0c-2.28,0-3.56-.42-3.62-.44-2.33-.75-4.45-1.13-6.28-1.13-2.75,0-3.92.88-3.93.89-.59.32-1.28.46-2.09.46-2.42,0-6.05-1.23-9.95-3.38-.08-.05-.15-.12-.18-.21-1.33-3.55-5.07-15.56,2.68-20.8,0,0,.4-.35,1.04-.84.04-.03.1-.06.15-.07,5.6-1.35,9.14-1,10.47,1.06.02.03.03.06.04.09.01.04.17.41.74.41.61,0,1.78-.41,3.86-2.36.07-.07,1.83-1.69,5.07-1.69,3.43,0,7.14,1.79,11.01,5.31.04.03.07.08.09.12.99,2.03,1.34,3.88,1.05,5.5,0,.22-.02,7.12-2.38,11.85h0s-.49,1.77-.87,3.88c-.03.15-.13.27-.28.31-2.29.7-4.52,1.05-6.61,1.05ZM19.03,36.04c1.92,0,4.12.4,6.53,1.18.02,0,1.23.4,3.36.4,1.94,0,4.01-.32,6.15-.95.39-2.07.87-3.76.87-3.78,2.31-4.63,2.33-11.57,2.33-11.64.27-1.5-.05-3.16-.94-5.01-3.7-3.35-7.21-5.05-10.42-5.05-2.93,0-4.51,1.46-4.52,1.48-1.82,1.71-3.31,2.58-4.41,2.58-1.01,0-1.38-.69-1.48-.9-1.12-1.68-4.41-1.92-9.5-.71-.6.46-.96.78-.96.78-7.21,4.88-3.79,16.17-2.47,19.75,3.68,2.01,7.2,3.21,9.43,3.21.69,0,1.24-.11,1.66-.33-.01,0,1.29-1.02,4.36-1.02ZM37.67,16.4c-.1,0-.19-.04-.27-.1-3.72-3.38-7.25-5.1-10.47-5.1-2.93,0-4.51,1.46-4.52,1.48-1.83,1.71-3.31,2.58-4.41,2.58-1.01,0-1.38-.69-1.48-.9-1.13-1.69-4.45-1.93-9.59-.69-.18.04-.37-.05-.46-.22-.08-.17-.03-.38.12-.49,1.73-1.32,5.06-3.53,7.97-3.53,1.27,0,2.34.42,3.17,1.25.28.31,1.13,1.06,1.83,1.06.26,0,.47-.1.65-.32.02-.02.04-.04.06-.06.18-.14,4.48-3.36,8.72-3.36,2.05,0,3.74.75,5.02,2.24.08.08,2.47,2.45,3.97,5.49.06.07.1.16.1.27,0,.22-.2.39-.41.4h0ZM12.44,12.07c2.36,0,3.97.63,4.77,1.87.02.03.03.06.04.09.01.04.17.41.74.41.61,0,1.78-.41,3.86-2.36.07-.07,1.83-1.69,5.07-1.69,2.91,0,6.02,1.29,9.26,3.83-1.31-1.99-2.74-3.41-2.76-3.43-1.15-1.32-2.63-1.98-4.44-1.98-3.8,0-7.82,2.89-8.2,3.17-.33.37-.76.56-1.23.56-1.18,0-2.29-1.18-2.41-1.31-.66-.66-1.54-1-2.59-1-1.96,0-4.19,1.14-5.89,2.24,1.42-.26,2.68-.4,3.77-.4Z" fill="#495059" stroke-width="0"/>
  </g>
</svg>