<?xml version="1.0" encoding="UTF-8"?>
<svg id="Layer_1" data-name="Layer 1" xmlns="http://www.w3.org/2000/svg" width="40" height="90" viewBox="0 0 40 90">
  <g id="A">
    <path id="root" d="M5.24,59.26c3.37-1.91,6.53-1.75,9.67.5l.07.04c4.07,1.75,7.95,1.39,11.52-1.07,2.62-1.41,5.46-1.1,8.64.95.05.13.47-.73.47-.73l-.02-.09c-.21-1.01-.25-2.08-.29-3.12-.02-.32-.03-.63-.05-.95-.12-2.25-.09-4.52.12-6.75.07-.77.16-1.53.24-2.29.18-1.55.36-3.15.38-4.76.06-5.37-1.29-11.1-3.69-15.73-2.12-4.08-4.53-8.32-7.75-11.66-.32-.34-1.45-1.41-2.54-1.31-.42.04-.99.27-1.31,1.18-.08.2-.12.41-.15.64-.53-1.09-1.27-2.02-2.15-2.69-.8-.6-1.4-.77-1.84-.5-.59.35-.72,1.35-.42,3.21.49,6.57-.57,11.47-3.15,14.57l-.47-9.99c-.04-1.01-.09-2.05-.41-3.06-.31-1.02-1.72-3.45-3.23-3.13-.96.2-1.62,1.88-2.33,3.9-.14.39-.26.74-.35.95-1.87,4.24-3.8,8.62-4.67,13.28-.84,4.51-.74,9.41.32,15.4.45,2.58,1.02,5.17,1.57,7.68.39,1.77.79,3.61,1.14,5.41,0,.04.68.26.68.12Z" fill="#fff" stroke-width="0"/>
    <path id="face" d="M4.57,59.26c-.14.49-.38,1.23-.73,2.13-.19.48-.35.81-.39.92-.5,1.49-.96,3.01-1.38,4.52-.54,1.92-1.02,3.89-1.42,5.84-.06.28-.13.57-.2.85-.33,1.46-.68,2.98-.23,4.47.71,2.46,3.71,5.01,6.66,4.74.21-.02.43-.05.63-.1.16.36.31.72.46,1.09.59,1.5,1.22,3.04,2.73,4.06,1.44.97,3.53.96,4.68-.09.11-.11.21-.22.3-.33,1.29,1.27,2.77,1.85,4.43,1.69,1.32-.12,2.75-.7,4.28-1.75.26.21.52.43.79.65.68.59,1.39,1.19,2.16,1.6.69.37,1.51.51,2.46.42,1.87-.17,3.77-1.21,4.82-2.05,1.78-1.41,3.17-3.45,4.12-6.06,1.29-3.55,1.6-7.61.89-11.75-.45-2.63-1.32-5.33-2.58-8.03-.16-.35-.34-.68-.51-1.02-.04-.08-.09-.16-.13-.24-.37-.15-.73-.49-1.1-.77-.05-.13-.11-.25-.16-.38-3.18-2.05-6.02-2.36-8.64-.95-3.57,2.46-7.45,2.82-11.52,1.07l-.07-.04c-.86-.65-2.52-1.68-4.71-1.81-1.41-.08-2.63.23-3.26.4-1,.27-1.8.62-2.37.91Z" fill="#d7e9f4" stroke-width="0"/>
    <path id="_Path_" data-name="&amp;lt;Path&amp;gt;" d="M16.8,14.05c.54,7.25-.69,12.35-3.77,15.58l.52,11.05c.01.32.02.64.03.96.06,1.82.13,3.69.89,5.29.43.89,1.2,1.76,2.01,1.72,1.07-.1,2.16-1.65,2.58-2.46.54-1.02.84-2.19,1.14-3.31l.18-.66c.28-1.04.62-2.08.93-3.1.79-2.5,1.61-5.08,1.78-7.71.21-3.18-.52-6.35-1.21-9.43-.2-.85-.39-1.7-.56-2.55-.06-.3-.15-.65-.24-1.03-.21-.87-.44-1.85-.55-2.78l-.54-1.16c-.49-1.04-1.19-1.92-2.01-2.55-.76-.58-1.03-.5-1.1-.46-.08.05-.45.39-.1,2.57ZM16.06,86.82c2.1,2.13,4.67,2.13,7.85,0-2.04-2.44-3.8-3.67-5.09-3.55-.72.07-1.3.55-1.79,1.48-.13.28-.26.56-.38.84-.18.41-.36.83-.59,1.22ZM2.51,45.93c.45,2.56,1.02,5.14,1.56,7.65.36,1.63.72,3.32,1.06,4.99,3.49-1.9,6.9-1.69,10.15.63,3.83,1.64,7.49,1.29,10.89-1.04,2.67-1.44,5.61-1.24,8.75.59-.18-.99-.23-2-.27-2.98-.02-.32-.03-.63-.04-.95-.13-2.28-.09-4.59.12-6.85.07-.77.16-1.53.25-2.3.18-1.54.36-3.12.37-4.68.06-5.27-1.27-10.88-3.62-15.42-2.1-4.04-4.47-8.23-7.64-11.51-.57-.6-1.41-1.17-2-1.11-.13.01-.5.05-.76.74-.41,1.13.07,3.13.43,4.59.09.38.17.74.24,1.04.18.84.36,1.69.56,2.53.71,3.12,1.45,6.35,1.22,9.63-.18,2.71-1.01,5.32-1.8,7.86-.32,1.01-.65,2.05-.93,3.08l-.18.66c-.31,1.16-.63,2.36-1.2,3.44-.14.27-1.44,2.66-3.11,2.81h-.09c-1.13.05-2.07-1.05-2.58-2.1-.83-1.72-.9-3.67-.96-5.55-.01-.32-.02-.64-.03-.96l-1.03-21.98c-.04-.97-.09-1.97-.38-2.89-.31-1-1.52-2.88-2.46-2.68-.67.14-1.46,2.39-1.83,3.47-.15.42-.27.77-.37,1-1.85,4.2-3.77,8.55-4.63,13.13-.82,4.43-.72,9.26.32,15.17ZM.64,72.68c.41-1.95.89-3.92,1.42-5.85.42-1.51.88-3.03,1.38-4.51.08-.24.22-.55.39-.92.33-.71.82-1.79.73-2.25-.36-1.8-.75-3.64-1.14-5.41-.55-2.51-1.12-5.1-1.57-7.68-1.06-5.99-1.16-10.88-.32-15.39.87-4.66,2.8-9.04,4.67-13.28.09-.21.21-.55.35-.95.71-2.01,1.37-3.7,2.33-3.9,1.51-.32,2.92,2.11,3.24,3.13.31,1.01.36,2.05.41,3.06l.47,9.98c2.59-3.09,3.64-7.99,3.15-14.56-.3-1.86-.17-2.86.42-3.21.45-.27,1.04-.1,1.84.5.88.67,1.62,1.6,2.15,2.69.03-.23.08-.44.15-.64.33-.91.9-1.14,1.32-1.18,1.09-.1,2.22.98,2.54,1.31,3.22,3.35,5.63,7.58,7.75,11.67,2.4,4.62,3.75,10.36,3.69,15.73-.02,1.6-.2,3.2-.38,4.76-.08.76-.17,1.52-.24,2.28-.2,2.23-.24,4.51-.11,6.75.02.32.03.63.05.95.04,1.04.09,2.11.3,3.12l.02.09c.17.73.53,1.4.91,2.12.18.33.36.67.52,1.01,1.26,2.71,2.12,5.41,2.58,8.03.72,4.15.41,8.21-.89,11.75-.95,2.61-2.34,4.65-4.12,6.07-1.05.83-2.95,1.87-4.83,2.05-.94.09-1.77-.05-2.46-.42-.77-.41-1.47-1.02-2.16-1.6-.27-.23-.52-.44-.79-.65-1.53,1.04-2.96,1.63-4.28,1.75-1.65.15-3.13-.42-4.43-1.7-.09.11-.19.23-.29.33-1.15,1.05-3.24,1.07-4.68.1-1.51-1.02-2.14-2.56-2.73-4.06-.15-.37-.3-.74-.46-1.1-.2.05-.42.08-.63.1-2.95.27-5.95-2.28-6.66-4.74-.45-1.49-.1-3,.24-4.47.07-.28.13-.56.19-.84ZM2.71,67.01c-.53,1.91-1.01,3.87-1.42,5.81-.06.28-.13.56-.19.85-.32,1.38-.65,2.81-.25,4.13.63,2.18,3.37,4.51,5.96,4.27.23-.02.46-.07.68-.13-.37-2.24-2.37-4.06-2.57-4.17l-.65-.5.88.53c.47.07,3.04,2.04,3.06,4.81.12.29.24.58.36.87.59,1.47,1.15,2.85,2.49,3.76,1.2.8,2.93.81,3.86-.03.52-.48.81-1.15,1.11-1.86.13-.3.26-.6.4-.88.59-1.14,1.36-1.76,2.32-1.85,1.59-.15,3.57,1.22,5.88,4.05.32.25.64.52.97.8.66.56,1.34,1.14,2.04,1.51.57.31,1.27.42,2.08.35,1.73-.16,3.5-1.13,4.48-1.91,1.68-1.33,2.99-3.27,3.91-5.77,1.26-3.43,1.55-7.38.86-11.41-.45-2.56-1.29-5.21-2.53-7.86-.15-.33-.32-.66-.5-.98-.29-.55-.59-1.11-.79-1.7-3.19-2.06-6.03-2.36-8.64-.96-3.58,2.46-7.46,2.82-11.53,1.07l-.06-.04c-3.14-2.26-6.3-2.42-9.68-.5,0,.67-.42,1.59-.79,2.41-.15.33-.3.65-.37.85-.49,1.47-.95,2.99-1.37,4.48Z" fill="#495059" stroke-width="0"/>
  </g>
</svg>