<?xml version="1.0" encoding="UTF-8"?>
<svg id="Layer_1" data-name="Layer 1" xmlns="http://www.w3.org/2000/svg" width="40" height="90" viewBox="0 0 40 90">
  <g id="B">
    <path id="root" d="M5.48,58.32c3.49,2.01,6.68,2,9.79-.05,1.41-.61,2.87-.89,4.42-.82,1.83.08,3.78.65,5.87,1.72,2.81,1.99,6.29,2.72,10.34,2.18l.6.37s0,.03,0,.05c0-.02,0-.04,0-.06,1.32-7.04,1.6-13.29.84-19.11-.84-6.49-2.19-12.96-4-19.25l-.15-.54c-.39-1.44-.95-3.41-1.87-4.43-.9-1.01-2-2.05-3.23-2.1-.16,0-.32,0-.48.03-1.73.3-2.37,2.52-2.48,3.78-.1,1.09.05,2.19.2,3.24l.08.63c.9,7.08-.11,13.4-3.01,18.79-.18.35-.4.7-.71.82-.37.15-.87-.07-1.38-.56-2.33-2.27-2.05-5.86-1.81-9.02l.04-.43c.31-4.14.94-8.29,1.89-12.33.1-.4.19-.8.29-1.19.39-1.63.8-3.31.99-5.02l.05-.43c.15-1.2.31-2.56-.29-3.68-.34-.66-.88-1.02-1.54-1.05-1.02-.05-2.09.7-2.62,1.15-8.82,7.35-10.91,18.49-11.85,29.43-.45,5.2-.65,10.93-.64,18-1.52,3-2.42,6.15-2.72,9.44.3-3.28,1.2-6.43,2.71-9.41l.67-.15Z" fill="#fff" stroke-width="0"/>
    <path id="face" d="M37.92,69.64c-.07-1.33-.14-2.84-.37-4.32-.12-.78-.25-1.53-.48-2.24-.05-.14-.14-.33-.24-.53-.12-.23-.31-.6-.32-.79,0-.01,0-.03,0-.05l-.6-.37c-4.05.54-7.53-.19-10.34-2.18-2.09-1.07-4.04-1.64-5.87-1.72-1.55-.07-3.01.21-4.42.82-3.11,2.05-6.3,2.06-9.79.05l-.67.15c-1.51,2.99-2.41,6.13-2.71,9.41-.03.38-.06.77-.08,1.16,0,.02,0,.05,0,.07-.13,2.91.21,5.91,1.02,9.01.86,3.27,3.19,7.02,7.16,7.74,1.87.34,3.79.07,5.4-.76,1.81-.93,3.94-1.88,6.07-1.79.39.02.78.08,1.15.17.67.15,1.3.42,1.97.7.7.3,1.44.61,2.22.77,1.56.33,3.36.04,5.1-.8,2.09-1.01,3.5-2.02,4.2-3.03.64-.91.96-2.2,1.22-3.46.55-2.73.51-5.46.39-8.01Z" fill="#d7e9f4" stroke-width="0"/>
    <path d="M24.9,79.32c2.07.66,4.48.31,6.71-.95l-.34.27c-.17.13-.35.25-.54.34-2.4,1.18-4.23,1.68-6.47.81l-.06-.04c-2.37-1.65-4.48-1.44-6.87.73-3.06,2.24-5.75,2.01-9.01-.24l1.21.51c2.93.89,4.76,1.14,7.38-.78,2.44-2.22,4.84-2.55,7.3-1,.22.14.44.27.69.34Z" fill="#495059" stroke-width="0"/>
    <path id="_Path_" data-name="&amp;lt;Path&amp;gt;" d="M36.7,42.68c-.84-6.46-2.18-12.91-3.98-19.16l-.16-.54c-.38-1.38-.9-3.26-1.72-4.17s-1.79-1.84-2.78-1.89c-.11,0-.23,0-.34.03-1.34.23-1.86,2.19-1.94,3.19-.09,1.02.06,2.08.2,3.1l.09.63c.92,7.22-.12,13.68-3.08,19.18-.24.44-.54.93-1.06,1.12-.17.06-.35.1-.54.09-.62-.03-1.17-.45-1.53-.79-2.55-2.48-2.25-6.4-2-9.54l.03-.42c.32-4.18.96-8.36,1.91-12.43.1-.4.19-.8.29-1.2.39-1.61.79-3.27.98-4.93l.05-.44c.13-1.1.28-2.35-.22-3.3-.24-.45-.56-.68-.99-.7-.83-.04-1.8.69-2.18,1-8.63,7.19-10.68,18.19-11.61,28.99-.44,5.15-.64,10.82-.63,17.82,3.49,2.01,6.69,2,9.79-.05,1.41-.62,2.87-.89,4.42-.82,1.83.08,3.78.65,5.87,1.72,2.81,1.99,6.29,2.72,10.33,2.18,1.27-6.87,1.53-12.98.79-18.66ZM37.92,69.65c.12,2.55.16,5.28-.39,8.01-.26,1.26-.58,2.55-1.22,3.46-.7,1.01-2.12,2.03-4.21,3.03-1.74.84-3.54,1.13-5.09.8-.78-.16-1.52-.47-2.23-.77-.67-.28-1.3-.55-1.96-.7-.37-.09-.76-.14-1.15-.16-2.12-.1-4.26.85-6.07,1.79-1.61.83-3.53,1.1-5.4.76-3.97-.72-6.3-4.47-7.15-7.74-1.85-7.07-1.25-13.69,1.78-19.68-.02-7.07.18-12.79.63-17.99.94-10.94,3.04-22.09,11.85-29.43.54-.45,1.6-1.2,2.63-1.16.66.03,1.2.39,1.54,1.05.6,1.13.43,2.49.29,3.68l-.05.44c-.19,1.71-.6,3.38-.99,5.01l-.29,1.2c-.95,4.04-1.58,8.19-1.9,12.33l-.03.43c-.25,3.16-.52,6.75,1.81,9.02.51.49,1,.71,1.38.56.31-.12.53-.47.71-.82,2.9-5.39,3.91-11.71,3.01-18.79l-.08-.63c-.14-1.05-.29-2.15-.2-3.24.11-1.26.75-3.48,2.48-3.78.16-.03.32-.04.48-.03,1.23.06,2.33,1.09,3.23,2.1.92,1.02,1.48,3,1.87,4.43l.15.54c1.81,6.29,3.15,12.77,4,19.26.76,5.81.49,12.07-.84,19.1-.03.17.2.6.33.86.1.2.19.38.24.52.23.71.36,1.47.48,2.25.23,1.48.3,2.98.37,4.32ZM36.89,77.53c.54-2.66.5-5.35.38-7.85-.06-1.32-.13-2.81-.36-4.25-.12-.78-.24-1.48-.46-2.14-.04-.12-.12-.26-.2-.43-.14-.28-.29-.57-.36-.86-4.17.54-7.78-.23-10.66-2.28-3.63-1.85-6.8-2.13-9.64-.88-3.2,2.12-6.66,2.16-10.28.13-2.85,5.78-3.4,12.16-1.62,18.98.8,3.07,2.97,6.59,6.64,7.26.37.06.75.11,1.12.13,1.37.06,2.7-.23,3.86-.82,1.89-.98,4.13-1.97,6.41-1.86.43.02.86.08,1.27.18.72.17,1.41.46,2.07.74.71.3,1.39.59,2.1.73,1.42.29,3.07.03,4.68-.75,1.99-.96,3.32-1.91,3.95-2.82.57-.81.87-2.02,1.11-3.21Z" fill="#495059" stroke-width="0"/>
  </g>
</svg>