<?xml version="1.0" encoding="UTF-8"?>
<svg id="Layer_1" data-name="Layer 1" xmlns="http://www.w3.org/2000/svg" width="40" height="90" viewBox="0 0 40 90">
  <g id="C">
    <path id="root" d="M30.27,65.59c-.56-.28-1.03-.45-1.46-.59-.82-.28-1.46-.5-2.26-1.4-1.49-1.68-3.04-3.22-5.69-3.48-1.38-.14-2.82.1-4.05.67-.36.17-.69.37-1.01.57-.64.38-1.24.75-1.98.82-.25.02-1.93,0-2.54-.04,2.15-10.08,4.35-20.5,4.16-31.06-.03-1.83-.13-3.68-.23-5.47-.11-1.9-.21-3.87-.24-5.8-.05-4.2.53-8.4,1.42-13.43.08-.42.18-.83.47-.97.4-.19.93.26,1.26.71,1.41,1.92,2.26,4.22,2.53,6.84.23,2.3.79,4.8,1.74,7.87.85,2.7,1.97,5.35,3.06,7.91.63,1.47,1.28,3,1.86,4.52.95,2.46,2.24,6.18,2.51,10.05.1,1.42.16,2.87.21,4.27.05,1.21.1,2.43.17,3.64l.06,9.13h-.06l.07,5.25Z" fill="#fff" stroke-width="0"/>
    <path id="face" d="M31.97,75.28c.52,3.01.28,5.36-.74,7.21-1.09,1.96-3.07,3.3-4.82,4.49-1.13.76-2.38,1.22-3.72,1.71-.37.13-.74.27-1.1.41-1.43.55-2.68.26-3.9-.03-.15-.04-.59-.36-.8-.51-.11-.08-.2-.15-.27-.19-.8-.52-1.47-.94-2.12-1.33l-.46-.27c-1.25-.73-2.55-1.48-3.66-2.44-2.16-1.87-2.9-4.1-2.53-7.7l.34-3.36c.18-1.76.56-3.49,1.13-5.17l2.02-5.92c.85.13,2.62.07,2.64.07.87-.09,1.54-.5,2.19-.89.31-.19.62-.38.94-.52,1.11-.52,2.41-.74,3.66-.61,2.38.25,3.76,1.6,5.2,3.22.89,1,1.62,1.25,2.47,1.54.47.16.96.33,1.55.65.25,1.27.52,2.54.79,3.81.41,1.91.83,3.9,1.17,5.84Z" fill="#d7e9f4" stroke-width="0"/>
    <path id="_Path_" data-name="&amp;lt;Path&amp;gt;" d="M13.94,61.66c.73-.07,1.31-.43,1.94-.81.32-.19.64-.39.99-.56,1.21-.56,2.62-.8,3.97-.66,2.6.26,4.12,1.77,5.58,3.42.79.88,1.42,1.1,2.22,1.37.42.14.89.31,1.43.58l-.07-5.14h.05l-.05-8.95c-.07-1.19-.12-2.38-.17-3.57-.05-1.37-.11-2.79-.21-4.18-.26-3.8-1.53-7.45-2.46-9.86-.57-1.49-1.21-2.98-1.83-4.43-1.07-2.51-2.17-5.11-3-7.76-.93-3.01-1.48-5.46-1.71-7.71-.27-2.57-1.1-4.83-2.48-6.71-.33-.44-.85-.88-1.24-.69-.28.14-.38.54-.46.95-.87,4.93-1.44,9.06-1.39,13.17.03,1.89.13,3.82.23,5.68.09,1.76.19,3.57.22,5.37.18,10.35-1.97,20.57-4.08,30.45.59.04,2.24.07,2.49.04ZM7.61,73.21c.19-1.8.57-3.58,1.16-5.3l1.97-5.77h0s.07-.31.07-.31c2.12-9.96,4.32-20.26,4.14-30.66-.03-1.78-.13-3.59-.22-5.34-.1-1.87-.21-3.8-.23-5.71-.05-4.16.52-8.32,1.4-13.28.06-.35.19-1.1.79-1.39.61-.3,1.35.03,1.97.88,1.45,1.97,2.32,4.32,2.59,6.99.23,2.21.76,4.63,1.69,7.6.81,2.63,1.91,5.21,2.97,7.7.62,1.45,1.26,2.95,1.84,4.45.94,2.44,2.23,6.15,2.5,10.03.1,1.4.15,2.82.21,4.2.05,1.19.1,2.37.17,3.57l.08,13.43h-.02l.02,1.66c.22,1.12.46,2.23.7,3.34.41,1.92.83,3.91,1.17,5.87.55,3.14.28,5.62-.81,7.59-1.15,2.08-3.2,3.47-5,4.69-1.19.81-2.54,1.3-3.85,1.77-.37.14-.73.27-1.1.41-.67.26-1.29.35-1.89.35-.85,0-1.63-.19-2.36-.35-.25-.06-.59-.3-1.01-.61-.1-.08-.19-.14-.24-.17-.79-.52-1.45-.93-2.09-1.31l-.46-.27c-1.28-.74-2.6-1.51-3.75-2.5-2.89-2.49-3.02-5.42-2.73-8.21l.34-3.36ZM9.33,68.11c-.57,1.67-.95,3.41-1.13,5.17l-.34,3.36c-.37,3.6.37,5.83,2.53,7.7,1.11.95,2.41,1.71,3.66,2.44l.46.27c.65.38,1.32.8,2.12,1.33.07.04.16.11.27.19.21.15.65.47.8.51,1.22.28,2.47.58,3.9.03.37-.14.74-.28,1.1-.41,1.34-.49,2.59-.94,3.72-1.71,1.75-1.19,3.73-2.53,4.82-4.49,1.02-1.84,1.26-4.2.74-7.21-.34-1.95-.76-3.93-1.17-5.84-.27-1.27-.54-2.54-.79-3.81-.59-.32-1.08-.49-1.55-.65-.85-.29-1.58-.53-2.47-1.54-1.43-1.61-2.81-2.97-5.2-3.22-1.24-.13-2.55.09-3.66.61-.33.15-.64.34-.94.52-.65.4-1.33.81-2.19.89-.02,0-1.79.06-2.64-.07l-2.02,5.92Z" fill="#495059" stroke-width="0"/>
  </g>
</svg>