<?xml version="1.0" encoding="UTF-8"?>
<svg id="Layer_1" data-name="Layer 1" xmlns="http://www.w3.org/2000/svg" width="40" height="90" viewBox="0 0 40 90">
  <g id="D">
    <path id="root" d="M11.25,62.74c.12-1.18.2-2.38.28-3.55.05-.91.11-1.82.19-2.72.08-.94.19-1.91.3-2.85.22-1.91.45-3.9.45-5.82.41-4.72.83-9.63,1.13-14.48.28-4.51.4-8.29.09-12.13-.04-.48-.14-.99-.24-1.54-.22-1.16-.44-2.37-.12-3.26.26-.72.69-1.09,1.28-1.09.34,0,.74.13,1.15.37,2.93,1.72,4.84,5.65,5.85,11.99.33,2.11.51,4.28.69,6.38.17,2.09.35,4.26.68,6.37.47,2.97,1.25,5.92,2,8.78.46,1.75.93,3.55,1.33,5.34.5,2.24.94,4.7,1.37,7.77.03.23.08.46.11.69-.15-.16-2.14-.87-2.39-1-.67-.36-1.39-.77-1.96-1.28-1.25-1.12-2.28-2.31-3.99-2.74-1.55-.39-2.76.14-3.93,1.13,0,0-4.26,3.63-4.26,3.63Z" fill="#fff" stroke-width="0"/>
    <path id="face" d="M30.96,83.49c.22,1.91.5,4.29-.45,5.35-.4.45-1,.63-1.85.55-.08-.01-16.16-1.68-17.12-1.78-2.08-.89-2.95-2.73-2.66-5.63.07-5.61,1-10.85,1.98-16.4l.08-.43c.09-.51.16-1.03.22-1.54l4.76-4.06c1.34-1.33,2.91-1.47,4.81-.41.39.22.73.51,1.04.83,1.62,1.71,3.68,2.96,6.14,3.72.02.13.04.27.06.4.23,1.34.56,2.66.87,3.94.35,1.43.7,2.91.94,4.4.5,3.17.85,6.41,1.05,9.61.03.43.08.93.14,1.46Z" fill="#d7e9f4" stroke-width="0"/>
    <path id="_Path_" data-name="&amp;lt;Path&amp;gt;" d="M11.72,56.47c-.08.9-.14,1.81-.19,2.72-.08,1.17-.16,2.37-.28,3.55,0,0,4.26-3.63,4.26-3.63,1.17-.99,2.38-1.52,3.93-1.13,1.71.43,2.74,1.63,3.99,2.74.57.51,1.29.92,1.96,1.28.25.14,2.25.85,2.39,1-.03-.23-.08-.45-.11-.69-.44-3.07-.87-5.53-1.37-7.77-.4-1.79-.87-3.6-1.33-5.34-.75-2.85-1.53-5.8-2-8.78-.33-2.12-.51-4.28-.68-6.37-.17-2.1-.35-4.27-.69-6.38-1-6.34-2.92-10.27-5.85-11.99-.41-.24-.81-.37-1.15-.37-.59,0-1.02.37-1.28,1.09-.32.89-.1,2.1.12,3.26.1.55.2,1.06.24,1.54.31,3.84.19,7.62-.09,12.13-.3,4.84-.73,9.75-1.13,14.48,0,1.93-.23,3.91-.45,5.82-.11.94-.22,1.91-.3,2.85ZM11.35,88.17c-2.35-.99-3.37-3.09-3.06-6.23.07-5.63,1-10.89,1.99-16.47l.08-.43c.34-1.91.46-3.93.59-5.88.05-.92.11-1.84.19-2.74.08-.95.2-1.92.31-2.86.22-1.9.44-3.87.44-5.78.41-4.75.83-9.65,1.13-14.49.28-4.48.4-8.24.09-12.05-.04-.44-.13-.94-.23-1.47-.22-1.18-.47-2.53-.1-3.57.53-1.47,1.84-1.88,3.29-1.03,3.09,1.82,5.1,5.88,6.13,12.41.34,2.13.52,4.32.7,6.42.17,2.08.35,4.24.68,6.33.46,2.94,1.24,5.88,1.99,8.72.46,1.75.94,3.56,1.34,5.36.5,2.25.94,4.74,1.38,7.82.09.59.18,1.18.28,1.75.23,1.32.55,2.63.86,3.91.35,1.45.71,2.94.95,4.45.5,3.2.86,6.45,1.05,9.67.02.42.08.91.14,1.43.23,2.02.53,4.55-.6,5.82-.45.51-1.09.76-1.9.76-.15,0-.29-.01-.45-.03-.08,0-17.17-1.78-17.17-1.78l-.08-.02ZM10.86,65.57c-.98,5.55-1.91,10.8-1.98,16.4-.29,2.9.58,4.74,2.66,5.63.95.1,17.04,1.77,17.12,1.78.85.09,1.45-.09,1.85-.55.94-1.06.67-3.44.45-5.35-.06-.53-.11-1.03-.14-1.46-.2-3.2-.55-6.44-1.05-9.61-.23-1.48-.59-2.97-.94-4.4-.31-1.28-.63-2.61-.87-3.94-.02-.13-.04-.27-.06-.4-2.46-.76-4.52-2-6.14-3.72-.31-.32-.65-.61-1.04-.83-1.9-1.06-3.47-.92-4.81.41l-4.76,4.06c-.06.51-.14,1.03-.22,1.54l-.08.43Z" fill="#495059" stroke-width="0"/>
  </g>
</svg>