<?xml version="1.0" encoding="UTF-8"?>
<svg id="Layer_1" data-name="Layer 1" xmlns="http://www.w3.org/2000/svg" width="40" height="90" viewBox="0 0 40 90">
  <g id="E">
    <path id="root" d="M9.47,60.5c-.34.09-.69.19-1.03.33,1.17-5.54,1.71-11.28,2.23-16.82.19-2.02.39-4.12.61-6.17.22-2,.42-4.01.62-6.03,1.01-10.01,2.05-20.36,5.26-30.03.15-.47.34-.94.71-1.12.1-.04.21-.07.33-.07.28,0,.58.12.82.34,1.43,1.31,1.51,3.38,1.57,5.37.02.6.04,1.15.1,1.69.27,2.65.78,5.3,1.5,7.85.49,1.79,1.11,3.56,1.71,5.28.72,2.08,1.47,4.23,2.01,6.41l.42,1.66c.82,3.25,1.66,6.62,2.23,9.94.97,5.6,1.33,11.37,1.68,16.95l.08,1.28c.03.47.05.95.07,1.43.04,1.06.1,2.15.24,3.2.01.08.03.17.04.26-1.75-1.42-3.15-3.13-4.62-4.95-.55-.68-1.1-1.35-1.67-2.02-1.92-2.24-5.19-1.65-7.43-.16-.96.64-1.8,1.43-2.63,2.19-.48.44-.98.9-1.5,1.32-.84.69-1.61,1.19-2.37,1.52-.3.13-.63.22-.98.31Z" fill="#fff" stroke-width="0"/>
    <path id="face" d="M30.81,63.11c1.44,6.72,3.21,15.05,2.48,22.8-.2,2.14-1.19,3.23-3.02,3.33-1.65.09-3.33.13-5.13.13-2.64,0-5.44-.1-8.8-.3-1.26-.08-2.34-.32-3.49-.58-.89-.2-1.82-.4-2.85-.53-1.41-.17-2.55-1.26-3.05-2.91-.26-.86-.25-1.76-.24-2.71,0-.48.01-.98-.02-1.47-.41-6.15.06-11.79,1.6-19.27.38-.26.85-.39,1.34-.52.35-.09.72-.19,1.07-.34.81-.36,1.63-.88,2.51-1.61.52-.43,1.03-.9,1.52-1.35.8-.74,1.64-1.51,2.56-2.12,2.01-1.34,4.94-1.91,6.62.05.56.66,1.11,1.33,1.65,2,1.55,1.92,3.16,3.91,5.2,5.44l.04-.04Z" fill="#d7e9f4" stroke-width="0"/>
    <path id="_Path_" data-name="&amp;lt;Path&amp;gt;" d="M17.16,1.8c-3.21,9.67-4.25,20.02-5.26,30.03-.2,2.01-.4,4.03-.62,6.03-.22,2.05-.42,4.14-.61,6.17-.52,5.54-1.06,11.28-2.23,16.82.34-.15.69-.24,1.03-.33.35-.1.67-.18.98-.31.76-.34,1.53-.83,2.37-1.52.51-.42,1.01-.88,1.5-1.32.83-.76,1.68-1.55,2.63-2.19,2.23-1.49,5.5-2.07,7.43.16.57.66,1.12,1.34,1.67,2.02,1.47,1.82,2.87,3.53,4.62,4.95-.02-.09-.03-.18-.04-.26-.15-1.06-.2-2.15-.24-3.2-.02-.48-.04-.96-.07-1.43l-.08-1.28c-.35-5.58-.71-11.36-1.68-16.95-.57-3.32-1.42-6.69-2.23-9.94l-.42-1.66c-.54-2.18-1.29-4.33-2.01-6.41-.6-1.72-1.21-3.49-1.71-5.28-.72-2.56-1.23-5.21-1.5-7.85-.05-.54-.07-1.1-.1-1.69-.07-2-.15-4.06-1.57-5.37-.24-.22-.54-.34-.82-.34-.12,0-.23.02-.33.07-.37.18-.56.65-.71,1.12ZM9.63,61.09c-.49.13-.96.26-1.34.52-1.55,7.48-2.01,13.12-1.6,19.27.03.49.03.98.02,1.47-.01.95-.02,1.85.24,2.71.49,1.65,1.64,2.74,3.05,2.91,1.03.13,1.96.34,2.85.53,1.15.26,2.23.5,3.49.58,3.36.2,6.16.3,8.8.3,1.8,0,3.49-.04,5.13-.13,1.83-.1,2.82-1.19,3.02-3.33.73-7.75-1.04-16.08-2.48-22.8l-.04.04c-2.04-1.53-3.65-3.51-5.2-5.44-.55-.67-1.09-1.34-1.65-2-1.68-1.96-4.61-1.39-6.62-.05-.92.61-1.75,1.38-2.56,2.12-.49.45-1,.92-1.52,1.35-.88.73-1.7,1.25-2.51,1.61-.35.15-.71.25-1.07.34ZM7.84,60.73c1.17-5.51,1.7-11.24,2.23-16.77.19-2.03.38-4.12.61-6.18.22-2,.42-4.01.62-6.02,1.01-10.04,2.05-20.42,5.28-30.15.19-.57.44-1.19,1.02-1.48.55-.26,1.31-.1,1.83.37,1.62,1.48,1.7,3.78,1.77,5.81.02.58.04,1.13.1,1.65.26,2.61.76,5.22,1.47,7.75.49,1.77,1.11,3.53,1.7,5.24.73,2.1,1.48,4.26,2.02,6.46l.42,1.66c.82,3.27,1.67,6.64,2.24,9.98.97,5.63,1.33,11.42,1.68,17.02l.08,1.28c.03.48.05.96.07,1.44.04,1.04.1,2.12.24,3.15.04.3.1.61.16.92,1.45,6.79,3.26,15.23,2.52,23.12-.23,2.46-1.44,3.77-3.6,3.89-1.66.09-3.35.14-5.17.14-2.65,0-5.46-.1-8.84-.3-1.32-.08-2.47-.34-3.59-.59-.88-.2-1.79-.4-2.79-.52-1.66-.2-2.99-1.46-3.56-3.35-.29-.95-.28-1.94-.26-2.9,0-.47.01-.95-.02-1.42-.43-6.42.08-12.27,1.77-20.19Z" fill="#495059" stroke-width="0"/>
  </g>
</svg>