<?xml version="1.0" encoding="UTF-8"?>
<svg id="Layer_1" data-name="Layer 1" xmlns="http://www.w3.org/2000/svg" width="40" height="90" viewBox="0 0 40 90">
  <g id="F">
    <path id="root" d="M30.53,60.5c.34.09.69.19,1.03.33-1.17-5.54-1.71-11.28-2.23-16.82-.19-2.02-.39-4.12-.61-6.17-.22-2-.42-4.01-.62-6.03-1.01-10.01-2.05-20.36-5.26-30.03-.15-.47-.34-.94-.71-1.12-.1-.04-.21-.07-.33-.07-.28,0-.58.12-.82.34-1.43,1.31-1.51,3.38-1.57,5.37-.02.6-.04,1.15-.1,1.69-.27,2.65-.78,5.3-1.5,7.85-.49,1.79-1.11,3.56-1.71,5.28-.72,2.08-1.47,4.23-2.01,6.41l-.42,1.66c-.82,3.25-1.66,6.62-2.23,9.94-.97,5.6-1.33,11.37-1.68,16.95l-.08,1.28c-.03.47-.05.95-.07,1.43-.04,1.06-.1,2.15-.24,3.2-.01.08-.03.17-.04.26,1.75-1.42,3.15-3.13,4.62-4.95.55-.68,1.1-1.35,1.67-2.02,1.92-2.24,5.19-1.65,7.43-.16.96.64,1.8,1.43,2.63,2.19.48.44.98.9,1.5,1.32.84.69,1.61,1.19,2.37,1.52.3.13.63.22.98.31Z" fill="#fff" stroke-width="0"/>
    <path id="face" d="M9.19,63.11c-1.44,6.72-3.21,15.05-2.48,22.8.2,2.14,1.19,3.23,3.02,3.33,1.65.09,3.33.13,5.13.13,2.64,0,5.44-.1,8.8-.3,1.26-.08,2.34-.32,3.49-.58.89-.2,1.82-.4,2.85-.53,1.41-.17,2.55-1.26,3.05-2.91.26-.86.25-1.76.24-2.71,0-.48-.01-.98.02-1.47.41-6.15-.06-11.79-1.6-19.27-.38-.26-.85-.39-1.34-.52-.35-.09-.72-.19-1.07-.34-.81-.36-1.63-.88-2.51-1.61-.52-.43-1.03-.9-1.52-1.35-.8-.74-1.64-1.51-2.56-2.12-2.01-1.34-4.94-1.91-6.62.05-.56.66-1.11,1.33-1.65,2-1.55,1.92-3.16,3.91-5.2,5.44l-.04-.04Z" fill="#d7e9f4" stroke-width="0"/>
    <path id="_Path_" data-name="&amp;lt;Path&amp;gt;" d="M22.13.68c-.1-.04-.21-.07-.33-.07-.28,0-.58.12-.82.34-1.43,1.31-1.51,3.38-1.57,5.37-.02.6-.04,1.15-.1,1.69-.27,2.65-.78,5.3-1.5,7.85-.49,1.79-1.11,3.56-1.71,5.28-.72,2.08-1.47,4.23-2.01,6.41l-.42,1.66c-.82,3.25-1.66,6.62-2.23,9.94-.97,5.6-1.33,11.37-1.68,16.95l-.08,1.28c-.03.47-.05.95-.07,1.43-.04,1.06-.1,2.15-.24,3.2-.01.08-.03.17-.04.26,1.75-1.42,3.15-3.13,4.62-4.95.55-.68,1.1-1.35,1.67-2.02,1.92-2.24,5.19-1.65,7.43-.16.96.64,1.8,1.43,2.63,2.19.48.44.98.9,1.5,1.32.84.69,1.61,1.19,2.37,1.52.3.13.63.22.98.31.34.09.69.19,1.03.33-1.17-5.54-1.71-11.28-2.23-16.82-.19-2.02-.39-4.12-.61-6.17-.22-2-.42-4.01-.62-6.03-1.01-10.01-2.05-20.36-5.26-30.03-.15-.47-.34-.94-.71-1.12ZM29.3,60.75c-.81-.36-1.63-.88-2.51-1.61-.52-.43-1.03-.9-1.52-1.35-.8-.74-1.64-1.51-2.56-2.12-2.01-1.34-4.94-1.91-6.62.05-.56.66-1.11,1.33-1.65,2-1.55,1.92-3.16,3.91-5.2,5.44l-.04-.04c-1.44,6.72-3.21,15.05-2.48,22.8.2,2.14,1.19,3.23,3.02,3.33,1.65.09,3.33.13,5.13.13,2.64,0,5.44-.1,8.8-.3,1.26-.08,2.34-.32,3.49-.58.89-.2,1.82-.4,2.85-.53,1.41-.17,2.55-1.26,3.05-2.91.26-.86.25-1.76.24-2.71,0-.48-.01-.98.02-1.47.41-6.15-.06-11.79-1.6-19.27-.38-.26-.85-.39-1.34-.52-.35-.09-.72-.19-1.07-.34ZM33.93,80.92c-.03.47-.03.95-.02,1.42.01.96.02,1.95-.26,2.9-.57,1.89-1.9,3.15-3.56,3.35-1.01.12-1.92.33-2.79.52-1.12.25-2.27.51-3.59.59-3.37.2-6.18.3-8.84.3-1.82,0-3.51-.05-5.17-.14-2.15-.12-3.37-1.43-3.6-3.89-.74-7.89,1.07-16.33,2.52-23.12.07-.3.12-.61.16-.92.14-1.03.19-2.11.24-3.15.02-.48.04-.96.07-1.44l.08-1.28c.35-5.6.71-11.39,1.68-17.02.57-3.34,1.42-6.72,2.24-9.98l.42-1.66c.55-2.2,1.3-4.36,2.02-6.46.59-1.71,1.2-3.47,1.7-5.24.71-2.53,1.21-5.14,1.47-7.75.05-.52.07-1.07.1-1.65.07-2.03.15-4.33,1.77-5.81.52-.47,1.28-.64,1.83-.37.58.29.84.91,1.02,1.48,3.23,9.73,4.27,20.11,5.28,30.15.2,2.01.4,4.02.62,6.02.22,2.06.42,4.15.61,6.18.52,5.53,1.06,11.25,2.23,16.77,1.69,7.93,2.2,13.77,1.77,20.19Z" fill="#495059" stroke-width="0"/>
  </g>
</svg>