<?xml version="1.0" encoding="UTF-8"?>
<svg id="Layer_1" data-name="Layer 1" xmlns="http://www.w3.org/2000/svg" width="40" height="90" viewBox="0 0 40 90">
  <g id="G">
    <path id="root" d="M28.75,62.74c-.12-1.18-.2-2.38-.28-3.55-.05-.91-.11-1.82-.19-2.72-.08-.94-.19-1.91-.3-2.85-.22-1.91-.45-3.9-.45-5.82-.41-4.72-.83-9.63-1.13-14.48-.28-4.51-.4-8.29-.09-12.13.04-.48.14-.99.24-1.54.22-1.16.44-2.37.12-3.26-.26-.72-.69-1.09-1.28-1.09-.34,0-.74.13-1.15.37-2.93,1.72-4.84,5.65-5.85,11.99-.33,2.11-.51,4.28-.69,6.38-.17,2.09-.35,4.26-.68,6.37-.47,2.97-1.25,5.92-2,8.78-.46,1.75-.93,3.55-1.33,5.34-.5,2.24-.94,4.7-1.37,7.77-.03.23-.08.46-.11.69.15-.16,2.14-.87,2.39-1,.67-.36,1.39-.77,1.96-1.28,1.25-1.12,2.28-2.31,3.99-2.74,1.55-.39,2.76.14,3.93,1.13,0,0,4.26,3.63,4.26,3.63Z" fill="#fff" stroke-width="0"/>
    <path id="face" d="M9.04,83.49c-.22,1.91-.5,4.29.45,5.35.4.45,1,.63,1.85.55.08-.01,16.16-1.68,17.12-1.78,2.08-.89,2.95-2.73,2.66-5.63-.07-5.61-1-10.85-1.98-16.4l-.08-.43c-.09-.51-.16-1.03-.22-1.54l-4.76-4.06c-1.34-1.33-2.91-1.47-4.81-.41-.39.22-.73.51-1.04.83-1.62,1.71-3.68,2.96-6.14,3.72-.02.13-.04.27-.06.4-.23,1.34-.56,2.66-.87,3.94-.35,1.43-.7,2.91-.94,4.4-.5,3.17-.85,6.41-1.05,9.61-.03.43-.08.93-.14,1.46Z" fill="#d7e9f4" stroke-width="0"/>
    <path id="_Path_" data-name="&amp;lt;Path&amp;gt;" d="M27.98,53.62c-.22-1.91-.45-3.9-.45-5.82-.41-4.72-.83-9.63-1.13-14.48-.28-4.51-.4-8.29-.09-12.13.04-.48.14-.99.24-1.54.22-1.16.44-2.37.12-3.26-.26-.72-.69-1.09-1.28-1.09-.34,0-.74.13-1.15.37-2.93,1.72-4.84,5.65-5.85,11.99-.33,2.11-.51,4.28-.69,6.38-.17,2.09-.35,4.26-.68,6.37-.47,2.97-1.25,5.92-2,8.78-.46,1.75-.93,3.55-1.33,5.34-.5,2.24-.94,4.7-1.37,7.77-.03.23-.08.46-.11.69.15-.16,2.14-.87,2.39-1,.67-.36,1.39-.77,1.96-1.28,1.25-1.12,2.28-2.31,3.99-2.74,1.55-.39,2.76.14,3.93,1.13,0,0,4.26,3.63,4.26,3.63-.12-1.18-.2-2.38-.28-3.55-.05-.91-.11-1.82-.19-2.72-.08-.94-.19-1.91-.3-2.85ZM28.57,88.19s-17.09,1.78-17.17,1.78c-.16.02-.31.03-.45.03-.81,0-1.45-.26-1.9-.76-1.13-1.27-.83-3.79-.6-5.82.06-.52.12-1.01.14-1.43.2-3.22.55-6.47,1.05-9.67.24-1.51.6-3,.95-4.45.31-1.27.63-2.59.86-3.91.1-.57.19-1.15.28-1.75.44-3.08.88-5.56,1.38-7.82.4-1.8.88-3.61,1.34-5.36.75-2.84,1.52-5.78,1.99-8.72.33-2.09.51-4.25.68-6.33.18-2.11.36-4.29.7-6.42,1.03-6.53,3.04-10.59,6.13-12.41,1.45-.85,2.76-.44,3.29,1.03.38,1.05.13,2.39-.1,3.57-.1.53-.19,1.03-.23,1.47-.31,3.8-.19,7.57.09,12.05.3,4.84.72,9.74,1.13,14.49,0,1.91.22,3.88.44,5.78.11.94.22,1.91.31,2.86.08.9.14,1.82.19,2.74.13,1.95.25,3.97.59,5.88l.08.43c.99,5.58,1.92,10.85,1.99,16.47.31,3.14-.71,5.24-3.06,6.23l-.08.02ZM29.06,65.14c-.09-.51-.16-1.03-.22-1.54l-4.76-4.06c-1.34-1.33-2.91-1.47-4.81-.41-.39.22-.73.51-1.04.83-1.62,1.71-3.68,2.96-6.14,3.72-.02.13-.04.27-.06.4-.23,1.34-.56,2.66-.87,3.94-.35,1.43-.7,2.91-.94,4.4-.5,3.17-.85,6.41-1.05,9.61-.03.43-.08.93-.14,1.46-.22,1.91-.5,4.29.45,5.35.4.45,1,.63,1.85.55.08-.01,16.16-1.68,17.12-1.78,2.08-.89,2.95-2.73,2.66-5.63-.07-5.61-1-10.85-1.98-16.4l-.08-.43Z" fill="#495059" stroke-width="0"/>
  </g>
</svg>