<?xml version="1.0" encoding="UTF-8"?>
<svg id="Layer_1" data-name="Layer 1" xmlns="http://www.w3.org/2000/svg" width="40" height="90" viewBox="0 0 40 90">
  <g id="H">
    <path id="root" d="M9.73,65.59c.56-.28,1.03-.45,1.46-.59.82-.28,1.46-.5,2.26-1.4,1.49-1.68,3.04-3.22,5.69-3.48,1.38-.14,2.82.1,4.05.67.36.17.69.37,1.01.57.64.38,1.24.75,1.98.82.25.02,1.93,0,2.54-.04-2.15-10.08-4.35-20.5-4.16-31.06.03-1.83.13-3.68.23-5.47.11-1.9.21-3.87.24-5.8.05-4.2-.53-8.4-1.42-13.43-.08-.42-.18-.83-.47-.97-.4-.19-.93.26-1.26.71-1.41,1.92-2.26,4.22-2.53,6.84-.23,2.3-.79,4.8-1.74,7.87-.85,2.7-1.97,5.35-3.06,7.91-.63,1.47-1.28,3-1.86,4.52-.95,2.46-2.24,6.18-2.51,10.05-.1,1.42-.16,2.87-.21,4.27-.05,1.21-.1,2.43-.17,3.64l-.06,9.13h.06l-.07,5.25Z" fill="#fff" stroke-width="0"/>
    <path id="face" d="M8.03,75.28c-.52,3.01-.28,5.36.74,7.21,1.09,1.96,3.07,3.3,4.82,4.49,1.13.76,2.38,1.22,3.72,1.71.37.13.74.27,1.1.41,1.43.55,2.68.26,3.9-.03.15-.04.59-.36.8-.51.11-.08.2-.15.27-.19.8-.52,1.47-.94,2.12-1.33l.46-.27c1.25-.73,2.55-1.48,3.66-2.44,2.16-1.87,2.9-4.1,2.53-7.7l-.34-3.36c-.18-1.76-.56-3.49-1.13-5.17l-2.02-5.92c-.85.13-2.62.07-2.64.07-.87-.09-1.54-.5-2.19-.89-.31-.19-.62-.38-.94-.52-1.11-.52-2.41-.74-3.66-.61-2.38.25-3.76,1.6-5.2,3.22-.89,1-1.62,1.25-2.47,1.54-.47.16-.96.33-1.55.65-.25,1.27-.52,2.54-.79,3.81-.41,1.91-.83,3.9-1.17,5.84Z" fill="#d7e9f4" stroke-width="0"/>
    <path id="_Path_" data-name="&amp;lt;Path&amp;gt;" d="M28.55,61.62c-2.11-9.88-4.26-20.1-4.08-30.45.03-1.79.13-3.61.22-5.37.1-1.87.21-3.79.23-5.68.05-4.11-.52-8.24-1.39-13.17-.08-.41-.18-.82-.46-.95-.39-.19-.91.25-1.24.69-1.38,1.88-2.21,4.14-2.48,6.71-.23,2.25-.77,4.7-1.71,7.71-.83,2.65-1.93,5.25-3,7.76-.62,1.45-1.25,2.94-1.83,4.43-.93,2.41-2.2,6.06-2.46,9.86-.1,1.39-.15,2.81-.21,4.18-.05,1.19-.1,2.38-.17,3.57l-.05,8.95h.05l-.07,5.14c.55-.27,1.01-.44,1.43-.58.8-.27,1.43-.49,2.22-1.37,1.46-1.65,2.98-3.15,5.58-3.42,1.35-.14,2.76.1,3.97.66.35.16.68.37.99.56.63.38,1.22.74,1.94.81.25.02,1.89,0,2.49-.04ZM32.73,76.57c.28,2.79.15,5.72-2.73,8.21-1.15.99-2.47,1.76-3.75,2.5l-.46.27c-.64.38-1.3.79-2.09,1.31-.05.04-.14.1-.24.17-.43.31-.77.55-1.01.61-.73.17-1.51.35-2.36.35-.6,0-1.23-.09-1.89-.35-.37-.14-.73-.27-1.1-.41-1.3-.47-2.66-.97-3.85-1.77-1.81-1.22-3.85-2.61-5-4.69-1.09-1.97-1.35-4.45-.81-7.59.34-1.96.76-3.95,1.17-5.87.24-1.11.47-2.23.7-3.34l.02-1.66h-.02l.08-13.43c.07-1.2.12-2.38.17-3.57.05-1.37.11-2.8.21-4.2.27-3.88,1.55-7.59,2.5-10.03.58-1.5,1.22-3,1.84-4.45,1.06-2.49,2.16-5.07,2.97-7.7.93-2.97,1.46-5.38,1.69-7.6.27-2.67,1.15-5.02,2.59-6.99.63-.85,1.36-1.18,1.97-.88.59.29.73,1.03.79,1.39.88,4.96,1.45,9.12,1.4,13.28-.03,1.9-.13,3.84-.23,5.71-.09,1.75-.19,3.56-.22,5.34-.18,10.41,2.02,20.71,4.14,30.66l.07.31h0s1.97,5.78,1.97,5.78c.59,1.71.98,3.5,1.16,5.3l.34,3.36ZM28.65,62.19c-.85.13-2.62.07-2.64.07-.87-.09-1.54-.5-2.19-.89-.31-.19-.62-.38-.94-.52-1.11-.52-2.41-.74-3.66-.61-2.38.25-3.76,1.6-5.2,3.22-.89,1-1.62,1.25-2.47,1.54-.47.16-.96.33-1.55.65-.25,1.27-.52,2.54-.79,3.81-.41,1.91-.83,3.9-1.17,5.84-.52,3.01-.28,5.36.74,7.21,1.09,1.96,3.07,3.3,4.82,4.49,1.13.76,2.38,1.22,3.72,1.71.37.13.74.27,1.1.41,1.43.55,2.68.26,3.9-.03.15-.04.59-.36.8-.51.11-.08.2-.15.27-.19.8-.52,1.47-.94,2.12-1.33l.46-.27c1.25-.73,2.55-1.48,3.66-2.44,2.16-1.87,2.9-4.1,2.53-7.7l-.34-3.36c-.18-1.76-.56-3.49-1.13-5.17l-2.02-5.92Z" fill="#495059" stroke-width="0"/>
  </g>
</svg>