<?xml version="1.0" encoding="UTF-8"?>
<svg id="Layer_1" data-name="Layer 1" xmlns="http://www.w3.org/2000/svg" width="40" height="90" viewBox="0 0 40 90">
  <g id="I">
    <path id="root" d="M34.52,58.32c-3.49,2.01-6.68,2-9.79-.05-1.41-.61-2.87-.89-4.42-.82-1.83.08-3.78.65-5.87,1.72-2.81,1.99-6.29,2.72-10.34,2.18l-.6.37s0,.03,0,.05c0-.02,0-.04,0-.06-1.32-7.04-1.6-13.29-.84-19.11.84-6.49,2.19-12.96,4-19.25l.15-.54c.39-1.44.95-3.41,1.87-4.43.9-1.01,2-2.05,3.23-2.1.16,0,.32,0,.48.03,1.73.3,2.37,2.52,2.48,3.78.1,1.09-.05,2.19-.2,3.24l-.08.63c-.9,7.08.11,13.4,3.01,18.79.18.35.4.7.71.82.37.15.87-.07,1.38-.56,2.33-2.27,2.05-5.86,1.81-9.02l-.04-.43c-.31-4.14-.94-8.29-1.89-12.33-.1-.4-.19-.8-.29-1.19-.39-1.63-.8-3.31-.99-5.02l-.05-.43c-.15-1.2-.31-2.56.29-3.68.34-.66.88-1.02,1.54-1.05,1.02-.05,2.09.7,2.62,1.15,8.82,7.35,10.91,18.49,11.85,29.43.45,5.2.65,10.93.64,18,1.52,3,2.42,6.15,2.72,9.44-.3-3.28-1.2-6.43-2.71-9.41l-.67-.15Z" fill="#fff" stroke-width="0"/>
    <path id="face" d="M2.08,69.64c.07-1.33.14-2.84.37-4.32.12-.78.25-1.53.48-2.24.05-.14.14-.33.24-.53.12-.23.31-.6.32-.79,0-.01,0-.03,0-.05l.6-.37c4.05.54,7.53-.19,10.34-2.18,2.09-1.07,4.04-1.64,5.87-1.72,1.55-.07,3.01.21,4.42.82,3.11,2.05,6.3,2.06,9.79.05l.67.15c1.51,2.99,2.41,6.13,2.71,9.41.03.38.06.77.08,1.16,0,.02,0,.05,0,.07.13,2.91-.21,5.91-1.02,9.01-.86,3.27-3.19,7.02-7.16,7.74-1.87.34-3.79.07-5.4-.76-1.81-.93-3.94-1.88-6.07-1.79-.39.02-.78.08-1.15.17-.67.15-1.3.42-1.97.7-.7.3-1.44.61-2.22.77-1.56.33-3.36.04-5.1-.8-2.09-1.01-3.5-2.02-4.2-3.03-.64-.91-.96-2.2-1.22-3.46-.55-2.73-.51-5.46-.39-8.01Z" fill="#d7e9f4" stroke-width="0"/>
    <path d="M15.1,79.32c-2.07.66-4.48.31-6.71-.95l.34.27c.17.13.35.25.54.34,2.4,1.18,4.23,1.68,6.47.81l.06-.04c2.37-1.65,4.48-1.44,6.87.73,3.06,2.24,5.75,2.01,9.01-.24l-1.21.51c-2.93.89-4.76,1.14-7.38-.78-2.44-2.22-4.84-2.55-7.3-1-.22.14-.44.27-.69.34Z" fill="#495059" stroke-width="0"/>
    <path id="_Path_" data-name="&amp;lt;Path&amp;gt;" d="M4.1,61.34c4.05.54,7.53-.19,10.33-2.18,2.09-1.06,4.04-1.63,5.87-1.72,1.55-.07,3.01.21,4.42.82,3.11,2.05,6.3,2.06,9.79.05.01-7-.19-12.67-.63-17.82-.94-10.81-2.99-21.8-11.61-28.99-.38-.31-1.35-1.04-2.18-1-.43.02-.75.25-.99.7-.5.95-.35,2.2-.22,3.3l.05.44c.18,1.66.58,3.32.98,4.93.1.4.19.8.29,1.2.95,4.07,1.6,8.25,1.91,12.43l.03.42c.25,3.15.55,7.07-2,9.54-.36.34-.91.76-1.53.79-.19,0-.37-.03-.54-.09-.53-.2-.82-.68-1.06-1.12-2.96-5.51-4-11.96-3.08-19.18l.09-.63c.14-1.02.28-2.08.2-3.1-.09-1-.6-2.96-1.94-3.19-.11-.02-.22-.03-.34-.03-.99.05-1.96.98-2.78,1.89s-1.34,2.79-1.72,4.17l-.16.54c-1.8,6.25-3.13,12.7-3.98,19.16-.74,5.68-.48,11.79.79,18.66ZM2.45,65.33c.12-.78.25-1.54.48-2.25.05-.14.14-.33.24-.52.13-.26.36-.69.33-.86-1.32-7.04-1.6-13.29-.84-19.1.84-6.49,2.19-12.97,4-19.26l.15-.54c.4-1.44.95-3.41,1.87-4.43.9-1.01,2-2.05,3.23-2.1.16,0,.32,0,.48.03,1.73.3,2.37,2.52,2.48,3.78.09,1.09-.06,2.19-.2,3.24l-.08.63c-.9,7.08.11,13.4,3.01,18.79.18.35.4.7.71.82.37.15.87-.07,1.38-.56,2.33-2.27,2.06-5.85,1.81-9.02l-.03-.43c-.31-4.15-.95-8.29-1.9-12.33l-.29-1.2c-.39-1.63-.8-3.31-.99-5.01l-.05-.44c-.14-1.2-.31-2.55.29-3.68.34-.66.88-1.02,1.54-1.05,1.03-.05,2.09.7,2.63,1.16,8.81,7.34,10.91,18.49,11.85,29.43.45,5.2.65,10.92.63,17.99,3.03,5.99,3.63,12.61,1.78,19.68-.86,3.27-3.18,7.02-7.15,7.74-1.87.34-3.79.07-5.4-.76-1.81-.93-3.95-1.88-6.07-1.79-.39.02-.78.07-1.15.16-.67.16-1.3.42-1.96.7-.71.3-1.45.61-2.23.77-1.55.32-3.35.04-5.09-.8-2.09-1.01-3.51-2.02-4.21-3.03-.64-.91-.96-2.2-1.22-3.46-.55-2.74-.51-5.46-.39-8.01.07-1.33.14-2.84.37-4.32ZM4.22,80.74c.64.91,1.97,1.86,3.95,2.82,1.61.78,3.26,1.04,4.68.75.71-.15,1.39-.44,2.1-.73.66-.28,1.35-.57,2.07-.74.42-.1.84-.16,1.27-.18,2.27-.1,4.51.88,6.41,1.86,1.16.6,2.49.89,3.86.82.37-.02.75-.06,1.12-.13,3.67-.67,5.84-4.19,6.64-7.26,1.78-6.82,1.23-13.2-1.62-18.98-3.62,2.03-7.08,1.99-10.28-.13-2.85-1.24-6.02-.97-9.64.88-2.88,2.05-6.49,2.81-10.66,2.28-.07.29-.21.58-.36.86-.08.17-.16.31-.2.43-.22.66-.33,1.36-.46,2.14-.23,1.44-.3,2.93-.36,4.25-.12,2.5-.16,5.19.38,7.85.24,1.19.54,2.4,1.11,3.21Z" fill="#495059" stroke-width="0"/>
  </g>
</svg>