<?xml version="1.0" encoding="UTF-8"?>
<svg id="Layer_1" data-name="Layer 1" xmlns="http://www.w3.org/2000/svg" width="40" height="90" viewBox="0 0 40 90">
  <g id="J">
    <path id="root" d="M34.76,59.25c-3.37-1.91-6.53-1.75-9.67.5l-.07.04c-4.07,1.75-7.95,1.39-11.52-1.07-2.62-1.41-5.46-1.1-8.64.95-.05.13-.47-.73-.47-.73l.02-.09c.21-1.01.25-2.08.29-3.12.02-.32.03-.63.05-.95.12-2.25.09-4.52-.12-6.75-.07-.77-.16-1.53-.24-2.29-.18-1.55-.36-3.15-.38-4.76-.06-5.37,1.29-11.1,3.69-15.73,2.12-4.08,4.53-8.32,7.75-11.66.32-.34,1.45-1.41,2.54-1.31.42.04.99.27,1.31,1.18.08.2.12.41.15.64.53-1.09,1.27-2.02,2.15-2.69.8-.6,1.4-.77,1.84-.5.59.35.72,1.35.42,3.21-.49,6.57.57,11.47,3.15,14.57l.47-9.99c.04-1.01.09-2.05.41-3.06.31-1.02,1.72-3.45,3.23-3.13.96.2,1.62,1.88,2.33,3.9.14.39.26.74.35.95,1.87,4.24,3.8,8.62,4.67,13.28.84,4.51.74,9.41-.32,15.4-.45,2.58-1.02,5.17-1.57,7.68-.39,1.77-.79,3.61-1.14,5.41,0,.04-.68.26-.68.12Z" fill="#fff" stroke-width="0"/>
    <path id="face" d="M35.43,59.26c.14.49.38,1.23.73,2.13.19.48.35.81.39.92.5,1.49.96,3.01,1.38,4.52.54,1.92,1.02,3.89,1.42,5.84.06.28.13.57.2.85.33,1.46.68,2.98.23,4.47-.71,2.46-3.71,5.01-6.66,4.74-.21-.02-.43-.05-.63-.1-.16.36-.31.72-.46,1.09-.59,1.5-1.22,3.04-2.73,4.06-1.44.97-3.53.96-4.68-.09-.11-.11-.21-.22-.3-.33-1.29,1.27-2.77,1.85-4.43,1.69-1.32-.12-2.75-.7-4.28-1.75-.26.21-.52.43-.79.65-.68.59-1.39,1.19-2.16,1.6-.69.37-1.51.51-2.46.42-1.87-.17-3.77-1.21-4.82-2.05-1.78-1.41-3.17-3.45-4.12-6.06-1.29-3.55-1.6-7.61-.89-11.75.45-2.63,1.32-5.33,2.58-8.03.16-.35.34-.68.51-1.02.04-.08.09-.16.13-.24.37-.15.73-.49,1.1-.77.05-.13.11-.25.16-.38,3.18-2.05,6.02-2.36,8.64-.95,3.57,2.46,7.45,2.82,11.52,1.07l.07-.04c.86-.65,2.52-1.68,4.71-1.81,1.41-.08,2.63.23,3.26.4,1,.27,1.8.62,2.37.91Z" fill="#d7e9f4" stroke-width="0"/>
    <path id="_Path_" data-name="&amp;lt;Path&amp;gt;" d="M23.1,11.48c-.06-.04-.34-.12-1.1.46-.82.63-1.52,1.51-2.01,2.55l-.54,1.16c-.1.93-.34,1.91-.55,2.78-.09.38-.17.73-.24,1.03-.17.85-.37,1.69-.56,2.55-.7,3.07-1.42,6.25-1.21,9.43.17,2.63.99,5.21,1.78,7.71.32,1.02.65,2.06.93,3.1l.18.66c.29,1.12.6,2.29,1.14,3.31.43.81,1.51,2.36,2.58,2.46.81.04,1.58-.84,2.01-1.72.77-1.6.83-3.47.89-5.29.01-.32.02-.65.03-.96l.52-11.05c-3.08-3.24-4.31-8.33-3.77-15.58.35-2.18-.02-2.52-.1-2.57ZM23.34,85.6c-.12-.28-.25-.57-.38-.84-.48-.93-1.06-1.42-1.79-1.48-1.29-.12-3.05,1.11-5.09,3.55,3.18,2.12,5.75,2.12,7.85,0-.23-.39-.42-.8-.59-1.22ZM37.81,30.76c-.86-4.58-2.77-8.93-4.63-13.13-.1-.22-.22-.58-.37-1-.38-1.08-1.16-3.33-1.83-3.47-.94-.2-2.15,1.68-2.46,2.68-.29.92-.34,1.92-.38,2.89l-1.03,21.98c-.01.32-.02.64-.03.96-.06,1.89-.13,3.83-.96,5.55-.51,1.05-1.45,2.15-2.58,2.11h-.09c-1.66-.16-2.97-2.55-3.11-2.82-.57-1.09-.89-2.29-1.2-3.44l-.18-.66c-.28-1.02-.6-2.07-.93-3.08-.79-2.54-1.62-5.16-1.8-7.86-.22-3.28.52-6.51,1.22-9.63.19-.84.38-1.69.56-2.53.07-.31.15-.66.24-1.04.36-1.46.84-3.46.43-4.59-.25-.7-.63-.73-.76-.74-.59-.05-1.43.52-2,1.11-3.16,3.28-5.54,7.47-7.64,11.51-2.35,4.54-3.67,10.15-3.62,15.42.01,1.56.2,3.15.37,4.68.09.77.18,1.54.25,2.3.21,2.27.24,4.57.12,6.85-.02.32-.03.63-.04.95-.04.98-.09,1.99-.27,2.98,3.14-1.83,6.08-2.03,8.75-.59,3.4,2.33,7.05,2.68,10.89,1.04,3.25-2.33,6.66-2.53,10.15-.63.33-1.67.7-3.35,1.06-4.99.54-2.5,1.11-5.09,1.56-7.65,1.04-5.91,1.14-10.74.32-15.17ZM39.55,73.52c.34,1.46.69,2.98.24,4.47-.71,2.46-3.71,5.02-6.66,4.74-.21-.02-.42-.05-.63-.1-.16.36-.31.73-.46,1.1-.6,1.49-1.22,3.03-2.73,4.06-1.44.97-3.53.95-4.68-.1-.11-.1-.2-.21-.29-.33-1.29,1.28-2.77,1.85-4.43,1.7-1.32-.12-2.75-.71-4.28-1.75-.26.21-.52.42-.79.65-.69.59-1.39,1.19-2.16,1.6-.69.36-1.52.5-2.46.42-1.88-.17-3.78-1.21-4.83-2.05-1.78-1.41-3.17-3.45-4.12-6.07-1.29-3.54-1.6-7.6-.89-11.75.45-2.62,1.32-5.32,2.58-8.03.16-.34.34-.68.52-1.01.38-.72.74-1.4.91-2.12l.02-.09c.21-1.01.25-2.08.3-3.12.02-.32.03-.63.05-.95.12-2.25.09-4.52-.11-6.75-.07-.77-.16-1.53-.24-2.28-.18-1.55-.36-3.16-.38-4.76-.06-5.37,1.29-11.11,3.69-15.73,2.12-4.09,4.53-8.32,7.75-11.67.32-.33,1.45-1.41,2.54-1.31.42.04.99.28,1.32,1.18.07.2.12.41.15.64.53-1.09,1.27-2.02,2.15-2.69.8-.61,1.39-.77,1.84-.5.59.36.72,1.35.42,3.21-.49,6.57.57,11.47,3.15,14.56l.47-9.98c.04-1.01.09-2.06.41-3.06.31-1.02,1.72-3.45,3.24-3.13.96.2,1.62,1.88,2.33,3.9.13.4.26.74.35.95,1.87,4.24,3.8,8.62,4.67,13.28.84,4.51.74,9.4-.32,15.39-.45,2.58-1.02,5.17-1.57,7.68-.39,1.77-.79,3.61-1.14,5.41-.09.46.4,1.54.73,2.25.17.37.31.68.39.92.5,1.49.96,3.01,1.38,4.51.54,1.92,1.02,3.89,1.42,5.85.06.28.13.56.19.84ZM35.92,62.53c-.07-.21-.21-.52-.37-.85-.37-.82-.79-1.75-.79-2.41-3.38-1.92-6.54-1.76-9.68.5l-.06.04c-4.07,1.75-7.95,1.39-11.53-1.07-2.61-1.41-5.45-1.1-8.64.96-.21.59-.51,1.15-.79,1.7-.18.33-.35.65-.5.98-1.24,2.65-2.08,5.3-2.53,7.86-.69,4.03-.4,7.98.86,11.41.91,2.5,2.23,4.44,3.91,5.77.98.78,2.75,1.75,4.48,1.91.81.08,1.51-.04,2.08-.35.7-.37,1.38-.95,2.04-1.51.33-.28.65-.55.97-.8,2.31-2.83,4.28-4.2,5.88-4.05.95.09,1.73.71,2.32,1.85.15.28.27.58.4.88.31.71.59,1.38,1.11,1.86.93.85,2.67.84,3.86.03,1.34-.9,1.9-2.29,2.49-3.76.12-.29.24-.58.36-.87.02-2.77,2.59-4.75,3.06-4.81l.88-.53-.65.5c-.19.11-2.19,1.93-2.57,4.17.22.06.45.11.68.13,2.59.24,5.33-2.1,5.96-4.27.4-1.32.07-2.74-.25-4.13-.07-.29-.13-.57-.19-.85-.41-1.94-.88-3.9-1.42-5.81-.42-1.5-.88-3.01-1.37-4.48Z" fill="#495059" stroke-width="0"/>
  </g>
</svg>