<?xml version="1.0" encoding="UTF-8"?>
<svg id="Layer_1" data-name="Layer 1" xmlns="http://www.w3.org/2000/svg" width="40" height="90" viewBox="0 0 40 90">
  <g id="K">
    <path id="root" d="M5.54,26.16c.79.28,1.56.4,2.31.4,1.39,0,2.71-.37,3.93-.77,1.81-.6,3.68-1.21,5.47-.77.57.14,1.15.41,1.71.67.91.42,1.85.86,2.91.82,1.1-.03,2.05-.58,2.97-1.1.56-.32,1.14-.65,1.74-.86,1.3-.43,2.73-.27,4.12-.13.39.05.78.08,1.16.12,2,.15,3.57-.29,4.95-1.41l.95-.7c.24-.55.48-1.11.7-1.68-.31.8-.65,1.58-.99,2.35-.86,1.95-1.74,3.98-2.12,6.19-.8,4.67-.71,9.8.27,16.14,2.26,10.44,1.45,17.49-2.47,21.55-1.03,1.4-2.01,2.1-2.98,2.1-.5,0-.98-.19-1.44-.58-.79-.68-1.21-1.75-1.11-2.87.35-4.14-.31-7.63-2.01-10.7-.86-1.86-1.99-4.6-2.08-7.19-.01-.37.02-.77.05-1.2.11-1.36.22-2.78-1.11-3.26-.67-.25-1.5-.11-2.16.33-1.43.97-1.68,2.59-1.93,4.16l-.04.24c-1.01,6.39-.05,13.05.79,18.94.12.84.24,1.66.35,2.48.08.58,0,1.16-.21,1.66-.52,1.24-1.41,1.5-2.07,1.5-.79,0-1.74-.38-2.61-1.04-4.62-3.53-6.58-9.59-7.65-13.83-1.3-5.17-2.08-10.5-2.32-15.84-.11-2.72-.09-5.48.07-8.2.04-.7.15-1.43.26-2.2.23-1.64.47-3.33.09-4.78-.04-.14-.08-.29-.13-.44-.06-.19-.14-.37-.21-.55.1.07.21.16.34.23.18.11.35.18.49.23Z" fill="#fff" stroke-width="0"/>
    <path id="face" d="M.59,6.47l.03-.16.05-.29c.28-1.54.65-3.55,1.75-4.77.22-.24.45-.46.73-.63C3.85.21,4.66,0,5.57,0c.84,0,1.65.19,2.36.44.32.11.63.24.9.36h0s0,0,0,0c.8-.15,1.67-.32,2.58-.42,2.46-.28,5.13-.12,7.02,1.96.59-.18,1.23-.28,1.93-.28.45,0,.92.05,1.42.12.42.07.86.15,1.33.27,2.36-2.04,4.75-2.24,7.1-.59.31-.05.63-.08.92-.09.12-.01.24-.01.36-.01,1.09,0,2.11.21,3,.55.63.24,1.2.54,1.65.93.39.34.74.73,1.06,1.15,2.22,2.99,2.7,7.87,2.61,10.56,0,.26-.03.52-.06.77,0,.09-.01.18-.02.26-.03.23-.06.45-.1.67-.02.12-.03.24-.06.36-.04.22-.09.43-.14.65-.03.11-.05.23-.08.34-.06.22-.12.44-.18.66-.03.1-.06.2-.09.3-.07.23-.15.46-.22.68-.03.08-.05.15-.08.23-.09.25-.18.49-.28.74-.01.04-.03.08-.04.11-.22.57-.46,1.13-.7,1.68l-.95.7c-1.38,1.12-2.95,1.56-4.95,1.41-.38-.04-.77-.07-1.16-.12-1.39-.14-2.82-.3-4.12.13-.6.21-1.18.54-1.74.86-.92.52-1.87,1.07-2.97,1.1-1.06.04-2-.4-2.91-.82-.56-.26-1.14-.53-1.71-.67-1.79-.44-3.66.17-5.47.77-1.22.4-2.54.77-3.93.77-.75,0-1.52-.12-2.31-.4-.14-.05-.31-.12-.49-.23-.13-.08-.24-.17-.34-.23-.38-.95-.86-1.88-1.35-2.77-.2-.37-.39-.75-.59-1.12-.07-.15-.15-.29-.23-.44C.34,16.84-.36,11.55.59,6.47Z" fill="#d7e9f4" stroke-width="0"/>
    <path id="_Path_" data-name="&amp;lt;Path&amp;gt;" d="M17.81,2.6C15.61.39,12.39.76,9.59,1.27c.07.04.14.08.2.12,2.7,1.44,4.95,1.94,7.24,1.62.24-.16.5-.29.77-.41ZM29.44,2.06c-1.87-1.07-3.71-.86-5.6.63.48.14.99.31,1.52.51.2.08.4.15.61.24.15-.02,1.01-.44,1.46-.67.42-.21.69-.35.85-.4.4-.13.78-.23,1.16-.31ZM31.97,24.75c-.39-.03-.78-.07-1.17-.12-1.4-.15-2.85-.31-4.16.13-.61.2-1.19.54-1.76.86-.93.53-1.89,1.08-2.99,1.11-1.07.03-2.01-.41-2.93-.83-.56-.26-1.14-.53-1.73-.67-1.8-.45-3.69.17-5.52.77-1.23.4-2.56.78-3.96.78-.77,0-1.56-.12-2.36-.41.04.13.08.26.12.38.42,1.59.17,3.35-.07,5.06-.11.77-.21,1.49-.25,2.17-.17,2.72-.19,5.48-.07,8.2.23,5.35,1.01,10.68,2.31,15.86,1.15,4.55,3.04,10.22,7.5,13.62.77.59,1.6.93,2.26.93.71,0,1.22-.37,1.54-1.14.18-.42.23-.89.17-1.37-.12-.82-.24-1.65-.36-2.5-.85-5.97-1.83-12.74-.79-19.28l.04-.24c.25-1.63.54-3.48,2.2-4.6.83-.56,1.87-.72,2.72-.4,1.77.64,1.62,2.45,1.51,3.9-.03.41-.07.8-.06,1.13.09,2.51,1.2,5.2,2.03,7.01,1.77,3.18,2.46,6.82,2.1,11.11-.08.94.26,1.83.91,2.38,1.07.92,2.22.41,3.61-1.46,3.83-3.96,4.59-10.9,2.36-21.23-1-6.48-1.09-11.72-.28-16.5.37-2.19,1.22-4.18,2.06-6.1-1.39,1.12-2.97,1.57-4.99,1.41ZM35.89,3.75c-1-.86-2.56-1.35-4.29-1.35-.11,0-.23,0-.34,0-.85.03-1.76.21-2.79.54-.12.04-.45.2-.77.36-.5.25-.9.45-1.22.57.82.58,1.49,1.34,1.33,2.33l-.2-.42c-.27-.8-.95-1.22-2.49-2.03-1.91-.72-3.43-1.06-4.74-1.06-1.19,0-2.19.28-3.05.85l-.12.04c-2.44.36-4.83-.15-7.7-1.68-.81-.5-2.39-1.31-4.06-1.31-.79,0-1.51.19-2.13.56-1.46.88-1.9,3.28-2.22,5.04l-.08.45c-.94,5-.25,10.2,1.94,14.65.26.52.53,1.03.81,1.55.48.89.97,1.81,1.35,2.77,2.03.94,3.96.63,6.4-.17,1.93-.63,3.9-1.28,5.87-.79.64.16,1.25.44,1.83.71.9.41,1.76.81,2.66.78.96-.03,1.82-.52,2.71-1.03.59-.34,1.21-.69,1.87-.91,1.43-.48,2.95-.32,4.42-.17.39.04.77.08,1.14.12,2.37.18,4.03-.49,5.56-2.23.91-2.12,1.72-4.33,1.82-6.83.14-3.89-.9-9.09-3.5-11.34ZM35.49,29.54c-.8,4.71-.72,9.88.27,16.28,2.28,10.53,1.46,17.64-2.49,21.73-1.04,1.41-2.03,2.11-3.01,2.11-.51,0-.99-.19-1.45-.58-.8-.68-1.22-1.76-1.12-2.89.35-4.17-.31-7.7-2.03-10.79-.86-1.87-2.01-4.63-2.1-7.25-.01-.37.02-.78.06-1.21.11-1.38.23-2.8-1.12-3.29-.68-.25-1.51-.12-2.18.34-1.44.97-1.7,2.61-1.94,4.19l-.04.24c-1.02,6.45-.06,13.17.79,19.1.12.84.24,1.68.36,2.5.08.58,0,1.17-.21,1.68-.53,1.25-1.43,1.51-2.09,1.51-.79,0-1.75-.39-2.63-1.05-4.66-3.56-6.63-9.67-7.71-13.95-1.32-5.21-2.1-10.59-2.34-15.98-.12-2.75-.09-5.53.07-8.27.04-.71.15-1.44.26-2.22.23-1.65.47-3.36.09-4.82-.04-.14-.08-.29-.13-.44-.39-1.16-.99-2.27-1.57-3.35-.28-.52-.56-1.04-.82-1.57C.16,16.99-.54,11.66.42,6.53l.08-.45C.84,4.22,1.3,1.66,3,.64,3.71.21,4.53,0,5.44,0c1.23,0,2.41.4,3.3.82,3.01-.57,7.07-1.32,9.69,1.56.59-.18,1.24-.28,1.94-.28.84,0,1.75.13,2.77.4,2.38-2.06,4.79-2.26,7.17-.59.31-.04.63-.08.92-.09.12,0,.24,0,.36,0,1.88,0,3.58.54,4.69,1.5,3.16,2.72,3.81,8.71,3.7,11.81-.11,3.06-1.26,5.67-2.36,8.19-.86,1.97-1.76,4.01-2.14,6.24Z" fill="#495059" stroke-width="0"/>
  </g>
</svg>