<?xml version="1.0" encoding="UTF-8"?>
<svg id="Layer_1" data-name="Layer 1" xmlns="http://www.w3.org/2000/svg" width="40" height="90" viewBox="0 0 40 90">
  <g id="L">
    <path id="root" d="M22.54,71.82c.73-1.14-.02-4.07-.5-5.32-1.21-3.13-2.45-6.5-3.33-9.94-1.21-4.73-1.58-8.93-1.13-12.83.13-1.09.35-2.34,1.06-3.34.77-1.1,2.16-1.69,3.29-1.38,1,.29,1.68,1.17,2.09,1.81,2.05,3.12,2.62,6.88,2.92,10.14.32,3.55.22,7.16.12,10.64-.02.8-.04,1.59-.06,2.39-.03,1.52.28,2.4.95,2.69.71.31,1.66-.18,2.55-1.25,3.87-4.68,5.1-10.45,5.44-14.47.57-6.68-.69-13.43-1.9-19.96-.25-1.34-.49-2.67-.73-3.99-2.42.86-4.76,1.29-6.99,1.29-1.95,0-3.82-.33-5.61-.99-5.86-2.58-10.27-2.4-13.86.58.02.43-.06.89-.14,1.31-.03.2-.06.4-.09.58-.05.39-.1.79-.16,1.18-.1.74-.21,1.5-.25,2.24-.13,2.39-.17,4.58-.11,6.69.13,4.77.71,8.99,1.79,12.93,1.56,5.69,4.27,10.78,7.82,14.71.96,1.06,1.99,2.05,3.06,2.93.14.12.3.25.46.4.69.61,1.64,1.44,2.38,1.44v.35s.05-.35.05-.35c.39-.02.67-.18.86-.47Z" fill="#fff" stroke-width="0"/>
    <path id="face" d="M6.67,27.12c3.73-2.9,8.42-3.05,14.3-.46,3.77,1.4,7.82,1.27,12.38-.42,3.97-5.73,4.53-12.84,1.44-18.57-.68-1.25-1.36-1.91-2.16-2.07-.82-.16-1.62.23-2.47.66-.62.31-1.27.62-1.95.73.59.59,1.12,1.03,1.73,1.16.78.32,1.88.43,3.06.49-.38.12-2.16.19-2.53.19-.88,0-1.71-.37-2.53-1.11-.48-.43-1.06-.75-1.63-1.04-.45-.22-.85-.52-1.25-.82-.46-.35-.9-.68-1.39-.88-1.05-.43-2.31-.32-4.08.38l-.72.29c-.77.32-1.57.65-2.4.83-.64.14-1.23.47-1.65.97-.71.84-1.56,1.25-2.54,1.25-.2,0-.8.05-1.02,0l.71-.23c1.16-.24,1.85-.77,2.61-1.88-1.05-.11-2.03-.47-2.97-.82-1.11-.42-2.16-.81-3.23-.81-.18,0-.37.01-.55.04-1.52.21-2.95,1.4-3.71,3.1-.73,1.61-.85,3.42-.88,5.14-.06,4.88.71,8.81,2.36,12.03.12.24.28.48.45.73.2.3.4.61.56.94.03.06.05.12.07.19Z" fill="#d7e9f4" stroke-width="0"/>
    <path id="_Path_" data-name="&amp;lt;Path&amp;gt;" d="M33.96,26.62c.25,1.41.51,2.83.77,4.25,1.23,6.58,2.49,13.38,1.92,20.15-.36,4.12-1.62,10.05-5.6,14.87-.49.6-1.49,1.6-2.63,1.6-.26,0-.51-.05-.74-.15-1.44-.62-1.4-2.68-1.38-3.36.01-.8.04-1.6.06-2.4.1-3.47.19-7.05-.12-10.56-.29-3.18-.84-6.82-2.8-9.81-.36-.55-.92-1.3-1.69-1.52-.85-.24-1.91.24-2.52,1.1-.61.87-.81,1.96-.93,3.02-.45,3.81-.08,7.92,1.11,12.57.87,3.4,2.1,6.75,3.31,9.86.01.04,1.59,4.18.43,5.96-.31.48-.81.75-1.42.79h-.08c-1.01,0-2.03-.9-2.84-1.62-.16-.14-.31-.27-.45-.38-1.1-.9-2.16-1.91-3.14-3-3.64-4.01-6.4-9.2-7.98-15-1.1-3.99-1.69-8.27-1.82-13.1-.06-2.13-.02-4.34.11-6.75.04-.77.15-1.55.25-2.3.06-.39.11-.77.16-1.16.02-.19.06-.4.1-.62.08-.46.17-.94.12-1.31-.03-.17-.08-.34-.17-.54-.13-.29-.31-.56-.51-.84-.17-.26-.34-.52-.49-.8-1.71-3.32-2.5-7.36-2.44-12.36.03-1.8.16-3.7.94-5.43.87-1.92,2.51-3.27,4.27-3.51,1.44-.19,2.81.31,4.13.81,1.13.42,2.19.82,3.3.82,1.21-.01,2.35-.48,3.45-.94.24-.1.48-.2.73-.29,1.96-.78,3.39-.88,4.61-.38.57.24,1.06.61,1.55.97.64.48,1.25.94,1.97,1.03.79.09,1.56-.29,2.38-.69.76-.38,1.55-.76,2.4-.76.18,0,.35.01.52.05,1.34.27,2.16,1.51,2.65,2.43,3.21,5.95,2.65,13.33-1.45,19.29ZM32.63,5.6c-.82-.16-1.62.23-2.47.66-.62.31-1.27.62-1.95.73.59.59,1.12,1.03,1.73,1.16.78.32,1.88.43,3.06.49-.38.12-2.16.19-2.53.19-.88,0-1.71-.37-2.53-1.11-.48-.43-1.06-.75-1.63-1.04-.45-.22-.85-.52-1.25-.82-.46-.35-.9-.68-1.39-.88-1.05-.43-2.31-.32-4.08.38l-.72.29c-.77.32-1.57.65-2.4.83-.64.14-1.23.47-1.65.97-.71.84-1.56,1.25-2.54,1.25-.2,0-.8.05-1.02,0l.71-.23c1.16-.24,1.85-.77,2.61-1.88-1.05-.11-2.03-.47-2.97-.82-1.11-.42-2.16-.81-3.23-.81-.18,0-.37.01-.55.04-1.52.21-2.95,1.4-3.71,3.1-.73,1.61-.85,3.42-.88,5.14-.06,4.88.71,8.81,2.36,12.03.12.24.28.48.45.73.2.3.4.61.56.94.03.06.05.12.07.19,3.73-2.9,8.42-3.05,14.3-.46,3.77,1.4,7.82,1.27,12.38-.42,3.97-5.73,4.53-12.84,1.44-18.57-.68-1.25-1.36-1.91-2.16-2.07ZM34.04,31.01c-.25-1.34-.49-2.67-.73-3.99-2.42.86-4.76,1.29-6.99,1.29-1.95,0-3.82-.33-5.61-.99-5.86-2.58-10.27-2.4-13.86.58.02.43-.06.89-.14,1.31-.03.2-.06.4-.09.58-.05.39-.1.79-.16,1.18-.1.74-.21,1.5-.25,2.24-.13,2.39-.17,4.58-.11,6.69.13,4.77.71,8.99,1.79,12.93,1.56,5.69,4.27,10.78,7.82,14.71.96,1.06,1.99,2.05,3.06,2.93.14.12.3.25.46.4.69.61,1.64,1.44,2.38,1.44v.35s.05-.35.05-.35c.39-.02.67-.18.86-.47.73-1.14-.02-4.07-.5-5.32-1.21-3.13-2.45-6.5-3.33-9.94-1.21-4.73-1.58-8.93-1.13-12.83.13-1.09.35-2.34,1.06-3.34.77-1.1,2.16-1.69,3.29-1.38,1,.29,1.68,1.17,2.09,1.81,2.05,3.12,2.62,6.88,2.92,10.14.32,3.55.22,7.16.12,10.64-.02.8-.04,1.59-.06,2.39-.03,1.52.28,2.4.95,2.69.71.31,1.66-.18,2.55-1.25,3.87-4.68,5.1-10.45,5.44-14.47.57-6.68-.69-13.43-1.9-19.96Z" fill="#495059" stroke-width="0"/>
  </g>
</svg>