<?xml version="1.0" encoding="UTF-8"?>
<svg id="Layer_1" data-name="Layer 1" xmlns="http://www.w3.org/2000/svg" width="40" height="90" viewBox="0 0 40 90">
  <g id="M">
    <path id="root" d="M11.41,28.62c1.85,5.45,2.38,11.2,1.57,17.1-.27,4.95.03,9.78.93,14.31.72,3.63,1.83,7.18,3.3,10.54.8,1.81,1.65,3.5,2.56,5.03l.18.31c.76,1.3,1.42,2.44,2.75,3.19.36.21.9.45,1.45.45.22,0,.43-.04.61-.12.45-.19.82-.67,1-1.27.17-.59.15-1.22.11-1.82-.05-.8-.16-1.6-.26-2.37-.11-.84-.23-1.7-.27-2.56-.08-1.72-.05-3.42.11-5.06.16-1.64.43-3.33.82-5.05.17-.74.41-1.48.65-2.2.29-.88.58-1.77.73-2.65,1.97-11.25,2.92-20.63,2.91-28.7-2.31-.65-4.91-.22-6.87,1.16-.15.11-.31.22-.46.34-.55.41-1.12.84-1.82,1.02-.23.06-.48.09-.73.09-.55,0-1.16-.14-1.8-.41-.4-.17-.78-.37-1.16-.57-.33-.18-.65-.35-.98-.5-1.37-.61-3.94-1.18-5.34-.25Z" fill="#fff" stroke-width="0"/>
    <path id="face" d="M6.53,8.53c.12,8.7,1.61,15.1,4.54,19.56,1.62-1.06,4.38-.49,5.93.21.35.15.69.34,1.03.52.36.19.73.39,1.1.55.81.34,1.53.44,2.13.29.58-.15,1.08-.52,1.6-.92.16-.12.31-.23.47-.35,2.09-1.46,4.86-1.93,7.32-1.26.1-.24.29-.52.53-.88.13-.18.25-.35.3-.45.26-.52.49-1.08.7-1.65.41-1.12.72-2.31.92-3.53.49-2.86.41-6,.26-8.69-.05-.92-.13-1.88-.51-2.71-.33-.7-1.03-1.08-1.78-1.44-2.05-.94-4.39-2.65-7.16-5.26-1.96-1.3-3.54-1.9-5.07-1.9-1.08,0-2.11.3-3.15.94-.43.26-.86.55-1.28.84-.81.56-1.66,1.14-2.6,1.53-.69.29-1.46.49-2.49.66-.13.02-.25.04-.37.05-.55.07-.92.13-1.3.5-.76.73-1.13,1.88-1.11,3.4Z" fill="#d7e9f4" stroke-width="0"/>
    <path id="_Path_" data-name="&amp;lt;Path&amp;gt;" d="M23.7,28.9c-.15.11-.31.22-.46.34-.55.41-1.12.84-1.82,1.02-.23.06-.48.09-.73.09-.55,0-1.16-.14-1.8-.41-.4-.17-.78-.37-1.16-.57-.33-.18-.65-.35-.98-.5-1.37-.61-3.94-1.18-5.34-.25,1.85,5.45,2.38,11.2,1.57,17.1-.27,4.95.03,9.78.93,14.31.72,3.63,1.83,7.18,3.3,10.54.8,1.81,1.65,3.5,2.56,5.03l.18.31c.76,1.3,1.42,2.44,2.75,3.19.36.21.9.45,1.45.45.22,0,.43-.04.61-.12.45-.19.82-.67,1-1.27.17-.59.15-1.22.11-1.82-.05-.8-.16-1.6-.26-2.37-.11-.84-.23-1.7-.27-2.56-.08-1.72-.05-3.42.11-5.06.16-1.64.43-3.33.82-5.05.17-.74.41-1.48.65-2.2.29-.88.58-1.77.73-2.65,1.97-11.25,2.92-20.63,2.91-28.7-2.31-.65-4.91-.22-6.87,1.16ZM32.04,26.07c-.07.14-.19.33-.34.54-.16.23-.5.71-.5.86.03,8.16-.92,17.68-2.92,29.08-.16.92-.46,1.84-.75,2.74-.23.7-.47,1.44-.63,2.15-.39,1.68-.66,3.35-.81,4.96-.15,1.61-.19,3.28-.11,4.97.04.84.15,1.68.27,2.51.11.79.22,1.61.26,2.43.04.65.06,1.35-.13,2.03-.22.79-.72,1.4-1.35,1.67-.26.11-.55.17-.86.17-.69,0-1.34-.29-1.76-.53-1.48-.84-2.21-2.09-2.99-3.42l-.18-.31c-.92-1.56-1.78-3.27-2.59-5.1-1.49-3.4-2.61-6.99-3.34-10.66-.9-4.58-1.22-9.46-.94-14.5.8-5.81.28-11.45-1.53-16.8-3.18-4.58-4.79-11.22-4.92-20.32-.02-1.7.41-3,1.3-3.85.53-.51,1.08-.59,1.65-.67.11-.01.23-.03.35-.05.98-.15,1.7-.34,2.35-.61.89-.37,1.66-.9,2.49-1.47.42-.29.85-.58,1.3-.86C16.5.33,17.64,0,18.83,0c1.66,0,3.34.62,5.46,2.04,2.76,2.59,5.04,4.27,7.03,5.18.83.39,1.67.86,2.09,1.74.43.93.52,1.96.57,2.95.14,2.72.22,5.9-.27,8.82-.21,1.25-.53,2.48-.95,3.64-.22.6-.46,1.17-.73,1.72ZM31.06,7.78c-2.05-.94-4.39-2.65-7.16-5.26-1.96-1.3-3.54-1.9-5.07-1.9-1.08,0-2.11.3-3.15.94-.43.26-.86.55-1.28.84-.81.56-1.66,1.14-2.6,1.53-.69.29-1.46.49-2.49.66-.13.02-.25.04-.37.05-.55.07-.92.13-1.3.5-.76.73-1.13,1.88-1.11,3.4.12,8.7,1.61,15.1,4.54,19.56,1.62-1.06,4.38-.49,5.93.21.35.15.69.34,1.03.52.36.19.73.39,1.1.55.81.34,1.53.44,2.13.29.58-.15,1.08-.52,1.6-.92.16-.12.31-.23.47-.35,2.09-1.46,4.86-1.93,7.32-1.26.1-.24.29-.52.53-.88.13-.18.25-.35.3-.45.26-.52.49-1.08.7-1.65.41-1.12.72-2.31.92-3.53.49-2.86.41-6,.26-8.69-.05-.92-.13-1.88-.51-2.71-.33-.7-1.03-1.08-1.78-1.44Z" fill="#495059" stroke-width="0"/>
  </g>
</svg>