<?xml version="1.0" encoding="UTF-8"?>
<svg id="Layer_1" data-name="Layer 1" xmlns="http://www.w3.org/2000/svg" width="40" height="90" viewBox="0 0 40 90">
  <g id="N">
    <path id="root" d="M9.97,26.99c.45,1.86.95,4.04,1.25,6.3.45,3.44.76,6.57.97,9.54.27,4.13.27,8.32.26,12.37-.02,7.56-.03,15.37,1.84,22.95.75,3.04,1.86,6.35,4.5,7.85.43.25.81.37,1.13.37,1.77,0,1.84-3.97,1.88-6.11.01-.45.02-.84.04-1.11.49-6.27,1.39-12.57,2.68-18.72.25-1.2.57-2.47.87-3.68.43-1.72.88-3.51,1.16-5.16.34-2.04.54-4.14.74-6.18.09-.99.19-1.98.3-2.96.14-1.24.24-2.53.34-3.78.21-2.64.43-5.36,1.01-7.96-1.94,3.25-4.16,5.01-6.61,5.24-.19.02-.38.02-.57.02-3.51,0-7.37-2.95-11.78-8.99Z" fill="#fff" stroke-width="0"/>
    <path id="face" d="M26.83,5.7c-1.32-.62-2.54-1.47-3.94-2.76-.17-.15-.34-.31-.5-.47-.67-.65-1.3-1.25-2.1-1.58-.43-.18-.9-.26-1.4-.26-.86,0-1.8.27-2.64.76-2.35,1.37-5.02,4.21-6.49,6.89-1.14,2.07-1.72,4.55-1.74,7.38-.02,3.23.72,6.44,1.41,9.19l.09.35c.02.05.03.1.04.15,4.82,6.96,9.1,10.33,12.7,10,2.84-.26,5.39-2.86,7.57-7.72.12-.34.24-.68.36-1.01.34-.94.69-1.92.96-2.91.9-3.27,1.07-6.92.54-11.85-.14-1.33-.34-2.71-1.12-3.75-.77-1.05-2.01-1.61-3.2-2.15-.18-.08-.37-.17-.54-.25Z" fill="#d7e9f4" stroke-width="0"/>
    <path id="_Path_" data-name="&amp;lt;Path&amp;gt;" d="M27.57,42.45c.14-1.24.24-2.53.34-3.78.21-2.64.43-5.36,1.01-7.96-1.94,3.25-4.16,5.01-6.61,5.24-.19.02-.38.02-.57.02-3.51,0-7.37-2.95-11.78-8.99.45,1.86.95,4.04,1.25,6.3.45,3.44.76,6.57.97,9.54.27,4.13.27,8.32.26,12.37-.02,7.56-.03,15.37,1.84,22.95.75,3.04,1.86,6.35,4.5,7.85.43.25.81.37,1.13.37,1.77,0,1.84-3.97,1.88-6.11.01-.45.02-.84.04-1.11.49-6.27,1.39-12.57,2.68-18.72.25-1.2.57-2.47.87-3.68.43-1.72.88-3.51,1.16-5.16.34-2.04.54-4.14.74-6.18.09-.99.19-1.98.3-2.96ZM31.14,23.7c.9-3.27,1.07-6.92.54-11.85-.14-1.33-.34-2.71-1.12-3.75-.77-1.05-2.01-1.61-3.2-2.15-.18-.08-.37-.17-.54-.25-1.32-.62-2.54-1.47-3.94-2.76-.17-.15-.34-.31-.5-.47-.67-.65-1.3-1.25-2.1-1.58-.43-.18-.9-.26-1.4-.26-.86,0-1.8.27-2.64.76-2.35,1.37-5.02,4.21-6.49,6.89-1.14,2.07-1.72,4.55-1.74,7.38-.02,3.23.72,6.44,1.41,9.19l.09.35c.02.05.03.1.04.15,4.82,6.96,9.1,10.33,12.7,10,2.84-.26,5.39-2.86,7.57-7.72.12-.34.24-.68.36-1.01.34-.94.69-1.92.96-2.91ZM31.75,23.86c-.28,1-.63,2-.98,2.95-.31.86-.63,1.76-.89,2.65-.85,2.95-1.1,6.16-1.35,9.26-.1,1.25-.2,2.55-.34,3.79-.11.98-.21,1.97-.3,2.96-.19,2.04-.39,4.16-.74,6.22-.28,1.68-.73,3.47-1.16,5.21-.3,1.21-.62,2.47-.87,3.66-1.28,6.13-2.18,12.4-2.67,18.64-.02.26-.03.63-.03,1.08-.05,2.52-.13,6.73-2.51,6.73-.43,0-.92-.15-1.44-.45-2.84-1.62-4.02-5.08-4.8-8.25-1.89-7.66-1.87-15.51-1.85-23.1.01-4.04.02-8.22-.26-12.33-.2-2.96-.51-6.08-.97-9.51-.29-2.27-.8-4.48-1.26-6.36-.14-.55-.28-1.12-.42-1.68l-.09-.35c-.7-2.79-1.45-6.04-1.43-9.35.02-2.93.63-5.51,1.81-7.67,1.52-2.77,4.28-5.7,6.73-7.13,1.5-.88,3.25-1.09,4.59-.53.9.37,1.61,1.05,2.29,1.7.16.15.33.31.49.46,1.36,1.25,2.53,2.07,3.79,2.65.18.08.35.17.54.25,1.26.58,2.57,1.17,3.44,2.35.86,1.17,1.08,2.64,1.24,4.06.53,5.01.36,8.74-.56,12.08Z" fill="#495059" stroke-width="0"/>
  </g>
</svg>