<?xml version="1.0" encoding="UTF-8"?>
<svg id="Layer_1" data-name="Layer 1" xmlns="http://www.w3.org/2000/svg" width="40" height="90" viewBox="0 0 40 90">
  <g id="O">
    <path id="root" d="M29.09,25.12c-.21-.01-.74.11-1.6.53-.63.31-1.25.75-1.95,1.37-.35.32-.7.65-1.04.98-.74.72-1.5,1.46-2.39,2.04-1.05.68-2.16,1.02-3.19.99-.5-.02-.97-.12-1.41-.31-1.3-.58-2.1-1.87-2.8-3.01l-.05-.09c-.77-1.25-1.65-2.39-2.77-2.6,0,.03.01.05.02.07,1.72,8.24,2.89,16.67,3.51,25.06.13,1.76.14,3.54.15,5.26.01,2.08.02,4.23.24,6.34.54,5.26,1.71,10.04,3.44,14.15.79,1.22,1.52,1.82,2.17,1.8.58-.02,1.16-.55,1.73-1.58-.06-17.84,1.76-33.81,5.54-48.78h0c.02-.12.07-.32.14-.57,0-.01.01-.03.01-.05l.15-.6h0s.1-1.03.1-1.03Z" fill="#fff" stroke-width="0"/>
    <path id="face" d="M22.99,1.02c-2.72-.43-5.5-.51-8.24-.24-2.66.26-4.28.61-4.39,3.15l-.03,1.46c-.08,3.47-.17,7.05-.04,10.57.06,1.51.14,3.13.39,4.74.13.81.38,1.57.64,2.37.14.43.27.88.39,1.32,1.76.1,2.87,1.93,3.48,2.92l.05.09c.69,1.11,1.4,2.27,2.52,2.76,1.13.5,2.63.26,4-.63.84-.54,1.58-1.26,2.29-1.96.35-.34.7-.68,1.06-1,.74-.66,1.41-1.13,2.09-1.47,1.06-.52,1.65-.62,1.99-.59.9-5.42.73-11.62-.55-19.36-.02-.15-.05-.31-.07-.47-.15-1.01-.29-1.96-1.1-2.55-.89-.63-2.42-.83-3.65-1-.3-.03-.58-.07-.85-.11Z" fill="#d7e9f4" stroke-width="0"/>
    <path id="_Path_" data-name="&amp;lt;Path&amp;gt;" d="M23.84,1.14c-.3-.03-.58-.07-.85-.11-2.72-.43-5.5-.51-8.24-.24-2.66.26-4.28.61-4.39,3.15l-.03,1.46c-.08,3.47-.17,7.05-.04,10.57.06,1.51.14,3.13.39,4.74.13.81.38,1.57.64,2.37.14.43.27.88.39,1.32,1.76.1,2.87,1.93,3.48,2.92l.05.09c.69,1.11,1.4,2.27,2.52,2.76,1.13.5,2.63.26,4-.63.84-.54,1.58-1.26,2.29-1.96.35-.34.7-.68,1.06-1,.74-.66,1.41-1.13,2.09-1.47,1.06-.52,1.65-.62,1.99-.59.9-5.42.73-11.62-.55-19.36-.02-.15-.05-.31-.07-.47-.15-1.01-.29-1.96-1.1-2.55-.89-.63-2.42-.83-3.65-1ZM28.83,26.75l.15-.6h0s.1-1.03.1-1.03c-.21-.01-.74.11-1.6.53-.63.31-1.25.75-1.95,1.37-.35.32-.7.65-1.04.98-.74.72-1.5,1.46-2.39,2.04-1.05.68-2.16,1.02-3.19.99-.5-.02-.97-.12-1.41-.31-1.3-.58-2.1-1.87-2.8-3.01l-.05-.09c-.77-1.25-1.65-2.39-2.77-2.6,0,.03.01.05.02.07,1.72,8.24,2.89,16.67,3.51,25.06.13,1.76.14,3.54.15,5.26.01,2.08.02,4.23.24,6.34.54,5.26,1.71,10.04,3.44,14.15.79,1.22,1.52,1.82,2.17,1.8.58-.02,1.16-.55,1.73-1.58-.06-17.84,1.76-33.81,5.54-48.78h0c.02-.12.07-.32.14-.57,0-.01.01-.03.01-.05ZM23.77,76.23v.08l-.04.07c-.7,1.3-1.45,1.94-2.29,1.97-.03,0-.07,0-.11,0-.86-.03-1.72-.72-2.63-2.13-1.78-4.22-2.96-9.06-3.51-14.38-.22-2.14-.23-4.31-.25-6.4-.01-1.72-.02-3.49-.15-5.22-.61-8.37-1.78-16.77-3.5-24.98-.14-.69-.35-1.35-.57-1.99-.26-.79-.53-1.6-.66-2.47-.26-1.64-.34-3.28-.4-4.81-.13-3.54-.04-7.13.04-10.61l.03-1.46c.14-3.27,2.59-3.51,4.95-3.74,2.8-.28,5.62-.2,8.4.24.26.04.54.07.83.11,1.3.17,2.92.38,3.93,1.1,1.03.74,1.21,1.92,1.36,2.97.02.15.05.3.07.45,1.29,7.83,1.46,14.1.54,19.6-.03.19-.05.38-.06.58-.02.41-.09.85-.31,1.67-3.87,15.13-5.73,31.27-5.67,49.33Z" fill="#495059" stroke-width="0"/>
  </g>
</svg>