<?xml version="1.0" encoding="UTF-8"?>
<svg id="Layer_1" data-name="Layer 1" xmlns="http://www.w3.org/2000/svg" width="40" height="90" viewBox="0 0 40 90">
  <g id="P">
    <path id="root" d="M10.91,25.12c.21-.01.74.11,1.6.53.63.31,1.25.75,1.95,1.37.35.32.7.65,1.04.98.74.72,1.5,1.46,2.39,2.04,1.05.68,2.16,1.02,3.19.99.5-.02.97-.12,1.41-.31,1.3-.58,2.1-1.87,2.8-3.01l.05-.09c.77-1.25,1.65-2.39,2.77-2.6,0,.03-.01.05-.02.07-1.72,8.24-2.89,16.67-3.51,25.06-.13,1.76-.14,3.54-.15,5.26-.01,2.08-.02,4.23-.24,6.34-.54,5.26-1.71,10.04-3.44,14.15-.79,1.22-1.52,1.82-2.17,1.8-.58-.02-1.16-.55-1.73-1.58.06-17.84-1.76-33.81-5.54-48.78h0c-.02-.12-.07-.32-.14-.57,0-.01-.01-.03-.01-.05l-.15-.6h0s-.1-1.03-.1-1.03Z" fill="#fff" stroke-width="0"/>
    <path id="face" d="M17.01,1.02c2.72-.43,5.5-.51,8.24-.24,2.66.26,4.28.61,4.39,3.15l.03,1.46c.08,3.47.17,7.05.04,10.57-.06,1.51-.14,3.13-.39,4.74-.13.81-.38,1.57-.64,2.37-.14.43-.27.88-.39,1.32-1.76.1-2.87,1.93-3.48,2.92l-.05.09c-.69,1.11-1.4,2.27-2.52,2.76-1.13.5-2.63.26-4-.63-.84-.54-1.58-1.26-2.29-1.96-.35-.34-.7-.68-1.06-1-.74-.66-1.41-1.13-2.09-1.47-1.06-.52-1.65-.62-1.99-.59-.9-5.42-.73-11.62.55-19.36.02-.15.05-.31.07-.47.15-1.01.29-1.96,1.1-2.55.89-.63,2.42-.83,3.65-1,.3-.03.58-.07.85-.11Z" fill="#d7e9f4" stroke-width="0"/>
    <path id="_Path_" data-name="&amp;lt;Path&amp;gt;" d="M12.51,2.13c-.81.58-.95,1.53-1.1,2.55-.02.16-.05.31-.07.47-1.28,7.74-1.45,13.94-.55,19.36.34-.03.93.07,1.99.59.68.34,1.34.81,2.09,1.47.36.32.71.66,1.06,1,.72.7,1.46,1.42,2.29,1.96,1.38.89,2.87,1.13,4,.63,1.13-.5,1.84-1.65,2.52-2.76l.05-.09c.61-1,1.72-2.82,3.48-2.92.12-.45.26-.89.39-1.32.26-.8.51-1.56.64-2.37.25-1.61.33-3.23.39-4.74.13-3.52.04-7.1-.04-10.57l-.03-1.46c-.11-2.54-1.73-2.88-4.39-3.15-2.74-.27-5.51-.19-8.24.24-.26.04-.55.08-.85.11-1.23.17-2.76.37-3.65,1ZM11.18,26.8c.07.25.13.45.14.56h0c3.78,14.98,5.59,30.95,5.54,48.79.57,1.03,1.15,1.56,1.73,1.58.66.02,1.38-.58,2.17-1.8,1.73-4.11,2.89-8.89,3.44-14.15.22-2.11.23-4.26.24-6.34.01-1.73.02-3.51.15-5.26.61-8.39,1.79-16.82,3.51-25.06,0-.02.01-.05.02-.07-1.12.21-2.01,1.35-2.77,2.6l-.05.09c-.7,1.14-1.5,2.43-2.8,3.01-.43.19-.91.29-1.41.31-1.02.03-2.14-.31-3.19-.99-.89-.58-1.65-1.32-2.39-2.04-.34-.33-.69-.66-1.04-.98-.7-.62-1.32-1.06-1.95-1.37-.86-.42-1.38-.54-1.6-.53l.1,1.04h0c.05.19.1.39.15.59,0,.01,0,.03.01.05ZM10.56,26.9c-.23-.82-.3-1.26-.31-1.67,0-.2-.02-.39-.06-.58-.92-5.5-.75-11.77.54-19.6.02-.15.05-.3.07-.45.15-1.05.33-2.23,1.36-2.97,1.01-.72,2.63-.93,3.93-1.1.29-.04.57-.07.83-.11,2.77-.44,5.6-.52,8.4-.24,2.36.23,4.81.47,4.95,3.74l.03,1.46c.08,3.48.17,7.07.04,10.61-.06,1.53-.14,3.17-.4,4.81-.13.86-.4,1.68-.66,2.47-.21.64-.42,1.3-.57,1.99-1.71,8.2-2.89,16.61-3.5,24.98-.13,1.73-.14,3.51-.15,5.22-.01,2.09-.02,4.26-.25,6.4-.55,5.33-1.73,10.16-3.51,14.38-.92,1.42-1.77,2.11-2.63,2.13-.04,0-.08,0-.11,0-.84-.03-1.59-.68-2.29-1.97l-.04-.07v-.08c.06-18.06-1.8-34.2-5.67-49.33Z" fill="#495059" stroke-width="0"/>
  </g>
</svg>