<?xml version="1.0" encoding="UTF-8"?>
<svg id="Layer_1" data-name="Layer 1" xmlns="http://www.w3.org/2000/svg" width="40" height="90" viewBox="0 0 40 90">
  <g id="Q">
    <path id="root" d="M30.03,26.99c-.45,1.86-.95,4.04-1.25,6.3-.45,3.44-.76,6.57-.97,9.54-.27,4.13-.27,8.32-.26,12.37.02,7.56.03,15.37-1.84,22.95-.75,3.04-1.86,6.35-4.5,7.85-.43.25-.81.37-1.13.37-1.77,0-1.84-3.97-1.88-6.11-.01-.45-.02-.84-.04-1.11-.49-6.27-1.39-12.57-2.68-18.72-.25-1.2-.57-2.47-.87-3.68-.43-1.72-.88-3.51-1.16-5.16-.34-2.04-.54-4.14-.74-6.18-.09-.99-.19-1.98-.3-2.96-.14-1.24-.24-2.53-.34-3.78-.21-2.64-.43-5.36-1.01-7.96,1.94,3.25,4.16,5.01,6.61,5.24.19.02.38.02.57.02,3.51,0,7.37-2.95,11.78-8.99Z" fill="#fff" stroke-width="0"/>
    <path id="face" d="M13.17,5.7c1.32-.62,2.54-1.47,3.94-2.76.17-.15.34-.31.5-.47.67-.65,1.3-1.25,2.1-1.58.43-.18.9-.26,1.4-.26.86,0,1.8.27,2.64.76,2.35,1.37,5.02,4.21,6.49,6.89,1.14,2.07,1.72,4.55,1.74,7.38.02,3.23-.72,6.44-1.41,9.19l-.09.35c-.02.05-.03.1-.04.15-4.82,6.96-9.1,10.33-12.7,10-2.84-.26-5.39-2.86-7.57-7.72-.12-.34-.24-.68-.36-1.01-.34-.94-.69-1.92-.96-2.91-.9-3.27-1.07-6.92-.54-11.85.14-1.33.34-2.71,1.12-3.75.77-1.05,2.01-1.61,3.2-2.15.18-.08.37-.17.54-.25Z" fill="#d7e9f4" stroke-width="0"/>
    <path id="_Path_" data-name="&amp;lt;Path&amp;gt;" d="M12.73,45.41c.19,2.04.4,4.14.74,6.18.28,1.65.73,3.44,1.16,5.16.3,1.22.62,2.48.87,3.68,1.29,6.15,2.2,12.45,2.68,18.72.02.27.03.66.04,1.11.04,2.14.11,6.12,1.88,6.11.32,0,.7-.12,1.13-.37,2.64-1.5,3.75-4.82,4.5-7.85,1.87-7.59,1.85-15.39,1.84-22.95-.01-4.05-.02-8.24.26-12.37.21-2.97.52-6.1.97-9.54.3-2.25.8-4.44,1.25-6.3-4.4,6.04-8.27,8.99-11.78,8.99-.19,0-.38,0-.57-.02-2.44-.23-4.66-1.99-6.61-5.24.58,2.6.8,5.31,1.01,7.96.1,1.25.2,2.53.34,3.78.11.98.21,1.97.3,2.96ZM9.82,26.6c.12.33.24.67.36,1.01,2.18,4.86,4.73,7.45,7.57,7.72,3.6.33,7.88-3.04,12.7-10,.01-.05.02-.1.04-.15l.09-.35c.69-2.75,1.43-5.96,1.41-9.19-.02-2.83-.6-5.31-1.74-7.38-1.47-2.68-4.14-5.51-6.49-6.89-.84-.49-1.78-.76-2.64-.76-.5,0-.97.09-1.4.26-.8.33-1.43.94-2.1,1.58-.17.15-.33.31-.5.47-1.4,1.29-2.62,2.15-3.94,2.76-.18.08-.36.17-.54.25-1.19.54-2.43,1.1-3.2,2.15-.77,1.04-.98,2.43-1.12,3.75-.53,4.93-.36,8.59.54,11.85.27.98.62,1.96.96,2.91ZM7.69,11.78c.15-1.42.37-2.89,1.24-4.06.88-1.17,2.18-1.77,3.44-2.35.18-.08.36-.17.54-.25,1.26-.59,2.43-1.41,3.79-2.65.16-.15.33-.31.49-.46.68-.66,1.39-1.33,2.29-1.7,1.34-.55,3.09-.34,4.59.53,2.44,1.42,5.21,4.35,6.73,7.13,1.18,2.16,1.8,4.74,1.81,7.67.02,3.31-.73,6.56-1.43,9.35l-.09.35c-.14.56-.28,1.12-.42,1.68-.46,1.87-.97,4.08-1.26,6.36-.45,3.43-.77,6.54-.97,9.51-.27,4.11-.27,8.28-.26,12.33.02,7.59.03,15.44-1.85,23.1-.78,3.17-1.96,6.62-4.8,8.25-.52.3-1.01.45-1.44.45-2.38,0-2.46-4.21-2.51-6.73,0-.44-.01-.81-.03-1.08-.49-6.24-1.38-12.51-2.67-18.64-.25-1.19-.57-2.44-.87-3.66-.43-1.74-.88-3.54-1.16-5.21-.35-2.06-.55-4.18-.74-6.22-.1-.99-.19-1.97-.3-2.96-.14-1.25-.24-2.54-.34-3.79-.25-3.1-.5-6.31-1.35-9.26-.26-.89-.58-1.78-.89-2.65-.34-.96-.7-1.95-.98-2.95-.92-3.34-1.09-7.07-.56-12.08Z" fill="#495059" stroke-width="0"/>
  </g>
</svg>