<?xml version="1.0" encoding="UTF-8"?>
<svg id="Layer_1" data-name="Layer 1" xmlns="http://www.w3.org/2000/svg" width="40" height="90" viewBox="0 0 40 90">
  <g id="R">
    <path id="root" d="M28.59,28.62c-1.85,5.45-2.38,11.2-1.57,17.1.27,4.95-.03,9.78-.93,14.31-.72,3.63-1.83,7.18-3.3,10.54-.8,1.81-1.65,3.5-2.56,5.03l-.18.31c-.76,1.3-1.42,2.44-2.75,3.19-.36.21-.9.45-1.45.45-.22,0-.43-.04-.61-.12-.45-.19-.82-.67-1-1.27-.17-.59-.15-1.22-.11-1.82.05-.8.16-1.6.26-2.37.11-.84.23-1.7.27-2.56.08-1.72.05-3.42-.11-5.06-.16-1.64-.43-3.33-.82-5.05-.17-.74-.41-1.48-.65-2.2-.29-.88-.58-1.77-.73-2.65-1.97-11.25-2.92-20.63-2.91-28.7,2.31-.65,4.91-.22,6.87,1.16.15.11.31.22.46.34.55.41,1.12.84,1.82,1.02.23.06.48.09.73.09.55,0,1.16-.14,1.8-.41.4-.17.78-.37,1.16-.57.33-.18.65-.35.98-.5,1.37-.61,3.94-1.18,5.34-.25Z" fill="#fff" stroke-width="0"/>
    <path id="face" d="M33.47,8.53c-.12,8.7-1.61,15.1-4.54,19.56-1.62-1.06-4.38-.49-5.93.21-.35.15-.69.34-1.03.52-.36.19-.73.39-1.1.55-.81.34-1.53.44-2.13.29-.58-.15-1.08-.52-1.6-.92-.16-.12-.31-.23-.47-.35-2.09-1.46-4.86-1.93-7.32-1.26-.1-.24-.29-.52-.53-.88-.13-.18-.25-.35-.3-.45-.26-.52-.49-1.08-.7-1.65-.41-1.12-.72-2.31-.92-3.53-.49-2.86-.41-6-.26-8.69.05-.92.13-1.88.51-2.71.33-.7,1.03-1.08,1.78-1.44,2.05-.94,4.39-2.65,7.16-5.26,1.96-1.3,3.54-1.9,5.07-1.9,1.08,0,2.11.3,3.15.94.43.26.86.55,1.28.84.81.56,1.66,1.14,2.6,1.53.69.29,1.46.49,2.49.66.13.02.25.04.37.05.55.07.92.13,1.3.5.76.73,1.13,1.88,1.11,3.4Z" fill="#d7e9f4" stroke-width="0"/>
    <path id="_Path_" data-name="&amp;lt;Path&amp;gt;" d="M9.43,27.74c-.01,8.07.94,17.45,2.91,28.7.15.88.45,1.78.73,2.65.23.72.47,1.46.65,2.2.39,1.72.66,3.41.82,5.05.16,1.64.19,3.34.11,5.06-.04.86-.16,1.73-.27,2.56-.1.78-.22,1.58-.26,2.37-.03.6-.05,1.24.11,1.82.17.6.54,1.08,1,1.27.18.08.39.12.61.12.55,0,1.09-.25,1.45-.45,1.33-.76,1.99-1.89,2.75-3.19l.18-.31c.9-1.53,1.76-3.23,2.56-5.03,1.47-3.36,2.59-6.9,3.3-10.54.9-4.53,1.21-9.35.93-14.31-.81-5.9-.29-11.65,1.57-17.1-1.4-.93-3.96-.37-5.34.25-.34.15-.66.32-.98.5-.37.2-.76.41-1.16.57-.64.27-1.24.41-1.8.41-.25,0-.5-.03-.73-.09-.7-.18-1.27-.61-1.82-1.02-.15-.12-.31-.23-.46-.34-1.96-1.37-4.56-1.8-6.87-1.16ZM7.24,24.36c-.42-1.16-.74-2.39-.95-3.64-.49-2.92-.41-6.1-.27-8.82.05-.98.14-2.02.57-2.95.42-.88,1.26-1.34,2.09-1.74,1.99-.91,4.27-2.59,7.03-5.18,2.12-1.41,3.8-2.04,5.46-2.04,1.2,0,2.33.33,3.48,1.02.45.27.88.57,1.3.86.83.57,1.61,1.1,2.49,1.47.65.27,1.37.46,2.35.61.12.02.23.04.35.05.57.08,1.12.15,1.65.67.89.85,1.32,2.15,1.3,3.85-.13,9.1-1.74,15.75-4.92,20.32-1.81,5.34-2.33,10.98-1.53,16.8.29,5.03-.03,9.91-.94,14.5-.73,3.67-1.85,7.26-3.34,10.66-.81,1.83-1.68,3.55-2.59,5.1l-.18.31c-.78,1.33-1.51,2.58-2.99,3.42-.42.25-1.08.53-1.76.53-.31,0-.59-.06-.86-.17-.63-.27-1.13-.88-1.35-1.67-.19-.68-.17-1.38-.13-2.03.05-.82.15-1.64.26-2.43.11-.82.23-1.67.27-2.51.08-1.69.04-3.36-.11-4.97-.15-1.61-.42-3.28-.81-4.96-.16-.72-.39-1.45-.63-2.15-.29-.9-.59-1.82-.75-2.74-2-11.41-2.96-20.92-2.92-29.08,0-.15-.34-.63-.5-.86-.15-.21-.27-.39-.34-.54-.27-.54-.51-1.12-.73-1.72ZM7.16,9.22c-.39.83-.47,1.8-.51,2.71-.14,2.69-.22,5.83.26,8.69.21,1.22.51,2.41.92,3.53.21.58.44,1.13.7,1.65.05.1.17.27.3.45.24.35.42.63.53.88,2.46-.66,5.23-.2,7.32,1.26.16.11.31.23.47.35.53.39,1.02.77,1.6.92.6.15,1.32.05,2.13-.29.37-.16.74-.36,1.1-.55.34-.18.68-.37,1.03-.52,1.54-.69,4.31-1.27,5.93-.21,2.92-4.46,4.42-10.86,4.54-19.56.02-1.52-.35-2.67-1.11-3.4-.39-.37-.75-.42-1.3-.5-.11-.01-.23-.03-.37-.05-1.03-.17-1.8-.37-2.49-.66-.94-.39-1.79-.97-2.6-1.53-.41-.28-.84-.58-1.28-.84-1.04-.63-2.07-.94-3.15-.94-1.53,0-3.11.59-5.07,1.9-2.77,2.6-5.11,4.32-7.16,5.26-.76.36-1.46.74-1.78,1.44Z" fill="#495059" stroke-width="0"/>
  </g>
</svg>