<?xml version="1.0" encoding="UTF-8"?>
<svg id="Layer_1" data-name="Layer 1" xmlns="http://www.w3.org/2000/svg" width="40" height="90" viewBox="0 0 40 90">
  <g id="S">
    <path id="root" d="M17.46,71.82c-.73-1.14.02-4.07.5-5.32,1.21-3.13,2.45-6.5,3.33-9.94,1.21-4.73,1.58-8.93,1.13-12.83-.13-1.09-.35-2.34-1.06-3.34-.77-1.1-2.16-1.69-3.29-1.38-1,.29-1.68,1.17-2.09,1.81-2.05,3.12-2.62,6.88-2.92,10.14-.32,3.55-.22,7.16-.12,10.64.02.8.04,1.59.06,2.39.03,1.52-.28,2.4-.95,2.69-.71.31-1.66-.18-2.55-1.25-3.87-4.68-5.1-10.45-5.44-14.47-.57-6.68.69-13.43,1.9-19.96.25-1.34.49-2.67.73-3.99,2.42.86,4.76,1.29,6.99,1.29,1.95,0,3.82-.33,5.61-.99,5.86-2.58,10.27-2.4,13.86.58-.02.43.06.89.14,1.31.03.2.06.4.09.58.05.39.1.79.16,1.18.1.74.21,1.5.25,2.24.13,2.39.17,4.58.11,6.69-.13,4.77-.71,8.99-1.79,12.93-1.56,5.69-4.27,10.78-7.82,14.71-.96,1.06-1.99,2.05-3.06,2.93-.14.12-.3.25-.46.4-.69.61-1.64,1.44-2.38,1.44v.35l-.05-.35c-.39-.02-.67-.18-.86-.47Z" fill="#fff" stroke-width="0"/>
    <path id="face" d="M33.33,27.12c-3.73-2.9-8.42-3.05-14.3-.46-3.77,1.4-7.82,1.27-12.38-.42-3.97-5.73-4.53-12.84-1.44-18.57.68-1.25,1.36-1.91,2.16-2.07.82-.16,1.62.23,2.47.66.62.31,1.27.62,1.95.73-.59.59-1.12,1.03-1.73,1.16-.78.32-1.88.43-3.06.49.38.12,2.16.19,2.53.19.88,0,1.71-.37,2.53-1.11.48-.43,1.06-.75,1.63-1.04.45-.22.85-.52,1.25-.82.46-.35.9-.68,1.39-.88,1.05-.43,2.31-.32,4.08.38l.72.29c.77.32,1.57.65,2.4.83.64.14,1.23.47,1.65.97.71.84,1.56,1.25,2.54,1.25.2,0,.8.05,1.02,0l-.71-.23c-1.16-.24-1.85-.77-2.61-1.88,1.05-.11,2.03-.47,2.97-.82,1.11-.42,2.16-.81,3.23-.81.18,0,.37.01.55.04,1.52.21,2.95,1.4,3.71,3.1.73,1.61.85,3.42.88,5.14.06,4.88-.71,8.81-2.36,12.03-.12.24-.28.48-.45.73-.2.3-.4.61-.56.94-.03.06-.05.12-.07.19Z" fill="#d7e9f4" stroke-width="0"/>
    <path id="_Path_" data-name="&amp;lt;Path&amp;gt;" d="M4.59,7.34c.49-.92,1.31-2.16,2.65-2.43.17-.03.34-.05.52-.05.85,0,1.64.38,2.4.76.82.4,1.58.78,2.38.69.72-.08,1.33-.55,1.97-1.03.48-.36.97-.73,1.55-.97,1.22-.51,2.65-.4,4.61.38.25.09.49.19.73.29,1.1.46,2.25.93,3.45.94,1.11,0,2.17-.4,3.3-.82,1.32-.5,2.69-1.01,4.13-.81,1.76.24,3.4,1.58,4.27,3.51.78,1.73.91,3.63.94,5.43.06,4.99-.73,9.04-2.44,12.36-.14.28-.32.54-.49.8-.19.29-.38.56-.51.84-.09.19-.14.37-.17.54-.05.38.03.85.12,1.31.04.21.08.43.1.62.05.39.1.77.16,1.16.1.75.21,1.53.25,2.3.13,2.41.17,4.62.11,6.75-.13,4.82-.72,9.11-1.82,13.1-1.58,5.8-4.34,10.99-7.98,15-.98,1.09-2.04,2.1-3.14,3-.14.11-.29.25-.45.38-.82.72-1.84,1.62-2.84,1.62h-.08c-.62-.03-1.11-.31-1.42-.79-1.16-1.79.42-5.92.43-5.96,1.2-3.11,2.44-6.46,3.31-9.86,1.19-4.65,1.56-8.76,1.11-12.57-.12-1.06-.32-2.15-.93-3.02-.61-.86-1.67-1.34-2.52-1.1-.77.22-1.34.97-1.69,1.52-1.96,2.99-2.51,6.64-2.8,9.81-.32,3.51-.22,7.09-.12,10.56.02.8.05,1.6.06,2.4.01.68.06,2.73-1.38,3.36-.23.1-.48.15-.74.15-1.14,0-2.14-1-2.63-1.6-3.99-4.82-5.25-10.75-5.6-14.87-.58-6.77.69-13.57,1.92-20.15.27-1.42.53-2.84.77-4.25C1.94,20.67,1.37,13.29,4.59,7.34ZM5.21,7.67c-3.09,5.73-2.53,12.83,1.44,18.57,4.56,1.68,8.62,1.82,12.38.42,5.88-2.59,10.57-2.44,14.3.46.03-.06.04-.12.07-.19.16-.33.36-.64.56-.94.17-.25.32-.49.45-.73,1.65-3.21,2.42-7.15,2.36-12.03-.03-1.72-.14-3.53-.88-5.14-.77-1.7-2.19-2.89-3.71-3.1-.18-.03-.37-.04-.55-.04-1.08,0-2.12.4-3.23.81-.95.35-1.93.71-2.97.82.76,1.1,1.45,1.64,2.61,1.88l.71.23c-.22.04-.82,0-1.02,0-.98,0-1.82-.42-2.54-1.25-.42-.5-1.01-.83-1.65-.97-.83-.18-1.63-.51-2.4-.83l-.72-.29c-1.77-.69-3.03-.81-4.08-.38-.49.2-.93.53-1.39.88-.4.3-.8.6-1.25.82-.57.29-1.15.61-1.63,1.04-.81.74-1.65,1.11-2.53,1.11-.36,0-2.15-.06-2.53-.19,1.19-.06,2.29-.17,3.06-.49.6-.12,1.14-.56,1.73-1.16-.68-.11-1.33-.42-1.95-.73-.86-.42-1.65-.81-2.47-.66-.8.16-1.49.82-2.16,2.07ZM4.06,50.97c.34,4.02,1.57,9.8,5.44,14.47.89,1.08,1.83,1.56,2.55,1.25.68-.29.99-1.18.95-2.69-.02-.8-.04-1.59-.06-2.39-.1-3.49-.19-7.09.12-10.64.29-3.26.87-7.01,2.92-10.14.42-.64,1.09-1.53,2.09-1.81,1.13-.32,2.52.27,3.29,1.38.71,1,.93,2.25,1.06,3.34.45,3.9.08,8.1-1.13,12.83-.88,3.44-2.12,6.81-3.33,9.94-.48,1.25-1.23,4.18-.5,5.32.19.29.47.45.86.47l.05.35v-.35c.74,0,1.69-.83,2.38-1.44.16-.14.32-.28.46-.4,1.07-.88,2.1-1.86,3.06-2.93,3.56-3.94,6.27-9.02,7.82-14.71,1.08-3.94,1.66-8.16,1.79-12.93.06-2.11.02-4.3-.11-6.69-.04-.74-.14-1.5-.25-2.24-.06-.39-.11-.79-.16-1.18-.03-.18-.06-.38-.09-.58-.08-.42-.16-.88-.14-1.31-3.6-2.97-8-3.16-13.86-.58-1.79.66-3.66.99-5.61.99-2.23,0-4.57-.44-6.99-1.29-.23,1.32-.47,2.66-.73,3.99-1.21,6.53-2.47,13.29-1.9,19.96Z" fill="#495059" stroke-width="0"/>
  </g>
</svg>