<?xml version="1.0" encoding="UTF-8"?>
<svg id="Layer_1" data-name="Layer 1" xmlns="http://www.w3.org/2000/svg" width="40" height="90" viewBox="0 0 40 90">
  <g id="T">
    <path id="root" d="M34.46,26.16c-.79.28-1.56.4-2.31.4-1.39,0-2.71-.37-3.93-.77-1.81-.6-3.68-1.21-5.47-.77-.57.14-1.15.41-1.71.67-.91.42-1.85.86-2.91.82-1.1-.03-2.05-.58-2.97-1.1-.56-.32-1.14-.65-1.74-.86-1.3-.43-2.73-.27-4.12-.13-.39.05-.78.08-1.16.12-2,.15-3.57-.29-4.95-1.41l-.95-.7c-.24-.55-.48-1.11-.7-1.68.31.8.65,1.58.99,2.35.86,1.95,1.74,3.98,2.12,6.19.8,4.67.71,9.8-.27,16.14-2.26,10.44-1.45,17.49,2.47,21.55,1.03,1.4,2.01,2.1,2.98,2.1.5,0,.98-.19,1.44-.58.79-.68,1.21-1.75,1.11-2.87-.35-4.14.31-7.63,2.01-10.7.86-1.86,1.99-4.6,2.08-7.19.01-.37-.02-.77-.05-1.2-.11-1.36-.22-2.78,1.11-3.26.67-.25,1.5-.11,2.16.33,1.43.97,1.68,2.59,1.93,4.16l.04.24c1.01,6.39.05,13.05-.79,18.94-.12.84-.24,1.66-.35,2.48-.08.58,0,1.16.21,1.66.52,1.24,1.41,1.5,2.07,1.5.79,0,1.74-.38,2.61-1.04,4.62-3.53,6.58-9.59,7.65-13.83,1.3-5.17,2.08-10.5,2.32-15.84.11-2.72.09-5.48-.07-8.2-.04-.7-.15-1.43-.26-2.2-.23-1.64-.47-3.33-.09-4.78.04-.14.08-.29.13-.44.06-.19.14-.37.21-.55-.1.07-.21.16-.34.23-.18.11-.35.18-.49.23Z" fill="#fff" stroke-width="0"/>
    <path id="face" d="M39.41,6.47l-.03-.16-.05-.29c-.28-1.54-.65-3.55-1.75-4.77-.22-.24-.45-.46-.73-.63-.71-.42-1.52-.63-2.42-.63-.84,0-1.65.19-2.36.44-.32.11-.63.24-.9.36h0s0,0,0,0c-.8-.15-1.67-.32-2.58-.42-2.46-.28-5.13-.12-7.02,1.96-.59-.18-1.23-.28-1.93-.28-.45,0-.92.05-1.42.12-.42.07-.86.15-1.33.27C14.53.43,12.14.23,9.78,1.89c-.31-.05-.63-.08-.92-.09-.12-.01-.24-.01-.36-.01-1.09,0-2.11.21-3,.55-.63.24-1.2.54-1.65.93-.39.34-.74.73-1.06,1.15C.57,7.41.09,12.29.18,14.98c0,.26.03.52.06.77,0,.09.01.18.02.26.03.23.06.45.1.67.02.12.03.24.06.36.04.22.09.43.14.65.03.11.05.23.08.34.06.22.12.44.18.66.03.1.06.2.09.3.07.23.15.46.22.68.03.08.05.15.08.23.09.25.18.49.28.74.01.04.03.08.04.11.22.57.46,1.13.7,1.68l.95.7c1.38,1.12,2.95,1.56,4.95,1.41.38-.04.77-.07,1.16-.12,1.39-.14,2.82-.3,4.12.13.6.21,1.18.54,1.74.86.92.52,1.87,1.07,2.97,1.1,1.06.04,2-.4,2.91-.82.56-.26,1.14-.53,1.71-.67,1.79-.44,3.66.17,5.47.77,1.22.4,2.54.77,3.93.77.75,0,1.52-.12,2.31-.4.14-.05.31-.12.49-.23.13-.08.24-.17.34-.23.38-.95.86-1.88,1.35-2.77.2-.37.39-.75.59-1.12.07-.15.15-.29.23-.44,2.22-4.53,2.92-9.82,1.97-14.9Z" fill="#d7e9f4" stroke-width="0"/>
    <path id="_Path_" data-name="&amp;lt;Path&amp;gt;" d="M22.96,3.01c2.29.32,4.54-.18,7.24-1.62.06-.04.13-.08.2-.12-2.8-.51-6.02-.88-8.21,1.33.26.12.52.25.77.41ZM11.71,2.37c.16.05.43.18.85.4.46.23,1.31.66,1.46.67.2-.08.41-.16.61-.24.53-.2,1.04-.37,1.52-.51-1.89-1.5-3.73-1.7-5.6-.63.37.09.75.18,1.16.31ZM3.04,23.34c.84,1.92,1.68,3.91,2.06,6.1.81,4.78.73,10.01-.28,16.5-2.23,10.33-1.48,17.27,2.36,21.23,1.38,1.87,2.53,2.38,3.61,1.46.65-.56,1-1.45.91-2.38-.36-4.29.33-7.94,2.1-11.11.83-1.81,1.94-4.5,2.03-7.01.01-.34-.02-.73-.06-1.13-.12-1.45-.26-3.26,1.51-3.9.86-.31,1.9-.15,2.72.4,1.66,1.12,1.95,2.97,2.2,4.6l.04.24c1.03,6.53.06,13.3-.79,19.28-.12.85-.24,1.68-.36,2.5-.06.48,0,.95.17,1.37.32.77.83,1.14,1.54,1.14.66,0,1.49-.34,2.26-.93,4.46-3.41,6.35-9.07,7.5-13.62,1.3-5.17,2.08-10.51,2.31-15.86.12-2.72.1-5.48-.07-8.2-.04-.69-.14-1.41-.25-2.17-.24-1.71-.49-3.47-.07-5.06.03-.12.07-.25.12-.38-.8.29-1.59.41-2.36.41-1.4,0-2.74-.38-3.96-.78-1.83-.6-3.72-1.22-5.52-.77-.58.14-1.17.41-1.73.67-.92.42-1.87.86-2.93.83-1.11-.03-2.06-.58-2.99-1.11-.57-.32-1.15-.66-1.76-.86-1.31-.44-2.76-.28-4.16-.13-.39.04-.78.08-1.17.12-2.01.15-3.6-.29-4.99-1.41ZM.61,15.09c.09,2.5.91,4.71,1.82,6.83,1.53,1.74,3.19,2.41,5.56,2.23.38-.03.76-.07,1.14-.12,1.47-.15,2.99-.32,4.42.17.66.22,1.27.57,1.87.91.9.52,1.75,1,2.71,1.03.91.03,1.76-.36,2.66-.78.58-.27,1.19-.55,1.83-.71,1.97-.5,3.94.15,5.87.79,2.44.8,4.37,1.11,6.4.17.39-.96.88-1.88,1.35-2.77.28-.51.55-1.02.81-1.55,2.19-4.45,2.87-9.65,1.94-14.65l-.08-.45c-.32-1.76-.75-4.16-2.22-5.04-.62-.37-1.34-.56-2.13-.56-1.67,0-3.25.81-4.06,1.31-2.86,1.53-5.26,2.05-7.7,1.68l-.12-.04c-.86-.57-1.86-.85-3.05-.85-1.32,0-2.83.34-4.74,1.06-1.55.8-2.22,1.23-2.49,2.03l-.2.42c-.17-.99.51-1.75,1.33-2.33-.32-.13-.72-.32-1.22-.57-.31-.15-.64-.32-.77-.36-1.03-.33-1.94-.51-2.79-.54-.11,0-.23,0-.34,0-1.73,0-3.3.49-4.29,1.35C1.51,5.99.47,11.2.61,15.09ZM2.37,23.3C1.27,20.78.12,18.17.01,15.11-.1,12.01.56,6.02,3.72,3.3c1.11-.95,2.81-1.5,4.69-1.5.12,0,.24,0,.36,0,.3.01.61.05.92.09,2.38-1.66,4.79-1.46,7.17.59,1.02-.26,1.94-.4,2.77-.4.7,0,1.35.1,1.94.28C24.19-.5,28.25.25,31.27.82c.89-.42,2.06-.82,3.3-.82.9,0,1.72.21,2.44.64,1.7,1.02,2.16,3.58,2.5,5.44l.08.45c.96,5.12.25,10.46-1.99,15.03-.26.53-.54,1.05-.82,1.57-.58,1.07-1.18,2.19-1.57,3.35-.05.15-.09.3-.13.44-.39,1.46-.14,3.17.09,4.82.11.78.21,1.51.26,2.22.17,2.74.19,5.52.07,8.27-.24,5.39-1.02,10.77-2.34,15.98-1.08,4.28-3.05,10.39-7.71,13.95-.88.67-1.84,1.05-2.63,1.05-.67,0-1.56-.26-2.09-1.51-.22-.51-.29-1.1-.21-1.68.12-.82.24-1.66.36-2.5.85-5.93,1.81-12.65.79-19.1l-.04-.24c-.25-1.59-.5-3.22-1.94-4.19-.67-.45-1.5-.58-2.18-.34-1.34.49-1.23,1.92-1.12,3.29.03.43.07.83.06,1.21-.09,2.62-1.23,5.38-2.1,7.25-1.72,3.09-2.38,6.62-2.03,10.79.09,1.13-.32,2.21-1.12,2.89-.46.39-.94.58-1.45.58-.97,0-1.97-.7-3.01-2.11-3.95-4.09-4.77-11.2-2.49-21.73.99-6.4,1.07-11.58.27-16.28-.38-2.23-1.27-4.27-2.14-6.24Z" fill="#495059" stroke-width="0"/>
  </g>
</svg>