<?xml version="1.0" encoding="utf-8"?>
<!-- Generator: Adobe Illustrator 28.0.0, SVG Export Plug-In . SVG Version: 6.00 Build 0)  -->
<svg version="1.1" id="Layer_1" xmlns="http://www.w3.org/2000/svg" xmlns:xlink="http://www.w3.org/1999/xlink" x="0px" y="0px"
	 viewBox="0 0 109.7 84.8" style="enable-background:new 0 0 109.7 84.8;" xml:space="preserve">
<style type="text/css">
	.st0{fill:#DBEAF9;}
	.st1{fill:#FFFFFF;}
	.st2{fill:#D1E7FF;}
	.st3{fill:#5286E8;}
	.st4{fill:#F2F6FD;}
	.st5{fill:#2E58FF;}
	.st6{fill:none;stroke:#2E58FF;stroke-width:2;stroke-linecap:round;stroke-miterlimit:10;}
	.st7{fill:#105AEF;}
	.st8{fill-rule:evenodd;clip-rule:evenodd;fill:#5286E8;}
	.st9{fill:#DEE8FC;}
</style>
<ellipse class="st0" cx="55.1" cy="74.3" rx="53" ry="10.6"/>
<path class="st1" d="M93.1,29.1v41.2c0,2-1.6,3.6-3.7,3.6H20.7c-2,0-3.6-1.6-3.6-3.6V29.1H93.1z"/>
<path class="st2" d="M93.1,18v9.1H17.1V18c0-2,1.6-3.6,3.6-3.6h68.8C91.5,14.3,93.1,16,93.1,18z"/>
<rect x="22.5" y="19.2" class="st3" width="3.4" height="3.4"/>
<rect x="28.6" y="19.2" class="st3" width="3.4" height="3.4"/>
<rect x="34.7" y="19.2" class="st3" width="3.4" height="3.4"/>
<path class="st4" d="M86.6,30.6c-2,6.5-3.5,11.9-4.5,15.5c-3.2,11.6-4,16.3-8,21.5c-2.6,3.4-5.4,5.6-7.2,6.8
	c10,0.4,17.4,0.6,20.4,0.7c0.7,0,2.7,0.1,4.6-1c0.9-0.6,1.4-1.2,1.5-1.4c0.9-1.4,0.9-2.9,0.8-3.5C93.4,49.4,93,39.4,94.2,35
	c0.5-1.7,1.2-3.8,0.1-5.2c-2-2.7-9.8-0.1-9.8,0.5C84.6,30.4,85.1,30.5,86.6,30.6z"/>
<circle class="st5" cx="42.7" cy="44.3" r="2.8"/>
<path class="st6" d="M50.4,53.7c0.2,0.3,1.8,2.3,4.5,2.3c2.9,0.1,4.6-2.1,4.8-2.3"/>
<circle class="st5" cx="67.5" cy="44.3" r="2.8"/>
<path class="st7" d="M89.5,12.3H20.7c-3.1,0-5.6,2.5-5.6,5.6v52.2c0,3.1,2.5,5.6,5.6,5.6h68.8c3.1,0,5.7-2.5,5.7-5.6V18
	C95.1,14.9,92.6,12.3,89.5,12.3z M93.1,70.2c0,2-1.6,3.6-3.7,3.6H20.7c-2,0-3.6-1.6-3.6-3.6V29.1h76.1V70.2z M93.1,27.1H17.1V18
	c0-2,1.6-3.6,3.6-3.6h68.8c2,0,3.7,1.6,3.7,3.6V27.1z"/>
<path class="st1" d="M108.9,16.2c0,7.9-6.4,14.3-14.3,14.3c-0.9,0-1.3-0.2-3-0.3c-4.2-0.2-7,0.2-9.3,1.1c0,0-0.1,0-0.1-0.1
	c1.5-5,0.4-7-0.3-8.5c-0.2-0.3-0.6-1.2-1-2.5c-0.4-1.3-0.6-2.6-0.6-4C80.2,8.3,86.7,2,94.6,2C102.5,2,108.9,8.3,108.9,16.2z"/>
<path class="st7" d="M82.1,32.3l-0.4-0.4c-0.3-0.2-0.4-0.6-0.3-0.9c1.3-4.5,0.5-6.3-0.2-7.7L81,23c-0.2-0.4-0.6-1.3-1-2.5
	c-0.4-1.4-0.6-2.8-0.6-4.3c0-8.3,6.8-15.1,15.2-15.1s15.2,6.8,15.2,15.1s-6.8,15.1-15.2,15.1c-0.5,0-0.9-0.1-1.3-0.1
	c-0.4-0.1-0.9-0.1-1.7-0.2c-4-0.2-6.7,0.1-9,1.1L82.1,32.3z M94.6,2.8c-7.4,0-13.5,6-13.5,13.4c0,1.3,0.2,2.6,0.6,3.8
	c0.3,1.1,0.7,1.9,0.9,2.2l0.1,0.3c0.7,1.4,1.6,3.3,0.7,7.5c2.2-0.6,4.8-0.8,8.2-0.7c0.9,0,1.5,0.1,1.9,0.2c0.4,0.1,0.6,0.1,1,0.1
	c7.4,0,13.5-6,13.5-13.4S102,2.8,94.6,2.8z"/>
<path class="st8" d="M91.7,10.5c3.1-1.5,6.8-0.5,8.6,2.5c1,1.7,1.2,3.6,0.7,5.3l0.7-0.4c0.3-0.2,0.7-0.1,0.9,0.2
	c0.2,0.3,0.1,0.7-0.2,0.9l-2.3,1.4c-0.3,0.2-0.7,0.1-0.9-0.2l-1.4-2.3c-0.2-0.3-0.1-0.7,0.2-0.9c0.3-0.2,0.7-0.1,0.9,0.2l0.7,1.1
	c0.6-1.5,0.5-3.2-0.4-4.6c-1.4-2.3-4.4-3.1-6.9-2c-0.3,0.2-0.7,0-0.9-0.3C91.2,11.1,91.3,10.7,91.7,10.5L91.7,10.5z M97.8,21.9
	c0.2,0.3,0,0.7-0.3,0.9c-3.1,1.5-6.8,0.5-8.6-2.5c-1-1.7-1.2-3.6-0.7-5.3l-0.7,0.4c-0.3,0.2-0.7,0.1-0.9-0.2
	c-0.2-0.3-0.1-0.7,0.2-0.9c0,0,0,0,0,0l2.3-1.4c0.3-0.2,0.7-0.1,0.9,0.2l1.4,2.3c0.2,0.3,0.1,0.7-0.2,0.9c-0.3,0.2-0.7,0.1-0.9-0.2
	c0,0,0,0,0,0l-0.7-1.1c-0.6,1.5-0.5,3.2,0.4,4.6c1.4,2.3,4.4,3.1,6.9,2C97.2,21.5,97.6,21.6,97.8,21.9z"/>
<path class="st9" d="M8.3,16.7c-0.8,0-1.4-0.6-1.5-1.4C6.7,14.3,6.7,11,9.3,8.4c2.9-3,6.7-2.6,7.5-2.6c0.8,0.1,1.4,0.9,1.3,1.7
	c-0.1,0.8-0.9,1.4-1.7,1.3c-0.3,0-3-0.3-4.9,1.7c-1.8,1.8-1.7,4.1-1.7,4.6c0.1,0.8-0.6,1.5-1.4,1.6C8.4,16.7,8.3,16.7,8.3,16.7z"/>
<path class="st9" d="M1.7,16.8c-0.7,0-1.3-0.5-1.5-1.2C0,14.5-0.8,8.9,3,4.5c1.3-1.5,3.8-3.5,8-4.3c1.5-0.3,3-0.3,4.5-0.1
	c0.8,0.1,1.4,0.9,1.3,1.7c-0.1,0.8-0.9,1.4-1.7,1.3c-1.2-0.2-2.4-0.1-3.6,0.1C8.9,3.6,6.8,4.7,5.3,6.5C2.4,9.8,3,14.1,3.2,15
	c0.1,0.8-0.4,1.6-1.2,1.7C1.9,16.8,1.8,16.8,1.7,16.8z"/>
</svg>
