<?xml version="1.0" encoding="UTF-8"?>
<svg id="zh" xmlns="http://www.w3.org/2000/svg" width="300" height="300" viewBox="0 0 300 300">
  <rect width="300" height="300" fill="#d80027" stroke-width="0"/>
  <path d="M177.083333,82.974998l1.166662-15.641665-.008329-.074999-10.13333,11.999997-14.583333-5.833332,8.31666,13.299998-10.13333,12.000004,15.291675-3.749998,8.249998,13.358331,1.125002-15.774997,15.291659-3.749998-14.583333-5.83334ZM82.091665,91.316668l-.008337-.025002h.016665l-.008329.025002ZM82.091665,91.316668l12.941662,39.808337h41.89167l-33.866668,24.666659,12.949999,39.833339-33.916664-24.608342-33.916668,24.608326,13-39.833339-33.916668-24.666667h41.891666l12.94167-39.808313ZM209.699996,157.266665l5.099996,14.883327,15.700006-.16667-12.599993,9.375,5.041663,14.883327-12.833325-9.16667-12.599993,9.433333,4.691664-14.999994-12.833325-9.16667,15.700006-.233332,4.625003-14.999994.008297.158342ZM175.599988,191.250006l-8.550008,13.174995-15.166664-4.041672,9.899998,12.249994-8.500004,13.183339,14.649995-5.683327,9.899998,12.191661-.874996-15.700006,14.70836-5.624994-15.249999-4.050001-.816663-15.691662.008329-.016673-.008345.008345ZM198.916658,106.458338l11.250003,10.95833,13.883336-7.333334-6.916666,14.124997,11.250003,10.95833-15.525007-2.225002-6.916666,14.066664-2.691666-15.466666-15.58334-2.225002,13.941669-7.333334-2.691666-15.524983Z" fill="#ffda44" fill-rule="evenodd" stroke-width="0"/>
</svg>