<?xml version="1.0" encoding="UTF-8"?>
<svg id="Layer_2" data-name="Layer 2" xmlns="http://www.w3.org/2000/svg" width="50" height="50" viewBox="0 0 50 50">
  <path d="M32.77,39.52l-17.23,4.76c-3.69,1.02-7.53-1.15-8.55-4.85l-3.3-11.95,42.11-11.63,2.24,8.12c.15.53.69.84,1.22.69s.84-.69.69-1.22l-3.7-13.4c-1.31-4.75-6.24-7.55-10.99-6.23L6.56,11.74C1.81,13.05-.99,17.98.32,22.73l4.76,17.23c1.31,4.75,6.24,7.55,10.99,6.23l17.23-4.76c.53-.15.84-.69.69-1.22s-.69-.84-1.22-.69ZM45.45,14.55l-.31-1.1h0s.31,1.1.31,1.1ZM7.09,13.65l28.71-7.93c3.69-1.02,7.53,1.15,8.55,4.85l.26.96h0s-.14-.5-.14-.5L2.37,22.66l-.13-.46c-1.02-3.69,1.15-7.53,4.85-8.55ZM50,33.34c0,.75-.44,1.69-.93,2.17l-5.61,5.85c-.4.42-1.06.43-1.47.03-.42-.4-.43-1.06-.03-1.47l5.31-5.53h-14.97c-.58,0-1.04-.47-1.04-1.04s.47-1.04,1.04-1.04h15.05l-5.38-5.52c-.2-.2-.3-.46-.3-.73h0c0-.27.1-.54.31-.75.41-.4,1.07-.39,1.47.02l5.63,5.78c.51.51.92,1.49.92,2.24ZM13.33,32.53c-2.11.58-3.35,2.77-2.77,4.89.58,2.11,2.77,3.35,4.89,2.77,2.11-.58,3.35-2.77,2.77-4.89-.58-2.11-2.77-3.35-4.89-2.77ZM14.92,38.27c-1.06.29-2.15-.33-2.44-1.39s.33-2.15,1.39-2.44c1.06-.29,2.15.33,2.44,1.39s-.33,2.15-1.39,2.44Z" fill="#fff" stroke-width="0"/>
</svg>