<?xml version="1.0" encoding="UTF-8"?>
<svg id="Layer_1" data-name="Layer 1" xmlns="http://www.w3.org/2000/svg" width="50" height="50" viewBox="0 0 50 50">
  <path d="M41.7,31.3c1.2,0,2.1.9,2.1,2.1s-.9,2.1-2.1,2.1-2.1-.9-2.1-2.1.9-2.1,2.1-2.1ZM47.4,17.4c-.5-.3-1.1-.1-1.4.4-.3.5-.1,1.2.4,1.5,1,.5,1.5,1.7,1.5,2.8v22.7c0,1.7-1.4,3.1-3.1,3.1H9.4c-4,0-7.3-3.3-7.3-7.3v-22.9c0-.7.1-1.4.3-2.1,1.8,1.9,4.3,3.1,7,3.1h25c.6,0,1-.5,1-1s-.5-1-1-1H9.4c-2.4,0-4.6-1.2-6-3.1,1.3-1.9,3.5-3.1,6-3.1h18.8c.6,0,1-.5,1-1s-.5-1-1-1H9.4C4.2,8.3,0,12.5,0,17.7v22.9c0,5.2,4.2,9.4,9.4,9.4h35.4c2.9,0,5.2-2.3,5.2-5.2v-22.9c0-1.9-1-3.6-2.6-4.5ZM33.3,8.3c.3,0,.5,0,.7-.3l5.5-5.4v15c0,.6.5,1,1,1s1-.5,1-1V2.7l5.5,5.3c.4.4,1.1.4,1.5,0,.4-.4.4-1.1,0-1.5l-5.8-5.6C42.3.4,41.4,0,40.6,0s-1.7.4-2.2.9l-5.8,5.6c-.4.4-.4,1.1,0,1.5.2.2.5.3.7.3h0Z" style="fill: #fff; stroke-width: 0px;"/>
</svg>