<?xml version="1.0" encoding="UTF-8"?>
<svg id="Layer_1" data-name="Layer 1" xmlns="http://www.w3.org/2000/svg" width="50" height="50" viewBox="0 0 50 50">
  <path d="M49.7,48.2l-6.8-6.8c1.8-2.2,3-5,3-8.1,0-6.9-5.6-12.5-12.5-12.5s-12.5,5.6-12.5,12.5,5.6,12.5,12.5,12.5,5.9-1.1,8.1-3l6.8,6.8c.2.2.5.3.7.3s.5-.1.7-.3c.4-.4.4-1.1,0-1.5h0ZM33.3,43.7c-5.7,0-10.4-4.7-10.4-10.4s4.7-10.4,10.4-10.4,10.4,4.7,10.4,10.4-4.7,10.4-10.4,10.4ZM24,47.9h-14.6c-4,0-7.3-3.3-7.3-7.3V9.4c0-4,3.3-7.3,7.3-7.3h11.5c.7,0,1.4,0,2.1.2v11.3c0,2.9,2.3,5.2,5.2,5.2h12.1c.3,0,.6-.1.8-.4s.3-.6.2-.9c-.6-2.4-1.8-4.5-3.5-6.2l-7.3-7.3C27.9,1.4,24.5,0,20.9,0h-11.5c-5.2,0-9.4,4.2-9.4,9.4v31.2c0,5.2,4.2,9.4,9.4,9.4h14.6c.6,0,1-.5,1-1s-.5-1-1-1ZM25,2.9c1.5.6,2.8,1.4,4,2.6l7.3,7.3c1.1,1.1,2,2.5,2.6,4h-10.7c-1.7,0-3.1-1.4-3.1-3.1V2.9ZM19.8,22.9h-10.4c-.6,0-1-.5-1-1s.5-1,1-1h10.4c.6,0,1,.5,1,1s-.5,1-1,1ZM8.3,30.2c0-.6.5-1,1-1h6.2c.6,0,1,.5,1,1s-.5,1-1,1h-6.2c-.6,0-1-.5-1-1ZM8.3,38.5c0-.6.5-1,1-1h7.3c.6,0,1,.5,1,1s-.5,1-1,1h-7.3c-.6,0-1-.5-1-1ZM40.3,30.5c.4.4.4,1.1,0,1.5l-5.6,5.4c-.7.7-1.7,1.1-2.7,1.1s-2-.4-2.7-1.1l-2.8-2.8c-.4-.4-.4-1.1,0-1.5s1.1-.4,1.5,0l2.8,2.8c.7.7,1.8.7,2.5,0l5.6-5.5c.4-.4,1.1-.4,1.5,0h0Z" style="fill: #fff; stroke-width: 0px;"/>
</svg>