<?xml version="1.0" encoding="UTF-8"?>
<svg id="Layer_1" data-name="Layer 1" xmlns="http://www.w3.org/2000/svg" width="50" height="50" viewBox="0 0 50 50">
  <path d="M12.5,31.2H1.3c-.6,0-1-.5-1-1s.5-1,1-1h11.2c.4,0,.8-.2.9-.6l2.2-4.4c.4-.9,1.3-1.4,2.3-1.3,1,0,1.8.7,2.1,1.6l4,10.8c0,.2.2.2.3.2.1,0,.2,0,.3-.2l2.2-4.4c.5-1.1,1.6-1.7,2.8-1.7h9.1c.6,0,1,.5,1,1s-.5,1-1,1h-9.1c-.4,0-.8.2-.9.6l-2.2,4.4c-.4.8-1.2,1.3-2.2,1.3s0,0-.1,0c-1,0-1.8-.7-2.1-1.6l-4-10.8c0-.2-.2-.2-.3-.2-.1,0-.2,0-.3.2l-2.2,4.4c-.5,1.1-1.6,1.7-2.8,1.7h0ZM50,20.8v19.8c0,5.2-4.2,9.4-9.4,9.4h-22.9c-5.2,0-9.4-4.2-9.4-9.4v-4.2c0-.6.5-1,1-1s1,.5,1,1v4.2c0,4,3.3,7.3,7.3,7.3h22.9c4,0,7.3-3.3,7.3-7.3v-19.8c0-.7,0-1.4-.2-2.1h-11.3c-2.9,0-5.2-2.3-5.2-5.2V2.3c-.7-.1-1.4-.2-2.1-.2h-11.5c-4,0-7.3,3.3-7.3,7.3v14.6c0,.6-.5,1-1,1s-1-.5-1-1v-14.6c0-5.2,4.2-9.4,9.4-9.4h11.5c3.6,0,7,1.4,9.6,4l7.3,7.3c2.6,2.6,4,6,4,9.6ZM47.1,16.7c-.6-1.5-1.4-2.8-2.6-4l-7.3-7.3c-1.1-1.1-2.5-2-4-2.6v10.7c0,1.7,1.4,3.1,3.1,3.1h10.7,0Z" style="fill: #fff; stroke-width: 0px;"/>
</svg>