<?xml version="1.0" encoding="UTF-8"?>
<svg id="Layer_1" data-name="Layer 1" xmlns="http://www.w3.org/2000/svg" width="50" height="50" viewBox="0 0 50 50">
  <path d="M43.2,32.1c-2.1-2.1-5.8-2.1-7.9,0l-3.8,3.2c-7.8-3.1-13.4-8.8-16.8-16.8l3.1-3.7c2.2-2.2,2.2-5.7,0-7.8L13.9,1.6c-2.1-2.1-5.9-2.1-7.9,0l-2.4,2.1C1.3,6,0,9.1,0,12.5c0,16.1,21.4,37.5,37.5,37.5s6.4-1.3,8.8-3.6l2-2.3c2.2-2.2,2.2-5.7-.1-8l-5.1-3.9h0ZM46.8,42.6l-2,2.3c-1.9,1.9-4.5,2.9-7.2,2.9C22.6,47.9,2.1,27.4,2.1,12.5s1-5.4,2.9-7.2l2.4-2.1c.7-.7,1.6-1,2.5-1s1.7.3,2.4.9l4.1,5.3c1.4,1.4,1.4,3.6,0,5l-3.6,4.3c-.2.3-.3.7-.2,1.1,3.6,9.1,10,15.4,18.8,18.7.4.1.8,0,1-.2,0,0,4.3-3.6,4.3-3.6,1.3-1.3,3.5-1.4,5.1,0l5.1,3.9c1.4,1.4,1.4,3.6,0,5h0ZM35.4,9.4v5.8l3.9,3.9c.4.4.4,1.1,0,1.5s-.5.3-.7.3-.5-.1-.7-.3l-4.2-4.2c-.2-.2-.3-.5-.3-.7v-6.2c0-.6.5-1,1-1s1,.5,1,1ZM22.1,6C25.1,2.2,29.6,0,34.4,0,43,0,50,7,50,15.6s-2.2,9.3-6,12.3c-.2.1-.4.2-.6.2s-.6-.1-.8-.4c-.4-.5-.3-1.1.2-1.5,3.3-2.6,5.2-6.5,5.2-10.6,0-7.5-6.1-13.5-13.5-13.5s-8.1,1.9-10.6,5.2c-.4.5-1,.5-1.5.2s-.5-1-.2-1.5h0Z" style="fill: #fff; stroke-width: 0px;"/>
</svg>