<?xml version="1.0" encoding="UTF-8"?>
<svg id="Layer_1" data-name="Layer 1" xmlns="http://www.w3.org/2000/svg" width="50" height="50" viewBox="0 0 50 50">
  <path d="M40.6,4.2h-3.1V1C37.5.5,37,0,36.5,0s-1,.5-1,1v3.1H14.6V1C14.6.5,14.1,0,13.5,0s-1,.5-1,1v3.1h-3.1C4.2,4.2,0,8.4,0,13.5v27.1c0,5.2,4.2,9.4,9.4,9.4h8.3c.6,0,1-.5,1-1s-.5-1-1-1h-8.3c-4,0-7.3-3.3-7.3-7.3v-21.9h46.9c.6,0,1-.5,1-1v-4.2c0-5.2-4.2-9.4-9.4-9.4ZM47.9,16.7H2.1v-3.1c0-4,3.3-7.3,7.3-7.3h31.2c4,0,7.3,3.3,7.3,7.3v3.1ZM41.1,24.4l-16.1,16.1c-1.4,1.4-2.1,3.2-2.1,5.2v3.3c0,.6.5,1,1,1h3.3c1.9,0,3.8-.8,5.2-2.1l16.1-16.1c1-1,1.5-2.3,1.5-3.7s-.5-2.7-1.5-3.7c-2-2-5.4-2-7.4,0h0ZM47,30.3l-16.1,16.1c-1,1-2.3,1.5-3.7,1.5h-2.3v-2.3c0-1.4.5-2.7,1.5-3.7l16.1-16.1c1.2-1.2,3.2-1.2,4.4,0,.6.6.9,1.4.9,2.2s-.3,1.6-.9,2.2h0ZM10.4,28.1c0-.6.5-1,1-1h18.8c.6,0,1,.5,1,1s-.5,1-1,1H11.5c-.6,0-1-.5-1-1h0ZM20.8,38.5c0,.6-.5,1-1,1h-8.3c-.6,0-1-.5-1-1s.5-1,1-1h8.3c.6,0,1,.5,1,1h0Z" style="fill: #fff; stroke-width: 0px;"/>
</svg>