<?xml version="1.0" encoding="UTF-8"?>
<svg id="Layer_1" data-name="Layer 1" xmlns="http://www.w3.org/2000/svg" width="50" height="50" viewBox="0 0 50 50">
  <path d="M39.6,25c0,1.1-.9,2.1-2.1,2.1s-2.1-.9-2.1-2.1.9-2.1,2.1-2.1,2.1.9,2.1,2.1ZM50,26v6.2c0,1.7-1.4,3.1-3.1,3.1h-.4c-1.8,3.8-5,6.8-8.9,8.3v1c0,2.9-2.3,5.2-5.2,5.2s-4.6-1.8-5.1-4.2h-6.5c-.5,2.4-2.6,4.2-5.1,4.2s-5.2-2.3-5.2-5.2v-1C3.5,41.1-.7,34.3,0,26.9c.3-2.6,1.2-5,2.7-7.1C1.1,18.6,0,16.7,0,14.6,0,11.1,2.8,8.3,6.2,8.3s1,.5,1,1-.5,1-1,1c-2.3,0-4.2,1.9-4.2,4.2s.8,2.8,2,3.5c3.1-3.4,7.7-5.6,12.6-5.6h14.8c.7-2.7,2.8-4.8,5.9-6,1-.4,2.1-.3,2.9.3.9.6,1.4,1.5,1.4,2.6v6.5c2.3,1.8,4.2,4.3,5.2,7h0c1.3,0,3.1.8,3.1,3.1h0ZM47.9,26c0-.8-.6-1-1-1h-.7c-.4,0-.8-.3-1-.7-.9-2.8-2.7-5.3-5.1-7-.3-.2-.4-.5-.4-.8v-7c0-.4-.2-.7-.5-.9-.3-.2-.7-.2-1-.1-1.9.8-4.3,2.3-4.8,5.3,0,.5-.5.9-1.1.9h-15.6c-7.4,0-13.8,5.5-14.5,12.5-.7,6.7,3.2,12.8,9.6,14.9.4.1.7.5.7,1v1.8c0,1.7,1.4,3.1,3.1,3.1s3.1-1.4,3.1-3.1.5-1,1-1h8.3c.6,0,1,.5,1,1,0,1.7,1.4,3.1,3.1,3.1s3.1-1.4,3.1-3.1v-1.8c0-.5.3-.8.7-1,3.9-1.3,7.1-4.2,8.6-8,.2-.4.5-.6,1-.6h1.1c.6,0,1-.5,1-1v-6.2h0ZM13.5,9.4c.6,0,1-.5,1-1,0-3.4,2.8-6.2,6.2-6.2s6.2,2.8,6.2,6.2.5,1,1,1,1-.5,1-1C29.2,3.7,25.4,0,20.8,0s-8.3,3.7-8.3,8.3.5,1,1,1Z" style="fill: #fff; stroke-width: 0px;"/>
</svg>