<?xml version="1.0" encoding="UTF-8"?>
<svg id="Layer_1" data-name="Layer 1" xmlns="http://www.w3.org/2000/svg" width="50" height="50" viewBox="0 0 50 50">
  <path d="M31.3,11.5c0,.6-.5,1-1,1h-12.5c-.6,0-1-.5-1-1s.5-1,1-1h12.5c.6,0,1,.5,1,1ZM31.3,21.9c0-.6-.5-1-1-1h-12.5c-.6,0-1,.5-1,1s.5,1,1,1h12.5c.6,0,1-.5,1-1ZM10.4,30.2c-1.2,0-2.1.9-2.1,2.1s.9,2.1,2.1,2.1,2.1-.9,2.1-2.1-.9-2.1-2.1-2.1ZM10.4,9.4c-1.2,0-2.1.9-2.1,2.1s.9,2.1,2.1,2.1,2.1-.9,2.1-2.1-.9-2.1-2.1-2.1ZM10.4,19.8c-1.2,0-2.1.9-2.1,2.1s.9,2.1,2.1,2.1,2.1-.9,2.1-2.1-.9-2.1-2.1-2.1ZM28.1,47.9H9.4c-4,0-7.3-3.3-7.3-7.3V9.4c0-4,3.3-7.3,7.3-7.3h20.8c4,0,7.3,3.3,7.3,7.3v12.5c0,.6.5,1,1,1s1-.5,1-1v-12.5c0-5.2-4.2-9.4-9.4-9.4H9.4C4.2,0,0,4.2,0,9.4v31.2c0,5.2,4.2,9.4,9.4,9.4h18.8c.6,0,1-.5,1-1s-.5-1-1-1ZM17.7,31.2c-.6,0-1,.5-1,1s.5,1,1,1h2.1c.6,0,1-.5,1-1s-.5-1-1-1h-2.1ZM50,34.3c0,5.3-6.6,11.2-10.5,14.2-.6.5-1.3.7-2,.7s-1.4-.2-2-.7c-3.9-3-10.5-8.9-10.5-14.2s3-7.2,6.8-7.2,4.5,1.1,5.8,2.8c1.2-1.7,3.3-2.8,5.7-2.8,3.7,0,6.8,3.2,6.8,7.2ZM47.9,34.3c0-2.8-2.1-5.1-4.7-5.1s-4.2,1.4-4.7,3.4c-.2.9-1.8.9-2,0-.5-2-2.4-3.4-4.7-3.4s-4.7,2.3-4.7,5.1c0,4.7,7.4,10.8,9.7,12.6.4.3,1.1.3,1.5,0,2.3-1.8,9.7-7.8,9.7-12.6Z" style="fill: #fff; stroke-width: 0px;"/>
</svg>