<?xml version="1.0" encoding="UTF-8"?>
<svg id="Layer_1" data-name="Layer 1" xmlns="http://www.w3.org/2000/svg" width="50" height="50" viewBox="0 0 50 50">
  <path d="M40.6,12.5h-1v-7.3C39.6,2.3,37.2,0,34.4,0H9.4C4.2,0,0,4.2,0,9.4v18.8c0,5.2,4.2,9.4,9.4,9.4h1v3.1c0,5.2,4.2,9.4,9.4,9.4h20.8c5.2,0,9.4-4.2,9.4-9.4v-18.8c0-5.2-4.2-9.4-9.4-9.4ZM36.6,3.1c.5.6.9,1.3.9,2.1v7.3h-21.3L36.6,3.1ZM10.4,35.4h-1c-4,0-7.3-3.3-7.3-7.3V9.4c0-4,3.3-7.3,7.3-7.3h24.4L14.7,10.9c-2.6,1.2-4.2,3.8-4.2,6.6v17.9ZM47.9,40.6c0,4-3.3,7.3-7.3,7.3h-20.8c-4,0-7.3-3.3-7.3-7.3v-23.1c0-1.1.3-2.1.9-3,0,0,0,0,.1,0h27.1c4,0,7.3,3.3,7.3,7.3v18.8ZM41.7,25c0,.6-.5,1-1,1h-8.3c-.6,0-1-.5-1-1s.5-1,1-1h8.3c.6,0,1,.5,1,1ZM25.1,25c0,.6-.5,1-1,1h-4.1c-.6,0-1-.5-1-1s.5-1,1-1h4.1c.6,0,1,.5,1,1ZM22,28.1c-.6,0-1-.5-1-1v-4.1c0-.6.5-1,1-1s1,.5,1,1v4.1c0,.6-.5,1-1,1ZM25.1,37.5c0,.6-.5,1-1,1h-4.1c-.6,0-1-.5-1-1s.5-1,1-1h4.1c.6,0,1,.5,1,1ZM22,40.6c-.6,0-1-.5-1-1v-4.1c0-.6.5-1,1-1s1,.5,1,1v4.1c0,.6-.5,1-1,1ZM41.7,37.5c0,.6-.5,1-1,1h-8.3c-.6,0-1-.5-1-1s.5-1,1-1h8.3c.6,0,1,.5,1,1Z" style="fill: #fff; stroke-width: 0px;"/>
</svg>