<?xml version="1.0" encoding="UTF-8"?>
<svg id="Layer_1" data-name="Layer 1" xmlns="http://www.w3.org/2000/svg" width="50" height="50" viewBox="0 0 50 50">
  <path d="M25,50c-3.2,0-6.2-1.4-8.3-3.9-.2-.2-.5-.3-.8-.3-3.2.3-6.3-.9-8.6-3.1-2.3-2.3-3.4-5.4-3.1-8.6,0-.3,0-.6-.3-.8-2.5-2.1-3.9-5.1-3.9-8.3s1.4-6.2,3.9-8.3c.2-.2.4-.5.3-.8-.3-3.2.9-6.3,3.1-8.6,2.3-2.3,5.4-3.4,8.6-3.1.3,0,.6,0,.8-.3C18.8,1.4,21.8,0,25,0s6.2,1.4,8.3,3.9c.2.2.5.3.8.3,3.2-.3,6.3.9,8.6,3.1,2.3,2.3,3.4,5.4,3.1,8.6,0,.3,0,.6.3.8,2.5,2.1,3.9,5.1,3.9,8.3s-1.4,6.2-3.9,8.3c-.2.2-.4.5-.3.8.3,3.2-.9,6.3-3.1,8.6s-5.4,3.4-8.6,3.1c-.3,0-.6,0-.8.3-2.1,2.5-5.1,3.9-8.3,3.9h0ZM16,43.7c.9,0,1.7.4,2.3,1.1,1.7,2,4.1,3.1,6.7,3.1s5-1.1,6.7-3.1c.6-.8,1.6-1.2,2.6-1.1,2.6.2,5.1-.7,6.9-2.5s2.8-4.4,2.5-6.9c0-1,.3-1.9,1.1-2.6,2-1.7,3.1-4.1,3.1-6.7s-1.1-5-3.1-6.7c-.8-.6-1.1-1.6-1.1-2.6.2-2.6-.7-5.1-2.5-6.9-1.8-1.8-4.4-2.8-6.9-2.5-1,0-1.9-.3-2.6-1.1-1.7-2-4.1-3.1-6.7-3.1s-5,1.1-6.7,3.1c-.6.8-1.6,1.1-2.6,1.1-2.6-.2-5.1.7-6.9,2.5-1.8,1.8-2.8,4.4-2.5,6.9,0,1-.3,1.9-1.1,2.6-2,1.7-3.1,4.1-3.1,6.7s1.1,5,3.1,6.7c.8.6,1.1,1.6,1.1,2.6-.2,2.6.7,5.1,2.5,6.9s4.4,2.7,6.9,2.5c0,0,.2,0,.3,0h0ZM18.7,16.7c-1.2,0-2.1.9-2.1,2.1s.9,2.1,2.1,2.1,2.1-.9,2.1-2.1-.9-2.1-2.1-2.1ZM31.2,29.2c-1.2,0-2.1.9-2.1,2.1s.9,2.1,2.1,2.1,2.1-.9,2.1-2.1-.9-2.1-2.1-2.1ZM20.7,33.9l10.4-15.6c.3-.5.2-1.1-.3-1.4-.5-.3-1.1-.2-1.4.3l-10.4,15.6c-.3.5-.2,1.1.3,1.4.2.1.4.2.6.2.3,0,.7-.2.9-.5h0Z" style="fill: #fff; stroke-width: 0px;"/>
</svg>