<?xml version="1.0" encoding="UTF-8"?>
<svg id="Layer_1" data-name="Layer 1" xmlns="http://www.w3.org/2000/svg" width="50" height="50" viewBox="0 0 50 50">
  <path d="M46.1,16.7c-.2-.2-.4-.5-.3-.8.3-3.2-.9-6.3-3.1-8.6-2.3-2.3-5.4-3.4-8.6-3.1-.3,0-.6,0-.8-.3C31.2,1.4,28.2,0,25,0s-6.2,1.4-8.3,3.9c-.2.2-.5.3-.8.3-3.2-.3-6.3.9-8.6,3.1-2.3,2.3-3.4,5.4-3.1,8.6,0,.3,0,.6-.3.8-2.5,2.1-3.9,5.1-3.9,8.3s1.4,6.2,3.9,8.3c.2.2.4.5.3.8-.3,3.2.9,6.3,3.1,8.6,2.3,2.3,5.4,3.4,8.6,3.1.3,0,.6,0,.8.3,2.1,2.5,5.1,3.9,8.3,3.9s6.2-1.4,8.3-3.9c.2-.2.5-.3.8-.3,3.2.3,6.3-.9,8.6-3.1,2.3-2.3,3.4-5.4,3.1-8.6,0-.3,0-.6.3-.8,2.5-2.1,3.9-5.1,3.9-8.3s-1.4-6.2-3.9-8.3h0ZM44.8,31.7c-.8.6-1.1,1.6-1.1,2.6.2,2.6-.7,5.1-2.5,6.9s-4.4,2.8-6.9,2.5c-1,0-1.9.3-2.6,1.1-1.7,2-4.1,3.1-6.7,3.1s-5-1.1-6.7-3.1c-.6-.7-1.4-1.1-2.3-1.1s-.2,0-.3,0c-2.6.2-5.1-.7-6.9-2.5s-2.8-4.4-2.5-6.9c0-1-.3-1.9-1.1-2.6-2-1.7-3.1-4.1-3.1-6.7s1.1-5,3.1-6.7c.8-.6,1.1-1.6,1.1-2.6-.2-2.6.7-5.1,2.5-6.9,1.8-1.8,4.4-2.8,6.9-2.5,1,0,1.9-.3,2.6-1.1,1.7-2,4.1-3.1,6.7-3.1s5,1.1,6.7,3.1c.6.8,1.6,1.1,2.6,1.1,2.6-.2,5.1.7,6.9,2.5,1.8,1.8,2.8,4.4,2.5,6.9,0,1,.3,1.9,1.1,2.6,2,1.7,3.1,4.1,3.1,6.7s-1.1,5-3.1,6.7h0ZM33.3,29.9c0,3-2.5,5.5-5.5,5.5h-1.8v3.1c0,.6-.5,1-1,1s-1-.5-1-1v-3.1h-1.9c-2,0-3.9-1.1-5-2.9-.3-.5-.1-1.1.4-1.4.5-.3,1.1-.1,1.4.4.7,1.1,1.9,1.8,3.2,1.8h5.8c1.9,0,3.4-1.5,3.4-3.4s-1.2-3.1-2.9-3.3l-7.1-1.1c-2.7-.4-4.6-2.7-4.6-5.4s2.5-5.5,5.5-5.5h1.8v-3.1c0-.6.5-1,1-1s1,.5,1,1v3.1h1.9c2,0,3.9,1.1,5,2.9.3.5.1,1.1-.4,1.4-.5.3-1.1.1-1.4-.4-.7-1.1-1.9-1.8-3.2-1.8h-5.8c-1.9,0-3.4,1.5-3.4,3.4s1.2,3.1,2.9,3.3l7.1,1.1c2.7.4,4.6,2.7,4.6,5.4h0Z" style="fill: #fff; stroke-width: 0px;"/>
</svg>