<?xml version="1.0" encoding="UTF-8"?>
<svg id="Layer_2" data-name="Layer 2" xmlns="http://www.w3.org/2000/svg" width="50" height="50" viewBox="0 0 50 50">
  <path d="M37.499479,34.373569c0,.574974-.466649,1.041623-1.041623,1.041623H13.542144c-.574976,0-1.041623-.466649-1.041623-1.041623s.466647-1.041623,1.041623-1.041623h22.915712c.574974,0,1.041623.466649,1.041623,1.041623ZM36.457856,39.581685H13.542144c-.574976,0-1.041623.466649-1.041623,1.041623s.466647,1.041623,1.041623,1.041623h22.915712c.574974,0,1.041623-.466649,1.041623-1.041623s-.466649-1.041623-1.041623-1.041623ZM14.583767,16.665973c0-2.297821,1.868672-4.166493,4.166493-4.166493s4.166493,1.868672,4.166493,4.166493-1.868673,4.166493-4.166493,4.166493-4.166493-1.868673-4.166493-4.166493ZM16.667014,16.665973c0,1.147868.933294,2.083247,2.083247,2.083247s2.083247-.935378,2.083247-2.083247-.933294-2.083247-2.083247-2.083247-2.083247.935377-2.083247,2.083247ZM13.329652,29.144619c.55206.112495,1.114537-.243739,1.231199-.808301.399983-1.933252,2.162409-3.337362,4.189409-3.337362s3.787342,1.402026,4.189408,3.337362c.102079.491646.535394.829132,1.016624.829132.070831,0,.14166-.00625.214574-.020833.56456-.116661.924962-.668722.808301-1.231198-.597891-2.895713-3.218616-4.995625-6.226825-4.995625s-5.628932,2.101995-6.226825,4.995625c-.118745.56456.24374,1.114537.8083,1.231198l-.004165.000002ZM45.832466,20.8033v19.82209c0,5.168533-4.206077,9.37461-9.37461,9.37461H13.542144c-5.168535,0-9.37461-4.206077-9.37461-9.37461V9.37461C4.167534,4.206075,8.373609,0,13.542144,0h11.489104c3.614432,0,7.016375,1.408275,9.576685,3.966502l7.25803,7.260114c2.558228,2.556144,3.9665,5.956002,3.9665,9.574603l.000004.002082ZM29.166493,13.543187c0,1.722845,1.402026,3.12487,3.12487,3.12487h10.668306c-.568728-1.466606-1.420773-2.820716-2.566561-3.966502l-7.258032-7.260114c-1.147868-1.145786-2.499895-1.997833-3.966502-2.564476v10.664139l-.002082.002084ZM43.749219,20.8033c0-.697888-.079164-1.381193-.199993-2.051997h-11.257863c-2.872796,0-5.208116-2.337402-5.208116-5.208116V2.283238c-.672889-.120828-1.356194-.199992-2.051997-.199992h-11.489106c-4.020666,0-7.291363,3.270697-7.291363,7.291363v31.248699c0,4.020667,3.270697,7.291363,7.291363,7.291363h22.915712c4.020667,0,7.291363-3.270696,7.291363-7.291363v-19.822092.002084Z" fill="#fff" stroke-width="0"/>
</svg>