<?xml version="1.0" encoding="UTF-8"?>
<svg id="Layer_2" data-name="Layer 2" xmlns="http://www.w3.org/2000/svg" width="50" height="50" viewBox="0 0 50 50">
  <path d="M36.458333,22.997916c-7.466666,0-13.541667,6.075001-13.541667,13.541667,0,7.422916,6.075001,13.460418,13.541667,13.460418s13.541667-6.075001,13.541667-13.541667c0-7.422916-6.075001-13.460418-13.541667-13.460418ZM36.458333,47.916667c-6.316666,0-11.458333-5.104168-11.458333-11.377084,0-6.31875,5.141668-11.458333,11.458333-11.458333s11.458333,5.104166,11.458333,11.377084c0,6.318752-5.141668,11.458333-11.458333,11.458333ZM39.279167,37.804166c.406249.406249.406249,1.066665,0,1.472918-.204166.204166-.470833.304166-.7375.304166s-.533334-.102083-.7375-.304166l-2.083333-2.083333c-.195833-.195833-.304166-.460418-.304166-.7375v-4.166667c0-.575.466669-1.041667,1.041667-1.041667s1.041667.466667,1.041667,1.041667v3.735415l1.779167,1.779167ZM40.625,4.166667h-3.125V1.041667c0-.575-.466669-1.041667-1.041667-1.041667s-1.041667.466667-1.041667,1.041667v3.125H14.583333V1.041667c0-.575-.466667-1.041667-1.041667-1.041667s-1.041667.466667-1.041667,1.041667v3.125h-3.125C4.20625,4.166667,0,8.372917,0,13.541667v27.083333c0,5.168748,4.20625,9.375,9.375,9.375h12.5c.575,0,1.041667-.466669,1.041667-1.041667s-.466667-1.041667-1.041667-1.041667h-12.5c-4.020833,0-7.291667-3.270833-7.291667-7.291667v-21.875h45.833333v3.125c0,.575.466669,1.041667,1.041667,1.041667s1.041667-.466667,1.041667-1.041667v-8.333333c0-5.16875-4.206252-9.375-9.375-9.375ZM2.083333,16.666667v-3.125c0-4.020833,3.270834-7.291667,7.291667-7.291667h31.25c4.020834,0,7.291667,3.270834,7.291667,7.291667v3.125H2.083333Z" fill="#fff" stroke-width="0"/>
</svg>