<?xml version="1.0" encoding="UTF-8"?>
<svg id="Layer_1" data-name="Layer 1" xmlns="http://www.w3.org/2000/svg" width="50" height="50" viewBox="0 0 50 50">
  <path d="M25,22.9c2.8,0,5.4-1.1,7.4-3,2-2,3-4.6,3-7.4s-1.1-5.4-3.1-7.4l-3.9-3.8c-1.9-1.8-4.9-1.8-6.8,0l-4,3.8c-2,2-3,4.6-3,7.4s1.1,5.4,3,7.4,4.6,3,7.4,3h0ZM19.1,6.7l4-3.8c.5-.5,1.2-.8,1.9-.8s1.4.3,2,.8l3.9,3.8c1.6,1.6,2.4,3.7,2.4,5.9s-.9,4.3-2.4,5.9c-1.6,1.6-3.7,2.4-5.9,2.4s-4.3-.9-5.9-2.4-2.4-3.7-2.4-5.9.9-4.3,2.4-5.9h0ZM50,19.8c0,.6-.5,1-1,1h-10.4c-.6,0-1-.5-1-1s.5-1,1-1h10.4c.6,0,1,.5,1,1ZM1.1,20.9c-.6,0-1-.5-1-1s.5-1,1-1h10.4c.6,0,1,.5,1,1s-.5,1-1,1H1.1ZM14.6,41.7c0,1.1-.9,2.1-2.1,2.1s-2.1-.9-2.1-2.1.9-2.1,2.1-2.1,2.1.9,2.1,2.1ZM20.8,35.4c0,1.1-.9,2.1-2.1,2.1s-2.1-.9-2.1-2.1.9-2.1,2.1-2.1,2.1.9,2.1,2.1ZM8.3,35.4c0,1.1-.9,2.1-2.1,2.1s-2.1-.9-2.1-2.1.9-2.1,2.1-2.1,2.1.9,2.1,2.1ZM33.3,35.4c0,1.1-.9,2.1-2.1,2.1s-2.1-.9-2.1-2.1.9-2.1,2.1-2.1,2.1.9,2.1,2.1ZM45.8,35.4c0,1.1-.9,2.1-2.1,2.1s-2.1-.9-2.1-2.1.9-2.1,2.1-2.1,2.1.9,2.1,2.1ZM20.8,47.9c0,1.1-.9,2.1-2.1,2.1s-2.1-.9-2.1-2.1.9-2.1,2.1-2.1,2.1.9,2.1,2.1ZM8.3,47.9c0,1.1-.9,2.1-2.1,2.1s-2.1-.9-2.1-2.1.9-2.1,2.1-2.1,2.1.9,2.1,2.1ZM33.3,47.9c0,1.1-.9,2.1-2.1,2.1s-2.1-.9-2.1-2.1.9-2.1,2.1-2.1,2.1.9,2.1,2.1ZM45.8,47.9c0,1.1-.9,2.1-2.1,2.1s-2.1-.9-2.1-2.1.9-2.1,2.1-2.1,2.1.9,2.1,2.1ZM27.1,41.7c0,1.1-.9,2.1-2.1,2.1s-2.1-.9-2.1-2.1.9-2.1,2.1-2.1,2.1.9,2.1,2.1ZM39.6,41.7c0,1.1-.9,2.1-2.1,2.1s-2.1-.9-2.1-2.1.9-2.1,2.1-2.1,2.1.9,2.1,2.1ZM49.5,27.3c.3.2.5.5.5.8,0,.6-.5,1-1,1s-.4,0-.6-.2c0,0-1.3-.9-1.8-1.3-1.1-.8-2.8-.8-3.9,0-1.3,1-2.9,1.5-4.6,1.5s-3.3-.5-4.6-1.5c-1.1-.8-2.8-.8-3.9,0-2.7,1.9-6.5,1.9-9.2,0-1.1-.8-2.7-.8-3.9,0-2.7,1.9-6.5,1.9-9.2,0-1.1-.8-2.7-.8-3.9,0-.5.4-1.8,1.3-1.8,1.3-.2.1-.4.2-.6.2-.6,0-1-.5-1-1s.2-.6.5-.8c0,0,1.2-.9,1.8-1.3,1.8-1.3,4.5-1.3,6.3,0,1.9,1.4,4.8,1.4,6.8,0,1.8-1.3,4.5-1.3,6.3,0,1.9,1.4,4.8,1.4,6.8,0,1.8-1.3,4.5-1.3,6.3,0,1.9,1.4,4.8,1.4,6.8,0,1.8-1.3,4.5-1.3,6.3,0,.5.4,1.8,1.3,1.8,1.3h0Z" style="fill: #fff; stroke-width: 0px;"/>
</svg>