<?xml version="1.0" encoding="UTF-8"?>
<svg id="Layer_2" data-name="Layer 2" xmlns="http://www.w3.org/2000/svg" width="50" height="50" viewBox="0 0 50 50">
  <path d="M49.87,35.58l-4.18-23.66c-.79-4.49-4.68-7.75-9.23-7.75H12.67c-4.05,0-7.5,2.9-8.21,6.89L.13,35.58c-.45,2.55.25,5.15,1.91,7.14,1.66,1.99,4.11,3.12,6.7,3.12h2.72c.58,0,1.04-.47,1.04-1.04s-.47-1.04-1.04-1.04h-2.72c-1.97,0-3.83-.87-5.1-2.38s-1.8-3.49-1.46-5.43L6.51,11.41c.31-1.73,1.3-3.18,2.67-4.1l5.43,30.78c.79,4.49,4.68,7.75,9.23,7.75h17.41c2.59,0,5.03-1.14,6.7-3.12,1.66-1.98,2.36-4.58,1.91-7.14ZM46.36,41.37c-1.27,1.51-3.13,2.38-5.1,2.38h-17.41c-3.55,0-6.56-2.53-7.18-6.03L11.14,6.44c.49-.12,1-.19,1.53-.19h23.79c3.54,0,6.56,2.53,7.18,6.03l4.18,23.66c.34,1.94-.19,3.92-1.46,5.43h0ZM37.27,16.67h-17.48c-.58,0-1.04-.47-1.04-1.04s.47-1.04,1.04-1.04h17.48c.58,0,1.04.47,1.04,1.04s-.47,1.04-1.04,1.04ZM38.74,25h-17.48c-.58,0-1.04-.47-1.04-1.04s.47-1.04,1.04-1.04h17.48c.58,0,1.04.47,1.04,1.04s-.47,1.04-1.04,1.04ZM41.26,32.29c0,.58-.47,1.04-1.04,1.04h-17.48c-.58,0-1.04-.47-1.04-1.04s.47-1.04,1.04-1.04h17.48c.58,0,1.04.47,1.04,1.04Z" fill="#fff" stroke-width="0"/>
</svg>