<?xml version="1.0" encoding="UTF-8"?>
<svg id="Layer_1" data-name="Layer 1" xmlns="http://www.w3.org/2000/svg" width="50" height="50" viewBox="0 0 50 50">
  <path d="M39.583333,21.875001c0,.575.466669,1.041667,1.041667,1.041667s1.041667-.466667,1.041667-1.041667v-1.072917c0-3.618751-1.410417-7.01875-3.966665-9.575l-7.258334-7.260416c-2.560417-2.558333-5.960417-3.966667-9.577083-3.966667h-11.489583C4.206251,0,0,4.206251,0,9.375001v31.249999C0,45.793748,4.206251,50,9.375,50h27.083333c.574998,0,1.041667-.466669,1.041667-1.041667s-.466669-1.041667-1.041667-1.041667H9.375c-4.020833,0-7.291667-3.270833-7.291667-7.291667V9.375001c0-4.020833,3.270834-7.291667,7.291667-7.291667h11.489582c.697917,0,1.38125.079167,2.052083.2v11.258333c0,2.870834,2.337499,5.208333,5.208333,5.208333h11.258334c.120835.672917.200001,1.35625.200001,2.052083v1.072917ZM28.125,16.666667c-1.722916,0-3.125-1.402083-3.125-3.125V2.872917c1.466668.56875,2.820833,1.420833,3.966667,2.564583l7.258334,7.260416c1.145832,1.145834,1.997916,2.497916,2.566667,3.966666h-10.66875l.002082.002084ZM37.5,28.125v14.583333c0,.574998-.466669,1.041667-1.041667,1.041667s-1.041667-.466669-1.041667-1.041667v-14.583333c0-.575.466669-1.041667,1.041667-1.041667s1.041667.466667,1.041667,1.041667ZM30.645833,29.414585c-.195833-.956249-.99375-2.331251-2.529166-2.331251s-2.345834,1.435417-2.514583,2.266667l-2.664584,13.141666c-.127083.629167.354167,1.214584.999999,1.218748h.037499c.489583.002082.912499-.339584,1.010416-.816667l.672917-3.310418h4.950001l.69375,3.354168c.097917.470833.514583.810417.999999.812499.650001.004168,1.137499-.587499,1.010416-1.218748,0,0-2.666666-13.116665-2.666664-13.116663ZM26.083334,37.5l1.577083-7.739583c.05-.245833.177083-.591667.45625-.591667s.39375.275.472917.658333l1.589582,7.672918h-4.095832ZM44.764582,27.083334h-3.097916c-1.15,0-2.083333.935417-2.083333,2.083333v12.5c0,1.147918.933333,2.083333,2.083333,2.083333h3.125c2.872916,0,5.208333-2.337499,5.208333-5.208333v-6.225c0-2.885417-2.347918-5.233333-5.235418-5.233333ZM47.916666,38.541667c0,1.722916-1.402084,3.125-3.125,3.125h-3.125v-12.5h3.097916c1.737499,0,3.152084,1.412499,3.152084,3.15v6.225ZM16.666667,27.083334h-2.083333c-1.147917,0-2.083333.935417-2.083333,2.083333v13.541666c0,.574998.466667,1.041667,1.041667,1.041667s1.041667-.466669,1.041667-1.041667v-5.208333h2.083333c2.870834,0,5.208333-2.337499,5.208333-5.208333s-2.337499-5.208333-5.208333-5.208333ZM16.666667,35.416667h-2.083333v-6.25h2.083333c1.722916,0,3.125,1.402084,3.125,3.125s-1.402084,3.125-3.125,3.125Z" fill="#fff" stroke-width="0"/>
</svg>