<?xml version="1.0" encoding="UTF-8"?>
<svg id="Layer_1" data-name="Layer 1" xmlns="http://www.w3.org/2000/svg" width="50" height="50" viewBox="0 0 50 50">
  <path d="M35,2.3l-26.3,2.7C3.4,5.5-.5,10.3,0,15.6l2,19.3c.5,5.3,5.3,9.2,10.6,8.6l13.4-1.4c.6,0,1-.6,1-1.2s-.6-1-1.2-1l-13.4,1.4c-4.1.4-7.8-2.6-8.3-6.7l-1.7-16,41.2-4.3,1.2,11.8c0,.6.6,1,1.2,1s1-.6,1-1.2l-1.5-15c-.5-5.3-5.3-9.2-10.6-8.6ZM2.3,16.5v-1.1c-.5-4.1,2.5-7.8,6.6-8.3l26.3-2.7c4.1-.4,7.8,2.6,8.3,6.7v1.1c.1,0-41.1,4.3-41.1,4.3ZM49.8,34.9c-.4-1-1.4-1.7-2.4-1.7h0s-4,0-4,0l-1.4-4c-.4-1-1.4-1.7-2.4-1.7s-2.1.7-2.4,1.7l-1.4,4h-4c-1.1,0-2.1.7-2.4,1.7-.4,1,0,2.2.8,2.9l3.2,2.6-1.3,4c-.3,1.1,0,2.2.9,2.9.5.3,1,.5,1.6.5s1-.2,1.4-.4l3.7-2.4,3.7,2.4c.9.6,2.1.6,3-.1s1.2-1.8.9-2.9l-1.3-4,3.2-2.6c.8-.7,1.1-1.9.8-2.9ZM47.7,36.2l-3.7,3c-.3.3-.5.7-.3,1.1l1.5,4.7c0,.2,0,.4-.2.6-.2.1-.4.1-.6,0l-4.3-2.8c-.4-.2-.8-.2-1.1,0l-4.2,2.8c-.1.1-.3.2-.6,0-.2-.1-.3-.4-.2-.6l1.5-4.7c.1-.4,0-.8-.3-1.1l-3.7-3c-.2-.1-.2-.4-.2-.6,0-.2.3-.3.5-.3h4.7c.4,0,.8-.3,1-.7l1.7-4.6c.2-.4.8-.4,1,0l1.7,4.7c.1.4.5.7,1,.7h4.7c.2,0,.4.1.5.3,0,.2,0,.4-.1.6h0Z" style="fill: #fff; stroke-width: 0px;"/>
</svg>