<?xml version="1.0" encoding="UTF-8"?>
<svg id="Layer_2" data-name="Layer 2" xmlns="http://www.w3.org/2000/svg" width="50" height="50" viewBox="0 0 50 50">
  <path d="M47.4,22.68c-.5-.29-1.14-.12-1.43.38-.3.52-.1,1.19.44,1.46,1.02.51,1.5,1.71,1.5,2.85v15.23c0,1.72-1.4,3.12-3.12,3.12H9.38c-4.03,0-7.29-3.26-7.29-7.29v-15.4c0-.73.14-1.41.34-2.08,1.76,1.95,4.28,3.12,6.95,3.12h7.09c.57,0,1.04-.47,1.04-1.04s-.47-1.04-1.04-1.04h-7.09c-2.39,0-4.61-1.19-5.97-3.12,1.32-1.88,3.5-3.12,5.97-3.12h6.04c.58,0,1.04-.47,1.04-1.04s-.47-1.04-1.04-1.04h-6.04C4.2,13.65,0,17.85,0,23.03v15.4c0,5.18,4.2,9.38,9.38,9.38h35.42c2.88,0,5.21-2.33,5.21-5.21v-15.4c0-1.85-1-3.58-2.6-4.51ZM31.56,4.3c.83,0,1.64.38,2.17,1.01.73.87,1.76,1.35,2.88,1.35.12,0,.24,0,.34-.02.08,0,.16-.01.24-.01.75,0,1.49.3,2.03.86.59.58.89,1.4.82,2.22-.12,1.23.38,2.45,1.34,3.25.63.53,1.01,1.34,1.01,2.17s-.37,1.61-1.01,2.17c-.96.79-1.46,2-1.34,3.23.07.84-.23,1.66-.83,2.26-.53.53-1.24.83-2,.83-.08,0-.16,0-.22,0-.12-.01-.24-.02-.36-.02-1.09,0-2.14.48-2.91,1.35-.54.64-1.33,1.01-2.17,1.01s-1.63-.37-2.15-.99c-.72-.88-1.78-1.39-2.91-1.39-.15,0-.27.01-.36.03-.07,0-.15,0-.22,0-.76,0-1.48-.3-2-.81-.6-.61-.9-1.44-.83-2.25.12-1.25-.38-2.46-1.34-3.25-.64-.56-1.01-1.35-1.01-2.17s.38-1.64,1.01-2.17c.96-.8,1.46-2.02,1.34-3.23-.07-.83.23-1.68.82-2.26.54-.54,1.26-.84,2.02-.84.08,0,.16,0,.22,0,.12.01.24.02.36.02,1.12,0,2.17-.49,2.88-1.33.55-.65,1.34-1.03,2.17-1.03M31.56,2.2c-1.46,0-2.83.65-3.78,1.78-.32.38-.77.59-1.27.59-.06,0-.11,0-.17,0-.14-.01-.28-.02-.42-.02-1.31,0-2.57.52-3.5,1.46-1.02,1.02-1.55,2.46-1.42,3.92.05.54-.16,1.07-.6,1.44-1.11.93-1.76,2.32-1.76,3.78s.65,2.83,1.76,3.78c.44.35.65.88.6,1.44-.12,1.46.4,2.88,1.42,3.92.94.92,2.19,1.44,3.5,1.44.14,0,.28,0,.42-.02.05,0,.11-.02.16-.02.49,0,.97.23,1.28.62.95,1.11,2.32,1.76,3.78,1.76s2.85-.65,3.78-1.76c.33-.38.8-.61,1.3-.61.05,0,.11,0,.16,0,.14.01.28.02.42.02,1.31,0,2.56-.52,3.48-1.44,1.04-1.04,1.56-2.46,1.44-3.92-.05-.56.16-1.09.6-1.44,1.11-.95,1.76-2.32,1.76-3.78s-.65-2.85-1.76-3.78c-.44-.37-.65-.9-.6-1.44.12-1.46-.4-2.9-1.44-3.92-.92-.94-2.19-1.46-3.5-1.46-.14,0-.28,0-.42.02-.06,0-.11,0-.17,0-.5,0-.94-.21-1.27-.61-.93-1.11-2.32-1.76-3.78-1.76h0ZM34,14.58l-3.88-.62c-.66-.1-1.13-.66-1.13-1.33,0-.74.6-1.35,1.35-1.35h3.18c.53,0,1.02.29,1.29.75.29.51.95.68,1.46.39.25-.14.43-.37.5-.65s.03-.56-.11-.81c-.65-1.12-1.85-1.81-3.14-1.81h-.55v-1.2c0-.59-.48-1.07-1.07-1.07s-1.07.48-1.07,1.07v1.2h-.49c-1.92,0-3.48,1.56-3.48,3.48,0,1.72,1.23,3.17,2.93,3.44l3.89.62c.66.1,1.13.66,1.13,1.33,0,.74-.6,1.35-1.35,1.35h-3.18c-.53,0-1.02-.29-1.29-.74-.14-.25-.38-.43-.65-.5-.28-.07-.56-.03-.81.11-.25.14-.42.37-.5.65-.07.28-.04.56.11.81.64,1.12,1.85,1.81,3.14,1.81h.55v1.2c0,.59.48,1.07,1.07,1.07s1.07-.48,1.07-1.07v-1.2h.49c1.92,0,3.48-1.56,3.48-3.48,0-1.72-1.23-3.17-2.93-3.44ZM16.75,37.61c0,.25-.06.53-.19.82s-.32.59-.59.87-.61.52-1.03.69-.9.27-1.46.27c-.42,0-.8-.04-1.15-.12s-.66-.2-.94-.37-.54-.39-.77-.67c-.21-.25-.39-.53-.54-.84s-.26-.64-.33-.99-.11-.72-.11-1.12c0-.64.09-1.22.28-1.72s.45-.94.8-1.3.76-.64,1.22-.82.97-.28,1.49-.28c.65,0,1.22.13,1.72.39s.89.58,1.16.95.4.74.4,1.07c0,.18-.07.35-.2.49s-.29.21-.47.21c-.21,0-.36-.05-.46-.15s-.22-.27-.35-.51c-.21-.4-.46-.69-.74-.89s-.64-.29-1.05-.29c-.66,0-1.19.25-1.58.76s-.59,1.22-.59,2.15c0,.62.09,1.14.26,1.55s.42.72.74.92.69.3,1.12.3c.46,0,.86-.12,1.18-.35s.56-.57.73-1.01c.07-.21.15-.38.26-.51s.26-.2.49-.2c.19,0,.36.07.49.2s.21.3.21.5ZM23.3,39.22l-.38-1h-3.24l-.38,1.02c-.15.4-.28.67-.38.81s-.28.21-.52.21c-.2,0-.38-.07-.54-.22s-.23-.32-.23-.51c0-.11.02-.22.05-.34s.1-.28.18-.48l2.04-5.18c.06-.15.13-.33.21-.54s.17-.38.26-.52.21-.25.36-.33.34-.13.56-.13.41.04.56.13.27.19.36.33.17.28.23.43.14.36.24.62l2.08,5.14c.16.39.24.68.24.85s-.08.35-.23.51-.34.23-.56.23c-.13,0-.24-.02-.33-.07s-.17-.11-.23-.18-.13-.2-.2-.36-.13-.3-.18-.43ZM20.1,37.01h2.38l-1.2-3.29-1.18,3.29ZM32.26,37.74c0,.48-.12.92-.37,1.3s-.61.68-1.09.9-1.05.33-1.7.33c-.79,0-1.44-.15-1.95-.45-.36-.21-.66-.5-.88-.86s-.34-.7-.34-1.04c0-.2.07-.36.2-.5s.31-.21.52-.21c.17,0,.31.05.43.16s.22.27.3.48c.1.25.21.47.33.64s.28.31.5.42.49.17.84.17c.48,0,.87-.11,1.17-.33s.45-.5.45-.83c0-.26-.08-.48-.24-.64s-.37-.29-.63-.38-.6-.18-1.02-.28c-.57-.13-1.05-.29-1.44-.47s-.69-.42-.92-.73-.34-.69-.34-1.16.12-.83.36-1.17.59-.6,1.04-.79.99-.27,1.6-.27c.49,0,.91.06,1.27.18s.65.28.89.48.41.41.52.63.16.44.16.65c0,.19-.07.37-.2.52s-.31.23-.51.23c-.18,0-.33-.05-.42-.14s-.2-.24-.31-.45c-.14-.3-.32-.54-.52-.7s-.53-.25-.98-.25c-.42,0-.75.09-1.01.27s-.38.4-.38.66c0,.16.04.3.13.41s.21.22.36.3.31.15.46.2.41.12.77.21c.45.11.86.22,1.22.35s.67.28.93.46.45.41.6.69.21.62.21,1.02ZM35.26,33v2.28h3.48v-2.28c0-.33.07-.57.22-.73s.34-.24.58-.24.44.08.59.24.23.41.23.74v6.28c0,.33-.08.58-.23.74s-.35.24-.59.24-.44-.08-.58-.25-.22-.41-.22-.74v-2.68h-3.48v2.68c0,.33-.08.58-.23.74s-.35.24-.59.24-.44-.08-.58-.25-.22-.41-.22-.74v-6.28c0-.33.07-.57.21-.73s.34-.24.58-.24.44.08.59.24.23.41.23.74Z" fill="#fff" stroke-width="0"/>
</svg>