<?xml version="1.0" encoding="UTF-8"?>
<svg id="Layer_1" data-name="Layer 1" xmlns="http://www.w3.org/2000/svg" width="50" height="50" viewBox="0 0 50 50">
  <path d="M37.4,44c-.6,3.5-3.7,6-7.2,6H7.3c-2.1,0-4.1-.9-5.5-2.5-1.4-1.6-2-3.7-1.7-5.8,1-7.6,6.8-12.7,11.8-16.7C6.9,21,1.1,15.9,0,8.3-.2,6.2.4,4.1,1.8,2.5,3.2.9,5.2,0,7.3,0h22.9c3.5,0,6.5,2.5,7.2,6,.1.6-.3,1.1-.8,1.2-.6.1-1.1-.3-1.2-.8-.5-2.5-2.6-4.3-5.1-4.3H7.3c-1.5,0-2.9.6-3.9,1.8-1,1.1-1.4,2.7-1.3,4.2,1,7.3,7.1,12.2,12.1,16.2.2.2.4.5.4.8s-.1.6-.4.8c-4.9,3.9-11.1,8.9-12.1,16.2-.2,1.5.3,3,1.3,4.1,1,1.1,2.4,1.8,3.9,1.8h22.9c2.5,0,4.7-1.8,5.1-4.3.1-.6.7-.9,1.2-.8.6.1.9.7.8,1.2h0ZM37.5,24.6v-6.9c0-.6-.5-1-1-1s-1,.5-1,1v7.3c0,.3.1.5.3.7l4.2,4.2c.2.2.5.3.7.3s.5-.1.7-.3c.4-.4.4-1.1,0-1.5l-3.9-3.9ZM18.8,30.1c.3,0,.5.1.7.3,0,0,0,0,0,0,4,3.2,9.2,7.4,10.4,12,0,.3,0,.7-.2.9-.2.3-.5.4-.8.4H8.6c-.3,0-.6-.2-.8-.4-.2-.3-.3-.6-.2-.9,1.3-4.6,6.2-8.6,10.5-12,0,0,0,0,0,0,.2-.2.4-.3.7-.3h0ZM18.8,32.5h0c-3.5,2.8-7.2,5.7-8.7,9.1h17.4c-1.6-3.4-5.3-6.4-8.7-9.1h0ZM50,25c0,7.5-6.1,13.5-13.5,13.5s-13.5-6.1-13.5-13.5,6.1-13.5,13.5-13.5,13.5,6.1,13.5,13.5ZM47.9,25c0-6.3-5.1-11.5-11.5-11.5s-11.5,5.1-11.5,11.5,5.1,11.5,11.5,11.5,11.5-5.1,11.5-11.5Z" style="fill: #fff; stroke-width: 0px;"/>
</svg>