<svg xmlns="http://www.w3.org/2000/svg" version="1.1" xmlns:xlink="http://www.w3.org/1999/xlink" width="512" height="512" x="0" y="0" viewBox="0 0 504.5 504.5" style="enable-background:new 0 0 512 512" xml:space="preserve" class=""><g><path fill="#cdbfba" d="M445.124 504.5H59.376c-16.569 0-30-13.431-30-30v-41.733l445.748-81V474.5c0 16.569-13.432 30-30 30z" opacity="1" data-original="#cdbfba" class=""></path><path fill="#f9f3f1" d="M363.51 474.5H59.426c-16.596 0-30.05-13.454-30.05-30.05V71.824c0-16.596 13.454-30.05 30.05-30.05h385.647c16.596 0 30.05 13.454 30.05 30.05v291.062c0 7.97-18.166 15.613-23.802 21.249l-66.563 66.563c-5.634 5.636-13.278 23.802-21.248 23.802z" opacity="1" data-original="#f9f3f1" class=""></path><path fill="#efe2dd" d="M351.043 474.5c13.598 0 24.621-11.023 24.621-24.621v-50.064c0-13.598 11.023-24.621 24.621-24.621h50.064c13.598 0 24.621-11.023 24.621-24.621v12.174a30.05 30.05 0 0 1-8.802 21.249l-81.703 81.703a30.05 30.05 0 0 1-21.249 8.802h-12.173z" opacity="1" data-original="#efe2dd"></path><path fill="#8379c1" d="M475.12 71.77v77.18H29.38V71.77c0-16.56 13.43-30 30-30h385.74c16.57 0 30 13.44 30 30z" opacity="1" data-original="#8379c1"></path><path fill="#6354b1" d="M114.3 94.133c-5.722 0-10.58-.003-14.72-.003-12.58 0-22.81-10.23-22.81-22.8V41.77h15v29.56c0 4.3 3.5 7.8 7.81 7.8 4.14 0 18.86 15.003 14.72 15.003zM386.757 94.133l-14.727-.003c-12.57 0-22.8-10.23-22.8-22.8V41.77h15v29.56c0 4.3 3.5 7.8 7.8 7.8 4.15 0 14.727 10.863 14.727 15.003z" opacity="1" data-original="#6354b1"></path><path fill="#554e56" d="M125.55 41.774V22.807c0-4.305-3.502-7.807-7.807-7.807H114.3c-4.305 0-7.807 3.502-7.807 7.807v48.52c0 4.305 3.502 7.807 7.807 7.807a7.5 7.5 0 0 1 0 15c-12.576 0-22.807-10.231-22.807-22.807v-48.52C91.493 10.231 101.724 0 114.3 0h3.443c12.576 0 22.807 10.231 22.807 22.807v18.967zM398.007 41.774V22.807c0-4.305-3.502-7.807-7.807-7.807h-3.443c-4.305 0-7.807 3.502-7.807 7.807v48.52c0 4.305 3.502 7.807 7.807 7.807a7.5 7.5 0 0 1 0 15c-12.576 0-22.807-10.231-22.807-22.807v-48.52C363.95 10.231 374.181 0 386.757 0h3.443c12.576 0 22.807 10.231 22.807 22.807v18.967z" opacity="1" data-original="#554e56"></path><path fill="#fec165" d="m258.82 224.628 24.139 48.912a7.328 7.328 0 0 0 5.516 4.008l53.978 7.843c6.009.873 8.409 8.258 4.06 12.497l-39.059 38.073a7.324 7.324 0 0 0-2.107 6.485l9.22 53.759c1.027 5.985-5.256 10.549-10.63 7.724l-48.279-25.382a7.328 7.328 0 0 0-6.819 0l-48.279 25.382c-5.375 2.826-11.657-1.738-10.63-7.724l9.22-53.759a7.324 7.324 0 0 0-2.107-6.485l-39.059-38.073c-4.348-4.239-1.949-11.624 4.06-12.497l53.978-7.843a7.328 7.328 0 0 0 5.516-4.008l24.139-48.912c2.69-5.445 10.456-5.445 13.143 0z" opacity="1" data-original="#fec165" class=""></path></g></svg>