<?xml version="1.0" encoding="UTF-8"?>
<svg id="Layer_2" data-name="Layer 2" xmlns="http://www.w3.org/2000/svg" xmlns:xlink="http://www.w3.org/1999/xlink" viewBox="0 0 41.5 40.6">
  <defs>
    <style>
      .cls-1 {
        fill: #fff;
      }

      .cls-2 {
        fill: url(#linear-gradient-2);
        isolation: isolate;
        opacity: .5;
      }

      .cls-3 {
        clip-path: url(#clippath);
      }

      .cls-4 {
        fill: none;
      }

      .cls-5 {
        fill: url(#linear-gradient);
      }
    </style>
    <clipPath id="clippath">
      <path class="cls-4" d="M39.1,7.7L22.4,.3c-1-.4-2.2-.4-3.2,0L2.4,7.7c-1.5,.6-2.4,2.1-2.4,3.7V29.3c0,1.6,.9,3,2.4,3.7l16.8,7.3c1,.4,2.2,.4,3.2,0l16.8-7.3c1.5-.6,2.4-2.1,2.4-3.7,0,0,0,0,0,0V11.3c0-1.6-.9-3-2.4-3.7Z"/>
    </clipPath>
    <linearGradient id="linear-gradient" x1="105.6" y1="20.3" x2="0" y2="20.3" gradientUnits="userSpaceOnUse">
      <stop offset="0" stop-color="#e32726"/>
      <stop offset=".5" stop-color="#ce2027"/>
      <stop offset="1" stop-color="#b72025"/>
    </linearGradient>
    <linearGradient id="linear-gradient-2" x1="52.8" y1="20.3" x2="0" y2="20.3" gradientUnits="userSpaceOnUse">
      <stop offset="0" stop-color="#651712"/>
      <stop offset=".5" stop-color="#981c1f"/>
      <stop offset=".9" stop-color="#b72025"/>
    </linearGradient>
  </defs>
  <g id="Layer_1-2" data-name="Layer 1">
    <g>
      <g class="cls-3">
        <path class="cls-5" d="M39.1,7.7L22.4,.3c-1-.4-2.2-.4-3.2,0L2.4,7.7c-1.5,.6-2.4,2.1-2.4,3.7V29.3c0,1.6,.9,3,2.4,3.7l16.8,7.3c1,.4,2.2,.4,3.2,0l16.8-7.3c1.5-.6,2.4-2.1,2.4-3.7,0,0,0,0,0,0V11.3c0-1.6-.9-3-2.4-3.7Z"/>
        <polygon class="cls-2" points="20.8 -.4 0 8.7 0 28.2 0 31.9 20.8 41 20.8 -.4"/>
      </g>
      <g>
        <path class="cls-1" d="M17,6.6c-.4,.2-.6,.5-.6,.9V30.3l-6.7-2.5s3.1-.6,4.4-.9c-.5,0-1-.2-1.6-.3-.4-.1-.8-.3-1.2-.4-3.3,.4-8,2-8,2l16.2,6.6V5.5l-2.6,1.1Z"/>
        <path class="cls-1" d="M37.4,13.5c-5.1-1.8-10.3-3.7-15.4-5.6v3.5c5.1,1.5,10.2,3,15.4,4.5v-2.5Z"/>
        <path class="cls-1" d="M22.1,13.7c2.3,.6,4.5,1.2,6.8,1.7V31.8l-2.4,1v-15.7c-1.5-.3-2.9-.5-4.4-.8,0-.9,0-1.7,0-2.6Z"/>
        <path class="cls-1" d="M30.9,16v15.1l1.8-.7v-12.1c1.6,.3,3.1,.6,4.7,.9v-1.5c-2.1-.5-4.3-1.1-6.5-1.6Z"/>
      </g>
    </g>
  </g>
</svg>