<?xml version="1.0" encoding="UTF-8"?>
<svg id="Layer_1" data-name="Layer 1" xmlns="http://www.w3.org/2000/svg" width="242.6" height="153" xmlns:xlink="http://www.w3.org/1999/xlink" viewBox="0 0 242.6 153">
  <defs>
    <clipPath id="clippath">
      <rect width="242.6" height="153" style="fill: none; stroke-width: 0px;"/>
    </clipPath>
  </defs>
  <g style="clip-path: url(#clippath);">
    <g>
      <g style="opacity: .3;">
        <path d="M-60.6,127.7c25.1,16.3,56.8,12.4,86.2,15.1,16.6,1.5,31.2,5.2,42-6.6,21-22.8,34.9-47.3,73.1-41.6,20.7,3.1,44.1,17.3,65,14.8,15.1-1.8,29.2-18.1,38.5-27.6,20.1-20.5,27.2-47,36.9-72.3" style="fill: none; stroke: #fff; stroke-miterlimit: 10; stroke-width: .2px;"/>
        <path d="M280.7,10.6c-5.1,11-9.8,22.5-15.1,33.9s-13.2,27.4-24.5,38.8-22.6,24.9-37.2,26.7c-20.1,2.5-42.7-10.9-62.8-13.8-36.8-5.4-50.1,18.4-70.9,39.6-11,11.2-25.8,6.9-42.5,5.2-4.7-.5-9.4-.7-14.2-.9-25.6-.7-51.1,1.6-71.9-10.3" style="fill: none; stroke: #fff; stroke-miterlimit: 10; stroke-width: .2px;"/>
        <path d="M280.4,11.8c-5.8,10.6-11.4,21.7-17.2,33.1s-13.5,28.2-25.2,40-21.9,23.9-36,25.7c-19.4,2.5-41.2-10.1-60.5-12.8-35.4-5-48.1,17.9-68.6,37.6-11.1,10.7-26.3,5.6-43.1,3.8-4.8-.5-9.6-.8-14.4-.9-26-.3-51.2,3.7-71.6-6.4" style="fill: none; stroke: #fff; stroke-miterlimit: 10; stroke-width: .2px;"/>
        <path d="M280,13c-6.6,10.1-13,21-19.3,32.4s-13.8,29-26,41.2-21.1,22.9-34.7,24.8c-18.7,2.5-39.6-9.3-58.3-11.8-34-4.6-46.1,17.4-66.3,35.6-11.3,10.2-26.8,4.4-43.7,2.4-4.8-.6-9.7-.9-14.6-.8-26.4,0-51.2,5.8-71.3-2.5" style="fill: none; stroke: #fff; stroke-miterlimit: 10; stroke-width: .2px;"/>
        <path d="M279.7,14.2c-7.3,9.6-14.6,20.2-21.4,31.7s-14.1,29.9-26.7,42.3-20.3,22-33.4,23.8c-17.9,2.6-38.1-8.5-56.1-10.8-32.6-4.2-44.2,17-64,33.6-11.5,9.6-27.3,3.1-44.2,1-4.9-.6-9.8-.9-14.8-.8-26.9.4-51.3,7.9-71.1,1.4" style="fill: none; stroke: #fff; stroke-miterlimit: 10; stroke-width: .2px;"/>
        <path d="M279.3,15.4c-8,9.2-16.3,19.4-23.5,31s-14.4,30.7-27.4,43.5-19.6,21-32.1,22.9c-17.2,2.6-36.5-7.7-53.8-9.8-31.1-3.9-42.3,16.5-61.7,31.6s-27.7,1.9-44.8-.4-10-1-15-.8c-27.3.8-51.4,9.9-70.8,5.4" style="fill: none; stroke: #fff; stroke-miterlimit: 10; stroke-width: .2px;"/>
        <path d="M278.9,16.6c-8.7,8.7-17.9,18.7-25.5,30.3s-14.7,31.6-28.1,44.6-18.8,20-30.8,21.9c-16.5,2.6-35-6.9-51.6-8.8-29.7-3.5-40.5,15.9-59.5,29.6s-28.2.6-45.3-1.8-10.1-1-15.2-.8c-27.7,1.2-51.4,12-70.5,9.3" style="fill: none; stroke: #fff; stroke-miterlimit: 10; stroke-width: .2px;"/>
        <path d="M278.6,17.8c-9.5,8.2-19.5,17.9-27.6,29.5s-15.1,32.4-28.8,45.8c-7.4,7.2-18,19.1-29.5,21-15.8,2.6-33.4-6.1-49.4-7.8-28.3-3.1-38.8,15.3-57.2,27.6s-28.7-.6-45.9-3.2-10.2-1.1-15.4-.8c-28.1,1.6-51.5,14.1-70.2,13.2" style="fill: none; stroke: #fff; stroke-miterlimit: 10; stroke-width: .2px;"/>
        <path d="M278.2,19c-10.2,7.7-21.1,17.1-29.7,28.8s-15.4,33.3-29.5,47-17.2,18.1-28.2,20c-15,2.6-31.9-5.3-47.1-6.8-26.9-2.8-37.1,14.7-54.9,25.6s-29.2-1.9-46.5-4.6-10.4-1.2-15.7-.8c-28.5,2-51.6,16.2-70,17.1" style="fill: none; stroke: #fff; stroke-miterlimit: 10; stroke-width: .2px;"/>
        <path d="M277.9,20.2c-10.9,7.3-22.7,16.4-31.8,28.1s-15.7,34.1-30.2,48.1-16.5,17.1-26.9,19.1c-14.3,2.6-30.3-4.5-44.9-5.8-25.5-2.4-35.4,14.1-52.6,23.6s-29.6-3.1-47-6-10.5-1.2-15.9-.8c-28.9,2.4-51.6,18.2-69.7,21" style="fill: none; stroke: #fff; stroke-miterlimit: 10; stroke-width: .2px;"/>
        <path d="M277.5,21.4c-11.7,6.8-24.3,15.6-33.9,27.4s-16,35-30.9,49.3-15.7,16.2-25.6,18.1c-13.6,2.7-28.8-3.7-42.7-4.9-24.1-2.1-35.5,10.6-50.3,21.6-14.2,4.2-30.1-4.4-47.6-7.4-5.3-.9-10.6-1.3-16.1-.8-29.3,2.7-51.7,20.3-69.4,24.9" style="fill: none; stroke: #fff; stroke-miterlimit: 10; stroke-width: .2px;"/>
        <path d="M277.2,22.6c-12.4,6.3-26,14.8-36,26.6s-16.3,35.8-31.6,50.5-14.9,15.2-24.3,17.2c-12.9,2.7-27.2-2.9-40.4-3.9-22.6-1.7-33.8,9.7-48.1,19.6-14.5,3.5-30.6-5.7-48.1-8.8s-10.8-1.3-16.3-.8c-29.8,3.1-51.8,22.4-69.2,28.8" style="fill: none; stroke: #fff; stroke-miterlimit: 10; stroke-width: .2px;"/>
        <path d="M276.8,23.8c-13.1,5.9-27.6,14-38.1,25.9s-16.6,36.7-32.4,51.6-14.2,14.2-23,16.2c-12.1,2.7-25.7-2.1-38.2-2.9-21.2-1.4-32.2,8.9-45.8,17.6-14.8,2.7-31.1-6.9-48.7-10.2-5.4-1-10.9-1.4-16.5-.7-30.2,3.5-51.8,24.5-68.9,32.8" style="fill: none; stroke: #fff; stroke-miterlimit: 10; stroke-width: .2px;"/>
        <path d="M276.5,25c-13.8,5.4-29.2,13.3-40.1,25.2s-16.9,37.5-33.1,52.8c-5.7,5.4-13.4,13.3-21.7,15.3-11.4,2.7-24.1-1.3-36-1.9-19.8-1-30.5,8.1-43.5,15.6-15.2,1.9-31.5-8.2-49.3-11.6s-11-1.4-16.7-.7c-30.6,3.9-51.9,26.6-68.6,36.7" style="fill: none; stroke: #fff; stroke-miterlimit: 10; stroke-width: .2px;"/>
        <path d="M276.1,26.2c-14.6,4.9-30.9,12.5-42.2,24.5s-17.2,38.4-33.8,53.9-12.6,12.3-20.4,14.3c-10.7,2.7-22.6-.5-33.7-.9-18.4-.7-28.8,7.3-41.2,13.6-15.5,1.2-32-9.4-49.8-13s-11.2-1.5-16.9-.7c-31,4.3-52,28.6-68.3,40.6" style="fill: none; stroke: #fff; stroke-miterlimit: 10; stroke-width: .2px;"/>
        <path d="M275.8,27.4c-15.3,4.5-32.5,11.7-44.3,23.7s-17.5,39.3-34.5,55.1-11.8,11.3-19.2,13.4c-9.9,2.7-21,.3-31.5.1-16.9-.3-27.2,6.4-38.9,11.6-15.8.4-32.5-10.7-50.4-14.4-5.6-1.2-11.3-1.6-17.1-.7-31.4,4.6-52,30.7-68.1,44.5" style="fill: none; stroke: #fff; stroke-miterlimit: 10; stroke-width: .2px;"/>
        <path d="M275.4,28.6c-16,4-34.1,10.9-46.4,23s-17.7,40.2-35.2,56.3-11.1,10.4-17.9,12.4c-9.2,2.8-19.5,1.1-29.3,1.1-15.5,0-25.5,5.6-36.7,9.6-16.2-.3-33-12-50.9-15.8-5.7-1.2-11.4-1.6-17.3-.7-31.8,5-52.1,32.8-67.8,48.4" style="fill: none; stroke: #fff; stroke-miterlimit: 10; stroke-width: .2px;"/>
        <path d="M275.1,29.8c-16.7,3.5-35.7,10.1-48.5,22.3s-18,41-35.9,57.4c-4.5,4.2-10.3,9.4-16.6,11.5-8.5,2.8-17.9,1.9-27,2.1-14.1.3-23.5,6.6-34.4,7.6-16.4,1.6-33.4-13.3-51.5-17.2-5.7-1.3-11.6-1.7-17.5-.7-32.2,5.4-52.2,34.9-67.5,52.3" style="fill: none; stroke: #fff; stroke-miterlimit: 10; stroke-width: .2px;"/>
        <path d="M274.7,31c-17.5,3.1-37.4,9.3-50.6,21.6-17.8,16.5-18.3,41.9-36.6,58.6s-9.5,8.4-15.3,10.5c-7.8,2.8-16.4,2.6-24.8,3.1-12.7.7-22,5.3-32.1,5.6-16.9.5-33.9-14.5-52.1-18.6-5.8-1.3-11.7-1.7-17.7-.7-32.7,5.8-52.2,37-67.2,56.2" style="fill: none; stroke: #fff; stroke-miterlimit: 10; stroke-width: .2px;"/>
        <path d="M274.4,32.2c-18.2,2.6-39,8.5-52.7,20.9-18.5,16.6-18.6,42.8-37.3,59.8s-8.8,7.5-14,9.6c-7,2.8-14.8,3.4-22.6,4.1-11.3,1-20.5,4.1-29.8,3.6-17.3-.9-34.4-15.8-52.6-20-5.9-1.4-11.8-1.8-17.9-.7-33.1,6.2-52.3,39-67,60.2" style="fill: none; stroke: #fff; stroke-miterlimit: 10; stroke-width: .2px;"/>
        <path d="M274,33.4c-18.9,2.1-40.6,7.8-54.7,20.1-19.2,16.8-18.8,43.8-38,60.9-3.7,3.3-8,6.5-12.7,8.6-6.3,2.8-13.3,4.2-20.3,5.1s-18.9,2.8-27.6,1.6c-17.6-2.4-34.9-17-53.2-21.4-5.9-1.4-12-1.9-18.1-.7C15.9,114.2-3,148.8-17.3,171.7" style="fill: none; stroke: #fff; stroke-miterlimit: 10; stroke-width: .2px;"/>
        <path d="M273.7,34.5c-19.7,1.6-42.3,7-56.8,19.4-19.9,16.9-19,44.7-38.8,62.1-13.8,12.2-36,17.7-54.8,13.3-23.6-5.4-46.7-28.6-72.1-23.4C17.4,112.9-1.2,149.2-15.1,173.9" style="fill: none; stroke: #fff; stroke-miterlimit: 10; stroke-width: .2px;"/>
      </g>
      <g style="opacity: .2;">
        <path d="M317.1,104.7c-16.5-5.6-33.6-11.6-51.5-9.2-15.8,2.1-30.8,9.4-45.9,13.8-19.1,5.6-44.7,15.3-63.4,4.7-19.7-11.2-31.8-43.8-55.5-46.4-22.3-2.5-37.4,13.2-48.4,28.2-12.9,17.6-24.7,28.8-49.2,31-19.6,1.7-52.8.9-69.6-9.8" style="fill: none; stroke: #fff; stroke-miterlimit: 10; stroke-width: .2px;"/>
        <path d="M-64.5,118.5c15.9,8.5,49,8.7,69.2,6.7,16.6-1.6,27.8-7,37.3-15.5s8.8-8.9,13.2-14.4c11.6-14.7,26.9-30.3,49.5-27.4s35.3,34.7,54.7,45.8c10,5.7,22,5.7,34,3.5,10-1.8,19.9-5,28.5-7.5,13.4-3.9,26.7-10,40.5-12.9,1.5-.3,3.1-.6,4.6-.8,17.6-2.6,34.2,2.5,50.6,8" style="fill: none; stroke: #fff; stroke-miterlimit: 10; stroke-width: .2px;"/>
        <path d="M-62.6,120c15.1,6.3,48,5.7,68.8,3.6,16.7-1.7,28.2-6.9,38.1-14.9s9.2-8.6,13.7-13.9c12.1-14.4,27.7-29.9,50.6-26.6s34.9,34.1,53.9,45.2c9.8,5.7,21.5,5.8,33.4,3.8,9.8-1.7,19.6-4.8,28.1-7.2,13.2-3.8,26.4-9.8,39.9-12.8,1.5-.3,3-.6,4.6-.9,17.3-2.9,33.4,1.5,49.7,6.7" style="fill: none; stroke: #fff; stroke-miterlimit: 10; stroke-width: .2px;"/>
        <path d="M-60.7,121.6c14.2,4.2,47,2.8,68.5.5s28.6-6.8,38.8-14.4,9.6-8.3,14.3-13.5c12.7-14.1,28.5-29.5,51.8-25.8s34.4,33.5,53.2,44.6c9.6,5.6,21.1,6,32.8,4.1,9.7-1.5,19.3-4.5,27.7-6.8,13.1-3.7,26-9.6,39.3-12.7,1.5-.3,3-.7,4.5-.9,16.9-3.1,32.5.5,48.7,5.5" style="fill: none; stroke: #fff; stroke-miterlimit: 10; stroke-width: .2px;"/>
        <path d="M-58.8,123.2c13.4,2,46,0,68.1-2.6,16.8-1.9,29.1-6.7,39.5-13.8s10-7.9,14.9-13c13.3-13.8,29.3-29.1,52.9-25.1s33.9,32.9,52.4,43.9c9.4,5.6,20.6,6.1,32.2,4.5,9.5-1.4,19-4.2,27.3-6.5,12.9-3.6,25.6-9.4,38.6-12.5,1.5-.4,2.9-.7,4.4-1,16.6-3.3,31.6-.5,47.8,4.3" style="fill: none; stroke: #fff; stroke-miterlimit: 10; stroke-width: .2px;"/>
        <path d="M-56.9,124.7c12.6-.1,45-3,67.7-5.7s29.5-6.6,40.3-13.3,10.4-7.6,15.4-12.5c13.9-13.6,30-28.7,54-24.3s33.4,32.3,51.6,43.3c9.2,5.6,20.2,6.3,31.6,4.8,9.4-1.2,18.7-3.9,26.9-6.2,12.7-3.5,25.3-9.1,38-12.4,1.4-.4,2.9-.7,4.3-1,16.3-3.5,30.7-1.4,46.9,3.1" style="fill: none; stroke: #fff; stroke-miterlimit: 10; stroke-width: .2px;"/>
        <path d="M-55,126.3c11.7-2.3,44-5.9,67.4-8.8,17-2.1,30-6.5,41-12.7s10.8-7.3,16-12c14.5-13.3,30.8-28.3,55.1-23.5,21.7,4.3,32.9,31.7,50.8,42.7,9,5.5,19.8,6.4,31,5.1s18.4-3.6,26.5-5.8c12.5-3.3,24.9-8.9,37.4-12.3,1.4-.4,2.8-.7,4.2-1.1,15.9-3.8,29.9-2.4,45.9,1.8" style="fill: none; stroke: #fff; stroke-miterlimit: 10; stroke-width: .2px;"/>
        <path d="M-53.1,127.8c10.9-4.4,43-8.8,67-11.9,17-2.2,30.4-6.4,41.8-12.2s11.2-6.9,16.6-11.5c15.1-13,31.6-28,56.3-22.8s32.4,31.1,50,42.1c8.8,5.5,19.3,6.6,30.5,5.4s18.1-3.4,26.2-5.5c12.4-3.2,24.6-8.7,36.8-12.2,1.4-.4,2.7-.8,4.1-1.1,15.6-4,29-3.4,45,.6" style="fill: none; stroke: #fff; stroke-miterlimit: 10; stroke-width: .2px;"/>
        <path d="M-51.2,129.4c10-6.5,42-11.7,66.6-15s30.9-6.2,42.5-11.6c6.1-2.8,11.6-6.6,17.1-11,15.7-12.7,32.4-27.6,57.4-22s32,30.5,49.2,41.4c8.6,5.4,18.9,6.8,29.9,5.7s17.8-3.1,25.8-5.1c12.2-3.1,24.2-8.5,36.2-12,1.3-.4,2.7-.8,4-1.2,15.3-4.2,28.1-4.4,44-.6" style="fill: none; stroke: #fff; stroke-miterlimit: 10; stroke-width: .2px;"/>
        <path d="M-49.3,131c9.2-8.7,41-14.6,66.3-18,17.2-2.4,31.4-6.1,43.2-11s12.1-6.2,17.7-10.5c16.3-12.4,33.2-27.3,58.5-21.2s31.5,29.9,48.4,40.8c8.4,5.4,18.4,6.9,29.3,6s17.5-2.8,25.4-4.8c12-3,23.9-8.2,35.6-11.9,1.3-.4,2.6-.8,3.9-1.2,14.9-4.5,27.3-5.4,43.1-1.8" style="fill: none; stroke: #fff; stroke-miterlimit: 10; stroke-width: .2px;"/>
        <path d="M-47.4,132.5c8.3-10.8,40-17.4,65.9-21.1,17.3-2.5,31.8-6,44-10.5s12.5-5.9,18.3-10c16.9-12.1,34-26.9,59.6-20.5s31,29.3,47.6,40.2c8.2,5.4,18,7.1,28.7,6.4s17.2-2.5,25-4.4c11.9-2.9,23.5-8,34.9-11.8,1.3-.4,2.6-.8,3.8-1.3,14.6-4.7,26.4-6.4,42.2-3" style="fill: none; stroke: #fff; stroke-miterlimit: 10; stroke-width: .2px;"/>
        <path d="M-45.5,134.1c7.5-13,39-20.3,65.5-24.2s32.3-5.8,44.7-9.9,12.9-5.6,18.9-9.6c17.6-11.8,34.7-26.6,60.8-19.7s30.5,28.7,46.8,39.6c8,5.3,17.6,7.2,28.1,6.7s16.9-2.2,24.6-4.1c11.7-2.8,23.2-7.8,34.3-11.7,1.3-.4,2.5-.9,3.7-1.3,14.3-4.9,25.5-7.4,41.2-4.3" style="fill: none; stroke: #fff; stroke-miterlimit: 10; stroke-width: .2px;"/>
        <path d="M-43.6,135.7c6.7-15.1,38-23.2,65.2-27.3,17.4-2.6,32.8-5.7,45.5-9.4,7-2,13.3-5.2,19.4-9.1,18.2-11.4,35.5-26.3,61.9-18.9s30,28.1,46,38.9c7.8,5.3,17.1,7.4,27.6,7s16.6-2,24.2-3.8c11.5-2.7,22.8-7.6,33.7-11.5,1.2-.5,2.5-.9,3.7-1.4,13.9-5.2,24.7-8.4,40.3-5.5" style="fill: none; stroke: #fff; stroke-miterlimit: 10; stroke-width: .2px;"/>
        <path d="M-41.7,137.2c5.8-17.3,37-26.1,64.8-30.4,17.5-2.7,33.2-5.5,46.2-8.8,7.2-1.8,13.7-4.9,20-8.6,18.8-11.1,36.3-26,63-18.2,19.4,5.7,29.5,27.5,45.2,38.3,7.7,5.3,16.7,7.5,27,7.3s16.3-1.7,23.9-3.4c11.4-2.6,22.5-7.3,33.1-11.4,1.2-.5,2.4-.9,3.6-1.4,13.6-5.4,23.8-9.4,39.4-6.7" style="fill: none; stroke: #fff; stroke-miterlimit: 10; stroke-width: .2px;"/>
        <path d="M-39.8,138.8c5-19.4,36-29,64.4-33.5,17.5-2.8,33.7-5.4,46.9-8.3s14.1-4.5,20.6-8.1c19.4-10.8,37.1-25.7,64.1-17.4s29.1,26.9,44.4,37.7c7.5,5.2,16.2,7.7,26.4,7.6s16-1.4,23.5-3.1c11.2-2.5,22.1-7.1,32.5-11.3,1.2-.5,2.3-1,3.5-1.4,13.3-5.7,22.9-10.4,38.4-7.9" style="fill: none; stroke: #fff; stroke-miterlimit: 10; stroke-width: .2px;"/>
        <path d="M-37.9,140.3c4.1-21.6,35-31.8,64.1-36.6,17.6-2.9,34.2-5.2,47.7-7.7s14.5-4.2,21.1-7.6c20-10.5,37.9-25.4,65.3-16.6s28.6,26.3,43.6,37c7.3,5.2,15.8,7.8,25.8,7.9s15.7-1.1,23.1-2.7c11-2.4,21.8-6.9,31.8-11.1,1.2-.5,2.3-1,3.4-1.5,13-5.9,22.1-11.4,37.5-9.1" style="fill: none; stroke: #fff; stroke-miterlimit: 10; stroke-width: .2px;"/>
        <path d="M-36,141.9c3.3-23.7,34-34.7,63.7-39.7,17.7-3,34.6-5.1,48.4-7.1s14.9-3.8,21.7-7.1c20.7-10.1,38.7-25.1,66.4-15.9s28.1,25.7,42.8,36.4c7.1,5.1,15.4,8,25.2,8.2s15.4-.8,22.7-2.4c10.8-2.3,21.4-6.7,31.2-11,1.1-.5,2.2-1,3.3-1.5,12.6-6.1,21.2-12.4,36.5-10.4" style="fill: none; stroke: #fff; stroke-miterlimit: 10; stroke-width: .2px;"/>
        <path d="M-34.1,143.5c2.4-25.9,33-37.6,63.3-42.8,17.7-3,35.1-4.9,49.2-6.6s15.3-3.5,22.3-6.6c21.3-9.8,39.6-24.9,67.5-15.1s27.6,25.1,42,35.8c6.9,5.1,14.9,8.1,24.7,8.6s15.1-.6,22.3-2c10.7-2.2,21-6.4,30.6-10.9,1.1-.5,2.2-1,3.2-1.6,12.3-6.4,20.3-13.4,35.6-11.6" style="fill: none; stroke: #fff; stroke-miterlimit: 10; stroke-width: .2px;"/>
        <path d="M-32.2,145C-30.6,117-.2,104.6,30.8,99.1c17.8-3.1,35.6-4.7,49.9-6s15.8-3.1,22.8-6.2c21.9-9.4,40.4-24.6,68.6-14.3,17.7,6.5,27.1,24.5,41.2,35.2,6.7,5,14.5,8.2,24.1,8.9s14.8-.3,21.9-1.7c10.5-2.1,20.7-6.2,30-10.8,1.1-.5,2.1-1.1,3.1-1.6,11.9-6.6,19.5-14.4,34.7-12.8" style="fill: none; stroke: #fff; stroke-miterlimit: 10; stroke-width: .2px;"/>
        <path d="M-30.3,146.6c.8-30.2,31-43.3,62.6-49,17.9-3.2,36-4.5,50.6-5.5s16.2-2.7,23.4-5.7c22.6-9.1,41.2-24.4,69.8-13.6s26.7,23.9,40.4,34.5c6.5,5,14,8.4,23.5,9.2,7.2.6,14.5,0,21.6-1.3,10.3-2,20.3-6,29.4-10.6,1-.5,2.1-1.1,3-1.7,11.6-6.9,18.6-15.4,33.7-14" style="fill: none; stroke: #fff; stroke-miterlimit: 10; stroke-width: .2px;"/>
        <path d="M-28.4,148.1c0-32.3,30-46.2,62.2-52.1,18-3.3,36.5-4.4,51.4-4.9s16.6-2.4,24-5.2c23.2-8.7,42-24.2,70.9-12.8s26.2,23.3,39.6,33.9c6.3,5,13.6,8.5,22.9,9.5,7.1.7,14.2.3,21.2-1,10.2-1.9,20-5.7,28.7-10.5,1-.6,2-1.1,2.9-1.7,11.3-7.1,17.7-16.4,32.8-15.2" style="fill: none; stroke: #fff; stroke-miterlimit: 10; stroke-width: .2px;"/>
        <path d="M-26.5,149.7c-1.4-53.4,71.2-59,114-59.5,37.3-.4,58.2-32.4,96.6-16.7,24.6,10.1,32.3,39.5,61.1,43.1,17.1,2.1,34.6-2.8,48.9-11.1,12.9-7.4,18.5-19.2,34.7-18.2" style="fill: none; stroke: #fff; stroke-miterlimit: 10; stroke-width: .2px;"/>
      </g>
      <g style="opacity: 0;">
        <path d="M-7,157.5c23.6,9.8,50.4,18.5,77,10.8,15.2-4.4,28.6-13.8,42.7-20.3,17.8-8.3,41.3-21.6,61.7-13.9,21.5,8.1,39.4,38.5,63.3,37.7,22.4-.8,34.5-18.5,42.6-34.8,9.5-19.2,19.1-32,42.8-37.7,19-4.6,51.9-8.6,70.4-.5" style="fill: none; stroke: #fff; stroke-miterlimit: 10; stroke-width: .2px;"/>
        <path d="M391.4,97.5c-17.3-6.3-49.6-1.6-69,3.3-23.5,5.9-33.8,18.3-43.8,36.7-8.5,15.8-20.6,33-42.6,34.1-19.7,1.1-35.4-18.7-52.7-30.1-3.4-2.2-6.8-4.2-10.4-5.5-20.2-7.7-43.1,4.2-60.9,11.9-5.1,2.2-10.1,4.8-15.2,7.4-8.8,4.6-17.7,9.3-27.3,12.1-10.2,3-20.4,3.7-30.4,3-15.8-1.2-30.9-5.9-45.4-11.5" style="fill: none; stroke: #fff; stroke-miterlimit: 10; stroke-width: .2px;"/>
        <path d="M389.2,96.3c-16.1-4.5-47.8.9-67.5,6.1-23.3,6.1-34.3,18.1-44.7,35.7s-21.1,31.9-42.6,33.4c-19.4,1.4-35-16.9-52.6-28s-6.8-4-10.3-5.4c-20-7.7-42.4,2.8-60.1,9.9-5.1,2-10,4.5-15.1,7-8.8,4.4-17.7,8.9-27.1,11.7-10.1,3-20.2,3.9-30,3.5-15.6-.7-30.1-4.5-44.7-9.8" style="fill: none; stroke: #fff; stroke-miterlimit: 10; stroke-width: .2px;"/>
        <path d="M387.1,95c-15-2.7-46,3.4-66,8.8-23.2,6.3-34.8,17.9-45.6,34.7-9.4,14.5-21.6,30.8-42.6,32.7-19.1,1.7-34.7-15.1-52.4-26s-6.8-3.9-10.2-5.3c-19.8-7.7-41.6,1.4-59.3,7.8-5,1.8-10,4.1-15.1,6.5-8.8,4.2-17.6,8.5-27,11.4-10,3-19.9,4.1-29.6,4-15.4-.2-29.3-3.1-43.9-8.1" style="fill: none; stroke: #fff; stroke-miterlimit: 10; stroke-width: .2px;"/>
        <path d="M384.9,93.7c-13.8-.9-44.2,5.9-64.5,11.6-23,6.5-35.2,17.7-46.5,33.7s-22.1,29.8-42.6,32c-18.8,2.1-34.3-13.4-52.2-24-3.4-2-6.7-3.8-10.2-5.2-19.6-7.7-40.9,0-58.5,5.8s-9.9,3.8-15,6c-8.8,3.9-17.6,8.2-26.8,11-9.9,3-19.7,4.3-29.2,4.5-15.2.3-28.5-1.7-43.2-6.3" style="fill: none; stroke: #fff; stroke-miterlimit: 10; stroke-width: .2px;"/>
        <path d="M382.7,92.5c-12.6.9-42.3,8.4-63,14.4-22.8,6.6-35.7,17.4-47.5,32.7s-22.5,28.7-42.7,31.3-34-11.7-52-22c-3.4-1.9-6.7-3.7-10.1-5.1-19.4-7.7-40.1-1.4-57.7,3.8-4.9,1.5-9.9,3.4-14.9,5.6-8.7,3.7-17.5,7.8-26.7,10.7-9.8,3-19.5,4.4-28.8,5-14.9.8-27.6-.4-42.5-4.6" style="fill: none; stroke: #fff; stroke-miterlimit: 10; stroke-width: .2px;"/>
        <path d="M380.6,91.2c-11.4,2.7-40.5,10.9-61.5,17.2s-36.2,17.2-48.4,31.6c-10.7,12.6-23,27.6-42.7,30.7s-33.6-9.9-51.9-19.9c-3.4-1.9-6.7-3.6-10.1-4.9-19.2-7.7-39.4-2.7-56.9,1.8s-9.8,3.1-14.9,5.1c-8.7,3.5-17.4,7.5-26.5,10.3-9.7,3.1-19.2,4.6-28.3,5.5-14.7,1.3-26.8,1-41.8-2.9" style="fill: none; stroke: #fff; stroke-miterlimit: 10; stroke-width: .2px;"/>
        <path d="M378.4,90c-10.2,4.5-38.7,13.4-60,20-22.4,7-36.7,17-49.3,30.6s-23.5,26.6-42.7,30c-18,3.2-33.3-8.2-51.7-17.9-3.4-1.8-6.7-3.5-10-4.8-19-7.7-38.6-4.1-56.1-.2-4.9,1.1-9.7,2.7-14.8,4.6-8.7,3.2-17.4,7.1-26.4,10-9.6,3.1-19,4.8-27.9,6-14.5,1.8-26,2.4-41-1.2" style="fill: none; stroke: #fff; stroke-miterlimit: 10; stroke-width: .2px;"/>
        <path d="M376.3,88.7c-9,6.3-36.9,15.8-58.5,22.8-22.3,7.1-37.2,16.8-50.3,29.6s-24,25.5-42.7,29.3-32.9-6.5-51.5-15.9c-3.4-1.7-6.6-3.4-9.9-4.7-18.8-7.7-37.9-5.5-55.4-2.2s-9.7,2.4-14.8,4.1c-8.7,3-17.3,6.7-26.2,9.6-9.5,3.1-18.7,5-27.5,6.5-14.3,2.3-25.2,3.8-40.3.6" style="fill: none; stroke: #fff; stroke-miterlimit: 10; stroke-width: .2px;"/>
        <path d="M374.1,87.4c-7.9,8.1-35,18.3-57.1,25.5s-37.7,16.6-51.2,28.6-24.5,24.5-42.7,28.6-32.5-4.8-51.3-13.9-6.6-3.3-9.9-4.6c-18.6-7.7-37.1-6.8-54.6-4.2s-9.6,2-14.7,3.7c-8.7,2.8-17.3,6.4-26.1,9.3-9.4,3.1-18.5,5.2-27.1,7-14.1,2.8-24.4,5.1-39.6,2.3" style="fill: none; stroke: #fff; stroke-miterlimit: 10; stroke-width: .2px;"/>
        <path d="M371.9,86.2c-6.7,9.9-33.2,20.8-55.6,28.3-21.9,7.4-38.2,16.3-52.1,27.6s-25,23.4-42.7,27.9c-17.1,4.3-32.2-3-51.2-11.8s-6.6-3.1-9.8-4.5c-18.5-7.7-36.3-8.2-53.8-6.2-4.7.5-9.6,1.7-14.6,3.2-8.6,2.6-17.2,6-25.9,8.9-9.3,3.1-18.3,5.4-26.7,7.5-13.8,3.3-23.6,6.5-38.9,4" style="fill: none; stroke: #fff; stroke-miterlimit: 10; stroke-width: .2px;"/>
        <path d="M369.8,84.9c-5.5,11.7-31.4,23.2-54.1,31.1s-38.7,16.1-53,26.6-25.4,22.4-42.8,27.2-31.8-1.3-51-9.8-6.6-3-9.8-4.4c-18.3-7.7-35.6-9.6-53-8.2s-9.5,1.3-14.6,2.7c-8.6,2.4-17.1,5.7-25.7,8.6-9.1,3.1-18,5.6-26.2,8-13.6,3.9-22.8,7.9-38.1,5.8" style="fill: none; stroke: #fff; stroke-miterlimit: 10; stroke-width: .2px;"/>
        <path d="M367.6,83.6c-4.3,13.4-29.6,25.7-52.6,33.9s-39.2,15.9-54,25.6-25.9,21.4-42.8,26.5-31.4.4-50.8-7.8c-3.3-1.4-6.5-2.9-9.7-4.3-18.1-7.7-34.8-10.9-52.2-10.2s-9.4,1-14.5,2.2c-8.6,2.1-17.1,5.3-25.6,8.2-9,3.1-17.8,5.8-25.8,8.5-13.4,4.4-22,9.3-37.4,7.5" style="fill: none; stroke: #fff; stroke-miterlimit: 10; stroke-width: .2px;"/>
        <path d="M365.5,82.4c-3.1,15.2-27.8,28.1-51.1,36.7-21.4,7.8-39.8,15.6-54.9,24.6-13.9,8.2-26.4,20.3-42.8,25.8-16.3,5.4-31.1,2.1-50.7-5.8-3.3-1.3-6.5-2.8-9.7-4.2-17.9-7.7-34-12.3-51.4-12.3-4.6,0-9.4.6-14.4,1.8-8.6,1.9-17,4.9-25.4,7.9-8.9,3.1-17.5,6-25.4,9-13.2,4.9-21.2,10.6-36.7,9.2" style="fill: none; stroke: #fff; stroke-miterlimit: 10; stroke-width: .2px;"/>
        <path d="M363.3,81.1c-2,17-26,30.6-49.6,39.4s-40.3,15.4-55.8,23.5-26.9,19.3-42.8,25.1c-16,5.8-30.7,3.8-50.5-3.7-3.3-1.3-6.5-2.7-9.6-4.1-17.7-7.7-33.3-13.6-50.6-14.3-4.5-.2-9.3.3-14.4,1.3-8.5,1.7-17,4.6-25.3,7.5-8.8,3.1-17.3,6.2-25,9.5-13,5.4-20.4,12-36,11" style="fill: none; stroke: #fff; stroke-miterlimit: 10; stroke-width: .2px;"/>
        <path d="M361.1,79.9c-.8,18.8-24.1,33-48.1,42.2-21.1,8.1-40.8,15.1-56.7,22.5s-27.3,18.3-42.8,24.4-30.3,5.5-50.3-1.7-6.5-2.6-9.5-3.9c-17.5-7.7-32.5-14.9-49.8-16.3-4.5-.3-9.2,0-14.3.8-8.5,1.5-16.9,4.2-25.1,7.2-8.7,3.1-17,6.5-24.6,10-12.7,5.9-19.5,13.4-35.2,12.7" style="fill: none; stroke: #fff; stroke-miterlimit: 10; stroke-width: .2px;"/>
        <path d="M359,78.6c.4,20.6-22.3,35.5-46.6,45-20.9,8.2-41.3,14.9-57.7,21.5s-27.8,17.3-42.8,23.7-29.9,7.2-50.1.3c-3.3-1.1-6.4-2.5-9.5-3.8-17.3-7.7-31.8-16.3-49-18.3-4.5-.5-9.2-.4-14.3.4-8.5,1.3-16.9,3.8-25,6.8-8.6,3.2-16.8,6.7-24.1,10.5-12.5,6.5-18.7,14.8-34.5,14.4" style="fill: none; stroke: #fff; stroke-miterlimit: 10; stroke-width: .2px;"/>
        <path d="M356.8,77.3c1.6,22.4-20.5,37.9-45.2,47.8s-41.8,14.6-58.6,20.5-28.3,16.2-42.8,23-29.6,8.9-50,2.3-6.4-2.4-9.4-3.7c-17.1-7.7-31-17.6-48.3-20.3s-9.1-.7-14.2-.1c-8.5,1-16.8,3.5-24.8,6.5-8.5,3.2-16.6,6.9-23.7,11-12.3,7-17.9,16.1-33.8,16.1" style="fill: none; stroke: #fff; stroke-miterlimit: 10; stroke-width: .2px;"/>
        <path d="M354.7,76.1c2.8,24.2-18.7,40.3-43.7,50.6-20.6,8.4-42.4,14.3-59.5,19.5s-28.8,15.2-42.9,22.3-29.2,10.6-49.8,4.3c-3.3-1-6.4-2.2-9.4-3.6-16.9-7.7-30.2-18.9-47.5-22.3s-9-1.1-14.1-.6c-8.4.8-16.7,3.1-24.7,6.1-8.4,3.2-16.3,7.1-23.3,11.5-12.1,7.5-17.1,17.5-33.1,17.9" style="fill: none; stroke: #fff; stroke-miterlimit: 10; stroke-width: .2px;"/>
        <path d="M352.5,74.8c4,26-16.9,42.8-42.2,53.3s-42.9,14.1-60.4,18.5-29.2,14.2-42.9,21.6c-14.5,7.8-28.8,12.2-49.6,6.4s-6.3-2.1-9.3-3.5c-16.7-7.7-29.5-20.2-46.7-24.3s-9-1.4-14.1-1.1c-8.4.6-16.7,2.8-24.5,5.8-8.3,3.2-16.1,7.3-22.9,12-11.8,8.1-16.3,18.9-32.3,19.6" style="fill: none; stroke: #fff; stroke-miterlimit: 10; stroke-width: .2px;"/>
        <path d="M350.3,73.5c5.1,27.8-15.1,45.1-40.7,56.1-20.3,8.6-43.4,13.8-61.4,17.5s-29.7,13.2-42.9,20.9c-14.2,8.2-28.4,13.9-49.4,8.4-3.3-.9-6.3-2-9.2-3.4-16.5-7.7-28.7-21.5-45.9-26.3s-8.9-1.8-14-1.5c-8.4.4-16.6,2.4-24.4,5.4-8.2,3.2-15.8,7.5-22.5,12.5-11.6,8.6-15.5,20.3-31.6,21.3" style="fill: none; stroke: #fff; stroke-miterlimit: 10; stroke-width: .2px;"/>
        <path d="M348.2,72.3c11.2,52.5-59.4,68.6-101.5,75.4-36.7,5.9-51.4,40.5-92.2,30.6-26.2-6.3-39.1-34.2-68.2-33.6-17.2.4-33.6,7.9-46.2,18-11.3,9.2-14.7,21.6-30.9,23.1" style="fill: none; stroke: #fff; stroke-miterlimit: 10; stroke-width: .2px;"/>
      </g>
    </g>
  </g>
</svg>